{
	"asset":{
		"generator":"Khronos glTF Blender I/O v3.6.27",
		"version":"2.0"
	},
	"scene":0,
	"scenes":[
		{
			"name":"Scene",
			"nodes":[
				0
			]
		}
	],
	"nodes":[
		{
			"mesh":0,
			"name":"\u6a4b"
		}
	],
	"materials":[
		{
			"doubleSided":true,
			"name":"\u30de\u30c6\u30ea\u30a2\u30eb",
			"pbrMetallicRoughness":{
				"baseColorTexture":{
					"index":0
				},
				"metallicFactor":0,
				"roughnessFactor":0.5
			}
		}
	],
	"meshes":[
		{
			"name":"\u7acb\u65b9\u4f53",
			"primitives":[
				{
					"attributes":{
						"POSITION":0,
						"NORMAL":1,
						"TEXCOORD_0":2
					},
					"indices":3,
					"material":0
				}
			]
		}
	],
	"textures":[
		{
			"sampler":0,
			"source":0
		}
	],
	"images":[
		{
			"mimeType":"image/png",
			"name":"railColor",
			"uri":"railColor.png"
		}
	],
	"accessors":[
		{
			"bufferView":0,
			"componentType":5126,
			"count":74075,
			"max":[
				4799.95556640625,
				303.51806640625,
				65.57757568359375
			],
			"min":[
				-4800.04443359375,
				-302.99609375,
				-65.23443603515625
			],
			"type":"VEC3"
		},
		{
			"bufferView":1,
			"componentType":5126,
			"count":74075,
			"type":"VEC3"
		},
		{
			"bufferView":2,
			"componentType":5126,
			"count":74075,
			"type":"VEC2"
		},
		{
			"bufferView":3,
			"componentType":5125,
			"count":167040,
			"type":"SCALAR"
		}
	],
	"bufferViews":[
		{
			"buffer":0,
			"byteLength":888900,
			"byteOffset":0,
			"target":34962
		},
		{
			"buffer":0,
			"byteLength":888900,
			"byteOffset":888900,
			"target":34962
		},
		{
			"buffer":0,
			"byteLength":592600,
			"byteOffset":1777800,
			"target":34962
		},
		{
			"buffer":0,
			"byteLength":668160,
			"byteOffset":2370400,
			"target":34963
		}
	],
	"samplers":[
		{
			"magFilter":9729,
			"minFilter":9987
		}
	],
	"buffers":[
		{
			"byteLength":3038560,
			"uri":"trainBridge.bin"
		}
	]
}
