# Blender 3.3.1
# www.blender.org
mtllib gear.mtl
o スクラップ(歯車}
v 0.000000 -0.100000 -0.245102
v 0.000000 0.100000 -0.245102
v 0.093797 -0.100000 -0.226445
v 0.093797 0.100000 -0.226445
v 0.173313 -0.100000 -0.173313
v 0.173313 0.100000 -0.173313
v 0.226445 -0.100000 -0.093797
v 0.226445 0.100000 -0.093797
v 0.245102 -0.100000 0.000000
v 0.245102 0.100000 0.000000
v 0.226445 -0.100000 0.093797
v 0.226445 0.100000 0.093797
v 0.173313 -0.100000 0.173313
v 0.173313 0.100000 0.173313
v 0.093797 -0.100000 0.226445
v 0.093797 0.100000 0.226445
v 0.000000 -0.100000 0.245102
v 0.000000 0.100000 0.245102
v -0.093797 -0.100000 0.226445
v -0.093797 0.100000 0.226445
v -0.173313 -0.100000 0.173313
v -0.173313 0.100000 0.173313
v -0.226445 -0.100000 0.093797
v -0.226445 0.100000 0.093797
v -0.245102 -0.100000 0.000000
v -0.245102 0.100000 0.000000
v -0.226445 -0.100000 -0.093797
v -0.226445 0.100000 -0.093797
v -0.173313 -0.100000 -0.173313
v -0.173313 0.100000 -0.173313
v -0.093797 -0.100000 -0.226445
v -0.093797 0.100000 -0.226445
v -0.048773 -0.100000 -0.745196
v -0.048773 0.100000 -0.745196
v 0.330234 0.100000 -0.669807
v 0.330234 -0.100000 -0.669807
v 0.492446 -0.100000 -0.561421
v 0.492446 0.100000 -0.561421
v 0.707136 0.100000 -0.240114
v 0.707136 -0.100000 -0.240114
v 0.745196 -0.100000 -0.048773
v 0.745196 0.100000 -0.048773
v 0.669807 0.100000 0.330234
v 0.669807 -0.100000 0.330234
v 0.561421 -0.100000 0.492446
v 0.561421 0.100000 0.492446
v 0.240114 0.100000 0.707136
v 0.240114 -0.100000 0.707136
v 0.048773 -0.100000 0.745196
v 0.048773 0.100000 0.745196
v -0.330234 0.100000 0.669807
v -0.330234 -0.100000 0.669807
v -0.492446 -0.100000 0.561421
v -0.492446 0.100000 0.561421
v -0.707136 0.100000 0.240114
v -0.707136 -0.100000 0.240114
v -0.745196 -0.100000 0.048773
v -0.745196 0.100000 0.048773
v -0.669807 0.100000 -0.330234
v -0.669807 -0.100000 -0.330234
v -0.561421 -0.100000 -0.492446
v -0.561421 0.100000 -0.492446
v -0.240114 0.100000 -0.707136
v -0.240114 -0.100000 -0.707136
v 0.000000 -0.100000 -0.500000
v 0.191342 -0.100000 -0.461940
v 0.191342 0.100000 -0.461940
v 0.000000 0.100000 -0.500000
v 0.353553 -0.100000 -0.353553
v 0.353553 0.100000 -0.353553
v 0.461940 -0.100000 -0.191342
v 0.461940 0.100000 -0.191342
v 0.500000 -0.100000 0.000000
v 0.500000 0.100000 0.000000
v 0.461940 -0.100000 0.191342
v 0.461940 0.100000 0.191342
v 0.353553 -0.100000 0.353553
v 0.353553 0.100000 0.353553
v 0.191342 -0.100000 0.461940
v 0.191342 0.100000 0.461940
v 0.000000 -0.100000 0.500000
v 0.000000 0.100000 0.500000
v -0.191342 -0.100000 0.461940
v -0.191342 0.100000 0.461940
v -0.353553 -0.100000 0.353553
v -0.353553 0.100000 0.353553
v -0.461940 -0.100000 0.191342
v -0.461940 0.100000 0.191342
v -0.500000 -0.100000 0.000000
v -0.500000 0.100000 0.000000
v -0.461940 -0.100000 -0.191342
v -0.461940 0.100000 -0.191342
v -0.353553 -0.100000 -0.353553
v -0.353553 0.100000 -0.353553
v -0.191342 -0.100000 -0.461940
v -0.191342 0.100000 -0.461940
vn 0.1951 -0.0000 -0.9808
vn 0.9808 -0.0000 -0.1951
vn 0.8315 -0.0000 -0.5556
vn -0.0000 -1.0000 -0.0000
vn 0.9808 -0.0000 0.1951
vn -0.0000 1.0000 -0.0000
vn 0.5556 -0.0000 0.8315
vn 0.1951 -0.0000 0.9808
vn -0.1951 -0.0000 0.9808
vn 0.8315 -0.0000 0.5556
vn -0.8315 -0.0000 0.5556
vn -0.9808 -0.0000 -0.1951
vn -0.5556 -0.0000 -0.8315
vn -0.9808 -0.0000 0.1951
vn 0.5556 -0.0000 -0.8315
vn -0.5556 -0.0000 0.8315
vn -0.8315 -0.0000 -0.5556
vn -0.1951 -0.0000 -0.9808
vt 0.750000 0.367649
vt 0.250000 0.367649
vt 0.795022 0.358694
vt 0.295022 0.358694
vt 0.833191 0.333190
vt 0.333190 0.333190
vt 0.858693 0.295022
vt 0.358694 0.295022
vt 0.867649 0.250000
vt 0.367649 0.250000
vt 0.858693 0.204978
vt 0.358694 0.204978
vt 0.833191 0.166810
vt 0.333190 0.166810
vt 0.795022 0.141306
vt 0.295022 0.141306
vt 0.750000 0.132351
vt 0.250000 0.132351
vt 0.704978 0.141306
vt 0.204978 0.141306
vt 0.666810 0.166810
vt 0.166810 0.166810
vt 0.641306 0.204978
vt 0.141306 0.204978
vt 0.632351 0.250000
vt 0.132351 0.250000
vt 0.641306 0.295022
vt 0.141306 0.295022
vt 0.666809 0.333190
vt 0.166810 0.333190
vt 0.704978 0.358694
vt 0.204978 0.358694
vt 0.750000 0.490000
vt 0.000000 0.500000
vt 1.000000 0.500000
vt 0.250000 0.490000
vt 0.000000 1.000000
vt 1.000000 1.000000
vt 0.341844 0.471731
vt 0.937500 1.000000
vt 0.937500 0.500000
vt 0.841844 0.471731
vt 0.875000 0.500000
vt 0.919706 0.419706
vt 0.419706 0.419706
vt 0.875000 1.000000
vt 0.471731 0.341844
vt 0.812500 1.000000
vt 0.812500 0.500000
vt 0.971731 0.341844
vt 0.990000 0.250000
vt 0.750000 0.500000
vt 0.490000 0.250000
vt 0.750000 1.000000
vt 0.687500 1.000000
vt 0.471731 0.158156
vt 0.687500 0.500000
vt 0.971731 0.158156
vt 0.919706 0.080294
vt 0.625000 0.500000
vt 0.419706 0.080294
vt 0.625000 1.000000
vt 0.341844 0.028269
vt 0.562500 1.000000
vt 0.562500 0.500000
vt 0.841844 0.028269
vt 0.750000 0.010000
vt 0.500000 0.500000
vt 0.250000 0.010000
vt 0.500000 1.000000
vt 0.437500 1.000000
vt 0.158156 0.028269
vt 0.437500 0.500000
vt 0.658156 0.028269
vt 0.580294 0.080294
vt 0.375000 0.500000
vt 0.080294 0.080294
vt 0.375000 1.000000
vt 0.028269 0.158156
vt 0.312500 1.000000
vt 0.528269 0.158156
vt 0.312500 0.500000
vt 0.510000 0.250000
vt 0.250000 0.500000
vt 0.010000 0.250000
vt 0.250000 1.000000
vt 0.187500 1.000000
vt 0.028269 0.341844
vt 0.187500 0.500000
vt 0.528269 0.341844
vt 0.580294 0.419706
vt 0.125000 0.500000
vt 0.080294 0.419706
vt 0.125000 1.000000
vt 0.158156 0.471731
vt 0.062500 1.000000
vt 0.658156 0.471731
vt 0.062500 0.500000
vt 1.000000 0.500000
vt 0.750000 0.490000
vt 0.937500 0.500000
vt 0.841844 0.471731
vt 0.937500 1.000000
vt 0.341844 0.471731
vt 1.000000 1.000000
vt 0.250000 0.490000
vt 0.875000 0.500000
vt 0.919706 0.419706
vt 0.875000 1.000000
vt 0.419706 0.419706
vt 0.812500 0.500000
vt 0.971731 0.341844
vt 0.812500 1.000000
vt 0.471731 0.341844
vt 0.750000 0.500000
vt 0.990000 0.250000
vt 0.750000 1.000000
vt 0.490000 0.250000
vt 0.687500 0.500000
vt 0.971731 0.158156
vt 0.687500 1.000000
vt 0.471731 0.158156
vt 0.625000 0.500000
vt 0.919706 0.080294
vt 0.625000 1.000000
vt 0.419706 0.080294
vt 0.562500 0.500000
vt 0.841844 0.028269
vt 0.562500 1.000000
vt 0.341844 0.028269
vt 0.500000 0.500000
vt 0.750000 0.010000
vt 0.500000 1.000000
vt 0.250000 0.010000
vt 0.437500 0.500000
vt 0.658156 0.028269
vt 0.437500 1.000000
vt 0.158156 0.028269
vt 0.375000 0.500000
vt 0.580294 0.080294
vt 0.375000 1.000000
vt 0.080294 0.080294
vt 0.312500 0.500000
vt 0.528269 0.158156
vt 0.312500 1.000000
vt 0.028269 0.158156
vt 0.250000 0.500000
vt 0.510000 0.250000
vt 0.250000 1.000000
vt 0.010000 0.250000
vt 0.187500 0.500000
vt 0.528269 0.341844
vt 0.187500 1.000000
vt 0.028269 0.341844
vt 0.125000 0.500000
vt 0.580294 0.419706
vt 0.125000 1.000000
vt 0.080294 0.419706
vt 0.062500 0.500000
vt 0.658156 0.471731
vt 0.062500 1.000000
vt 0.158156 0.471731
s 0
usemtl マテリアル.004
f 68/105/1 66/101/1 65/99/1
f 80/129/2 48/65/2 79/127/2
f 70/109/3 71/111/3 69/107/3
f 87/144/4 57/83/4 89/148/4
f 74/117/5 75/119/5 73/115/5
f 96/162/6 34/36/6 63/95/6
f 78/125/7 79/127/7 77/123/7
f 88/145/8 56/82/8 87/143/8
f 82/133/9 83/135/9 81/131/9
f 69/107/10 38/46/10 70/109/10
f 86/141/11 87/143/11 85/139/11
f 95/160/4 33/33/4 65/100/4
f 90/149/12 91/151/12 89/147/12
f 70/110/6 35/39/6 67/104/6
f 30/30/7 31/31/7 32/32/7
f 94/157/13 95/159/13 93/155/13
f 96/161/14 64/98/14 95/159/14
f 32/32/8 1/1/8 2/2/8
f 35/40/15 37/43/15 36/41/15
f 39/48/2 41/52/2 40/49/2
f 43/55/10 45/60/10 44/57/10
f 47/64/8 49/68/8 48/65/8
f 51/71/16 53/76/16 52/73/16
f 55/80/14 57/84/14 56/82/14
f 59/87/17 61/92/17 60/89/17
f 63/96/18 33/34/18 64/98/18
f 88/146/6 58/85/6 55/79/6
f 79/128/4 49/67/4 81/132/4
f 72/113/18 40/49/18 71/111/18
f 89/147/18 58/86/18 90/149/18
f 80/130/6 50/69/6 47/63/6
f 71/112/4 41/51/4 73/116/4
f 81/131/14 50/70/14 82/133/14
f 72/114/6 42/53/6 39/47/6
f 73/115/8 42/54/8 74/117/8
f 92/153/16 60/89/16 91/151/16
f 91/152/4 61/91/4 93/156/4
f 84/137/10 52/73/10 83/135/10
f 94/158/6 59/88/6 92/154/6
f 83/136/4 53/75/4 85/140/4
f 76/121/15 44/57/15 75/119/15
f 93/155/15 62/94/15 94/157/15
f 65/99/2 34/38/2 68/105/2
f 86/142/6 51/72/6 84/138/6
f 75/120/4 45/59/4 77/124/4
f 67/103/17 36/41/17 66/101/17
f 85/139/17 54/78/17 86/141/17
f 78/126/6 43/56/6 76/122/6
f 66/102/4 37/44/4 69/108/4
f 77/123/16 46/62/16 78/125/16
f 1/1/4 66/102/4 3/3/4
f 4/4/6 68/106/6 2/2/6
f 3/3/4 69/108/4 5/5/4
f 6/6/6 67/104/6 4/4/6
f 5/5/4 71/112/4 7/7/4
f 8/8/6 70/110/6 6/6/6
f 7/7/4 73/116/4 9/9/4
f 10/10/6 72/114/6 8/8/6
f 9/9/4 75/120/4 11/11/4
f 12/12/6 74/118/6 10/10/6
f 11/11/4 77/124/4 13/13/4
f 14/14/6 76/122/6 12/12/6
f 13/13/4 79/128/4 15/15/4
f 16/16/6 78/126/6 14/14/6
f 15/15/4 81/132/4 17/17/4
f 18/18/6 80/130/6 16/16/6
f 17/17/4 83/136/4 19/19/4
f 20/20/6 82/134/6 18/18/6
f 19/19/4 85/140/4 21/21/4
f 22/22/6 84/138/6 20/20/6
f 21/21/4 87/144/4 23/23/4
f 24/24/6 86/142/6 22/22/6
f 23/23/4 89/148/4 25/25/4
f 26/26/6 88/146/6 24/24/6
f 25/25/4 91/152/4 27/27/4
f 28/28/6 90/150/6 26/26/6
f 27/27/4 93/156/4 29/29/4
f 30/30/6 92/154/6 28/28/6
f 29/29/4 95/160/4 31/31/4
f 32/32/6 94/158/6 30/30/6
f 31/31/4 65/100/4 1/1/4
f 2/2/6 96/162/6 32/32/6
f 28/28/10 29/29/10 30/30/10
f 26/26/5 27/27/5 28/28/5
f 24/24/2 25/25/2 26/26/2
f 22/22/3 23/23/3 24/24/3
f 20/20/15 21/21/15 22/22/15
f 18/18/1 19/19/1 20/20/1
f 16/16/18 17/17/18 18/18/18
f 14/14/13 15/15/13 16/16/13
f 12/12/17 13/13/17 14/14/17
f 10/10/12 11/11/12 12/12/12
f 8/8/14 9/9/14 10/10/14
f 6/6/11 7/7/11 8/8/11
f 4/4/16 5/5/16 6/6/16
f 2/2/9 3/3/9 4/4/9
f 68/105/1 67/103/1 66/101/1
f 80/129/2 47/64/2 48/65/2
f 70/109/3 72/113/3 71/111/3
f 87/144/4 56/81/4 57/83/4
f 74/117/5 76/121/5 75/119/5
f 96/162/6 68/106/6 34/36/6
f 78/125/7 80/129/7 79/127/7
f 88/145/8 55/80/8 56/82/8
f 82/133/9 84/137/9 83/135/9
f 69/107/10 37/43/10 38/46/10
f 86/141/11 88/145/11 87/143/11
f 95/160/4 64/97/4 33/33/4
f 90/149/12 92/153/12 91/151/12
f 70/110/6 38/45/6 35/39/6
f 30/30/7 29/29/7 31/31/7
f 94/157/13 96/161/13 95/159/13
f 96/161/14 63/96/14 64/98/14
f 32/32/8 31/31/8 1/1/8
f 35/40/15 38/46/15 37/43/15
f 39/48/2 42/54/2 41/52/2
f 43/55/10 46/62/10 45/60/10
f 47/64/8 50/70/8 49/68/8
f 51/71/16 54/78/16 53/76/16
f 55/80/14 58/86/14 57/84/14
f 59/87/17 62/94/17 61/92/17
f 63/96/18 34/37/18 33/34/18
f 88/146/6 90/150/6 58/85/6
f 79/128/4 48/66/4 49/67/4
f 72/113/18 39/48/18 40/49/18
f 89/147/18 57/84/18 58/86/18
f 80/130/6 82/134/6 50/69/6
f 71/112/4 40/50/4 41/51/4
f 81/131/14 49/68/14 50/70/14
f 72/114/6 74/118/6 42/53/6
f 73/115/8 41/52/8 42/54/8
f 92/153/16 59/87/16 60/89/16
f 91/152/4 60/90/4 61/91/4
f 84/137/10 51/71/10 52/73/10
f 94/158/6 62/93/6 59/88/6
f 83/136/4 52/74/4 53/75/4
f 76/121/15 43/55/15 44/57/15
f 93/155/15 61/92/15 62/94/15
f 65/99/2 33/35/2 34/38/2
f 86/142/6 54/77/6 51/72/6
f 75/120/4 44/58/4 45/59/4
f 67/103/17 35/40/17 36/41/17
f 85/139/17 53/76/17 54/78/17
f 78/126/6 46/61/6 43/56/6
f 66/102/4 36/42/4 37/44/4
f 77/123/16 45/60/16 46/62/16
f 1/1/4 65/100/4 66/102/4
f 4/4/6 67/104/6 68/106/6
f 3/3/4 66/102/4 69/108/4
f 6/6/6 70/110/6 67/104/6
f 5/5/4 69/108/4 71/112/4
f 8/8/6 72/114/6 70/110/6
f 7/7/4 71/112/4 73/116/4
f 10/10/6 74/118/6 72/114/6
f 9/9/4 73/116/4 75/120/4
f 12/12/6 76/122/6 74/118/6
f 11/11/4 75/120/4 77/124/4
f 14/14/6 78/126/6 76/122/6
f 13/13/4 77/124/4 79/128/4
f 16/16/6 80/130/6 78/126/6
f 15/15/4 79/128/4 81/132/4
f 18/18/6 82/134/6 80/130/6
f 17/17/4 81/132/4 83/136/4
f 20/20/6 84/138/6 82/134/6
f 19/19/4 83/136/4 85/140/4
f 22/22/6 86/142/6 84/138/6
f 21/21/4 85/140/4 87/144/4
f 24/24/6 88/146/6 86/142/6
f 23/23/4 87/144/4 89/148/4
f 26/26/6 90/150/6 88/146/6
f 25/25/4 89/148/4 91/152/4
f 28/28/6 92/154/6 90/150/6
f 27/27/4 91/152/4 93/156/4
f 30/30/6 94/158/6 92/154/6
f 29/29/4 93/156/4 95/160/4
f 32/32/6 96/162/6 94/158/6
f 31/31/4 95/160/4 65/100/4
f 2/2/6 68/106/6 96/162/6
f 28/28/10 27/27/10 29/29/10
f 26/26/5 25/25/5 27/27/5
f 24/24/2 23/23/2 25/25/2
f 22/22/3 21/21/3 23/23/3
f 20/20/15 19/19/15 21/21/15
f 18/18/1 17/17/1 19/19/1
f 16/16/18 15/15/18 17/17/18
f 14/14/13 13/13/13 15/15/13
f 12/12/17 11/11/17 13/13/17
f 10/10/12 9/9/12 11/11/12
f 8/8/14 7/7/14 9/9/14
f 6/6/11 5/5/11 7/7/11
f 4/4/16 3/3/16 5/5/16
f 2/2/9 1/1/9 3/3/9
