# Blender 5.0.1
# www.blender.org
mtllib enemyWeaponSG01.mtl
o 小型近接敵武器
v -0.225000 -0.225000 0.281250
v -0.225000 0.225000 0.281250
v -0.281250 -0.281250 -0.281250
v -0.281250 0.281250 -0.281250
v 0.225000 -0.225000 0.281250
v 0.225000 0.225000 0.281250
v 0.281250 -0.281250 -0.281250
v 0.281250 0.281250 -0.281250
v -0.281250 -0.281250 0.281250
v -0.281250 0.281250 0.281250
v 0.281250 0.281250 0.281250
v 0.281250 -0.281250 0.281250
v -0.225000 -0.225000 0.421875
v -0.225000 0.225000 0.421875
v 0.225000 0.225000 0.421875
v 0.225000 -0.225000 0.421875
v 0.000000 0.000000 0.871875
v 0.112500 0.112500 0.646875
v -0.112500 0.112500 0.646875
v 0.112500 -0.112500 0.646875
v -0.112500 -0.112500 0.646875
v 0.056250 0.056250 0.759375
v 0.168750 0.168750 0.534375
v -0.056250 0.056250 0.759375
v -0.168750 0.168750 0.534375
v 0.056250 -0.056250 0.759375
v 0.168750 -0.168750 0.534375
v -0.168750 -0.168750 0.534375
v -0.056250 -0.056250 0.759375
v -0.196875 -0.196875 0.478125
v 0.028125 0.028125 0.815625
v 0.028125 -0.028125 0.815625
v -0.028125 0.028125 0.815625
v 0.140625 0.140625 0.590625
v -0.140625 0.140625 0.590625
v 0.140625 -0.140625 0.590625
v -0.084375 -0.084375 0.703125
v 0.084375 0.084375 0.703125
v 0.196875 0.196875 0.478125
v -0.084375 0.084375 0.703125
v -0.196875 0.196875 0.478125
v 0.084375 -0.084375 0.703125
v 0.196875 -0.196875 0.478125
v -0.140625 -0.140625 0.590625
v -0.028125 -0.028125 0.815625
v 0.140625 -0.140625 0.590625
v 0.112500 -0.112500 0.646875
v 0.084375 -0.084375 0.703125
v 0.028125 -0.028125 0.815625
v -0.112500 0.112500 0.646875
v -0.084375 0.084375 0.703125
v -0.056250 0.056250 0.759375
v -0.028125 0.028125 0.815625
vn -1.0000 -0.0000 -0.0000
vn -0.0000 -0.0000 -1.0000
vn 1.0000 -0.0000 -0.0000
vn -0.0000 1.0000 -0.0000
vn -0.0000 -1.0000 -0.0000
vn -0.0000 -0.0000 1.0000
vn 0.8944 -0.0000 0.4472
vn 0.8944 -0.0000 -0.4472
vn -0.0000 0.8944 0.4472
vn -0.8944 -0.0000 0.4472
vn -0.0000 -0.8944 0.4472
vn -0.1240 -0.9923 -0.0000
vn 0.2425 0.9701 -0.0000
vn -0.0000 -0.9062 -0.4229
vn -0.8268 -0.5622 0.0165
vn -0.2408 -0.9631 0.1204
vn -0.0000 0.9945 -0.1047
vn 0.2498 -0.9678 0.0312
vt 0.105678 0.741332
vt 0.165491 0.681519
vt 0.225304 0.741332
vt 0.165491 0.801145
vt 0.285117 0.801145
vt 0.225304 0.860958
vt 0.344930 0.860958
vt 0.285117 0.920771
vt 0.633926 0.423725
vt 0.633926 0.586010
vt 0.583211 0.586010
vt 0.583211 0.423725
vt 0.165491 0.920771
vt 0.105678 0.860958
vt 0.285117 0.681519
vt 0.344930 0.741332
vt 0.105678 0.729369
vt 0.153528 0.681519
vt 0.344930 0.872920
vt 0.297079 0.920771
vt 0.153528 0.920771
vt 0.105678 0.872920
vt 0.297079 0.681519
vt 0.344930 0.729369
vt 0.610398 0.708994
vt 0.610580 0.709240
vt 0.591418 0.687801
vt 0.633926 0.261439
vt 0.583211 0.261439
vt 0.633926 0.099153
vt 0.583211 0.099153
vt 0.633926 0.748296
vt 0.583211 0.748296
vt 0.750244 0.366943
vt 0.764097 0.397865
vt 0.722599 0.397891
vt 0.285300 0.183246
vt 0.311098 0.154535
vt 0.285420 0.183170
vt 0.750284 0.428804
vt 0.343168 0.095159
vt 0.445827 0.324710
vt 0.407329 0.324710
vt 0.317503 0.123853
vt 0.343168 0.554262
vt 0.317503 0.525568
vt 0.103631 0.630779
vt 0.107909 0.592521
vt 0.103631 0.018641
vt 0.107909 0.056900
vt 0.890084 0.617823
vt 0.663507 0.690200
vt 0.668131 0.648842
vt 0.862340 0.586804
vt 0.549692 0.695222
vt 0.568872 0.673991
vt 0.549727 0.695226
vt 0.717924 0.356687
vt 0.750194 0.366937
vt 0.750549 0.429164
vt 0.717924 0.439573
vt 0.890084 0.183558
vt 0.987188 0.400690
vt 0.945572 0.400690
vt 0.862340 0.214577
vt 0.663507 0.111181
vt 0.668131 0.152539
vt 0.131101 0.096588
vt 0.135303 0.134957
vt 0.350693 0.725113
vt 0.372441 0.701879
vt 0.372536 0.701822
vt 0.351962 0.723804
vt 0.674485 0.179009
vt 0.853662 0.240747
vt 0.821940 0.274639
vt 0.678597 0.225248
vt 0.403476 0.777978
vt 0.426987 0.770796
vt 0.428422 0.770385
vt 0.403499 0.777996
vt 0.476434 0.702027
vt 0.495429 0.680756
vt 0.495463 0.680760
vt 0.164964 0.192928
vt 0.267449 0.228055
vt 0.244820 0.252310
vt 0.167956 0.225964
vt 0.699070 0.281309
vt 0.796155 0.312236
vt 0.768449 0.343263
vt 0.703725 0.322645
vt 0.166283 0.246807
vt 0.226241 0.266288
vt 0.200361 0.294935
vt 0.170382 0.285194
vt 0.610336 0.666580
vt 0.610370 0.666584
vt 0.251732 0.323899
vt 0.213153 0.323746
vt 0.200408 0.294941
vt 0.796206 0.312242
vt 0.837814 0.405331
vt 0.796187 0.405322
vt 0.268849 0.226607
vt 0.313513 0.332406
vt 0.278358 0.331665
vt 0.244860 0.252315
vt 0.853801 0.240664
vt 0.923283 0.405945
vt 0.879377 0.404954
vt 0.823791 0.272729
vt 0.387805 0.326640
vt 0.349343 0.326592
vt 0.310664 0.498551
vt 0.131101 0.555661
vt 0.135423 0.517442
vt 0.285059 0.469851
vt 0.846412 0.567922
vt 0.674485 0.618783
vt 0.680305 0.575252
vt 0.817847 0.534564
vt 0.367471 0.926176
vt 0.347887 0.903307
vt 0.343090 0.877678
vt 0.343115 0.877673
vt 0.347910 0.903288
vt 0.264417 0.436268
vt 0.154247 0.468919
vt 0.158892 0.434044
vt 0.241520 0.409556
vt 0.796137 0.498430
vt 0.699070 0.529415
vt 0.703701 0.488076
vt 0.768412 0.467420
vt 0.495437 0.808384
vt 0.495416 0.808403
vt 0.476409 0.787143
vt 0.476417 0.787109
vt 0.225774 0.381353
vt 0.166283 0.400098
vt 0.170677 0.362155
vt 0.200422 0.352782
vt 0.568534 0.759232
vt 0.568526 0.759266
vt 0.549738 0.738093
vt 0.549558 0.737847
vt 0.225785 0.381307
vt 0.200180 0.352450
vt 0.796168 0.498402
vt 0.768423 0.467370
vt 0.264431 0.436230
vt 0.241547 0.409533
vt 0.817880 0.534536
s 0
usemtl マテリアル.004
f 9/1/1 10/2/1 4/3/1 3/4/1
f 3/4/2 4/3/2 8/5/2 7/6/2
f 7/6/3 8/5/3 11/7/3 12/8/3
f 6/9/4 2/10/4 14/11/4 15/12/4
f 3/4/5 7/6/5 12/13/5 9/14/5
f 8/5/4 4/3/4 10/15/4 11/16/4
f 1/17/6 2/18/6 10/2/6 9/1/6
f 6/19/6 5/20/6 12/8/6 11/7/6
f 5/21/6 1/22/6 9/14/6 12/13/6
f 2/23/6 6/24/6 11/16/6 10/15/6
f 33/25/1 53/26/1 17/27/1
f 5/28/3 6/9/3 15/12/3 16/29/3
f 1/30/5 5/28/5 16/29/5 13/31/5
f 2/10/1 1/32/1 13/33/1 14/11/1
f 32/34/7 31/35/7 17/36/7
f 46/37/8 27/38/8 36/39/8
f 31/35/9 33/40/9 17/36/9
f 16/41/7 15/42/7 39/43/7 43/44/7
f 15/42/9 14/45/9 41/46/9 39/43/9
f 14/45/10 13/47/10 30/48/10 41/46/10
f 13/49/11 16/41/11 43/44/11 30/50/11
f 41/51/10 30/52/10 28/53/10 25/54/10
f 49/55/12 26/56/12 32/57/12
f 45/58/11 49/59/11 17/36/11
f 53/60/10 45/61/10 17/36/10
f 43/62/7 39/63/7 23/64/7 27/65/7
f 39/63/9 41/51/9 25/54/9 23/64/9
f 30/66/11 43/62/11 27/65/11 28/67/11
f 28/68/11 27/38/11 46/37/11 44/69/11
f 47/70/13 46/71/13 36/72/13 20/73/13
f 44/74/11 46/75/11 47/76/11 21/77/11
f 48/78/1 47/79/1 20/80/1 42/81/1
f 26/82/14 48/83/14 42/84/14
f 21/85/11 47/86/11 48/87/11 37/88/11
f 37/89/11 48/90/11 26/91/11 29/92/11
f 29/93/11 26/94/11 49/95/11 45/96/11
f 17/27/15 49/97/15 32/98/15
f 26/94/7 22/99/7 31/100/7 32/101/7
f 42/102/7 38/103/7 22/104/7 26/91/7
f 20/105/7 18/106/7 38/107/7 42/108/7
f 36/109/7 34/110/7 18/111/7 20/112/7
f 27/38/7 23/113/7 34/114/7 36/39/7
f 25/115/10 28/116/10 44/117/10 35/118/10
f 35/119/10 44/120/10 21/121/10 50/122/10
f 35/123/16 50/124/16 51/125/16 40/126/16 19/127/16
f 50/128/10 21/129/10 37/130/10 51/131/10
f 51/132/10 37/133/10 29/134/10 52/135/10
f 40/136/17 51/137/17 52/138/17 24/139/17
f 52/140/10 29/141/10 45/142/10 53/143/10
f 24/144/18 52/145/18 53/146/18 33/147/18
f 22/99/9 24/148/9 33/149/9 31/100/9
f 38/103/9 40/150/9 24/151/9 22/104/9
f 18/106/9 19/152/9 40/153/9 38/107/9
f 34/110/9 35/119/9 19/154/9 18/111/9
f 23/113/9 25/115/9 35/118/9 34/114/9
