# Blender 3.6.0
# www.blender.org
mtllib enemyWeaponSG01.mtl
o 小型近接敵武器
v -0.200000 -0.200000 0.250000
v -0.200000 0.200000 0.250000
v -0.250000 -0.250000 -0.250000
v -0.250000 0.250000 -0.250000
v 0.200000 -0.200000 0.250000
v 0.200000 0.200000 0.250000
v 0.250000 -0.250000 -0.250000
v 0.250000 0.250000 -0.250000
v -0.250000 -0.250000 0.250000
v -0.250000 0.250000 0.250000
v 0.250000 0.250000 0.250000
v 0.250000 -0.250000 0.250000
v -0.200000 -0.200000 0.375000
v -0.200000 0.200000 0.375000
v 0.200000 0.200000 0.375000
v 0.200000 -0.200000 0.375000
v 0.000000 0.000000 0.775000
v 0.100000 0.100000 0.575000
v -0.100000 0.100000 0.575000
v 0.100000 -0.100000 0.575000
v -0.100000 -0.100000 0.575000
v 0.050000 0.050000 0.675000
v 0.150000 0.150000 0.475000
v -0.050000 0.050000 0.675000
v -0.150000 0.150000 0.475000
v 0.050000 -0.050000 0.675000
v 0.150000 -0.150000 0.475000
v -0.150000 -0.150000 0.475000
v -0.050000 -0.050000 0.675000
v -0.175000 -0.175000 0.425000
v 0.025000 0.025000 0.725000
v 0.025000 -0.025000 0.725000
v -0.025000 0.025000 0.725000
v 0.125000 0.125000 0.525000
v -0.125000 0.125000 0.525000
v 0.125000 -0.125000 0.525000
v -0.075000 -0.075000 0.625000
v 0.075000 0.075000 0.625000
v 0.175000 0.175000 0.425000
v -0.075000 0.075000 0.625000
v -0.175000 0.175000 0.425000
v 0.075000 -0.075000 0.625000
v 0.175000 -0.175000 0.425000
v -0.125000 -0.125000 0.525000
v -0.025000 -0.025000 0.725000
v 0.125000 -0.125000 0.525000
v 0.100000 -0.100000 0.575000
v 0.075000 -0.075000 0.625000
v 0.025000 -0.025000 0.725000
v -0.100000 0.100000 0.575000
v -0.075000 0.075000 0.625000
v -0.050000 0.050000 0.675000
v -0.025000 0.025000 0.725000
vn -1.0000 -0.0000 -0.0000
vn -0.0000 -0.0000 -1.0000
vn 1.0000 -0.0000 -0.0000
vn -0.0000 1.0000 -0.0000
vn -0.0000 -1.0000 -0.0000
vn -0.0000 -0.0000 1.0000
vn -0.9864 -0.0000 -0.1644
vn 0.8944 -0.0000 0.4472
vn -0.0000 0.8944 0.4472
vn -0.8944 -0.0000 0.4472
vn -0.0000 -0.8944 0.4472
vn -0.9864 -0.0000 0.1644
vn -0.5534 0.8301 -0.0692
vn -0.9806 -0.0000 0.1961
vn -0.0000 -0.9950 -0.0995
vn -0.3162 -0.9487 -0.0000
vn 0.8242 -0.5494 0.1374
vn -0.3075 0.9506 -0.0419
vn 0.6963 0.6963 -0.1741
vn -0.9806 -0.0000 -0.1961
vn 0.9950 -0.0000 0.0995
vt 0.165491 0.681519
vt 0.165491 0.801145
vt 0.105678 0.741332
vt 0.225304 0.741332
vt 0.225304 0.860958
vt 0.285117 0.801145
vt 0.285117 0.920771
vt 0.633926 0.586010
vt 0.583211 0.423725
vt 0.633926 0.423725
vt 0.105678 0.860958
vt 0.344930 0.741332
vt 0.105678 0.729369
vt 0.344930 0.872920
vt 0.344930 0.860958
vt 0.153528 0.920771
vt 0.165491 0.920771
vt 0.297079 0.681519
vt 0.285117 0.681519
vt 0.610398 0.708994
vt 0.610580 0.709240
vt 0.591418 0.687801
vt 0.583211 0.261439
vt 0.633926 0.261439
vt 0.583211 0.099153
vt 0.633926 0.099153
vt 0.633926 0.748296
vt 0.583211 0.586010
vt 0.750244 0.366943
vt 0.764097 0.397865
vt 0.722599 0.397891
vt 0.285300 0.183246
vt 0.311098 0.154535
vt 0.285420 0.183170
vt 0.750284 0.428804
vt 0.445827 0.324710
vt 0.317503 0.123853
vt 0.343168 0.095159
vt 0.343168 0.554262
vt 0.407329 0.324710
vt 0.103631 0.630779
vt 0.317503 0.525568
vt 0.107909 0.056900
vt 0.103631 0.018641
vt 0.663507 0.690200
vt 0.862340 0.586804
vt 0.890084 0.617823
vt 0.549692 0.695222
vt 0.568872 0.673991
vt 0.549727 0.695226
vt 0.717924 0.356687
vt 0.750194 0.366937
vt 0.750549 0.429164
vt 0.717924 0.439573
vt 0.987188 0.400690
vt 0.862340 0.214577
vt 0.890084 0.183558
vt 0.945572 0.400690
vt 0.668131 0.152539
vt 0.663507 0.111181
vt 0.135303 0.134957
vt 0.131101 0.096588
vt 0.372441 0.701879
vt 0.351962 0.723804
vt 0.350693 0.725113
vt 0.853662 0.240747
vt 0.678597 0.225248
vt 0.674485 0.179009
vt 0.426987 0.770796
vt 0.403499 0.777996
vt 0.403476 0.777978
vt 0.476434 0.702027
vt 0.495429 0.680756
vt 0.495463 0.680760
vt 0.267449 0.228055
vt 0.167956 0.225964
vt 0.164964 0.192928
vt 0.796155 0.312236
vt 0.703725 0.322645
vt 0.699070 0.281309
vt 0.226241 0.266288
vt 0.170382 0.285194
vt 0.166283 0.246807
vt 0.610336 0.666580
vt 0.610370 0.666584
vt 0.251732 0.323899
vt 0.200408 0.294941
vt 0.837814 0.405331
vt 0.768449 0.343263
vt 0.796206 0.312242
vt 0.313513 0.332406
vt 0.244860 0.252315
vt 0.268849 0.226607
vt 0.853801 0.240664
vt 0.879377 0.404954
vt 0.823791 0.272729
vt 0.387805 0.326640
vt 0.131101 0.555661
vt 0.285059 0.469851
vt 0.310664 0.498551
vt 0.846412 0.567922
vt 0.680305 0.575252
vt 0.817847 0.534564
vt 0.367471 0.926176
vt 0.347887 0.903307
vt 0.347910 0.903288
vt 0.154247 0.468919
vt 0.241520 0.409556
vt 0.264417 0.436268
vt 0.699070 0.529415
vt 0.768412 0.467420
vt 0.796137 0.498430
vt 0.495437 0.808384
vt 0.476409 0.787143
vt 0.476417 0.787109
vt 0.166283 0.400098
vt 0.200422 0.352782
vt 0.225774 0.381353
vt 0.568534 0.759232
vt 0.549738 0.738093
vt 0.549558 0.737847
vt 0.225785 0.381307
vt 0.213153 0.323746
vt 0.796168 0.498402
vt 0.796187 0.405322
vt 0.264431 0.436230
vt 0.278358 0.331665
vt 0.923283 0.405945
vt 0.349343 0.326592
vt 0.153528 0.681519
vt 0.297079 0.920771
vt 0.105678 0.872920
vt 0.344930 0.729369
vt 0.583211 0.748296
vt 0.107909 0.592521
vt 0.668131 0.648842
vt 0.372536 0.701822
vt 0.821940 0.274639
vt 0.428422 0.770385
vt 0.244820 0.252310
vt 0.200361 0.294935
vt 0.135423 0.517442
vt 0.674485 0.618783
vt 0.343090 0.877678
vt 0.343115 0.877673
vt 0.158892 0.434044
vt 0.703701 0.488076
vt 0.495416 0.808403
vt 0.170677 0.362155
vt 0.568526 0.759266
vt 0.200180 0.352450
vt 0.768423 0.467370
vt 0.241547 0.409533
vt 0.817880 0.534536
s 0
usemtl マテリアル.004
f 10/1/1 3/2/1 9/3/1
f 4/4/2 7/5/2 3/2/2
f 8/6/3 12/7/3 7/5/3
f 2/8/4 15/9/4 6/10/4
f 7/5/5 9/11/5 3/2/5
f 4/4/4 11/12/4 8/6/4
f 1/13/6 10/1/6 9/3/6
f 6/14/6 12/7/6 11/15/6
f 5/16/6 9/11/6 12/17/6
f 2/18/6 11/12/6 10/19/6
f 33/20/7 53/21/7 17/22/7
f 6/10/3 16/23/3 5/24/3
f 5/24/5 13/25/5 1/26/5
f 1/27/1 14/28/1 2/8/1
f 32/29/8 31/30/8 17/31/8
f 46/32/6 27/33/6 36/34/6
f 31/30/9 33/35/9 17/31/9
f 15/36/8 43/37/8 16/38/8
f 14/39/9 39/40/9 15/36/9
f 13/41/10 41/42/10 14/39/10
f 16/38/11 30/43/11 13/44/11
f 30/45/10 25/46/10 41/47/10
f 49/48/12 26/49/12 32/50/12
f 45/51/11 49/52/11 17/31/11
f 53/53/10 45/54/10 17/31/10
f 39/55/8 27/56/8 43/57/8
f 41/47/9 23/58/9 39/55/9
f 43/57/11 28/59/11 30/60/11
f 27/33/11 44/61/11 28/62/11
f 46/63/13 20/64/13 47/65/13
f 46/66/11 21/67/11 44/68/11
f 47/69/14 42/70/14 48/71/14
f 26/72/15 48/73/15 42/74/15
f 47/75/11 37/76/11 21/77/11
f 48/78/11 29/79/11 37/80/11
f 26/81/11 45/82/11 29/83/11
f 17/22/16 49/84/16 32/85/16
f 22/86/8 32/87/8 26/81/8
f 38/88/8 26/89/8 42/90/8
f 18/91/8 42/92/8 20/93/8
f 36/94/8 18/95/8 20/96/8
f 23/97/8 36/34/8 27/33/8
f 28/98/10 35/99/10 25/100/10
f 35/101/10 21/102/10 50/103/10
f 35/104/4 50/105/4 19/106/4
f 21/107/10 51/108/10 50/109/10
f 37/110/10 52/111/10 51/112/10
f 40/113/17 52/114/17 24/115/17
f 29/116/10 53/117/10 52/118/10
f 24/119/18 53/120/18 33/121/18
f 24/122/9 31/123/9 22/86/9
f 40/124/9 22/125/9 38/88/9
f 19/126/9 38/127/9 18/91/9
f 35/101/9 18/95/9 34/128/9
f 25/100/9 34/129/9 23/97/9
f 10/1/1 4/4/1 3/2/1
f 4/4/2 8/6/2 7/5/2
f 8/6/3 11/15/3 12/7/3
f 2/8/4 14/28/4 15/9/4
f 7/5/5 12/17/5 9/11/5
f 4/4/4 10/19/4 11/12/4
f 1/13/6 2/130/6 10/1/6
f 6/14/6 5/131/6 12/7/6
f 5/16/6 1/132/6 9/11/6
f 2/18/6 6/133/6 11/12/6
f 6/10/3 15/9/3 16/23/3
f 5/24/5 16/23/5 13/25/5
f 1/27/1 13/134/1 14/28/1
f 15/36/8 39/40/8 43/37/8
f 14/39/9 41/42/9 39/40/9
f 13/41/10 30/135/10 41/42/10
f 16/38/11 43/37/11 30/43/11
f 30/45/10 28/136/10 25/46/10
f 39/55/8 23/58/8 27/56/8
f 41/47/9 25/46/9 23/58/9
f 43/57/11 27/56/11 28/59/11
f 27/33/11 46/32/11 44/61/11
f 46/63/19 36/137/19 20/64/19
f 46/66/11 47/138/11 21/67/11
f 47/69/5 20/139/5 42/70/5
f 47/75/11 48/140/11 37/76/11
f 48/78/11 26/89/11 29/79/11
f 26/81/11 49/141/11 45/82/11
f 22/86/8 31/123/8 32/87/8
f 38/88/8 22/125/8 26/89/8
f 18/91/8 38/127/8 42/92/8
f 36/94/8 34/128/8 18/95/8
f 23/97/8 34/129/8 36/34/8
f 28/98/10 44/142/10 35/99/10
f 35/101/10 44/143/10 21/102/10
f 50/105/20 51/144/20 40/145/20
f 50/105/4 40/145/4 19/106/4
f 21/107/10 37/146/10 51/108/10
f 37/110/10 29/147/10 52/111/10
f 40/113/7 51/148/7 52/114/7
f 29/116/10 45/149/10 53/117/10
f 24/119/21 52/150/21 53/120/21
f 24/122/9 33/151/9 31/123/9
f 40/124/9 24/152/9 22/125/9
f 19/126/9 40/153/9 38/127/9
f 35/101/9 19/154/9 18/95/9
f 25/100/9 35/99/9 34/129/9
