# Blender 3.6.0
# www.blender.org
mtllib enemyBodySG01.mtl
o 小型近接敵
v -2.000000 0.831885 -2.842281
v -1.000000 0.831885 -2.842281
v -2.000000 0.336805 -2.681419
v -1.000000 0.336805 -2.681419
v -2.000000 0.030829 -2.260279
v -1.000000 0.030828 -2.260279
v -2.000000 0.030829 2.260279
v -1.000000 0.030828 2.260279
v -2.000000 0.336805 2.681419
v -1.000000 0.336805 2.681419
v -2.000000 0.831885 2.842281
v -1.000000 0.831885 2.842281
v -2.000000 1.326965 2.681419
v -1.000000 1.326965 2.681419
v -2.000000 1.632941 2.260279
v -1.000000 1.632941 2.260279
v -2.000000 1.632941 -2.260279
v -1.000000 1.632941 -2.260279
v -2.000000 1.326965 -2.681419
v -1.000000 1.326965 -2.681419
v -2.000000 0.831885 -3.000000
v -2.000000 0.244100 -2.809017
v -2.000000 -0.119172 -2.309017
v -2.000000 -0.119172 2.309017
v -2.000000 0.244100 2.809017
v -2.000000 0.831885 3.000000
v -2.000000 1.419670 2.809017
v -2.000000 1.782942 2.309017
v -2.000000 1.782942 -2.309017
v -2.000000 1.419670 -2.809017
v -1.000000 0.244100 -2.809017
v -1.000000 0.831885 -3.000000
v -1.000000 -0.119172 -2.309017
v -1.000000 -0.119172 2.309017
v -1.000000 0.244100 2.809017
v -1.000000 0.831885 3.000000
v -1.000000 1.419670 2.809017
v -1.000000 1.782941 2.309017
v -1.000000 1.782941 -2.309017
v -1.000000 1.419670 -2.809017
v -2.000000 1.868351 2.000000
v -2.000000 2.068351 2.000000
v -2.000000 1.868351 -2.000000
v -2.000000 2.068351 -2.000000
v -1.000000 1.868351 2.000000
v -1.000000 2.068351 2.000000
v -1.000000 1.868351 -2.000000
v -1.000000 2.068351 -2.000000
v -2.200000 1.868351 -2.000000
v -2.200000 1.868351 2.000000
v -2.200000 2.068351 2.000000
v -2.200000 2.068351 -2.000000
v -2.000000 0.441231 -2.000000
v -2.000000 0.441231 2.000000
v -2.200000 0.441231 -2.000000
v -2.200000 0.441231 2.000000
v -1.837500 0.831885 1.512866
v -1.162500 0.831885 1.512866
v -1.837500 0.545555 1.605900
v -1.162500 0.545555 1.605900
v -1.837500 0.368593 1.849467
v -1.162500 0.368593 1.849467
v -1.837500 0.368593 2.150533
v -1.162500 0.368593 2.150533
v -1.837500 0.545555 2.394100
v -1.162500 0.545555 2.394100
v -1.837500 0.831885 2.487134
v -1.162500 0.831885 2.487134
v -1.837500 1.118215 2.394100
v -1.162500 1.118215 2.394100
v -1.837500 1.295177 2.150533
v -1.162500 1.295177 2.150533
v -1.837500 1.295177 1.849467
v -1.162500 1.295177 1.849467
v -1.837500 1.118215 1.605900
v -1.162500 1.118215 1.605900
v -1.875000 0.831885 1.250000
v -1.875000 0.391046 1.393237
v -1.125000 0.391046 1.393237
v -1.125000 0.831885 1.250000
v -1.875000 0.118593 1.768237
v -1.125000 0.118593 1.768237
v -1.875000 0.118593 2.231763
v -1.125000 0.118593 2.231763
v -1.875000 0.391046 2.606763
v -1.125000 0.391046 2.606763
v -1.875000 0.831885 2.750000
v -1.125000 0.831885 2.750000
v -1.875000 1.272724 2.606763
v -1.125000 1.272724 2.606763
v -1.875000 1.545177 2.231763
v -1.125000 1.545177 2.231763
v -1.875000 1.545177 1.768237
v -1.125000 1.545177 1.768237
v -1.875000 1.272724 1.393237
v -1.125000 1.272724 1.393237
v -1.875000 0.831885 1.355146
v -1.875000 0.452849 1.478302
v -1.125000 0.452849 1.478302
v -1.125000 0.831885 1.355146
v -1.875000 0.218593 1.800729
v -1.125000 0.218593 1.800729
v -1.875000 0.218593 2.199271
v -1.125000 0.218593 2.199271
v -1.875000 0.452849 2.521698
v -1.125000 0.452849 2.521698
v -1.875000 0.831885 2.644854
v -1.125000 0.831885 2.644854
v -1.875000 1.210921 2.521698
v -1.125000 1.210920 2.521698
v -1.875000 1.445177 2.199271
v -1.125000 1.445177 2.199271
v -1.875000 1.445177 1.800729
v -1.125000 1.445177 1.800729
v -1.875000 1.210921 1.478302
v -1.125000 1.210920 1.478302
v -1.675000 0.831885 1.355146
v -1.675000 0.452849 1.478302
v -1.325000 0.452849 1.478302
v -1.325000 0.831885 1.355146
v -1.675000 0.218593 1.800729
v -1.325000 0.218593 1.800729
v -1.675000 0.218593 2.199271
v -1.325000 0.218593 2.199271
v -1.675000 0.452849 2.521698
v -1.325000 0.452849 2.521698
v -1.675000 0.831885 2.644854
v -1.325000 0.831885 2.644854
v -1.675000 1.210921 2.521698
v -1.325000 1.210921 2.521698
v -1.675000 1.445177 2.199271
v -1.325000 1.445177 2.199271
v -1.675000 1.445177 1.800729
v -1.325000 1.445177 1.800729
v -1.675000 1.210921 1.478302
v -1.325000 1.210921 1.478302
v -1.675000 0.831885 1.512866
v -1.675000 0.545555 1.605900
v -1.325000 0.545555 1.605900
v -1.325000 0.831885 1.512866
v -1.675000 0.368593 1.849467
v -1.325000 0.368593 1.849467
v -1.675000 0.368593 2.150533
v -1.325000 0.368593 2.150533
v -1.675000 0.545555 2.394100
v -1.325000 0.545555 2.394100
v -1.675000 0.831885 2.487134
v -1.325000 0.831885 2.487134
v -1.675000 1.118215 2.394100
v -1.325000 1.118215 2.394100
v -1.675000 1.295177 2.150533
v -1.325000 1.295177 2.150533
v -1.675000 1.295177 1.849467
v -1.325000 1.295177 1.849467
v -1.675000 1.118215 1.605900
v -1.325000 1.118215 1.605900
v -1.837500 0.831885 -2.487134
v -1.162500 0.831885 -2.487134
v -1.837500 0.545555 -2.394100
v -1.162500 0.545555 -2.394100
v -1.837500 0.368593 -2.150533
v -1.162500 0.368593 -2.150533
v -1.837500 0.368593 -1.849467
v -1.162500 0.368593 -1.849467
v -1.837500 0.545555 -1.605900
v -1.162500 0.545555 -1.605900
v -1.837500 0.831885 -1.512866
v -1.162500 0.831885 -1.512866
v -1.837500 1.118215 -1.605900
v -1.162500 1.118215 -1.605900
v -1.837500 1.295177 -1.849467
v -1.162500 1.295177 -1.849467
v -1.837500 1.295177 -2.150533
v -1.162500 1.295177 -2.150533
v -1.837500 1.118215 -2.394100
v -1.162500 1.118215 -2.394100
v -1.875000 0.831885 -2.750000
v -1.875000 0.391046 -2.606763
v -1.125000 0.391046 -2.606763
v -1.125000 0.831885 -2.750000
v -1.875000 0.118593 -2.231763
v -1.125000 0.118593 -2.231763
v -1.875000 0.118593 -1.768237
v -1.125000 0.118593 -1.768237
v -1.875000 0.391046 -1.393237
v -1.125000 0.391046 -1.393237
v -1.875000 0.831885 -1.250000
v -1.125000 0.831885 -1.250000
v -1.875000 1.272724 -1.393237
v -1.125000 1.272724 -1.393237
v -1.875000 1.545177 -1.768237
v -1.125000 1.545177 -1.768237
v -1.875000 1.545177 -2.231763
v -1.125000 1.545177 -2.231763
v -1.875000 1.272724 -2.606763
v -1.125000 1.272724 -2.606763
v -1.875000 0.831885 -2.644854
v -1.875000 0.452849 -2.521698
v -1.125000 0.452849 -2.521698
v -1.125000 0.831885 -2.644854
v -1.875000 0.218593 -2.199271
v -1.125000 0.218593 -2.199271
v -1.875000 0.218593 -1.800729
v -1.125000 0.218593 -1.800729
v -1.875000 0.452849 -1.478302
v -1.125000 0.452849 -1.478302
v -1.875000 0.831885 -1.355146
v -1.125000 0.831885 -1.355146
v -1.875000 1.210921 -1.478302
v -1.125000 1.210920 -1.478302
v -1.875000 1.445177 -1.800729
v -1.125000 1.445177 -1.800729
v -1.875000 1.445177 -2.199271
v -1.125000 1.445177 -2.199271
v -1.875000 1.210921 -2.521698
v -1.125000 1.210920 -2.521698
v -1.675000 0.831885 -2.644854
v -1.675000 0.452849 -2.521698
v -1.325000 0.452849 -2.521698
v -1.325000 0.831885 -2.644854
v -1.675000 0.218593 -2.199271
v -1.325000 0.218593 -2.199271
v -1.675000 0.218593 -1.800729
v -1.325000 0.218593 -1.800729
v -1.675000 0.452849 -1.478302
v -1.325000 0.452849 -1.478302
v -1.675000 0.831885 -1.355146
v -1.325000 0.831885 -1.355146
v -1.675000 1.210921 -1.478302
v -1.325000 1.210921 -1.478302
v -1.675000 1.445177 -1.800729
v -1.325000 1.445177 -1.800729
v -1.675000 1.445177 -2.199271
v -1.325000 1.445177 -2.199271
v -1.675000 1.210921 -2.521698
v -1.325000 1.210921 -2.521698
v -1.675000 0.831885 -2.487134
v -1.675000 0.545555 -2.394100
v -1.325000 0.545555 -2.394100
v -1.325000 0.831885 -2.487134
v -1.675000 0.368593 -2.150533
v -1.325000 0.368593 -2.150533
v -1.675000 0.368593 -1.849467
v -1.325000 0.368593 -1.849467
v -1.675000 0.545555 -1.605900
v -1.325000 0.545555 -1.605900
v -1.675000 0.831885 -1.512866
v -1.325000 0.831885 -1.512866
v -1.675000 1.118215 -1.605900
v -1.325000 1.118215 -1.605900
v -1.675000 1.295177 -1.849467
v -1.325000 1.295177 -1.849467
v -1.675000 1.295177 -2.150533
v -1.325000 1.295177 -2.150533
v -1.675000 1.118215 -2.394100
v -1.325000 1.118215 -2.394100
v 2.000000 0.831885 -2.842281
v 1.000000 0.831885 -2.842281
v 2.000000 0.336805 -2.681419
v 1.000000 0.336805 -2.681419
v 2.000000 0.030829 -2.260279
v 1.000000 0.030829 -2.260279
v 2.000000 0.030829 2.260279
v 1.000000 0.030829 2.260279
v 2.000000 0.336805 2.681419
v 1.000000 0.336805 2.681419
v 2.000000 0.831885 2.842281
v 1.000000 0.831885 2.842281
v 2.000000 1.326965 2.681419
v 1.000000 1.326965 2.681419
v 2.000000 1.632942 2.260279
v 1.000000 1.632942 2.260279
v 2.000000 1.632942 -2.260279
v 1.000000 1.632942 -2.260279
v 2.000000 1.326965 -2.681419
v 1.000000 1.326965 -2.681419
v 2.000000 0.831885 -3.000000
v 2.000000 0.244100 -2.809017
v 2.000000 -0.119171 -2.309017
v 2.000000 -0.119171 2.309017
v 2.000000 0.244100 2.809017
v 2.000000 0.831885 3.000000
v 2.000000 1.419671 2.809017
v 2.000000 1.782942 2.309017
v 2.000000 1.782942 -2.309017
v 2.000000 1.419671 -2.809017
v 1.000000 0.244100 -2.809017
v 1.000000 0.831885 -3.000000
v 1.000000 -0.119171 -2.309017
v 1.000000 -0.119171 2.309017
v 1.000000 0.244100 2.809017
v 1.000000 0.831885 3.000000
v 1.000000 1.419670 2.809017
v 1.000000 1.782942 2.309017
v 1.000000 1.782942 -2.309017
v 1.000000 1.419670 -2.809017
v 2.000000 1.868351 2.000000
v 2.000000 2.068351 2.000000
v 2.000000 1.868351 -2.000000
v 2.000000 2.068351 -2.000000
v 1.000000 1.868351 2.000000
v 1.000000 2.068351 2.000000
v 1.000000 1.868351 -2.000000
v 1.000000 2.068351 -2.000000
v 2.200000 1.868351 -2.000000
v 2.200000 1.868351 2.000000
v 2.200000 2.068351 2.000000
v 2.200000 2.068351 -2.000000
v 2.000000 0.441232 -2.000000
v 2.000000 0.441232 2.000000
v 2.200000 0.441232 -2.000000
v 2.200000 0.441232 2.000000
v 1.837500 0.831885 1.512866
v 1.162500 0.831885 1.512866
v 1.837500 0.545555 1.605900
v 1.162500 0.545555 1.605900
v 1.837500 0.368593 1.849467
v 1.162500 0.368593 1.849467
v 1.837500 0.368593 2.150533
v 1.162500 0.368593 2.150533
v 1.837500 0.545555 2.394100
v 1.162500 0.545555 2.394100
v 1.837500 0.831885 2.487134
v 1.162500 0.831885 2.487134
v 1.837500 1.118216 2.394100
v 1.162500 1.118216 2.394100
v 1.837500 1.295178 2.150533
v 1.162500 1.295177 2.150533
v 1.837500 1.295178 1.849467
v 1.162500 1.295178 1.849467
v 1.837500 1.118216 1.605900
v 1.162500 1.118216 1.605900
v 1.875000 0.831885 1.250000
v 1.875000 0.391046 1.393237
v 1.125000 0.391046 1.393237
v 1.125000 0.831885 1.250000
v 1.875000 0.118593 1.768237
v 1.125000 0.118593 1.768237
v 1.875000 0.118593 2.231763
v 1.125000 0.118593 2.231763
v 1.875000 0.391046 2.606763
v 1.125000 0.391046 2.606763
v 1.875000 0.831885 2.750000
v 1.125000 0.831885 2.750000
v 1.875000 1.272724 2.606763
v 1.125000 1.272724 2.606763
v 1.875000 1.545178 2.231763
v 1.125000 1.545178 2.231763
v 1.875000 1.545178 1.768237
v 1.125000 1.545178 1.768237
v 1.875000 1.272724 1.393237
v 1.125000 1.272724 1.393237
v 1.875000 0.831885 1.355146
v 1.875000 0.452850 1.478302
v 1.125000 0.452850 1.478302
v 1.125000 0.831885 1.355146
v 1.875000 0.218593 1.800729
v 1.125000 0.218593 1.800729
v 1.875000 0.218593 2.199271
v 1.125000 0.218593 2.199271
v 1.875000 0.452850 2.521698
v 1.125000 0.452850 2.521698
v 1.875000 0.831885 2.644854
v 1.125000 0.831885 2.644854
v 1.875000 1.210921 2.521698
v 1.125000 1.210921 2.521698
v 1.875000 1.445178 2.199271
v 1.125000 1.445178 2.199271
v 1.875000 1.445178 1.800729
v 1.125000 1.445178 1.800729
v 1.875000 1.210921 1.478302
v 1.125000 1.210921 1.478302
v 1.675000 0.831885 1.355146
v 1.675000 0.452850 1.478302
v 1.325000 0.452850 1.478302
v 1.325000 0.831885 1.355146
v 1.675000 0.218593 1.800729
v 1.325000 0.218593 1.800729
v 1.675000 0.218593 2.199271
v 1.325000 0.218593 2.199271
v 1.675000 0.452850 2.521698
v 1.325000 0.452850 2.521698
v 1.675000 0.831885 2.644854
v 1.325000 0.831885 2.644854
v 1.675000 1.210921 2.521698
v 1.325000 1.210921 2.521698
v 1.675000 1.445178 2.199271
v 1.325000 1.445178 2.199271
v 1.675000 1.445178 1.800729
v 1.325000 1.445178 1.800729
v 1.675000 1.210921 1.478302
v 1.325000 1.210921 1.478302
v 1.675000 0.831885 1.512866
v 1.675000 0.545555 1.605900
v 1.325000 0.545555 1.605900
v 1.325000 0.831885 1.512866
v 1.675000 0.368593 1.849467
v 1.325000 0.368593 1.849467
v 1.675000 0.368593 2.150533
v 1.325000 0.368593 2.150533
v 1.675000 0.545555 2.394100
v 1.325000 0.545555 2.394100
v 1.675000 0.831885 2.487134
v 1.325000 0.831885 2.487134
v 1.675000 1.118216 2.394100
v 1.325000 1.118216 2.394100
v 1.675000 1.295178 2.150533
v 1.325000 1.295178 2.150533
v 1.675000 1.295178 1.849467
v 1.325000 1.295178 1.849467
v 1.675000 1.118216 1.605900
v 1.325000 1.118216 1.605900
v 1.837500 0.831885 -2.487134
v 1.162500 0.831885 -2.487134
v 1.837500 0.545555 -2.394100
v 1.162500 0.545555 -2.394100
v 1.837500 0.368593 -2.150533
v 1.162500 0.368593 -2.150533
v 1.837500 0.368593 -1.849467
v 1.162500 0.368593 -1.849467
v 1.837500 0.545555 -1.605900
v 1.162500 0.545555 -1.605900
v 1.837500 0.831885 -1.512866
v 1.162500 0.831885 -1.512866
v 1.837500 1.118216 -1.605900
v 1.162500 1.118216 -1.605900
v 1.837500 1.295178 -1.849467
v 1.162500 1.295177 -1.849467
v 1.837500 1.295178 -2.150533
v 1.162500 1.295178 -2.150533
v 1.837500 1.118216 -2.394100
v 1.162500 1.118216 -2.394100
v 1.875000 0.831885 -2.750000
v 1.875000 0.391046 -2.606763
v 1.125000 0.391046 -2.606763
v 1.125000 0.831885 -2.750000
v 1.875000 0.118593 -2.231763
v 1.125000 0.118593 -2.231763
v 1.875000 0.118593 -1.768237
v 1.125000 0.118593 -1.768237
v 1.875000 0.391046 -1.393237
v 1.125000 0.391046 -1.393237
v 1.875000 0.831885 -1.250000
v 1.125000 0.831885 -1.250000
v 1.875000 1.272724 -1.393237
v 1.125000 1.272724 -1.393237
v 1.875000 1.545178 -1.768237
v 1.125000 1.545178 -1.768237
v 1.875000 1.545178 -2.231763
v 1.125000 1.545178 -2.231763
v 1.875000 1.272724 -2.606763
v 1.125000 1.272724 -2.606763
v 1.875000 0.831885 -2.644854
v 1.875000 0.452850 -2.521698
v 1.125000 0.452850 -2.521698
v 1.125000 0.831885 -2.644854
v 1.875000 0.218593 -2.199271
v 1.125000 0.218593 -2.199271
v 1.875000 0.218593 -1.800729
v 1.125000 0.218593 -1.800729
v 1.875000 0.452850 -1.478302
v 1.125000 0.452850 -1.478302
v 1.875000 0.831885 -1.355146
v 1.125000 0.831885 -1.355146
v 1.875000 1.210921 -1.478302
v 1.125000 1.210921 -1.478302
v 1.875000 1.445178 -1.800729
v 1.125000 1.445178 -1.800729
v 1.875000 1.445178 -2.199271
v 1.125000 1.445178 -2.199271
v 1.875000 1.210921 -2.521698
v 1.125000 1.210921 -2.521698
v 1.675000 0.831885 -2.644854
v 1.675000 0.452850 -2.521698
v 1.325000 0.452850 -2.521698
v 1.325000 0.831885 -2.644854
v 1.675000 0.218593 -2.199271
v 1.325000 0.218593 -2.199271
v 1.675000 0.218593 -1.800729
v 1.325000 0.218593 -1.800729
v 1.675000 0.452850 -1.478302
v 1.325000 0.452850 -1.478302
v 1.675000 0.831885 -1.355146
v 1.325000 0.831885 -1.355146
v 1.675000 1.210921 -1.478302
v 1.325000 1.210921 -1.478302
v 1.675000 1.445178 -1.800729
v 1.325000 1.445178 -1.800729
v 1.675000 1.445178 -2.199271
v 1.325000 1.445178 -2.199271
v 1.675000 1.210921 -2.521698
v 1.325000 1.210921 -2.521698
v 1.675000 0.831885 -2.487134
v 1.675000 0.545555 -2.394100
v 1.325000 0.545555 -2.394100
v 1.325000 0.831885 -2.487134
v 1.675000 0.368593 -2.150533
v 1.325000 0.368593 -2.150533
v 1.675000 0.368593 -1.849467
v 1.325000 0.368593 -1.849467
v 1.675000 0.545555 -1.605900
v 1.325000 0.545555 -1.605900
v 1.675000 0.831885 -1.512866
v 1.325000 0.831885 -1.512866
v 1.675000 1.118216 -1.605900
v 1.325000 1.118216 -1.605900
v 1.675000 1.295178 -1.849467
v 1.325000 1.295178 -1.849467
v 1.675000 1.295178 -2.150533
v 1.325000 1.295178 -2.150533
v 1.675000 1.118216 -2.394100
v 1.325000 1.118216 -2.394100
v -0.800000 0.654665 1.800000
v -1.000000 0.654665 1.596721
v -0.800000 4.857891 1.035777
v -0.800000 5.054665 0.800000
v -1.000000 4.854665 0.833085
v -1.000000 0.654665 -0.800000
v -0.800000 0.654665 -1.000000
v -0.800000 5.054665 -1.000000
v -1.000000 4.854665 -0.800000
v 1.000000 0.654665 1.596721
v 0.800000 0.654665 1.800000
v 0.800000 5.054665 0.800000
v 0.800000 4.857891 1.035777
v 1.000000 4.854665 0.833085
v 0.800000 0.654665 -1.000000
v 1.000000 0.654665 -0.800000
v 1.000000 4.854665 -0.800000
v 0.800000 5.054665 -1.000000
vn -0.0000 -0.3090 -0.9511
vn -0.0000 -0.8090 -0.5878
vn -0.0000 -1.0000 -0.0000
vn -0.0000 -0.8090 0.5878
vn -0.0000 -0.3090 0.9511
vn -0.0000 0.3090 0.9511
vn -0.0000 0.8090 0.5878
vn -0.0000 1.0000 -0.0000
vn -0.0000 0.8090 -0.5878
vn -0.0000 0.3090 -0.9511
vn -1.0000 -0.0000 -0.0000
vn 1.0000 -0.0000 -0.0000
vn -0.0000 -0.0000 -1.0000
vn -0.0000 -0.0000 1.0000
vn -0.0000 0.1789 0.9839
vn -0.5519 0.6403 0.5343
vn 0.5519 0.6403 0.5343
vn -0.7071 0.1265 0.6957
vn -0.7071 0.7071 -0.0000
vn -0.7071 -0.0000 -0.7071
vn 0.7071 -0.0000 -0.7071
vn 0.7071 0.7071 -0.0000
vn 0.7071 0.1265 0.6957
vn -0.0000 0.7678 0.6407
vt 0.254861 0.951068
vt 0.255042 0.951063
vt 0.254994 0.951146
vt 0.254909 0.950986
vt 0.255090 0.950981
vt 0.254957 0.950903
vt 0.255449 0.950365
vt 0.255316 0.950287
vt 0.255497 0.950283
vt 0.255412 0.950122
vt 0.255545 0.950200
vt 0.255593 0.950118
vt 0.255460 0.950040
vt 0.255641 0.950035
vt 0.254389 0.951586
vt 0.254901 0.951327
vt 0.254422 0.951639
vt 0.254705 0.951217
vt 0.254946 0.951228
vt 0.254795 0.951131
vt 0.241306 0.957525
vt 0.222759 0.958579
vt 0.225446 0.953514
vt 0.204068 0.941127
vt 0.210550 0.937620
vt 0.156792 0.708119
vt 0.164981 0.708945
vt 0.169400 0.678090
vt 0.175787 0.683516
vt 0.197288 0.660519
vt 0.199352 0.668697
vt 0.230263 0.662730
vt 0.227126 0.670559
vt 0.255641 0.683900
vt 0.248502 0.688390
vt 0.254391 0.951611
vt 0.254326 0.951152
vt 0.252554 0.956205
vt 0.251123 0.954451
vt 0.241695 0.961509
vt 0.253527 0.950078
vt 0.254172 0.950042
vt 0.254087 0.950193
vt 0.253007 0.950314
vt 0.253508 0.949906
vt 0.250559 0.954626
vt 0.252891 0.950186
vt 0.250623 0.955193
vt 0.250390 0.954591
vt 0.251008 0.955615
vt 0.250465 0.955265
vt 0.251567 0.955729
vt 0.250923 0.955765
vt 0.252087 0.955493
vt 0.251587 0.955901
vt 0.254536 0.951182
vt 0.254422 0.951597
vt 0.254472 0.950614
vt 0.254629 0.950543
vt 0.254492 0.951062
vt 0.254451 0.951038
vt 0.254463 0.951033
vt 0.254476 0.951506
vt 0.254422 0.951060
vt 0.254462 0.951554
vt 0.254386 0.951499
vt 0.254408 0.951598
vt 0.254420 0.951611
vt 0.254398 0.951579
vt 0.254443 0.951591
vt 0.254391 0.951545
vt 0.077824 0.309438
vt 0.085311 0.316925
vt 0.077824 0.316925
vt 0.040388 0.309438
vt 0.191145 0.256013
vt 0.198632 0.106272
vt 0.198632 0.256013
vt 0.040388 0.052847
vt 0.077824 0.045360
vt 0.077824 0.052847
vt 0.236068 0.106272
vt 0.236068 0.256013
vt 0.153710 0.256013
vt 0.191145 0.106272
vt 0.146223 0.106272
vt 0.138736 0.256013
vt 0.138736 0.106272
vt 0.085311 0.052847
vt 0.153710 0.106272
vt 0.085311 0.256013
vt 0.085311 0.309438
vt 0.077824 0.106272
vt 0.077824 0.256013
vt 0.085311 0.106272
vt 0.289492 0.256013
vt 0.254479 0.951048
vt 0.254425 0.951035
vt 0.254508 0.951095
vt 0.254380 0.951073
vt 0.819469 0.176438
vt 0.852493 0.156390
vt 0.852744 0.177904
vt 0.819703 0.154857
vt 0.852310 0.134685
vt 0.819669 0.133057
vt 0.852382 0.113999
vt 0.819257 0.112460
vt 0.852454 0.092088
vt 0.818355 0.091275
vt 0.855935 0.067314
vt 0.816278 0.287028
vt 0.853858 0.263067
vt 0.858286 0.285434
vt 0.819831 0.240343
vt 0.852956 0.241882
vt 0.852544 0.221285
vt 0.824905 0.683642
vt 0.864820 0.680905
vt 0.857029 0.704912
vt 0.819903 0.219656
vt 0.852510 0.199484
vt 0.819720 0.197952
vt 0.831950 0.797385
vt 0.865275 0.818109
vt 0.846145 0.833159
vt 0.857331 0.177898
vt 0.858200 0.156347
vt 0.813999 0.154853
vt 0.814882 0.176444
vt 0.857359 0.134740
vt 0.814631 0.133162
vt 0.856880 0.114064
vt 0.858113 0.092488
vt 0.813051 0.091926
vt 0.814852 0.112610
vt 0.860944 0.069788
vt 0.813927 0.068907
vt 0.862726 0.282950
vt 0.859162 0.262415
vt 0.814100 0.261853
vt 0.811269 0.284554
vt 0.857361 0.241732
vt 0.815333 0.240278
vt 0.819759 0.262253
vt 0.857582 0.221179
vt 0.814854 0.219602
vt 0.858214 0.199489
vt 0.814013 0.197994
vt 0.830509 0.672093
vt 0.839856 0.657379
vt 0.842234 0.666491
vt 0.869102 0.261433
vt 0.866700 0.805547
vt 0.873529 0.820603
vt 0.803128 0.260660
vt 0.859201 0.657379
vt 0.858577 0.668192
vt 0.872160 0.281372
vt 0.859407 0.792540
vt 0.874542 0.803735
vt 0.800053 0.072970
vt 0.809487 0.071391
vt 0.872650 0.679165
vt 0.869085 0.093682
vt 0.840835 0.781820
vt 0.860092 0.781820
vt 0.803111 0.092909
vt 0.872591 0.696178
vt 0.864242 0.693981
vt 0.867283 0.114539
vt 0.843485 0.790780
vt 0.803880 0.176522
vt 0.833283 0.706663
vt 0.816902 0.700486
vt 0.825120 0.696793
vt 0.804743 0.112742
vt 0.863132 0.711369
vt 0.868771 0.199750
vt 0.785431 0.509821
vt 0.794091 0.530015
vt 0.785431 0.527201
vt 0.863843 0.585035
vt 0.858979 0.563609
vt 0.872503 0.582222
vt 0.780567 0.548628
vt 0.775216 0.541262
vt 0.837098 0.565604
vt 0.853628 0.570975
vt 0.758686 0.546633
vt 0.758686 0.555738
vt 0.820568 0.570975
vt 0.837098 0.556499
vt 0.742157 0.541262
vt 0.736805 0.548628
vt 0.810353 0.585035
vt 0.815217 0.563609
vt 0.723282 0.530015
vt 0.731941 0.527201
vt 0.801693 0.605229
vt 0.801693 0.582222
vt 0.731941 0.509821
vt 0.723281 0.530015
vt 0.723281 0.507007
vt 0.820568 0.616477
vt 0.801693 0.605229
vt 0.810353 0.602416
vt 0.736805 0.488394
vt 0.742157 0.495760
vt 0.837098 0.621847
vt 0.815217 0.623843
vt 0.758686 0.481284
vt 0.758686 0.490389
vt 0.858979 0.623843
vt 0.837098 0.630952
vt 0.775216 0.495760
vt 0.780567 0.488394
vt 0.863843 0.602416
vt 0.853628 0.616476
vt 0.794091 0.507007
vt 0.872503 0.605229
vt 0.804930 0.239803
vt 0.833669 0.830864
vt 0.817523 0.825306
vt 0.825585 0.821446
vt 0.868333 0.177820
vt 0.864149 0.835504
vt 0.858321 0.828970
vt 0.867470 0.241599
vt 0.845443 0.709991
vt 0.828826 0.714526
vt 0.803442 0.154591
vt 0.823838 0.666182
vt 0.804592 0.219586
vt 0.816022 0.807092
vt 0.824896 0.808758
vt 0.868356 0.156234
vt 0.847296 0.842000
vt 0.867870 0.221530
vt 0.846650 0.718844
vt 0.804343 0.132812
vt 0.816022 0.682168
vt 0.803857 0.198108
vt 0.825229 0.791209
vt 0.867621 0.134756
vt 0.829696 0.838773
vt 0.770985 0.069670
vt 0.732606 0.093314
vt 0.728603 0.070549
vt 0.767101 0.094602
vt 0.733357 0.114746
vt 0.766727 0.116689
vt 0.733627 0.135522
vt 0.766191 0.159306
vt 0.733610 0.157495
vt 0.766576 0.180717
vt 0.733026 0.179330
vt 0.733319 0.200535
vt 0.765886 0.202070
vt 0.733732 0.221834
vt 0.765993 0.223623
vt 0.733601 0.242504
vt 0.765908 0.828291
vt 0.779156 0.792275
vt 0.798880 0.807086
vt 0.766458 0.244050
vt 0.733481 0.264282
vt 0.767442 0.265125
vt 0.729962 0.288885
vt 0.824726 0.755668
vt 0.857445 0.734327
vt 0.864280 0.759371
vt 0.724056 0.072959
vt 0.727207 0.093902
vt 0.772801 0.095087
vt 0.775998 0.072240
vt 0.728908 0.114866
vt 0.728546 0.135603
vt 0.771442 0.137640
vt 0.771258 0.116817
vt 0.727885 0.157436
vt 0.771855 0.159306
vt 0.766368 0.137507
vt 0.728230 0.179298
vt 0.727681 0.200613
vt 0.771487 0.202113
vt 0.771170 0.180747
vt 0.728571 0.221805
vt 0.770980 0.223506
vt 0.729117 0.242435
vt 0.727859 0.263873
vt 0.772745 0.264481
vt 0.770830 0.243884
vt 0.724993 0.286416
vt 0.771660 0.287471
vt 0.758720 0.817241
vt 0.750514 0.802151
vt 0.758990 0.804664
vt 0.717816 0.201026
vt 0.845517 0.729033
vt 0.863137 0.726944
vt 0.782045 0.202202
vt 0.761526 0.787800
vt 0.766729 0.794999
vt 0.717582 0.179302
vt 0.833020 0.732411
vt 0.845629 0.719785
vt 0.781484 0.180799
vt 0.779108 0.783260
vt 0.717076 0.157293
vt 0.816022 0.739888
vt 0.827525 0.724968
vt 0.782196 0.159522
vt 0.796472 0.788674
vt 0.791558 0.796194
vt 0.718129 0.135180
vt 0.824812 0.742477
vt 0.786115 0.283265
vt 0.776104 0.285044
vt 0.791636 0.833883
vt 0.775048 0.842836
vt 0.776737 0.834954
vt 0.781788 0.137814
vt 0.807267 0.803541
vt 0.716956 0.262666
vt 0.775216 0.465673
vt 0.794091 0.454426
vt 0.780567 0.473039
vt 0.935789 0.602416
vt 0.930925 0.623843
vt 0.925573 0.616477
vt 0.758686 0.480148
vt 0.758686 0.471044
vt 0.935789 0.585036
vt 0.944448 0.605229
vt 0.736805 0.473039
vt 0.742157 0.465673
vt 0.930925 0.563609
vt 0.944448 0.582222
vt 0.723281 0.454425
vt 0.731941 0.451612
vt 0.925573 0.570975
vt 0.909043 0.556499
vt 0.731941 0.434232
vt 0.723281 0.431418
vt 0.892514 0.570975
vt 0.909043 0.565604
vt 0.736805 0.412805
vt 0.742157 0.420171
vt 0.882298 0.585036
vt 0.887162 0.563609
vt 0.758686 0.405695
vt 0.758686 0.414800
vt 0.873639 0.605229
vt 0.873639 0.582222
vt 0.775216 0.420171
vt 0.780567 0.412805
vt 0.892514 0.616477
vt 0.882298 0.602416
vt 0.785431 0.434232
vt 0.794091 0.431418
vt 0.909043 0.621847
vt 0.887162 0.623843
vt 0.794091 0.454426
vt 0.785431 0.451612
vt 0.909043 0.630952
vt 0.781196 0.223829
vt 0.855525 0.770837
vt 0.841197 0.780878
vt 0.842277 0.773102
vt 0.713855 0.074638
vt 0.873400 0.742839
vt 0.864614 0.745792
vt 0.718493 0.221824
vt 0.799965 0.820253
vt 0.801031 0.839046
vt 0.783846 0.096450
vt 0.750423 0.820086
vt 0.780847 0.243710
vt 0.825521 0.773975
vt 0.831148 0.767337
vt 0.717201 0.094965
vt 0.873095 0.761502
vt 0.718776 0.241941
vt 0.809190 0.821645
vt 0.781732 0.117442
vt 0.760175 0.834770
vt 0.782571 0.263315
vt 0.816022 0.758394
vt 0.718711 0.114927
vt 0.863533 0.776713
vt 0.058824 0.951801
vt 0.059084 0.951710
vt 0.058936 0.951892
vt 0.058859 0.951528
vt 0.058971 0.951619
vt 0.057871 0.951029
vt 0.058711 0.951710
vt 0.057758 0.950938
vt 0.058018 0.950847
vt 0.057793 0.950665
vt 0.057906 0.950756
vt 0.057646 0.950847
vt 0.057681 0.950574
vt 0.057421 0.950664
vt 0.057533 0.950755
vt 0.059112 0.952037
vt 0.059618 0.952354
vt 0.059602 0.952400
vt 0.059196 0.951802
vt 0.059305 0.951909
vt 0.059039 0.951959
vt 0.091376 0.959396
vt 0.072990 0.958402
vt 0.088661 0.954325
vt 0.110050 0.941827
vt 0.103539 0.938336
vt 0.156600 0.708138
vt 0.148395 0.708995
vt 0.143879 0.678049
vt 0.137492 0.683510
vt 0.113816 0.668726
vt 0.082801 0.662841
vt 0.085971 0.670681
vt 0.057421 0.684151
vt 0.064594 0.688630
vt 0.059632 0.952384
vt 0.059706 0.951848
vt 0.061665 0.957144
vt 0.063094 0.955365
vt 0.072621 0.962406
vt 0.059774 0.950847
vt 0.060355 0.950873
vt 0.059852 0.950982
vt 0.060371 0.950718
vt 0.060826 0.951081
vt 0.060929 0.950964
vt 0.063072 0.954941
vt 0.063224 0.954908
vt 0.063019 0.955453
vt 0.062755 0.955971
vt 0.062677 0.955836
vt 0.062158 0.956100
vt 0.062174 0.955945
vt 0.061703 0.955737
vt 0.059457 0.951877
vt 0.059591 0.952364
vt 0.059510 0.951365
vt 0.059661 0.951460
vt 0.059398 0.951359
vt 0.059646 0.951330
vt 0.059516 0.950206
vt 0.059268 0.950235
vt 0.059501 0.950077
vt 0.059223 0.949847
vt 0.059457 0.949688
vt 0.059472 0.949818
vt 0.059238 0.949976
vt 0.059487 0.949947
vt 0.079676 0.336632
vt 0.072189 0.344119
vt 0.072189 0.336632
vt 0.034754 0.344119
vt 0.192998 0.547285
vt 0.185511 0.397544
vt 0.192998 0.397544
vt 0.072189 0.600710
vt 0.034754 0.608197
vt 0.034754 0.600710
vt 0.230433 0.547285
vt 0.230433 0.397544
vt 0.185511 0.547285
vt 0.148075 0.397544
vt 0.133101 0.397544
vt 0.140588 0.547285
vt 0.133101 0.547285
vt 0.079676 0.600710
vt 0.072189 0.608197
vt 0.148075 0.547285
vt 0.079676 0.397544
vt 0.079676 0.344119
vt 0.072189 0.547285
vt 0.072189 0.397544
vt 0.079676 0.547285
vt 0.283858 0.397544
vt 0.059428 0.951618
vt 0.059676 0.951589
vt 0.059443 0.951747
vt 0.059691 0.951718
vt 0.926139 0.176401
vt 0.892503 0.198854
vt 0.892871 0.176719
vt 0.925110 0.219232
vt 0.925363 0.198011
vt 0.925241 0.239862
vt 0.892599 0.220613
vt 0.892190 0.262281
vt 0.892232 0.241007
vt 0.930491 0.286056
vt 0.926347 0.261598
vt 0.926767 0.090891
vt 0.888441 0.067313
vt 0.930337 0.067632
vt 0.926755 0.112136
vt 0.892770 0.091639
vt 0.926402 0.132516
vt 0.893810 0.113295
vt 0.758206 0.754300
vt 0.795146 0.738139
vt 0.797490 0.761907
vt 0.926504 0.154268
vt 0.893912 0.133898
vt 0.893650 0.155110
vt 0.828551 0.881995
vt 0.861306 0.861069
vt 0.867037 0.885028
vt 0.930433 0.198036
vt 0.931385 0.176448
vt 0.887625 0.176671
vt 0.886677 0.198818
vt 0.930077 0.219161
vt 0.887583 0.220529
vt 0.929733 0.239673
vt 0.887868 0.240959
vt 0.931915 0.260992
vt 0.886837 0.261887
vt 0.935404 0.283438
vt 0.883199 0.282804
vt 0.935688 0.070372
vt 0.932114 0.091273
vt 0.887243 0.092254
vt 0.883563 0.069972
vt 0.931115 0.112179
vt 0.889326 0.113472
vt 0.931416 0.132597
vt 0.888948 0.133965
vt 0.932329 0.154302
vt 0.888580 0.155084
vt 0.769113 0.722544
vt 0.784269 0.730910
vt 0.771315 0.731188
vt 0.942139 0.092268
vt 0.820176 0.884187
vt 0.827261 0.869298
vt 0.876476 0.093650
vt 0.760182 0.740303
vt 0.945763 0.072190
vt 0.826641 0.852559
vt 0.834644 0.856426
vt 0.876804 0.260868
vt 0.750423 0.755793
vt 0.946508 0.281527
vt 0.852806 0.846071
vt 0.850199 0.854715
vt 0.756951 0.771798
vt 0.763895 0.766307
vt 0.939954 0.238874
vt 0.876843 0.176516
vt 0.808429 0.748583
vt 0.800544 0.749470
vt 0.877748 0.241058
vt 0.772485 0.782319
vt 0.775106 0.773057
vt 0.942717 0.154302
vt 0.872503 0.529640
vt 0.853628 0.540887
vt 0.863843 0.526827
vt 0.775216 0.571349
vt 0.794091 0.582597
vt 0.785432 0.585410
vt 0.863843 0.509446
vt 0.794091 0.605604
vt 0.785432 0.602790
vt 0.853628 0.495386
vt 0.872503 0.506633
vt 0.775216 0.616851
vt 0.837098 0.490015
vt 0.858979 0.488019
vt 0.780567 0.624217
vt 0.758686 0.622222
vt 0.815217 0.488019
vt 0.820568 0.495386
vt 0.736805 0.624217
vt 0.742157 0.616851
vt 0.810353 0.509446
vt 0.731941 0.602790
vt 0.801693 0.529640
vt 0.810353 0.526827
vt 0.723282 0.582597
vt 0.731941 0.585410
vt 0.815217 0.548253
vt 0.820568 0.540887
vt 0.736805 0.563983
vt 0.742157 0.571349
vt 0.837098 0.555363
vt 0.837098 0.546258
vt 0.758686 0.565979
vt 0.758686 0.556874
vt 0.879101 0.114237
vt 0.875764 0.887702
vt 0.859174 0.895195
vt 0.942167 0.176601
vt 0.828528 0.899644
vt 0.834843 0.893368
vt 0.941229 0.112068
vt 0.805848 0.765873
vt 0.788164 0.771422
vt 0.876288 0.198815
vt 0.787276 0.722544
vt 0.879213 0.133807
vt 0.875764 0.870228
vt 0.868004 0.872125
vt 0.941088 0.198535
vt 0.845329 0.907654
vt 0.846666 0.898252
vt 0.792907 0.781084
vt 0.801993 0.732858
vt 0.867692 0.855336
vt 0.939811 0.219309
vt 0.864929 0.904041
vt 0.656234 0.290810
vt 0.693310 0.265216
vt 0.698077 0.288043
vt 0.659457 0.245007
vt 0.659291 0.266154
vt 0.659883 0.224591
vt 0.692360 0.243539
vt 0.660074 0.202754
vt 0.692401 0.223017
vt 0.660408 0.180440
vt 0.693051 0.201960
vt 0.660693 0.158469
vt 0.693430 0.180330
vt 0.660604 0.137262
vt 0.693665 0.158267
vt 0.660557 0.116924
vt 0.693169 0.136363
vt 0.759034 0.871249
vt 0.794116 0.858911
vt 0.800459 0.885728
vt 0.659614 0.095264
vt 0.693515 0.115658
vt 0.696776 0.069670
vt 0.693687 0.094397
vt 0.792176 0.708035
vt 0.758934 0.686622
vt 0.776078 0.670157
vt 0.653906 0.265828
vt 0.650436 0.287963
vt 0.702562 0.285499
vt 0.698766 0.264514
vt 0.655035 0.244915
vt 0.696767 0.243414
vt 0.654851 0.224479
vt 0.697334 0.223001
vt 0.654246 0.202692
vt 0.698162 0.201984
vt 0.655148 0.180443
vt 0.698648 0.180327
vt 0.655507 0.158546
vt 0.699465 0.158225
vt 0.655698 0.137371
vt 0.698264 0.136389
vt 0.656161 0.117059
vt 0.697972 0.115741
vt 0.654155 0.095966
vt 0.699093 0.094725
vt 0.654852 0.072409
vt 0.650360 0.074956
vt 0.702587 0.072528
vt 0.768988 0.843777
vt 0.783416 0.851808
vt 0.771309 0.851932
vt 0.645302 0.158320
vt 0.781065 0.721602
vt 0.780388 0.713282
vt 0.710197 0.157859
vt 0.761909 0.859220
vt 0.644086 0.180074
vt 0.762522 0.718414
vt 0.768011 0.709792
vt 0.708270 0.202378
vt 0.750423 0.870754
vt 0.643489 0.202922
vt 0.759378 0.699843
vt 0.754105 0.887557
vt 0.761735 0.883476
vt 0.644612 0.224886
vt 0.750423 0.684220
vt 0.712897 0.074125
vt 0.809335 0.868120
vt 0.801249 0.870050
vt 0.707416 0.223036
vt 0.767334 0.899553
vt 0.771514 0.891389
vt 0.644009 0.097231
vt 0.860797 0.408831
vt 0.865661 0.430258
vt 0.855445 0.416197
vt 0.930925 0.548253
vt 0.909043 0.546258
vt 0.925573 0.540887
vt 0.838916 0.401722
vt 0.838916 0.410827
vt 0.887162 0.548253
vt 0.892514 0.540887
vt 0.817035 0.408831
vt 0.822386 0.416197
vt 0.873639 0.529640
vt 0.882298 0.526827
vt 0.803511 0.427445
vt 0.812170 0.430258
vt 0.882298 0.509446
vt 0.812170 0.447638
vt 0.873639 0.506633
vt 0.892514 0.495386
vt 0.817034 0.469065
vt 0.822386 0.461699
vt 0.909043 0.480910
vt 0.909043 0.490015
vt 0.838916 0.476175
vt 0.838916 0.467070
vt 0.925573 0.495386
vt 0.855445 0.461699
vt 0.930925 0.488019
vt 0.935789 0.509446
vt 0.865661 0.447638
vt 0.860797 0.469065
vt 0.944448 0.506633
vt 0.935789 0.526827
vt 0.874320 0.427445
vt 0.944448 0.529640
vt 0.708592 0.135814
vt 0.774446 0.661424
vt 0.790035 0.672359
vt 0.640153 0.286373
vt 0.808363 0.700465
vt 0.799834 0.697344
vt 0.645627 0.137503
vt 0.785925 0.903296
vt 0.785245 0.893525
vt 0.708900 0.263251
vt 0.786212 0.843777
vt 0.707805 0.115971
vt 0.759213 0.669511
vt 0.764649 0.675250
vt 0.645249 0.244653
vt 0.808036 0.681781
vt 0.799157 0.684069
vt 0.800586 0.853164
vt 0.798200 0.666325
vt 0.682445 0.780116
vt 0.552180 0.828968
vt 0.552158 0.780173
vt 0.472864 0.774108
vt 0.522611 0.645999
vt 0.545956 0.774076
vt 0.332602 0.829064
vt 0.277686 0.780293
vt 0.332581 0.780269
vt 0.522750 0.963167
vt 0.472890 0.835102
vt 0.545983 0.835070
vt 0.466767 0.780210
vt 0.466788 0.829005
vt 0.442628 0.218349
vt 0.430534 0.218349
vt 0.436581 0.208905
vt 0.430534 0.281355
vt 0.442628 0.281355
vt 0.436581 0.290800
vt 0.587726 0.135324
vt 0.593889 0.144711
vt 0.378759 0.180756
vt 0.386377 0.015164
vt 0.366803 0.187323
vt 0.378759 0.318949
vt 0.386377 0.484541
vt 0.366803 0.312381
vt 0.587726 0.364380
vt 0.255364 0.950205
vt 0.255508 0.949958
vt 0.252204 0.955621
vt 0.040388 0.316925
vt 0.040388 0.045360
vt 0.146223 0.256013
vt 0.085311 0.045360
vt 0.289492 0.106272
vt 0.800053 0.283011
vt 0.867501 0.788740
vt 0.866338 0.664785
vt 0.872160 0.071331
vt 0.810353 0.602416
vt 0.731941 0.527201
vt 0.717106 0.200375
vt 0.791636 0.842836
vt 0.713855 0.284860
vt 0.785431 0.451612
vt 0.856490 0.779091
vt 0.787282 0.073965
vt 0.057568 0.950482
vt 0.115859 0.660519
vt 0.063162 0.955516
vt 0.061600 0.955853
vt 0.059367 0.951302
vt 0.059413 0.951488
vt 0.059253 0.950105
vt 0.059208 0.949717
vt 0.034754 0.336632
vt 0.140588 0.397544
vt 0.079676 0.608197
vt 0.283858 0.547285
vt 0.888548 0.285563
vt 0.819477 0.867385
vt 0.873119 0.071659
vt 0.754124 0.732439
vt 0.873119 0.280955
vt 0.751048 0.739469
vt 0.942700 0.259400
vt 0.834036 0.845963
vt 0.877926 0.154581
vt 0.877022 0.220766
vt 0.858979 0.548253
vt 0.780567 0.563983
vt 0.837098 0.480910
vt 0.758686 0.631327
vt 0.801693 0.506633
vt 0.723282 0.605604
vt 0.941974 0.132354
vt 0.797434 0.715220
vt 0.709650 0.180716
vt 0.755134 0.854121
vt 0.750423 0.702697
vt 0.709751 0.095880
vt 0.809821 0.885466
vt 0.707226 0.243048
vt 0.640153 0.076891
vt 0.909043 0.555363
vt 0.803511 0.450452
vt 0.887162 0.488019
vt 0.874320 0.450452
vt 0.791088 0.663376
vt 0.643286 0.264673
vt 0.645707 0.117459
vt 0.805112 0.896174
vt 0.712756 0.283564
vt 0.682467 0.828911
vt 0.472807 0.646021
vt 0.277708 0.829088
vt 0.472947 0.963189
vt 0.397444 0.016422
vt 0.397444 0.483282
vt 0.593889 0.354993
s 0
usemtl マテリアル.003
f 32/1/1 22/2/1 21/3/1
f 31/4/2 23/5/2 22/2/2
f 33/6/3 24/7/3 23/5/3
f 34/8/4 25/9/4 24/7/4
f 25/9/5 36/10/5 26/11/5
f 36/10/6 27/12/6 26/11/6
f 37/13/7 28/14/7 27/12/7
f 38/15/8 29/16/8 28/17/8
f 39/18/9 30/19/9 29/16/9
f 40/20/10 21/3/10 30/19/10
f 1/21/11 22/22/11 3/23/11
f 3/23/11 23/24/11 5/25/11
f 5/25/11 24/26/11 7/27/11
f 7/27/11 25/28/11 9/29/11
f 9/29/11 26/30/11 11/31/11
f 11/31/11 27/32/11 13/33/11
f 13/33/11 28/34/11 15/35/11
f 15/36/11 29/16/11 17/37/11
f 17/37/11 30/38/11 19/39/11
f 19/39/11 21/40/11 1/21/11
f 4/41/12 32/42/12 2/43/12
f 6/44/12 31/45/12 4/41/12
f 8/46/12 33/47/12 6/44/12
f 10/48/12 34/49/12 8/46/12
f 12/50/12 35/51/12 10/48/12
f 14/52/12 36/53/12 12/50/12
f 16/54/12 37/55/12 14/52/12
f 18/56/12 38/15/12 16/57/12
f 20/58/12 39/18/12 18/56/12
f 2/43/12 40/59/12 20/58/12
f 5/60/7 4/61/7 3/62/7
f 17/37/3 16/57/3 15/36/3
f 7/63/8 6/64/8 5/60/8
f 9/65/9 8/66/9 7/63/9
f 15/36/2 14/67/2 13/68/2
f 13/68/1 12/69/1 11/70/1
f 11/70/10 10/71/10 9/65/10
f 43/72/13 52/73/13 44/74/13
f 44/74/13 47/75/13 43/72/13
f 48/76/12 45/77/12 47/78/12
f 45/79/14 42/80/14 41/81/14
f 47/78/3 41/82/3 43/83/3
f 44/84/8 46/85/8 48/76/8
f 51/86/11 49/87/11 50/88/11
f 42/80/14 50/89/14 41/81/14
f 44/84/8 51/86/8 42/90/8
f 43/72/13 55/91/13 49/92/13
f 54/93/3 55/91/3 53/94/3
f 49/87/11 56/95/11 50/88/11
f 50/89/14 54/93/14 41/81/14
f 41/82/12 53/96/12 43/83/12
f 3/62/6 2/97/6 1/98/6
f 1/98/5 20/99/5 19/100/5
f 19/100/4 18/56/4 17/37/4
f 80/101/1 78/102/1 77/103/1
f 79/104/2 81/105/2 78/102/2
f 82/106/3 83/107/3 81/105/3
f 84/108/4 85/109/4 83/107/4
f 86/110/5 87/111/5 85/109/5
f 88/112/6 89/113/6 87/114/6
f 89/113/7 92/115/7 91/116/7
f 92/115/8 93/117/8 91/116/8
f 74/118/12 66/119/12 62/120/12
f 94/121/9 95/122/9 93/117/9
f 96/123/10 77/103/10 95/122/10
f 63/124/11 71/125/11 75/126/11
f 97/127/11 78/102/11 98/128/11
f 99/129/12 80/101/12 100/130/12
f 98/128/11 81/105/11 101/131/11
f 102/132/12 79/104/12 99/129/12
f 101/131/11 83/107/11 103/133/11
f 102/132/12 84/108/12 82/106/12
f 105/134/11 83/107/11 85/109/11
f 106/135/12 84/108/12 104/136/12
f 107/137/11 85/109/11 87/111/11
f 106/135/12 88/138/12 86/110/12
f 107/139/11 89/113/11 109/140/11
f 110/141/12 88/112/12 108/142/12
f 109/140/11 91/116/11 111/143/11
f 112/144/12 90/145/12 110/141/12
f 113/146/11 91/116/11 93/117/11
f 114/147/12 92/115/12 112/144/12
f 113/146/11 95/122/11 115/148/11
f 114/147/12 96/123/12 94/121/12
f 115/148/11 77/103/11 97/127/11
f 116/149/12 80/101/12 96/123/12
f 72/150/7 150/151/7 70/152/7
f 111/143/2 129/153/2 109/140/2
f 69/154/7 151/155/7 71/125/7
f 108/142/1 130/156/1 110/141/1
f 70/152/6 148/157/6 68/158/6
f 109/140/1 127/159/1 107/139/1
f 67/160/6 149/161/6 69/154/6
f 106/135/10 128/162/10 108/163/10
f 68/158/5 146/164/5 66/119/5
f 107/137/10 125/165/10 105/134/10
f 67/160/5 145/166/5 147/167/5
f 104/136/9 126/168/9 106/135/9
f 66/119/4 144/169/4 64/170/4
f 105/134/9 123/171/9 103/133/9
f 63/124/4 145/166/4 65/172/4
f 116/149/5 120/173/5 100/130/5
f 58/174/10 156/175/10 76/176/10
f 102/132/8 124/177/8 104/136/8
f 64/170/3 142/178/3 62/120/3
f 97/127/5 135/179/5 115/148/5
f 137/180/11 118/181/11 138/182/11
f 140/183/12 119/184/12 120/185/12
f 138/182/11 121/186/11 141/187/11
f 142/188/12 119/184/12 139/189/12
f 143/190/11 121/186/11 123/191/11
f 144/192/12 122/193/12 142/188/12
f 145/194/11 123/191/11 125/195/11
f 146/196/12 124/197/12 144/192/12
f 145/194/11 127/198/11 147/199/11
f 146/196/12 128/200/12 126/201/12
f 149/202/11 127/203/11 129/204/11
f 150/205/12 128/206/12 148/207/12
f 149/202/11 131/208/11 151/209/11
f 152/210/12 130/211/12 150/205/12
f 151/209/11 133/212/11 153/213/11
f 152/210/12 134/214/12 132/215/12
f 155/216/11 133/212/11 135/217/11
f 156/218/12 134/214/12 154/219/12
f 155/216/11 117/220/11 137/180/11
f 140/183/12 136/221/12 156/218/12
f 112/144/2 130/156/2 132/222/2
f 57/223/1 138/224/1 59/225/1
f 98/128/6 117/226/6 97/127/6
f 71/125/8 153/227/8 73/228/8
f 113/146/3 131/229/3 111/143/3
f 60/230/1 140/231/1 58/174/1
f 100/130/6 119/232/6 99/129/6
f 74/118/8 152/233/8 72/150/8
f 112/144/3 134/234/3 114/147/3
f 59/225/2 141/235/2 61/236/2
f 101/131/7 118/237/7 98/128/7
f 73/228/9 155/238/9 75/126/9
f 115/148/4 133/239/4 113/146/4
f 62/120/2 139/240/2 60/230/2
f 99/129/7 122/241/7 102/132/7
f 76/176/9 154/242/9 74/118/9
f 114/147/4 136/243/4 116/149/4
f 61/236/3 143/244/3 63/124/3
f 103/133/8 121/245/8 101/131/8
f 75/126/10 137/246/10 57/223/10
f 180/247/1 178/248/1 177/249/1
f 179/250/2 181/251/2 178/248/2
f 182/252/3 183/253/3 181/251/3
f 183/253/4 186/254/4 185/255/4
f 185/255/5 188/256/5 187/257/5
f 188/256/6 189/258/6 187/257/6
f 190/259/7 191/260/7 189/258/7
f 192/261/8 193/262/8 191/260/8
f 174/263/12 166/264/12 162/265/12
f 194/266/9 195/267/9 193/262/9
f 196/268/10 177/269/10 195/267/10
f 163/270/11 171/271/11 175/272/11
f 197/273/11 178/248/11 198/274/11
f 199/275/12 180/247/12 200/276/12
f 198/274/11 181/251/11 201/277/11
f 199/275/12 182/252/12 179/250/12
f 203/278/11 181/251/11 183/253/11
f 204/279/12 182/252/12 202/280/12
f 205/281/11 183/253/11 185/255/11
f 206/282/12 184/283/12 204/279/12
f 207/284/11 185/255/11 187/257/11
f 206/282/12 188/256/12 186/254/12
f 207/284/11 189/258/11 209/285/11
f 210/286/12 188/256/12 208/287/12
f 209/285/11 191/260/11 211/288/11
f 212/289/12 190/259/12 210/286/12
f 211/288/11 193/262/11 213/290/11
f 212/289/12 194/266/12 192/261/12
f 215/291/11 193/262/11 195/267/11
f 216/292/12 194/266/12 214/293/12
f 215/291/11 177/269/11 197/294/11
f 216/292/12 180/295/12 196/268/12
f 172/296/7 250/297/7 170/298/7
f 211/288/2 229/299/2 209/285/2
f 169/300/7 251/301/7 171/271/7
f 208/287/1 230/302/1 210/286/1
f 170/298/6 248/303/6 168/304/6
f 209/285/1 227/305/1 207/284/1
f 167/306/6 249/307/6 169/300/6
f 206/282/10 228/308/10 208/287/10
f 168/304/5 246/309/5 166/264/5
f 207/284/10 225/310/10 205/281/10
f 167/306/5 245/311/5 247/312/5
f 204/279/9 226/313/9 206/282/9
f 166/264/4 244/314/4 164/315/4
f 205/281/9 223/316/9 203/278/9
f 163/270/4 245/311/4 165/317/4
f 216/292/5 220/318/5 200/319/5
f 158/320/10 256/321/10 176/322/10
f 202/280/8 224/323/8 204/279/8
f 164/315/3 242/324/3 162/265/3
f 197/294/5 235/325/5 215/291/5
f 238/326/11 217/327/11 218/328/11
f 239/329/12 220/330/12 240/331/12
f 238/326/11 221/332/11 241/333/11
f 242/334/12 219/335/12 239/329/12
f 241/333/11 223/336/11 243/337/11
f 242/334/12 224/338/12 222/339/12
f 243/337/11 225/340/11 245/341/11
f 244/342/12 226/343/12 224/338/12
f 247/344/11 225/340/11 227/345/11
f 248/346/12 226/343/12 246/347/12
f 247/344/11 229/348/11 249/349/11
f 250/350/12 228/351/12 248/346/12
f 249/349/11 231/352/11 251/353/11
f 250/350/12 232/354/12 230/355/12
f 253/356/11 231/352/11 233/357/11
f 254/358/12 232/354/12 252/359/12
f 255/360/11 233/357/11 235/361/11
f 256/362/12 234/363/12 254/358/12
f 255/360/11 217/364/11 237/365/11
f 256/362/12 220/330/12 236/366/12
f 212/289/2 230/302/2 232/367/2
f 157/368/1 238/369/1 159/370/1
f 198/274/6 217/371/6 197/273/6
f 171/271/8 253/372/8 173/373/8
f 213/290/3 231/374/3 211/288/3
f 160/375/1 240/376/1 158/320/1
f 200/276/6 219/377/6 199/275/6
f 174/263/8 252/378/8 172/296/8
f 212/289/3 234/379/3 214/293/3
f 159/370/2 241/380/2 161/381/2
f 201/277/7 218/382/7 198/274/7
f 173/373/9 255/383/9 175/272/9
f 215/291/4 233/384/4 213/290/4
f 162/265/2 239/385/2 160/375/2
f 199/275/7 222/386/7 202/280/7
f 176/322/9 254/387/9 174/263/9
f 214/293/4 236/388/4 216/292/4
f 161/381/3 243/389/3 163/270/3
f 203/278/8 221/390/8 201/277/8
f 175/272/10 237/391/10 157/368/10
f 278/392/1 288/393/1 277/394/1
f 278/392/2 289/395/2 287/396/2
f 280/397/3 289/395/3 279/398/3
f 281/399/4 290/400/4 280/397/4
f 281/399/5 292/401/5 291/402/5
f 282/403/6 293/404/6 292/401/6
f 284/405/7 293/404/7 283/406/7
f 285/407/8 294/408/8 284/409/8
f 285/407/9 296/410/9 295/411/9
f 277/394/10 296/410/10 286/412/10
f 278/413/12 257/414/12 259/415/12
f 279/416/12 259/415/12 261/417/12
f 280/418/12 261/417/12 263/419/12
f 281/420/12 263/419/12 265/421/12
f 267/422/12 281/420/12 265/421/12
f 283/423/12 267/422/12 269/424/12
f 284/425/12 269/424/12 271/426/12
f 285/407/12 271/427/12 273/428/12
f 286/429/12 273/428/12 275/430/12
f 277/431/12 275/430/12 257/414/12
f 288/432/11 260/433/11 258/434/11
f 287/435/11 262/436/11 260/433/11
f 289/437/11 264/438/11 262/436/11
f 290/439/11 266/440/11 264/438/11
f 266/440/11 292/441/11 268/442/11
f 268/442/11 293/443/11 270/444/11
f 293/443/11 272/445/11 270/444/11
f 294/408/11 274/446/11 272/447/11
f 295/411/11 276/448/11 274/446/11
f 276/448/11 288/432/11 258/434/11
f 259/449/7 262/450/7 261/451/7
f 272/447/3 273/428/3 271/427/3
f 262/450/8 263/452/8 261/451/8
f 264/453/9 265/454/9 263/452/9
f 270/455/2 271/456/2 269/457/2
f 268/458/1 269/457/1 267/459/1
f 265/454/10 268/458/10 267/459/10
f 308/460/13 299/461/13 300/462/13
f 303/463/13 300/462/13 299/461/13
f 301/464/11 304/465/11 303/466/11
f 297/467/14 302/468/14 301/469/14
f 297/470/3 303/466/3 299/471/3
f 302/472/8 300/473/8 304/465/8
f 305/474/12 307/475/12 306/476/12
f 306/477/14 298/478/14 297/467/14
f 307/475/8 300/473/8 298/479/8
f 311/480/13 299/461/13 305/481/13
f 311/480/3 310/482/3 309/483/3
f 312/484/12 305/474/12 306/476/12
f 310/482/14 306/477/14 297/467/14
f 309/485/11 297/470/11 299/471/11
f 258/486/6 259/449/6 257/487/6
f 276/488/5 257/487/5 275/489/5
f 273/428/4 276/488/4 275/489/4
f 333/490/1 335/491/1 336/492/1
f 337/493/2 335/491/2 334/494/2
f 339/495/3 338/496/3 337/493/3
f 339/495/4 342/497/4 340/498/4
f 343/499/5 342/497/5 341/500/5
f 345/501/6 344/502/6 343/503/6
f 347/504/7 346/505/7 345/501/7
f 349/506/8 348/507/8 347/504/8
f 322/508/11 330/509/11 314/510/11
f 351/511/9 350/512/9 349/506/9
f 351/511/10 336/492/10 352/513/10
f 327/514/12 319/515/12 315/516/12
f 354/517/12 333/490/12 353/518/12
f 356/519/11 335/491/11 355/520/11
f 337/493/12 354/517/12 357/521/12
f 355/520/11 338/496/11 358/522/11
f 339/495/12 357/521/12 359/523/12
f 358/522/11 340/498/11 360/524/11
f 341/500/12 359/523/12 361/525/12
f 340/498/11 362/526/11 360/524/11
f 343/499/12 361/525/12 363/527/12
f 342/497/11 364/528/11 362/526/11
f 345/501/12 363/529/12 365/530/12
f 344/502/11 366/531/11 364/532/11
f 347/504/12 365/530/12 367/533/12
f 366/531/11 348/507/11 368/534/11
f 369/535/12 347/504/12 367/533/12
f 348/507/11 370/536/11 368/534/11
f 351/511/12 369/535/12 371/537/12
f 350/512/11 372/538/11 370/536/11
f 333/490/12 371/537/12 353/518/12
f 352/513/11 356/519/11 372/538/11
f 406/539/7 328/540/7 326/541/7
f 385/542/2 367/533/2 365/530/2
f 407/543/7 325/544/7 327/514/7
f 386/545/1 364/532/1 366/531/1
f 324/546/6 406/539/6 326/541/6
f 383/547/1 365/530/1 363/529/1
f 325/544/6 403/548/6 323/549/6
f 364/528/10 382/550/10 362/526/10
f 402/551/5 324/546/5 322/508/5
f 361/525/10 383/552/10 363/527/10
f 323/549/5 401/553/5 321/554/5
f 382/550/9 360/524/9 362/526/9
f 400/555/4 322/508/4 320/556/4
f 379/557/9 361/525/9 359/523/9
f 401/553/4 319/515/4 321/554/4
f 376/558/5 372/538/5 356/519/5
f 412/559/10 314/510/10 332/560/10
f 380/561/8 358/522/8 360/524/8
f 398/562/3 320/556/3 318/563/3
f 391/564/5 353/518/5 371/537/5
f 374/565/12 393/566/12 394/567/12
f 396/568/11 375/569/11 395/570/11
f 397/571/12 374/565/12 394/567/12
f 395/570/11 378/572/11 398/573/11
f 399/574/12 377/575/12 397/571/12
f 378/572/11 400/576/11 398/573/11
f 401/577/12 379/578/12 399/574/12
f 380/579/11 402/580/11 400/576/11
f 383/581/12 401/577/12 403/582/12
f 402/580/11 384/583/11 404/584/11
f 405/585/12 383/581/12 403/582/12
f 384/583/11 406/586/11 404/584/11
f 387/587/12 405/585/12 407/588/12
f 406/586/11 388/589/11 408/590/11
f 389/591/12 407/588/12 409/592/12
f 408/590/11 390/593/11 410/594/11
f 391/595/12 409/592/12 411/596/12
f 390/593/11 412/597/11 410/594/11
f 393/566/12 391/595/12 411/596/12
f 392/598/11 396/568/11 412/597/11
f 388/599/2 366/531/2 368/534/2
f 394/600/1 313/601/1 315/516/1
f 373/602/6 354/517/6 353/518/6
f 409/603/8 327/514/8 329/604/8
f 387/605/3 369/535/3 367/533/3
f 396/606/1 316/607/1 314/510/1
f 375/608/6 356/519/6 355/520/6
f 408/609/8 330/509/8 328/540/8
f 390/610/3 368/534/3 370/536/3
f 397/611/2 315/516/2 317/612/2
f 374/613/7 357/521/7 354/517/7
f 411/614/9 329/604/9 331/615/9
f 369/535/4 391/564/4 371/537/4
f 395/616/2 318/563/2 316/607/2
f 358/522/7 375/608/7 355/520/7
f 410/617/9 332/560/9 330/509/9
f 372/538/4 390/610/4 370/536/4
f 399/618/3 317/612/3 319/515/3
f 377/619/8 359/523/8 357/521/8
f 393/620/10 331/615/10 313/601/10
f 433/621/1 435/622/1 436/623/1
f 437/624/2 435/622/2 434/625/2
f 439/626/3 438/627/3 437/624/3
f 441/628/4 440/629/4 439/626/4
f 443/630/5 442/631/5 441/628/5
f 445/632/6 444/633/6 443/630/6
f 447/634/7 446/635/7 445/632/7
f 449/636/8 448/637/8 447/634/8
f 422/638/11 430/639/11 414/640/11
f 451/641/9 450/642/9 449/636/9
f 451/641/10 436/643/10 452/644/10
f 427/645/12 419/646/12 415/647/12
f 454/648/12 433/621/12 453/649/12
f 456/650/11 435/622/11 455/651/11
f 457/652/12 434/625/12 454/648/12
f 435/622/11 458/653/11 455/651/11
f 459/654/12 437/624/12 457/652/12
f 438/627/11 460/655/11 458/653/11
f 441/628/12 459/654/12 461/656/12
f 440/629/11 462/657/11 460/655/11
f 443/630/12 461/656/12 463/658/12
f 442/631/11 464/659/11 462/657/11
f 445/632/12 463/658/12 465/660/12
f 444/633/11 466/661/11 464/659/11
f 447/634/12 465/660/12 467/662/12
f 446/635/11 468/663/11 466/661/11
f 449/636/12 467/662/12 469/664/12
f 468/663/11 450/642/11 470/665/11
f 471/666/12 449/636/12 469/664/12
f 450/642/11 472/667/11 470/665/11
f 433/668/12 471/666/12 453/669/12
f 452/644/11 456/670/11 472/667/11
f 506/671/7 428/672/7 426/673/7
f 485/674/2 467/662/2 465/660/2
f 427/645/7 505/675/7 425/676/7
f 486/677/1 464/659/1 466/661/1
f 424/678/6 506/671/6 426/673/6
f 483/679/1 465/660/1 463/658/1
f 425/676/6 503/680/6 423/681/6
f 464/659/10 482/682/10 462/657/10
f 502/683/5 424/678/5 422/638/5
f 481/684/10 463/658/10 461/656/10
f 503/680/5 421/685/5 423/681/5
f 482/682/9 460/655/9 462/657/9
f 500/686/4 422/638/4 420/687/4
f 479/688/9 461/656/9 459/654/9
f 421/685/4 499/689/4 419/646/4
f 476/690/5 472/667/5 456/670/5
f 512/691/10 414/640/10 432/692/10
f 480/693/8 458/653/8 460/655/8
f 498/694/3 420/687/3 418/695/3
f 491/696/5 453/669/5 471/666/5
f 474/697/12 493/698/12 494/699/12
f 476/700/11 495/701/11 496/702/11
f 477/703/12 494/699/12 497/704/12
f 495/701/11 478/705/11 498/706/11
f 479/707/12 497/704/12 499/708/12
f 498/706/11 480/709/11 500/710/11
f 481/711/12 499/708/12 501/712/12
f 480/709/11 502/713/11 500/710/11
f 503/714/12 481/711/12 501/712/12
f 482/715/11 504/716/11 502/713/11
f 485/717/12 503/714/12 505/718/12
f 504/716/11 486/719/11 506/720/11
f 487/721/12 505/718/12 507/722/12
f 486/719/11 508/723/11 506/720/11
f 509/724/12 487/721/12 507/722/12
f 488/725/11 510/726/11 508/723/11
f 511/727/12 489/728/12 509/724/12
f 490/729/11 512/730/11 510/726/11
f 473/731/12 511/727/12 493/698/12
f 492/732/11 496/702/11 512/730/11
f 488/733/2 466/661/2 468/663/2
f 494/734/1 413/735/1 415/647/1
f 473/736/6 454/648/6 453/649/6
f 509/737/8 427/645/8 429/738/8
f 487/739/3 469/664/3 467/662/3
f 414/640/1 495/740/1 416/741/1
f 475/742/6 456/650/6 455/651/6
f 508/743/8 430/639/8 428/672/8
f 490/744/3 468/663/3 470/665/3
f 497/745/2 415/647/2 417/746/2
f 454/648/7 477/747/7 457/652/7
f 511/748/9 429/738/9 431/749/9
f 469/664/4 491/696/4 471/666/4
f 495/740/2 418/695/2 416/741/2
f 458/653/7 475/742/7 455/651/7
f 510/750/9 432/692/9 430/639/9
f 472/667/4 490/744/4 470/665/4
f 499/689/3 417/746/3 419/646/3
f 477/747/8 459/654/8 457/652/8
f 493/751/10 431/749/10 413/735/10
f 525/752/15 513/753/15 523/754/15
f 528/755/12 526/756/12 522/757/12
f 520/758/8 524/759/8 530/760/8
f 517/761/11 518/762/11 514/763/11
f 520/758/13 527/764/13 519/765/13
f 515/766/16 516/767/16 517/768/16
f 524/769/17 525/770/17 526/771/17
f 515/766/18 514/772/18 513/773/18
f 516/767/19 521/774/19 517/768/19
f 519/775/20 521/774/20 520/776/20
f 529/777/21 527/778/21 530/779/21
f 524/769/22 529/777/22 530/779/22
f 525/770/23 522/780/23 526/771/23
f 516/767/24 525/770/24 524/769/24
f 528/755/3 523/754/3 514/763/3
f 32/1/1 31/4/1 22/2/1
f 31/4/2 33/6/2 23/5/2
f 33/6/3 34/8/3 24/7/3
f 34/8/4 35/781/4 25/9/4
f 25/9/5 35/781/5 36/10/5
f 36/10/6 37/13/6 27/12/6
f 37/13/7 38/782/7 28/14/7
f 38/15/8 39/18/8 29/16/8
f 39/18/9 40/20/9 30/19/9
f 40/20/10 32/1/10 21/3/10
f 1/21/11 21/40/11 22/22/11
f 3/23/11 22/22/11 23/24/11
f 5/25/11 23/24/11 24/26/11
f 7/27/11 24/26/11 25/28/11
f 9/29/11 25/28/11 26/30/11
f 11/31/11 26/30/11 27/32/11
f 13/33/11 27/32/11 28/34/11
f 15/36/11 28/17/11 29/16/11
f 17/37/11 29/16/11 30/38/11
f 19/39/11 30/38/11 21/40/11
f 4/41/12 31/45/12 32/42/12
f 6/44/12 33/47/12 31/45/12
f 8/46/12 34/49/12 33/47/12
f 10/48/12 35/51/12 34/49/12
f 12/50/12 36/53/12 35/51/12
f 14/52/12 37/55/12 36/53/12
f 16/54/12 38/783/12 37/55/12
f 18/56/12 39/18/12 38/15/12
f 20/58/12 40/59/12 39/18/12
f 2/43/12 32/42/12 40/59/12
f 5/60/7 6/64/7 4/61/7
f 17/37/3 18/56/3 16/57/3
f 7/63/8 8/66/8 6/64/8
f 9/65/9 10/71/9 8/66/9
f 15/36/2 16/57/2 14/67/2
f 13/68/1 14/67/1 12/69/1
f 11/70/10 12/69/10 10/71/10
f 43/72/13 49/92/13 52/73/13
f 44/74/13 48/784/13 47/75/13
f 48/76/12 46/85/12 45/77/12
f 45/79/14 46/785/14 42/80/14
f 47/78/3 45/77/3 41/82/3
f 44/84/8 42/90/8 46/85/8
f 51/86/11 52/786/11 49/87/11
f 42/80/14 51/787/14 50/89/14
f 44/84/8 52/786/8 51/86/8
f 43/72/13 53/94/13 55/91/13
f 54/93/3 56/95/3 55/91/3
f 49/87/11 55/91/11 56/95/11
f 50/89/14 56/95/14 54/93/14
f 41/82/12 54/788/12 53/96/12
f 3/62/6 4/61/6 2/97/6
f 1/98/5 2/97/5 20/99/5
f 19/100/4 20/99/4 18/56/4
f 80/101/1 79/104/1 78/102/1
f 79/104/2 82/106/2 81/105/2
f 82/106/3 84/108/3 83/107/3
f 84/108/4 86/110/4 85/109/4
f 86/110/5 88/138/5 87/111/5
f 88/112/6 90/145/6 89/113/6
f 89/113/7 90/145/7 92/115/7
f 92/115/8 94/121/8 93/117/8
f 62/120/12 60/230/12 58/174/12
f 58/174/12 76/176/12 74/118/12
f 74/118/12 72/150/12 70/152/12
f 70/152/12 68/158/12 66/119/12
f 66/119/12 64/170/12 62/120/12
f 62/120/12 58/174/12 74/118/12
f 74/118/12 70/152/12 66/119/12
f 94/121/9 96/123/9 95/122/9
f 96/123/10 80/101/10 77/103/10
f 75/126/11 57/223/11 59/225/11
f 59/225/11 61/236/11 63/124/11
f 63/124/11 65/172/11 67/160/11
f 67/160/11 69/154/11 71/125/11
f 71/125/11 73/228/11 75/126/11
f 75/126/11 59/225/11 63/124/11
f 63/124/11 67/160/11 71/125/11
f 97/127/11 77/103/11 78/102/11
f 99/129/12 79/104/12 80/101/12
f 98/128/11 78/102/11 81/105/11
f 102/132/12 82/106/12 79/104/12
f 101/131/11 81/105/11 83/107/11
f 102/132/12 104/136/12 84/108/12
f 105/134/11 103/133/11 83/107/11
f 106/135/12 86/110/12 84/108/12
f 107/137/11 105/134/11 85/109/11
f 106/135/12 108/163/12 88/138/12
f 107/139/11 87/114/11 89/113/11
f 110/141/12 90/145/12 88/112/12
f 109/140/11 89/113/11 91/116/11
f 112/144/12 92/115/12 90/145/12
f 113/146/11 111/143/11 91/116/11
f 114/147/12 94/121/12 92/115/12
f 113/146/11 93/117/11 95/122/11
f 114/147/12 116/149/12 96/123/12
f 115/148/11 95/122/11 77/103/11
f 116/149/12 100/130/12 80/101/12
f 72/150/7 152/233/7 150/151/7
f 111/143/2 131/229/2 129/153/2
f 69/154/7 149/161/7 151/155/7
f 108/142/1 128/789/1 130/156/1
f 70/152/6 150/151/6 148/157/6
f 109/140/1 129/153/1 127/159/1
f 67/160/6 147/790/6 149/161/6
f 106/135/10 126/168/10 128/162/10
f 68/158/5 148/791/5 146/164/5
f 107/137/10 127/792/10 125/165/10
f 67/160/5 65/172/5 145/166/5
f 104/136/9 124/177/9 126/168/9
f 66/119/4 146/164/4 144/169/4
f 105/134/9 125/165/9 123/171/9
f 63/124/4 143/244/4 145/166/4
f 116/149/5 136/243/5 120/173/5
f 58/174/10 140/231/10 156/175/10
f 102/132/8 122/241/8 124/177/8
f 64/170/3 144/169/3 142/178/3
f 97/127/5 117/226/5 135/179/5
f 137/180/11 117/220/11 118/181/11
f 140/183/12 139/189/12 119/184/12
f 138/182/11 118/181/11 121/186/11
f 142/188/12 122/193/12 119/184/12
f 143/190/11 141/187/11 121/186/11
f 144/192/12 124/197/12 122/193/12
f 145/194/11 143/190/11 123/191/11
f 146/196/12 126/201/12 124/197/12
f 145/194/11 125/195/11 127/198/11
f 146/196/12 148/793/12 128/200/12
f 149/202/11 147/794/11 127/203/11
f 150/205/12 130/211/12 128/206/12
f 149/202/11 129/204/11 131/208/11
f 152/210/12 132/215/12 130/211/12
f 151/209/11 131/208/11 133/212/11
f 152/210/12 154/219/12 134/214/12
f 155/216/11 153/213/11 133/212/11
f 156/218/12 136/221/12 134/214/12
f 155/216/11 135/217/11 117/220/11
f 140/183/12 120/185/12 136/221/12
f 112/144/2 110/141/2 130/156/2
f 57/223/1 137/246/1 138/224/1
f 98/128/6 118/237/6 117/226/6
f 71/125/8 151/155/8 153/227/8
f 113/146/3 133/239/3 131/229/3
f 60/230/1 139/240/1 140/231/1
f 100/130/6 120/173/6 119/232/6
f 74/118/8 154/242/8 152/233/8
f 112/144/3 132/222/3 134/234/3
f 59/225/2 138/224/2 141/235/2
f 101/131/7 121/245/7 118/237/7
f 73/228/9 153/227/9 155/238/9
f 115/148/4 135/179/4 133/239/4
f 62/120/2 142/178/2 139/240/2
f 99/129/7 119/232/7 122/241/7
f 76/176/9 156/175/9 154/242/9
f 114/147/4 134/234/4 136/243/4
f 61/236/3 141/235/3 143/244/3
f 103/133/8 123/171/8 121/245/8
f 75/126/10 155/238/10 137/246/10
f 180/247/1 179/250/1 178/248/1
f 179/250/2 182/252/2 181/251/2
f 182/252/3 184/283/3 183/253/3
f 183/253/4 184/283/4 186/254/4
f 185/255/5 186/254/5 188/256/5
f 188/256/6 190/259/6 189/258/6
f 190/259/7 192/261/7 191/260/7
f 192/261/8 194/266/8 193/262/8
f 162/265/12 160/375/12 158/320/12
f 158/320/12 176/322/12 174/263/12
f 174/263/12 172/296/12 170/298/12
f 170/298/12 168/304/12 166/264/12
f 166/264/12 164/315/12 162/265/12
f 162/265/12 158/320/12 174/263/12
f 174/263/12 170/298/12 166/264/12
f 194/266/9 196/268/9 195/267/9
f 196/268/10 180/295/10 177/269/10
f 175/272/11 157/368/11 159/370/11
f 159/370/11 161/381/11 163/270/11
f 163/270/11 165/317/11 167/306/11
f 167/306/11 169/300/11 171/271/11
f 171/271/11 173/373/11 175/272/11
f 175/272/11 159/370/11 163/270/11
f 163/270/11 167/306/11 171/271/11
f 197/273/11 177/249/11 178/248/11
f 199/275/12 179/250/12 180/247/12
f 198/274/11 178/248/11 181/251/11
f 199/275/12 202/280/12 182/252/12
f 203/278/11 201/277/11 181/251/11
f 204/279/12 184/283/12 182/252/12
f 205/281/11 203/278/11 183/253/11
f 206/282/12 186/254/12 184/283/12
f 207/284/11 205/281/11 185/255/11
f 206/282/12 208/287/12 188/256/12
f 207/284/11 187/257/11 189/258/11
f 210/286/12 190/259/12 188/256/12
f 209/285/11 189/258/11 191/260/11
f 212/289/12 192/261/12 190/259/12
f 211/288/11 191/260/11 193/262/11
f 212/289/12 214/293/12 194/266/12
f 215/291/11 213/290/11 193/262/11
f 216/292/12 196/268/12 194/266/12
f 215/291/11 195/267/11 177/269/11
f 216/292/12 200/319/12 180/295/12
f 172/296/7 252/378/7 250/297/7
f 211/288/2 231/374/2 229/299/2
f 169/300/7 249/307/7 251/301/7
f 208/287/1 228/308/1 230/302/1
f 170/298/6 250/297/6 248/303/6
f 209/285/1 229/795/1 227/305/1
f 167/306/6 247/312/6 249/307/6
f 206/282/10 226/313/10 228/308/10
f 168/304/5 248/303/5 246/309/5
f 207/284/10 227/305/10 225/310/10
f 167/306/5 165/317/5 245/311/5
f 204/279/9 224/323/9 226/313/9
f 166/264/4 246/309/4 244/314/4
f 205/281/9 225/310/9 223/316/9
f 163/270/4 243/389/4 245/311/4
f 216/292/5 236/388/5 220/318/5
f 158/320/10 240/796/10 256/321/10
f 202/280/8 222/386/8 224/323/8
f 164/315/3 244/314/3 242/324/3
f 197/294/5 217/797/5 235/325/5
f 238/326/11 237/798/11 217/327/11
f 239/329/12 219/335/12 220/330/12
f 238/326/11 218/328/11 221/332/11
f 242/334/12 222/339/12 219/335/12
f 241/333/11 221/332/11 223/336/11
f 242/334/12 244/342/12 224/338/12
f 243/337/11 223/336/11 225/340/11
f 244/342/12 246/347/12 226/343/12
f 247/344/11 245/341/11 225/340/11
f 248/346/12 228/351/12 226/343/12
f 247/344/11 227/345/11 229/348/11
f 250/350/12 230/355/12 228/351/12
f 249/349/11 229/348/11 231/352/11
f 250/350/12 252/359/12 232/354/12
f 253/356/11 251/353/11 231/352/11
f 254/358/12 234/363/12 232/354/12
f 255/360/11 253/356/11 233/357/11
f 256/362/12 236/366/12 234/363/12
f 255/360/11 235/361/11 217/364/11
f 256/362/12 240/331/12 220/330/12
f 212/289/2 210/286/2 230/302/2
f 157/368/1 237/799/1 238/369/1
f 198/274/6 218/382/6 217/371/6
f 171/271/8 251/301/8 253/372/8
f 213/290/3 233/384/3 231/374/3
f 160/375/1 239/385/1 240/376/1
f 200/276/6 220/800/6 219/377/6
f 174/263/8 254/387/8 252/378/8
f 212/289/3 232/367/3 234/379/3
f 159/370/2 238/369/2 241/380/2
f 201/277/7 221/390/7 218/382/7
f 173/373/9 253/372/9 255/383/9
f 215/291/4 235/325/4 233/384/4
f 162/265/2 242/324/2 239/385/2
f 199/275/7 219/377/7 222/386/7
f 176/322/9 256/321/9 254/387/9
f 214/293/4 234/379/4 236/388/4
f 161/381/3 241/380/3 243/389/3
f 203/278/8 223/316/8 221/390/8
f 175/272/10 255/383/10 237/391/10
f 278/392/1 287/396/1 288/393/1
f 278/392/2 279/398/2 289/395/2
f 280/397/3 290/400/3 289/395/3
f 281/399/4 291/402/4 290/400/4
f 281/399/5 282/403/5 292/401/5
f 282/403/6 283/406/6 293/404/6
f 284/405/7 294/801/7 293/404/7
f 285/407/8 295/411/8 294/408/8
f 285/407/9 286/412/9 296/410/9
f 277/394/10 288/393/10 296/410/10
f 278/413/12 277/431/12 257/414/12
f 279/416/12 278/413/12 259/415/12
f 280/418/12 279/416/12 261/417/12
f 281/420/12 280/418/12 263/419/12
f 267/422/12 282/802/12 281/420/12
f 283/423/12 282/802/12 267/422/12
f 284/425/12 283/423/12 269/424/12
f 285/407/12 284/409/12 271/427/12
f 286/429/12 285/407/12 273/428/12
f 277/431/12 286/429/12 275/430/12
f 288/432/11 287/435/11 260/433/11
f 287/435/11 289/437/11 262/436/11
f 289/437/11 290/439/11 264/438/11
f 290/439/11 291/803/11 266/440/11
f 266/440/11 291/803/11 292/441/11
f 268/442/11 292/441/11 293/443/11
f 293/443/11 294/804/11 272/445/11
f 294/408/11 295/411/11 274/446/11
f 295/411/11 296/805/11 276/448/11
f 276/448/11 296/805/11 288/432/11
f 259/449/7 260/806/7 262/450/7
f 272/447/3 274/446/3 273/428/3
f 262/450/8 264/453/8 263/452/8
f 264/453/9 266/807/9 265/454/9
f 270/455/2 272/808/2 271/456/2
f 268/458/1 270/455/1 269/457/1
f 265/454/10 266/807/10 268/458/10
f 308/460/13 305/481/13 299/461/13
f 303/463/13 304/809/13 300/462/13
f 301/464/11 302/472/11 304/465/11
f 297/467/14 298/478/14 302/468/14
f 297/470/3 301/464/3 303/466/3
f 302/472/8 298/479/8 300/473/8
f 305/474/12 308/810/12 307/475/12
f 306/477/14 307/811/14 298/478/14
f 307/475/8 308/810/8 300/473/8
f 311/480/13 309/483/13 299/461/13
f 311/480/3 312/484/3 310/482/3
f 312/484/12 311/480/12 305/474/12
f 310/482/14 312/484/14 306/477/14
f 309/485/11 310/812/11 297/470/11
f 258/486/6 260/806/6 259/449/6
f 276/488/5 258/486/5 257/487/5
f 273/428/4 274/446/4 276/488/4
f 333/490/1 334/494/1 335/491/1
f 337/493/2 338/496/2 335/491/2
f 339/495/3 340/498/3 338/496/3
f 339/495/4 341/500/4 342/497/4
f 343/499/5 344/813/5 342/497/5
f 345/501/6 346/505/6 344/502/6
f 347/504/7 348/507/7 346/505/7
f 349/506/8 350/512/8 348/507/8
f 314/510/11 316/607/11 318/563/11
f 318/563/11 320/556/11 322/508/11
f 322/508/11 324/546/11 326/541/11
f 326/541/11 328/540/11 330/509/11
f 330/509/11 332/560/11 314/510/11
f 314/510/11 318/563/11 322/508/11
f 322/508/11 326/541/11 330/509/11
f 351/511/9 352/513/9 350/512/9
f 351/511/10 333/490/10 336/492/10
f 315/516/12 313/601/12 331/615/12
f 331/615/12 329/604/12 327/514/12
f 327/514/12 325/544/12 323/549/12
f 323/549/12 321/554/12 319/515/12
f 319/515/12 317/612/12 315/516/12
f 315/516/12 331/615/12 327/514/12
f 327/514/12 323/549/12 319/515/12
f 354/517/12 334/494/12 333/490/12
f 356/519/11 336/492/11 335/491/11
f 337/493/12 334/494/12 354/517/12
f 355/520/11 335/491/11 338/496/11
f 339/495/12 337/493/12 357/521/12
f 358/522/11 338/496/11 340/498/11
f 341/500/12 339/495/12 359/523/12
f 340/498/11 342/497/11 362/526/11
f 343/499/12 341/500/12 361/525/12
f 342/497/11 344/813/11 364/528/11
f 345/501/12 343/503/12 363/529/12
f 344/502/11 346/505/11 366/531/11
f 347/504/12 345/501/12 365/530/12
f 366/531/11 346/505/11 348/507/11
f 369/535/12 349/506/12 347/504/12
f 348/507/11 350/512/11 370/536/11
f 351/511/12 349/506/12 369/535/12
f 350/512/11 352/513/11 372/538/11
f 333/490/12 351/511/12 371/537/12
f 352/513/11 336/492/11 356/519/11
f 406/539/7 408/609/7 328/540/7
f 385/542/2 387/605/2 367/533/2
f 407/543/7 405/814/7 325/544/7
f 386/545/1 384/815/1 364/532/1
f 324/546/6 404/816/6 406/539/6
f 383/547/1 385/542/1 365/530/1
f 325/544/6 405/814/6 403/548/6
f 364/528/10 384/817/10 382/550/10
f 402/551/5 404/818/5 324/546/5
f 361/525/10 381/819/10 383/552/10
f 323/549/5 403/820/5 401/553/5
f 382/550/9 380/561/9 360/524/9
f 400/555/4 402/551/4 322/508/4
f 379/557/9 381/819/9 361/525/9
f 401/553/4 399/618/4 319/515/4
f 376/558/5 392/821/5 372/538/5
f 412/559/10 396/606/10 314/510/10
f 380/561/8 378/822/8 358/522/8
f 398/562/3 400/555/3 320/556/3
f 391/564/5 373/602/5 353/518/5
f 374/565/12 373/823/12 393/566/12
f 396/568/11 376/824/11 375/569/11
f 397/571/12 377/575/12 374/565/12
f 395/570/11 375/569/11 378/572/11
f 399/574/12 379/578/12 377/575/12
f 378/572/11 380/579/11 400/576/11
f 401/577/12 381/825/12 379/578/12
f 380/579/11 382/826/11 402/580/11
f 383/581/12 381/825/12 401/577/12
f 402/580/11 382/826/11 384/583/11
f 405/585/12 385/827/12 383/581/12
f 384/583/11 386/828/11 406/586/11
f 387/587/12 385/827/12 405/585/12
f 406/586/11 386/828/11 388/589/11
f 389/591/12 387/587/12 407/588/12
f 408/590/11 388/589/11 390/593/11
f 391/595/12 389/591/12 409/592/12
f 390/593/11 392/598/11 412/597/11
f 393/566/12 373/823/12 391/595/12
f 392/598/11 376/824/11 396/568/11
f 388/599/2 386/545/2 366/531/2
f 394/600/1 393/620/1 313/601/1
f 373/602/6 374/613/6 354/517/6
f 409/603/8 407/543/8 327/514/8
f 387/605/3 389/829/3 369/535/3
f 396/606/1 395/616/1 316/607/1
f 375/608/6 376/558/6 356/519/6
f 408/609/8 410/617/8 330/509/8
f 390/610/3 388/599/3 368/534/3
f 397/611/2 394/600/2 315/516/2
f 374/613/7 377/619/7 357/521/7
f 411/614/9 409/603/9 329/604/9
f 369/535/4 389/829/4 391/564/4
f 395/616/2 398/562/2 318/563/2
f 358/522/7 378/822/7 375/608/7
f 410/617/9 412/559/9 332/560/9
f 372/538/4 392/821/4 390/610/4
f 399/618/3 397/611/3 317/612/3
f 377/619/8 379/557/8 359/523/8
f 393/620/10 411/614/10 331/615/10
f 433/621/1 434/625/1 435/622/1
f 437/624/2 438/627/2 435/622/2
f 439/626/3 440/629/3 438/627/3
f 441/628/4 442/631/4 440/629/4
f 443/630/5 444/633/5 442/631/5
f 445/632/6 446/635/6 444/633/6
f 447/634/7 448/637/7 446/635/7
f 449/636/8 450/642/8 448/637/8
f 414/640/11 416/741/11 418/695/11
f 418/695/11 420/687/11 422/638/11
f 422/638/11 424/678/11 426/673/11
f 426/673/11 428/672/11 430/639/11
f 430/639/11 432/692/11 414/640/11
f 414/640/11 418/695/11 422/638/11
f 422/638/11 426/673/11 430/639/11
f 451/641/9 452/644/9 450/642/9
f 451/641/10 433/668/10 436/643/10
f 415/647/12 413/735/12 431/749/12
f 431/749/12 429/738/12 427/645/12
f 427/645/12 425/676/12 423/681/12
f 423/681/12 421/685/12 419/646/12
f 419/646/12 417/746/12 415/647/12
f 415/647/12 431/749/12 427/645/12
f 427/645/12 423/681/12 419/646/12
f 454/648/12 434/625/12 433/621/12
f 456/650/11 436/623/11 435/622/11
f 457/652/12 437/624/12 434/625/12
f 435/622/11 438/627/11 458/653/11
f 459/654/12 439/626/12 437/624/12
f 438/627/11 440/629/11 460/655/11
f 441/628/12 439/626/12 459/654/12
f 440/629/11 442/631/11 462/657/11
f 443/630/12 441/628/12 461/656/12
f 442/631/11 444/633/11 464/659/11
f 445/632/12 443/630/12 463/658/12
f 444/633/11 446/635/11 466/661/11
f 447/634/12 445/632/12 465/660/12
f 446/635/11 448/637/11 468/663/11
f 449/636/12 447/634/12 467/662/12
f 468/663/11 448/637/11 450/642/11
f 471/666/12 451/641/12 449/636/12
f 450/642/11 452/644/11 472/667/11
f 433/668/12 451/641/12 471/666/12
f 452/644/11 436/643/11 456/670/11
f 506/671/7 508/743/7 428/672/7
f 485/674/2 487/739/2 467/662/2
f 427/645/7 507/830/7 505/675/7
f 486/677/1 484/831/1 464/659/1
f 424/678/6 504/832/6 506/671/6
f 483/679/1 485/674/1 465/660/1
f 425/676/6 505/675/6 503/680/6
f 464/659/10 484/831/10 482/682/10
f 502/683/5 504/832/5 424/678/5
f 481/684/10 483/679/10 463/658/10
f 503/680/5 501/833/5 421/685/5
f 482/682/9 480/693/9 460/655/9
f 500/686/4 502/683/4 422/638/4
f 479/688/9 481/684/9 461/656/9
f 421/685/4 501/833/4 499/689/4
f 476/690/5 492/834/5 472/667/5
f 512/691/10 496/835/10 414/640/10
f 480/693/8 478/836/8 458/653/8
f 498/694/3 500/686/3 420/687/3
f 491/696/5 473/837/5 453/669/5
f 474/697/12 473/731/12 493/698/12
f 476/700/11 475/838/11 495/701/11
f 477/703/12 474/697/12 494/699/12
f 495/701/11 475/838/11 478/705/11
f 479/707/12 477/703/12 497/704/12
f 498/706/11 478/705/11 480/709/11
f 481/711/12 479/707/12 499/708/12
f 480/709/11 482/715/11 502/713/11
f 503/714/12 483/839/12 481/711/12
f 482/715/11 484/840/11 504/716/11
f 485/717/12 483/839/12 503/714/12
f 504/716/11 484/840/11 486/719/11
f 487/721/12 485/717/12 505/718/12
f 486/719/11 488/725/11 508/723/11
f 509/724/12 489/728/12 487/721/12
f 488/725/11 490/729/11 510/726/11
f 511/727/12 491/841/12 489/728/12
f 490/729/11 492/732/11 512/730/11
f 473/731/12 491/841/12 511/727/12
f 492/732/11 476/700/11 496/702/11
f 488/733/2 486/677/2 466/661/2
f 494/734/1 493/842/1 413/735/1
f 473/736/6 474/843/6 454/648/6
f 509/737/8 507/830/8 427/645/8
f 487/739/3 489/844/3 469/664/3
f 414/640/1 496/845/1 495/740/1
f 475/742/6 476/846/6 456/650/6
f 508/743/8 510/750/8 430/639/8
f 490/744/3 488/733/3 468/663/3
f 497/745/2 494/734/2 415/647/2
f 454/648/7 474/843/7 477/747/7
f 511/748/9 509/737/9 429/738/9
f 469/664/4 489/844/4 491/696/4
f 495/740/2 498/694/2 418/695/2
f 458/653/7 478/836/7 475/742/7
f 510/750/9 512/691/9 432/692/9
f 472/667/4 492/834/4 490/744/4
f 499/689/3 497/745/3 417/746/3
f 477/747/8 479/688/8 459/654/8
f 493/751/10 511/748/10 431/749/10
f 525/752/15 515/847/15 513/753/15
f 528/755/12 529/848/12 526/756/12
f 520/758/8 516/849/8 524/759/8
f 517/761/11 521/850/11 518/762/11
f 520/758/13 530/760/13 527/764/13
f 515/766/18 517/768/18 514/772/18
f 516/767/19 520/776/19 521/774/19
f 519/775/20 518/851/20 521/774/20
f 529/777/21 528/852/21 527/778/21
f 524/769/22 526/771/22 529/777/22
f 525/770/23 523/853/23 522/780/23
f 516/767/24 515/766/24 525/770/24
f 514/763/3 518/762/3 519/765/3
f 519/765/3 527/764/3 528/755/3
f 528/755/3 522/757/3 523/754/3
f 523/754/3 513/753/3 514/763/3
f 514/763/3 519/765/3 528/755/3
