# Blender 5.0.1
# www.blender.org
mtllib enemyBodySS01.mtl
o 小型空中敵
v -0.281250 0.057670 0.281250
v -0.210938 0.432670 0.210938
v -0.281250 0.057670 -0.281250
v -0.210938 0.432670 -0.210938
v 0.281250 0.057670 0.281250
v 0.210938 0.432670 0.210938
v 0.281250 0.057670 -0.281250
v 0.210938 0.432670 -0.210938
v -0.140625 -1.228966 0.011107
v 0.140625 -1.228966 0.011107
v -0.140625 -0.694587 -0.375000
v -0.140625 -1.228966 -0.375000
v 0.140625 -0.694587 -0.375000
v 0.140625 -1.228966 -0.375000
v -0.375000 -0.103966 0.281250
v -0.281250 -0.103966 0.375000
v 0.281250 -0.103966 0.375000
v 0.375000 -0.103966 0.281250
v 0.281250 -1.228966 -0.375000
v 0.375000 -1.228966 -0.281250
v -0.375000 -1.228966 -0.281250
v -0.281250 -1.228966 -0.375000
v -0.281250 -1.228966 0.375000
v -0.375000 -1.228966 0.281250
v -0.324236 -1.228966 0.296183
v -0.281250 -0.340214 -0.375000
v -0.375000 -0.103966 -0.281250
v -0.281250 -0.103966 -0.375000
v 0.375000 -0.103966 -0.281250
v 0.281250 -0.340214 -0.375000
v 0.281250 -0.103966 -0.375000
v 0.375000 -1.228966 0.281250
v 0.281250 -1.228966 0.375000
v 0.324236 -1.228966 0.296183
vn -0.9829 0.1843 -0.0000
vn -0.0000 0.1843 -0.9829
vn 0.9829 0.1843 -0.0000
vn -0.0000 0.1843 0.9829
vn -0.0000 -1.0000 -0.0000
vn -0.0000 1.0000 -0.0000
vn -0.0000 -0.0000 -1.0000
vn -1.0000 -0.0000 -0.0000
vn 1.0000 -0.0000 -0.0000
vn -0.7071 -0.0000 -0.7071
vn 0.7071 -0.0000 -0.7071
vn -0.7071 -0.0000 0.7071
vn 0.7071 -0.0000 0.7071
vn -0.0000 -0.0000 1.0000
vt 0.781739 0.403904
vt 0.693578 0.387657
vt 0.693578 0.290175
vt 0.781739 0.273928
vt 0.797986 0.185767
vt 0.895468 0.185767
vt 0.911715 0.273928
vt 0.999876 0.290175
vt 0.999876 0.387657
vt 0.911715 0.403904
vt 0.911715 0.000124
vt 0.895468 0.088285
vt 0.797986 0.088285
vt 0.781739 0.000124
vt 0.260076 0.021787
vt 0.281739 0.000124
vt 0.411715 0.000124
vt 0.433378 0.021787
vt 0.433378 0.151763
vt 0.411715 0.173426
vt 0.281739 0.173426
vt 0.260076 0.151763
vt 0.314233 0.606679
vt 0.314233 0.730157
vt 0.281739 0.812041
vt 0.281739 0.606679
vt 0.693329 0.151763
vt 0.693329 0.021787
vt 0.860689 0.657012
vt 0.795701 0.657012
vt 0.795701 0.567795
vt 0.860689 0.567795
vt 0.000124 0.021787
vt 0.000124 0.151763
vt 0.860689 0.780489
vt 0.795701 0.780489
vt 0.379221 0.730157
vt 0.379221 0.606679
vt 0.411715 0.606679
vt 0.411715 0.812041
vt 0.379221 0.517462
vt 0.314233 0.517462
vt 0.271806 0.451590
vt 0.281739 0.433378
vt 0.411715 0.433378
vt 0.421648 0.451590
vt 0.260076 0.585016
vt 0.260076 0.455040
vt 0.433378 0.455040
vt 0.433378 0.585016
vt 0.411715 0.866631
vt 0.281739 0.866631
vt 0.556928 0.751892
vt 0.617191 0.768830
vt 0.595529 0.790492
vt 0.076263 0.768830
vt 0.136526 0.751892
vt 0.097925 0.790493
vt 0.595529 0.249564
vt 0.617191 0.271226
vt 0.097925 0.249564
vt 0.076263 0.271226
s 0
usemtl マテリアル
f 1/1/1 2/2/1 4/3/1 3/4/1
f 3/4/2 4/5/2 8/6/2 7/7/2
f 7/7/3 8/8/3 6/9/3 5/10/3
f 5/11/4 6/12/4 2/13/4 1/14/4
f 3/4/5 7/7/5 5/10/5 1/1/5
f 8/6/6 4/5/6 2/13/6 6/12/6
f 29/15/6 31/16/6 28/17/6 27/18/6 15/19/6 16/20/6 17/21/6 18/22/6
f 14/23/7 13/24/7 30/25/7 19/26/7
f 24/27/8 15/19/8 27/18/8 21/28/8
f 12/29/5 14/30/5 10/31/5 9/32/5
f 20/33/9 29/15/9 18/22/9 32/34/9
f 12/29/7 11/35/7 13/36/7 14/30/7
f 11/37/7 12/38/7 22/39/7 26/40/7
f 9/41/5 10/42/5 34/43/5 33/44/5 23/45/5 25/46/5
f 10/42/5 14/23/5 19/26/5 20/47/5 32/48/5 34/43/5
f 12/38/5 9/41/5 25/46/5 24/49/5 21/50/5 22/39/5
f 13/24/7 11/37/7 26/40/7 28/51/7 31/52/7 30/25/7
f 23/45/5 24/49/5 25/46/5
f 26/53/10 27/54/10 28/55/10
f 29/56/11 30/57/11 31/58/11
f 32/48/5 33/44/5 34/43/5
f 23/45/12 16/59/12 15/60/12 24/49/12
f 26/53/10 22/39/10 21/50/10 27/54/10
f 29/56/11 20/47/11 19/26/11 30/57/11
f 17/61/13 33/44/13 32/48/13 18/62/13
f 33/44/14 17/21/14 16/20/14 23/45/14
