# Blender 5.0.1
# www.blender.org
mtllib enemyPropellerSS01.mtl
o 小型宮中敵プロペラ
v 0.000000 -0.093750 -0.187500
v 0.000000 0.093750 -0.187500
v 0.048529 -0.093750 -0.181111
v 0.048529 0.093750 -0.181111
v 0.093750 -0.093750 -0.162380
v 0.093750 0.093750 -0.162380
v 0.132583 -0.093750 -0.132583
v 0.132583 0.093750 -0.132583
v 0.162380 -0.093750 -0.093750
v 0.162380 0.093750 -0.093750
v 0.181111 -0.093750 -0.048529
v 0.181111 0.093750 -0.048529
v 0.187500 -0.093750 0.000000
v 0.187500 0.093750 0.000000
v 0.181111 -0.093750 0.048529
v 0.181111 0.093750 0.048529
v 0.162380 -0.093750 0.093750
v 0.162380 0.093750 0.093750
v 0.132583 -0.093750 0.132583
v 0.132583 0.093750 0.132583
v 0.093750 -0.093750 0.162380
v 0.093750 0.093750 0.162380
v 0.048529 -0.093750 0.181111
v 0.048529 0.093750 0.181111
v 0.000000 -0.093750 0.187500
v 0.000000 0.093750 0.187500
v -0.048529 -0.093750 0.181111
v -0.048529 0.093750 0.181111
v -0.093750 -0.093750 0.162380
v -0.093750 0.093750 0.162380
v -0.132583 -0.093750 0.132583
v -0.132583 0.093750 0.132583
v -0.162380 -0.093750 0.093750
v -0.162380 0.093750 0.093750
v -0.181111 -0.093750 0.048529
v -0.181111 0.093750 0.048529
v -0.187500 -0.093750 0.000000
v -0.187500 0.093750 0.000000
v -0.181111 -0.093750 -0.048529
v -0.181111 0.093750 -0.048529
v -0.162380 -0.093750 -0.093750
v -0.162380 0.093750 -0.093750
v -0.132583 -0.093750 -0.132583
v -0.132583 0.093750 -0.132583
v -0.093750 -0.093750 -0.162380
v -0.093750 0.093750 -0.162380
v -0.048529 -0.093750 -0.181111
v -0.048529 0.093750 -0.181111
v 0.000000 -0.031250 -0.187500
v 0.000000 0.031250 -0.187500
v 0.048529 0.031250 -0.181111
v 0.048529 -0.031250 -0.181111
v 0.093750 0.031250 -0.162380
v 0.093750 -0.031250 -0.162380
v 0.132583 0.031250 -0.132583
v 0.132583 -0.031250 -0.132583
v 0.162380 0.031250 -0.093750
v 0.162380 -0.031250 -0.093750
v 0.181111 0.031250 -0.048529
v 0.181111 -0.031250 -0.048529
v 0.187500 0.031250 0.000000
v 0.187500 -0.031250 0.000000
v 0.181111 0.031250 0.048529
v 0.181111 -0.031250 0.048529
v 0.162380 0.031250 0.093750
v 0.162380 -0.031250 0.093750
v 0.132583 0.031250 0.132583
v 0.132583 -0.031250 0.132583
v 0.093750 0.031250 0.162380
v 0.093750 -0.031250 0.162380
v 0.048529 0.031250 0.181111
v 0.048529 -0.031250 0.181111
v 0.000000 0.031250 0.187500
v 0.000000 -0.031250 0.187500
v -0.048529 0.031250 0.181111
v -0.048529 -0.031250 0.181111
v -0.093750 0.031250 0.162380
v -0.093750 -0.031250 0.162380
v -0.132583 0.031250 0.132583
v -0.132583 -0.031250 0.132583
v -0.162380 0.031250 0.093750
v -0.162380 -0.031250 0.093750
v -0.181111 0.031250 0.048529
v -0.181111 -0.031250 0.048529
v -0.187500 0.031250 0.000000
v -0.187500 -0.031250 0.000000
v -0.181111 0.031250 -0.048529
v -0.181111 -0.031250 -0.048529
v -0.162380 0.031250 -0.093750
v -0.162380 -0.031250 -0.093750
v -0.132583 0.031250 -0.132583
v -0.132583 -0.031250 -0.132583
v -0.093750 0.031250 -0.162380
v -0.093750 -0.031250 -0.162380
v -0.048529 0.031250 -0.181111
v -0.048529 -0.031250 -0.181111
v -1.099880 0.001562 0.078125
v -1.099880 -0.035312 0.109375
v -1.118611 0.009702 0.032904
v -1.118611 -0.027173 0.064154
v -1.125000 0.018438 -0.015625
v -1.125000 -0.018438 0.015625
v -1.118611 0.027173 -0.064154
v -1.118611 -0.009702 -0.032904
v -1.099880 0.035312 -0.109375
v -1.099880 -0.001562 -0.078125
v 1.099880 0.000458 -0.084261
v 1.099880 -0.034208 -0.103239
v 1.118611 0.008598 -0.039039
v 1.118611 -0.026068 -0.058018
v 1.125000 0.017333 0.009489
v 1.125000 -0.017333 -0.009489
v 1.118611 0.026068 0.058018
v 1.118611 -0.008598 0.039039
v 1.099880 0.034208 0.103239
v 1.099880 -0.000458 0.084261
v 0.684542 0.008598 -0.039039
v 0.665811 -0.000458 0.084261
v 0.684542 -0.008598 0.039039
v 0.665811 0.000458 -0.084261
v 0.665811 -0.034208 -0.103239
v 0.684542 -0.026068 -0.058018
v 0.690931 -0.017333 -0.009489
v 0.665811 0.034208 0.103239
v 0.684542 0.026068 0.058018
v 0.690931 0.017333 0.009489
v 0.901577 0.008598 -0.039039
v 0.901577 -0.008598 0.039039
v 0.901577 -0.026068 -0.058018
v 0.882845 0.034208 0.103239
v 0.907966 0.017333 0.009489
v 0.882845 -0.000458 0.084261
v 0.882845 0.000458 -0.084261
v 0.882845 -0.034208 -0.103239
v 0.907966 -0.017333 -0.009489
v 0.901577 0.026068 0.058018
v 0.414095 -0.005514 0.084261
v 0.414095 0.005514 -0.084261
v 0.414095 -0.028014 -0.103239
v 0.439216 -0.016764 -0.009489
v 0.432827 0.022587 0.058018
v 0.432827 0.010940 -0.039039
v 0.432827 -0.010940 0.039039
v 0.432827 -0.022587 -0.058018
v 0.414095 0.028014 0.103239
v 0.439216 0.016764 0.009489
v 0.561595 0.008598 -0.039039
v 0.561595 -0.008598 0.039039
v 0.561595 -0.026068 -0.058018
v 0.542864 0.034208 0.103239
v 0.567984 0.017333 0.009489
v 0.542864 -0.000458 0.084261
v 0.542864 0.000458 -0.084261
v 0.542864 -0.034208 -0.103239
v 0.567984 -0.017333 -0.009489
v 0.561595 0.026068 0.058018
v 0.774328 -0.000458 0.084261
v 0.774328 0.000458 -0.084261
v 0.774328 -0.034208 -0.103239
v 0.799448 -0.017333 -0.009489
v 0.793060 0.026068 0.058018
v 0.793060 0.008598 -0.039039
v 0.793060 -0.008598 0.039039
v 0.793060 -0.026068 -0.058018
v 0.774328 0.034208 0.103239
v 0.799448 0.017333 0.009489
v 0.288238 -0.010569 0.084261
v 0.288238 0.010569 -0.084261
v 0.288238 -0.021819 -0.103239
v 0.313358 -0.016194 -0.009489
v 0.306969 0.019106 0.058018
v 0.306969 0.013283 -0.039039
v 0.306969 -0.013283 0.039039
v 0.306969 -0.019106 -0.058018
v 0.288238 0.021819 0.103239
v 0.313358 0.016194 0.009489
v -0.649861 0.009702 0.032904
v -0.631130 -0.001562 -0.078125
v -0.649861 -0.009702 -0.032904
v -0.631130 0.001562 0.078125
v -0.649861 -0.027173 0.064154
v -0.656250 -0.018438 0.015625
v -0.631130 -0.035312 0.109375
v -0.631130 0.035312 -0.109375
v -0.649861 0.027173 -0.064154
v -0.656250 0.018438 -0.015625
v -0.396755 -0.006250 -0.078125
v -0.396755 0.006250 0.078125
v -0.421875 -0.017500 0.015625
v -0.396755 -0.028750 0.109375
v -0.415486 0.023323 -0.064154
v -0.415486 0.011677 0.032904
v -0.415486 -0.011677 -0.032904
v -0.415486 -0.023323 0.064154
v -0.396755 0.028750 -0.109375
v -0.421875 0.017500 -0.015625
v -0.279567 -0.010937 -0.078125
v -0.279567 0.010937 0.078125
v -0.304688 -0.016562 0.015625
v -0.279567 -0.022187 0.109375
v -0.298299 0.019474 -0.064154
v -0.298299 0.013651 0.032904
v -0.298299 -0.013651 -0.032904
v -0.298299 -0.019474 0.064154
v -0.279567 0.022187 -0.109375
v -0.304688 0.016562 -0.015625
v -0.532674 0.009702 0.032904
v -0.532674 -0.009702 -0.032904
v -0.532674 -0.027173 0.064154
v -0.513942 0.035312 -0.109375
v -0.539062 0.018438 -0.015625
v -0.513942 -0.001562 -0.078125
v -0.513942 0.001562 0.078125
v -0.539062 -0.018438 0.015625
v -0.513942 -0.035312 0.109375
v -0.532674 0.027173 -0.064154
v -0.884236 0.009702 0.032904
v -0.884236 -0.009702 -0.032904
v -0.884236 -0.027173 0.064154
v -0.865505 0.035312 -0.109375
v -0.890625 0.018438 -0.015625
v -0.865505 -0.001562 -0.078125
v -0.865505 0.001562 0.078125
v -0.890625 -0.018438 0.015625
v -0.865505 -0.035312 0.109375
v -0.884236 0.027173 -0.064154
v -0.748317 -0.001562 -0.078125
v -0.748317 0.001562 0.078125
v -0.773438 -0.018438 0.015625
v -0.748317 -0.035312 0.109375
v -0.767049 0.027173 -0.064154
v -0.767049 0.009702 0.032904
v -0.767049 -0.009702 -0.032904
v -0.767049 -0.027173 0.064154
v -0.748317 0.035312 -0.109375
v -0.773438 0.018438 -0.015625
v -1.001424 0.009702 0.032904
v -1.001424 -0.009702 -0.032904
v -1.001424 -0.027173 0.064154
v -0.982692 0.035312 -0.109375
v -1.007812 0.018438 -0.015625
v -0.982692 -0.001562 -0.078125
v -0.982692 0.001562 0.078125
v -1.007812 -0.018438 0.015625
v -0.982692 -0.035312 0.109375
v -1.001424 0.027173 -0.064154
v 1.010094 0.008598 -0.039039
v 1.010094 -0.008598 0.039039
v 1.010094 -0.026068 -0.058018
v 0.991363 0.034208 0.103239
v 1.016483 0.017333 0.009489
v 0.991363 -0.000458 0.084261
v 0.991363 0.000458 -0.084261
v 0.991363 -0.034208 -0.103239
v 1.016483 -0.017333 -0.009489
v 1.010094 0.026068 0.058018
vn 0.1305 -0.0000 -0.9914
vn 0.3827 -0.0000 -0.9239
vn 0.6088 -0.0000 -0.7934
vn 0.7934 -0.0000 -0.6088
vn 0.9239 -0.0000 -0.3827
vn 0.9914 -0.0000 -0.1305
vn 0.9914 -0.0000 0.1305
vn 0.9239 -0.0000 0.3827
vn 0.7934 -0.0000 0.6088
vn 0.6088 -0.0000 0.7934
vn 0.3827 -0.0000 0.9239
vn 0.1305 -0.0000 0.9914
vn -0.1305 -0.0000 0.9914
vn -0.3827 -0.0000 0.9239
vn -0.6088 -0.0000 0.7934
vn -0.7934 -0.0000 0.6088
vn -0.9239 -0.0000 0.3827
vn -0.9914 -0.0000 0.1305
vn -0.9914 -0.0000 -0.1305
vn -0.9239 -0.0000 -0.3827
vn -0.7934 -0.0000 -0.6088
vn -0.6088 -0.0000 -0.7934
vn -0.0000 1.0000 -0.0000
vn -0.3827 -0.0000 -0.9239
vn -0.1305 -0.0000 -0.9914
vn -0.0000 -1.0000 -0.0000
vn -0.0000 0.6465 0.7629
vn -0.0000 -0.9842 -0.1772
vn -0.0000 0.9842 0.1772
vn -0.0000 -0.9842 0.1772
vn -0.0000 0.4802 -0.8771
vn -0.0000 0.9842 -0.1772
vn -0.8420 -0.3488 -0.4116
vn -0.9799 -0.1290 -0.1522
vn -0.9799 0.1290 0.1522
vn -0.8420 0.3488 0.4116
vn -0.0000 -0.6465 -0.7629
vn 0.8858 -0.2228 0.4070
vn 0.9864 -0.0789 0.1441
vn 0.9864 0.0789 -0.1441
vn 0.8858 0.2228 -0.4070
vn -0.0000 -0.4802 0.8771
vn -0.0160 -0.9957 0.0917
vn 0.0223 0.4989 -0.8664
vn 0.0292 0.9944 -0.1016
vn 0.0292 -0.9944 0.1016
vn -0.0382 0.9937 -0.1053
vn 0.0223 -0.4989 0.8664
vn 0.0070 0.9959 -0.0906
vn 0.0070 -0.9959 0.0906
vn -0.0382 -0.9937 0.1053
vn -0.0160 0.9957 -0.0917
vn -0.0155 -0.9885 0.1503
vn 0.0212 0.4862 -0.8736
vn 0.0283 0.9867 -0.1598
vn 0.0283 -0.9867 0.1598
vn -0.0370 0.9859 -0.1632
vn 0.0212 -0.4862 0.8736
vn 0.0068 0.9888 -0.1492
vn 0.0068 -0.9888 0.1492
vn -0.0370 -0.9859 0.1632
vn -0.0155 0.9885 -0.1503
vn -0.0000 0.4802 -0.8772
vn 0.1086 0.9940 -0.0155
vn 0.0850 -0.9964 -0.0053
vn 0.1334 -0.9899 0.0473
vn 0.1334 0.9899 -0.0473
vn 0.0088 -0.1961 0.9805
vn 0.0850 0.9964 0.0053
vn 0.1581 -0.9829 0.0950
vn 0.1581 0.9829 -0.0950
vn 0.0088 0.1961 -0.9805
vn 0.1086 -0.9940 0.0155
vn -0.0324 0.6757 0.7365
vn 0.0203 -0.9955 -0.0923
vn -0.0283 0.9945 0.1012
vn -0.0283 -0.9945 -0.1012
vn 0.0441 0.9932 0.1077
vn -0.0044 0.9959 0.0902
vn -0.0324 -0.6757 -0.7365
vn -0.0044 -0.9959 -0.0902
vn 0.0441 -0.9932 -0.1077
vn 0.0203 0.9955 0.0923
vn -0.1141 0.9934 0.0148
vn -0.0877 -0.9961 0.0064
vn -0.1426 -0.9886 -0.0484
vn -0.0149 -0.3106 -0.9504
vn -0.1426 0.9886 0.0484
vn -0.0877 0.9961 -0.0064
vn -0.1719 -0.9800 -0.1006
vn -0.1719 0.9800 0.1006
vn -0.1141 -0.9934 -0.0148
vn -0.0149 0.3106 0.9504
vn -0.0315 0.6559 0.7542
vn 0.0202 -0.9883 -0.1509
vn -0.0280 0.9868 0.1596
vn -0.0280 -0.9868 -0.1596
vn 0.0438 0.9852 0.1659
vn -0.0044 0.9888 0.1489
vn -0.0315 -0.6559 -0.7542
vn -0.0044 -0.9888 -0.1489
vn 0.0438 -0.9852 -0.1659
vn 0.0202 0.9883 0.1509
vt 1.000000 0.833333
vt 1.000000 1.000000
vt 0.958333 1.000000
vt 0.958333 0.833333
vt 0.916667 1.000000
vt 0.916667 0.833333
vt 0.875000 1.000000
vt 0.875000 0.833333
vt 0.833333 1.000000
vt 0.833333 0.833333
vt 0.791667 1.000000
vt 0.791667 0.833333
vt 0.750000 1.000000
vt 0.750000 0.833333
vt 0.708333 1.000000
vt 0.708333 0.833333
vt 0.666667 1.000000
vt 0.666667 0.833333
vt 0.625000 1.000000
vt 0.625000 0.833333
vt 0.583333 1.000000
vt 0.583333 0.833333
vt 0.541666 1.000000
vt 0.541666 0.833333
vt 0.500000 1.000000
vt 0.500000 0.833333
vt 0.458333 1.000000
vt 0.458333 0.833333
vt 0.416666 1.000000
vt 0.416666 0.833333
vt 0.375000 1.000000
vt 0.375000 0.833333
vt 0.333333 1.000000
vt 0.333333 0.833333
vt 0.291667 1.000000
vt 0.291667 0.833333
vt 0.250000 1.000000
vt 0.250000 0.833333
vt 0.208333 1.000000
vt 0.208333 0.833333
vt 0.166666 1.000000
vt 0.166666 0.833333
vt 0.125000 1.000000
vt 0.125000 0.833333
vt 0.083333 1.000000
vt 0.083333 0.833333
vt 0.312117 0.481822
vt 0.250000 0.490000
vt 0.187883 0.481822
vt 0.130000 0.457846
vt 0.080294 0.419706
vt 0.042154 0.370000
vt 0.018178 0.312117
vt 0.010000 0.250000
vt 0.018178 0.187883
vt 0.042154 0.130000
vt 0.080294 0.080294
vt 0.130000 0.042154
vt 0.187883 0.018178
vt 0.250000 0.010000
vt 0.312117 0.018178
vt 0.370000 0.042154
vt 0.419706 0.080294
vt 0.457846 0.130000
vt 0.481822 0.187883
vt 0.490000 0.250000
vt 0.481822 0.312117
vt 0.457846 0.370000
vt 0.419706 0.419706
vt 0.370000 0.457846
vt 0.041666 1.000000
vt 0.041666 0.833333
vt -0.000000 1.000000
vt -0.000000 0.833333
vt 0.750000 0.490000
vt 0.812117 0.481822
vt 0.870000 0.457846
vt 0.919706 0.419706
vt 0.957846 0.370000
vt 0.981822 0.312117
vt 0.990000 0.250000
vt 0.981822 0.187883
vt 0.957846 0.130000
vt 0.919706 0.080294
vt 0.870000 0.042154
vt 0.812117 0.018178
vt 0.750000 0.010000
vt 0.687883 0.018178
vt 0.630000 0.042154
vt 0.580294 0.080294
vt 0.542154 0.130000
vt 0.518178 0.187883
vt 0.510000 0.250000
vt 0.518178 0.312117
vt 0.542154 0.370000
vt 0.580294 0.419706
vt 0.630000 0.457846
vt 0.687883 0.481822
vt 0.041666 0.500000
vt 0.041666 0.666667
vt -0.000000 0.666667
vt -0.000000 0.500000
vt 0.083333 0.500000
vt 0.083333 0.666667
vt 0.125000 0.500000
vt 0.125000 0.666667
vt 0.166666 0.500000
vt 0.166666 0.666667
vt 0.208333 0.500000
vt 0.208333 0.666667
vt 0.333333 0.666667
vt 0.250000 0.500000
vt 0.250000 0.666667
vt 0.250000 0.666667
vt 0.291667 0.666667
vt 0.291667 0.666667
vt 0.291667 0.500000
vt 0.291667 0.833333
vt 0.333333 0.500000
vt 0.166666 0.666667
vt 0.208333 0.666667
vt 0.375000 0.500000
vt 0.375000 0.666667
vt 0.416666 0.500000
vt 0.416666 0.666667
vt 0.458333 0.500000
vt 0.458333 0.666667
vt 0.500000 0.500000
vt 0.500000 0.666667
vt 0.541666 0.500000
vt 0.541666 0.666667
vt 0.583333 0.500000
vt 0.583333 0.666667
vt 0.625000 0.500000
vt 0.625000 0.666667
vt 0.666667 0.500000
vt 0.666667 0.666667
vt 0.708333 0.500000
vt 0.708333 0.666667
vt 0.750000 0.666667
vt 0.791667 0.666667
vt 0.750000 0.666667
vt 0.750000 0.500000
vt 0.833333 0.666667
vt 0.833333 0.666667
vt 0.791667 0.500000
vt 0.791667 0.833333
vt 0.833333 0.500000
vt 0.666667 0.666667
vt 0.875000 0.500000
vt 0.875000 0.666667
vt 0.916667 0.500000
vt 0.916667 0.666667
vt 0.958333 0.500000
vt 0.958333 0.666667
vt 1.000000 0.500000
vt 1.000000 0.666667
vt 0.250000 0.833333
vt 0.708333 0.833333
vt 0.750000 0.833333
vt 0.708333 0.666667
vt 0.791667 0.833333
vt 0.791667 0.833333
vt 0.666667 0.666667
vt 0.833333 0.833333
vt 0.750000 0.833333
vt 0.708333 0.833333
vt 0.666666 0.666667
vt 0.250000 0.833333
vt 0.208333 0.833333
vt 0.250000 0.666667
vt 0.250000 0.666667
vt 0.166666 0.666667
vt 0.333333 0.833333
vt 0.208333 0.833333
vt 0.250000 0.833333
s 0
usemtl マテリアル.001
f 50/1/1 2/2/1 4/3/1 51/4/1
f 51/4/2 4/3/2 6/5/2 53/6/2
f 53/6/3 6/5/3 8/7/3 55/8/3
f 55/8/4 8/7/4 10/9/4 57/10/4
f 57/10/5 10/9/5 12/11/5 59/12/5
f 59/12/6 12/11/6 14/13/6 61/14/6
f 61/14/7 14/13/7 16/15/7 63/16/7
f 63/16/8 16/15/8 18/17/8 65/18/8
f 65/18/9 18/17/9 20/19/9 67/20/9
f 67/20/10 20/19/10 22/21/10 69/22/10
f 69/22/11 22/21/11 24/23/11 71/24/11
f 71/24/12 24/23/12 26/25/12 73/26/12
f 73/26/13 26/25/13 28/27/13 75/28/13
f 75/28/14 28/27/14 30/29/14 77/30/14
f 77/30/15 30/29/15 32/31/15 79/32/15
f 79/32/16 32/31/16 34/33/16 81/34/16
f 81/34/17 34/33/17 36/35/17 83/36/17
f 83/36/18 36/35/18 38/37/18 85/38/18
f 85/38/19 38/37/19 40/39/19 87/40/19
f 87/40/20 40/39/20 42/41/20 89/42/20
f 89/42/21 42/41/21 44/43/21 91/44/21
f 91/44/22 44/43/22 46/45/22 93/46/22
f 4/47/23 2/48/23 48/49/23 46/50/23 44/51/23 42/52/23 40/53/23 38/54/23 36/55/23 34/56/23 32/57/23 30/58/23 28/59/23 26/60/23 24/61/23 22/62/23 20/63/23 18/64/23 16/65/23 14/66/23 12/67/23 10/68/23 8/69/23 6/70/23
f 93/46/24 46/45/24 48/71/24 95/72/24
f 95/72/25 48/71/25 2/73/25 50/74/25
f 1/75/26 3/76/26 5/77/26 7/78/26 9/79/26 11/80/26 13/81/26 15/82/26 17/83/26 19/84/26 21/85/26 23/86/26 25/87/26 27/88/26 29/89/26 31/90/26 33/91/26 35/92/26 37/93/26 39/94/26 41/95/26 43/96/26 45/97/26 47/98/26
f 47/99/25 96/100/25 49/101/25 1/102/25
f 96/100/25 95/72/25 50/74/25 49/101/25
f 45/103/24 94/104/24 96/100/24 47/99/24
f 94/104/24 93/46/24 95/72/24 96/100/24
f 43/105/22 92/106/22 94/104/22 45/103/22
f 92/106/22 91/44/22 93/46/22 94/104/22
f 41/107/21 90/108/21 92/106/21 43/105/21
f 90/108/21 89/42/21 91/44/21 92/106/21
f 39/109/20 88/110/20 90/108/20 41/107/20
f 245/111/27 243/34/27 97/34/27 98/111/27
f 37/112/19 86/113/19 88/110/19 39/109/19
f 244/114/28 239/115/28 100/116/28 102/113/28
f 35/117/18 84/116/18 86/113/18 37/112/18
f 243/34/29 237/118/29 99/36/29 97/34/29
f 33/119/17 82/111/17 84/116/17 35/117/17
f 242/120/28 238/121/28 104/110/28 106/108/28
f 31/122/16 80/123/16 82/111/16 33/119/16
f 80/123/16 79/32/16 81/34/16 82/111/16
f 29/124/15 78/125/15 80/123/15 31/122/15
f 78/125/15 77/30/15 79/32/15 80/123/15
f 27/126/14 76/127/14 78/125/14 29/124/14
f 76/127/14 75/28/14 77/30/14 78/125/14
f 25/128/13 74/129/13 76/127/13 27/126/13
f 74/129/13 73/26/13 75/28/13 76/127/13
f 23/130/12 72/131/12 74/129/12 25/128/12
f 72/131/12 71/24/12 73/26/12 74/129/12
f 21/132/11 70/133/11 72/131/11 23/130/11
f 70/133/11 69/22/11 71/24/11 72/131/11
f 19/134/10 68/135/10 70/133/10 21/132/10
f 68/135/10 67/20/10 69/22/10 70/133/10
f 17/136/9 66/137/9 68/135/9 19/134/9
f 66/137/9 65/18/9 67/20/9 68/135/9
f 15/138/8 64/139/8 66/137/8 17/136/8
f 255/140/30 249/141/30 110/141/30 112/142/30
f 13/143/7 62/142/7 64/139/7 15/138/7
f 254/144/31 253/10/31 107/10/31 108/145/31
f 11/146/6 60/141/6 62/142/6 13/143/6
f 253/10/32 247/147/32 109/12/32 107/10/32
f 9/148/5 58/145/5 60/141/5 11/146/5
f 252/149/30 248/139/30 114/139/30 116/137/30
f 7/150/4 56/151/4 58/145/4 9/148/4
f 56/151/4 55/8/4 57/10/4 58/145/4
f 5/152/3 54/153/3 56/151/3 7/150/3
f 54/153/3 53/6/3 55/8/3 56/151/3
f 3/154/2 52/155/2 54/153/2 5/152/2
f 52/155/2 51/4/2 53/6/2 54/153/2
f 1/156/1 49/157/1 52/155/1 3/154/1
f 49/157/1 50/1/1 51/4/1 52/155/1
f 104/110/33 103/40/33 105/42/33 106/108/33
f 102/113/34 101/38/34 103/40/34 104/110/34
f 100/116/35 99/36/35 101/38/35 102/113/35
f 98/111/36 97/34/36 99/36/36 100/116/36
f 246/40/29 240/42/29 105/42/29 103/40/29
f 237/118/29 241/158/29 101/38/29 99/36/29
f 240/42/37 242/120/37 106/108/37 105/42/37
f 238/121/28 244/114/28 102/113/28 104/110/28
f 239/115/28 245/111/28 98/111/28 100/116/28
f 241/158/29 246/40/29 103/40/29 101/38/29
f 114/139/38 113/16/38 115/18/38 116/137/38
f 112/142/39 111/14/39 113/16/39 114/139/39
f 110/141/40 109/12/40 111/14/40 112/142/40
f 108/145/41 107/10/41 109/12/41 110/141/41
f 256/159/32 250/18/32 115/18/32 113/16/32
f 250/18/42 252/149/42 116/137/42 115/18/42
f 247/147/32 251/14/32 111/14/32 109/12/32
f 248/139/30 255/140/30 112/142/30 114/139/30
f 249/141/30 254/144/30 108/145/30 110/141/30
f 251/14/32 256/159/32 113/16/32 111/14/32
f 151/160/32 156/159/32 125/159/32 126/14/32
f 149/141/30 154/145/30 121/145/30 122/141/30
f 148/139/30 155/142/30 123/142/30 119/161/30
f 147/162/32 151/160/32 126/14/32 117/163/32
f 150/18/42 152/164/42 118/164/42 124/18/42
f 156/159/32 150/18/32 124/18/32 125/159/32
f 152/164/30 148/139/30 119/161/30 118/164/30
f 153/165/32 147/162/32 117/163/32 120/10/32
f 154/145/31 153/165/31 120/10/31 121/145/31
f 155/142/30 149/141/30 122/141/30 123/142/30
f 166/166/32 161/167/32 136/159/32 131/14/32
f 164/141/30 159/144/30 134/144/30 129/141/30
f 163/139/30 160/142/30 135/140/30 128/139/30
f 162/12/32 166/166/32 131/14/32 127/147/32
f 165/18/42 157/168/42 132/149/42 130/18/42
f 161/167/32 165/18/32 130/18/32 136/159/32
f 157/168/30 163/139/30 128/139/30 132/149/30
f 158/165/32 162/12/32 127/147/32 133/10/32
f 159/144/31 158/165/31 133/10/31 134/144/31
f 160/142/30 164/141/30 129/141/30 135/140/30
f 170/140/43 174/141/43 144/141/43 140/142/43
f 169/144/44 168/165/44 138/165/44 139/144/44
f 168/165/45 172/147/45 142/163/45 138/165/45
f 167/149/46 173/139/46 143/139/46 137/168/46
f 171/16/47 175/18/47 145/18/47 141/167/47
f 175/18/48 167/149/48 137/168/48 145/18/48
f 172/147/49 176/160/49 146/166/49 142/163/49
f 173/139/50 170/140/50 140/142/50 143/139/50
f 174/141/51 169/144/51 139/144/51 144/141/51
f 176/160/52 171/16/52 141/167/52 146/166/52
f 140/142/53 144/141/53 149/141/53 155/142/53
f 139/144/54 138/165/54 153/165/54 154/145/54
f 138/165/55 142/163/55 147/162/55 153/165/55
f 137/168/56 143/139/56 148/139/56 152/164/56
f 141/167/57 145/18/57 150/18/57 156/159/57
f 145/18/58 137/168/58 152/164/58 150/18/58
f 142/163/59 146/166/59 151/160/59 147/162/59
f 143/139/60 140/142/60 155/142/60 148/139/60
f 144/141/61 139/144/61 154/145/61 149/141/61
f 146/166/62 141/167/62 156/159/62 151/160/62
f 123/142/30 122/141/30 164/141/30 160/142/30
f 121/145/63 120/10/63 158/165/63 159/144/63
f 120/10/32 117/163/32 162/12/32 158/165/32
f 118/164/30 119/161/30 163/139/30 157/168/30
f 125/159/32 124/18/32 165/18/32 161/167/32
f 124/18/42 118/164/42 157/168/42 165/18/42
f 117/163/32 126/14/32 166/166/32 162/12/32
f 119/161/30 123/142/30 160/142/30 163/139/30
f 122/141/30 121/145/30 159/144/30 164/141/30
f 126/14/32 125/159/32 161/167/32 166/166/32
f 61/14/64 63/16/64 171/16/64 176/160/64
f 60/141/65 58/145/65 169/144/65 174/141/65
f 64/139/66 62/142/66 170/140/66 173/139/66
f 59/12/67 61/14/67 176/160/67 172/147/67
f 65/18/68 66/137/68 167/149/68 175/18/68
f 63/16/69 65/18/69 175/18/69 171/16/69
f 66/137/70 64/139/70 173/139/70 167/149/70
f 57/10/71 59/12/71 172/147/71 168/165/71
f 58/145/72 57/10/72 168/165/72 169/144/72
f 62/142/73 60/141/73 174/141/73 170/140/73
f 211/169/29 216/170/29 185/40/29 186/158/29
f 209/116/28 215/111/28 183/111/28 181/115/28
f 208/110/28 214/171/28 182/172/28 179/121/28
f 210/42/37 212/173/37 178/120/37 184/42/37
f 207/36/29 211/169/29 186/158/29 177/118/29
f 216/170/29 210/42/29 184/42/29 185/40/29
f 212/173/28 208/110/28 179/121/28 178/120/28
f 213/174/29 207/36/29 177/118/29 180/34/29
f 214/171/28 209/116/28 181/115/28 182/172/28
f 215/111/27 213/174/27 180/34/27 183/111/27
f 200/111/74 198/34/74 188/174/74 190/111/74
f 199/114/75 204/115/75 194/116/75 189/171/75
f 198/34/76 202/118/76 192/36/76 188/174/76
f 197/120/77 203/121/77 193/110/77 187/173/77
f 201/40/78 205/42/78 195/42/78 191/175/78
f 202/118/79 206/176/79 196/176/79 192/36/79
f 205/42/80 197/120/80 187/173/80 195/42/80
f 203/121/81 199/114/81 189/171/81 193/110/81
f 204/115/82 200/111/82 190/111/82 194/116/82
f 206/176/83 201/40/83 191/175/83 196/176/83
f 85/38/84 87/40/84 201/40/84 206/176/84
f 84/116/85 82/111/85 200/111/85 204/115/85
f 88/110/86 86/113/86 199/114/86 203/121/86
f 89/42/87 90/108/87 197/120/87 205/42/87
f 83/36/88 85/38/88 206/176/88 202/118/88
f 87/40/89 89/42/89 205/42/89 201/40/89
f 90/108/90 88/110/90 203/121/90 197/120/90
f 81/34/91 83/36/91 202/118/91 198/34/91
f 86/113/92 84/116/92 204/115/92 199/114/92
f 82/111/93 81/34/93 198/34/93 200/111/93
f 190/111/94 188/174/94 213/174/94 215/111/94
f 189/171/95 194/116/95 209/116/95 214/171/95
f 188/174/96 192/36/96 207/36/96 213/174/96
f 187/173/97 193/110/97 208/110/97 212/173/97
f 191/175/98 195/42/98 210/42/98 216/170/98
f 192/36/99 196/176/99 211/169/99 207/36/99
f 195/42/100 187/173/100 212/173/100 210/42/100
f 193/110/101 189/171/101 214/171/101 208/110/101
f 194/116/102 190/111/102 215/111/102 209/116/102
f 196/176/103 191/175/103 216/170/103 211/169/103
f 236/176/29 231/175/29 226/40/29 221/158/29
f 234/115/28 230/111/28 225/111/28 219/115/28
f 233/110/28 229/171/28 224/114/28 218/121/28
f 235/42/37 227/108/37 222/120/37 220/42/37
f 232/36/29 236/176/29 221/158/29 217/118/29
f 231/175/29 235/42/29 220/42/29 226/40/29
f 227/108/28 233/110/28 218/121/28 222/120/28
f 228/174/29 232/36/29 217/118/29 223/34/29
f 229/171/28 234/115/28 219/115/28 224/114/28
f 230/111/27 228/174/27 223/34/27 225/111/27
f 183/111/27 180/34/27 228/174/27 230/111/27
f 182/172/28 181/115/28 234/115/28 229/171/28
f 180/34/29 177/118/29 232/36/29 228/174/29
f 178/120/28 179/121/28 233/110/28 227/108/28
f 185/40/29 184/42/29 235/42/29 231/175/29
f 177/118/29 186/158/29 236/176/29 232/36/29
f 184/42/37 178/120/37 227/108/37 235/42/37
f 179/121/28 182/172/28 229/171/28 233/110/28
f 181/115/28 183/111/28 230/111/28 234/115/28
f 186/158/29 185/40/29 231/175/29 236/176/29
f 221/158/29 226/40/29 246/40/29 241/158/29
f 219/115/28 225/111/28 245/111/28 239/115/28
f 218/121/28 224/114/28 244/114/28 238/121/28
f 220/42/37 222/120/37 242/120/37 240/42/37
f 217/118/29 221/158/29 241/158/29 237/118/29
f 226/40/29 220/42/29 240/42/29 246/40/29
f 222/120/28 218/121/28 238/121/28 242/120/28
f 223/34/29 217/118/29 237/118/29 243/34/29
f 224/114/28 219/115/28 239/115/28 244/114/28
f 225/111/27 223/34/27 243/34/27 245/111/27
f 131/14/32 136/159/32 256/159/32 251/14/32
f 129/141/30 134/144/30 254/144/30 249/141/30
f 128/139/30 135/140/30 255/140/30 248/139/30
f 127/147/32 131/14/32 251/14/32 247/147/32
f 130/18/42 132/149/42 252/149/42 250/18/42
f 136/159/32 130/18/32 250/18/32 256/159/32
f 132/149/30 128/139/30 248/139/30 252/149/30
f 133/10/32 127/147/32 247/147/32 253/10/32
f 134/144/31 133/10/31 253/10/31 254/144/31
f 135/140/30 129/141/30 249/141/30 255/140/30
