# Blender 3.6.0
# www.blender.org
mtllib enemyMuzzleSS01.mtl
o 小型空中敵武器
v -0.353553 -0.000000 -0.232583
v 0.000000 0.353553 -0.232583
v -0.353553 -0.000000 -4.232583
v 0.000000 0.353553 -4.232583
v 0.000000 -0.353554 -0.232583
v 0.353553 -0.000000 -0.232583
v 0.000000 -0.353554 -4.232583
v 0.353553 -0.000000 -4.232583
v -0.600000 0.599999 0.367417
v -0.600000 -0.600000 0.367417
v 0.000000 0.500000 -4.982583
v 0.000000 0.500000 -3.482583
v 0.353553 0.353553 -4.982583
v 0.353553 0.353553 -3.482583
v 0.500000 -0.000000 -4.982583
v 0.500000 -0.000000 -3.482583
v 0.353553 -0.353554 -4.982583
v 0.353553 -0.353554 -3.482583
v 0.000000 -0.500000 -4.982583
v 0.000000 -0.500000 -3.482583
v -0.353553 -0.353554 -4.982583
v -0.353553 -0.353554 -3.482583
v -0.500000 -0.000000 -4.982583
v -0.500000 -0.000000 -3.482583
v -0.353553 0.353553 -4.982583
v -0.353553 0.353553 -3.482583
v -0.600000 -0.600000 -0.832583
v -0.600000 0.599999 -0.832583
v 0.600000 -0.600000 0.367417
v 0.600000 0.599999 0.367417
v 0.600000 -0.600000 -0.832583
v 0.600000 0.599999 -0.832583
vn -0.7071 0.7071 -0.0000
vn 0.7071 -0.7071 -0.0000
vn -0.7071 -0.7071 -0.0000
vn 0.7071 0.7071 -0.0000
vn 0.3827 0.9239 -0.0000
vn -0.0000 1.0000 -0.0000
vn 0.9239 0.3827 -0.0000
vn -0.0000 -1.0000 -0.0000
vn 0.9239 -0.3827 -0.0000
vn -0.0000 -0.0000 1.0000
vn 0.3827 -0.9239 -0.0000
vn 1.0000 -0.0000 -0.0000
vn -0.3827 -0.9239 -0.0000
vn -0.0000 -0.0000 -1.0000
vn -0.9239 -0.3827 -0.0000
vn -1.0000 -0.0000 -0.0000
vn -0.9239 0.3827 -0.0000
vn -0.3827 0.9239 -0.0000
vt 0.942681 0.039430
vt 0.874240 0.586960
vt 0.874240 0.039430
vt 0.737357 0.586960
vt 0.805798 0.039430
vt 0.805798 0.586960
vt 0.668916 0.586960
vt 0.737357 0.039430
vt 0.636034 0.843509
vt 0.577714 0.614912
vt 0.636034 0.614912
vt 0.326587 0.489810
vt 0.163364 0.326587
vt 0.326587 0.326587
vt 0.577714 0.843509
vt 0.519394 0.614912
vt 0.326587 0.163364
vt 0.163364 0.000141
vt 0.326587 0.000141
vt 0.519394 0.843509
vt 0.461073 0.614912
vt 0.000140 0.163364
vt 0.163364 0.163364
vt 0.927636 0.843509
vt 0.869316 0.614912
vt 0.927636 0.614912
vt 0.869316 0.843509
vt 0.810996 0.614912
vt 0.489810 0.000140
vt 0.810996 0.843509
vt 0.752675 0.614912
vt 0.461073 0.984307
vt 0.419835 0.884748
vt 0.163364 0.489811
vt 0.326587 0.653034
vt 0.163364 0.653034
vt 0.752675 0.843509
vt 0.694355 0.614912
vt 0.694355 0.843509
vt 0.419835 0.515353
vt 0.519394 0.474114
vt 0.942681 0.586960
vt 0.668916 0.039430
vt 0.461073 0.843509
vt 0.000140 0.000141
vt 0.489810 0.163364
vt 0.560632 0.884748
vt 0.560632 0.943069
vt 0.519394 0.984307
vt 0.419835 0.943069
vt 0.560632 0.515353
vt 0.560632 0.573673
vt 0.419835 0.573673
vt 0.461073 0.474114
s 0
usemtl マテリアル.002
f 2/1/1 3/2/1 1/3/1
f 8/4/2 5/5/2 7/6/2
f 7/6/3 1/3/3 3/2/3
f 4/7/4 6/8/4 8/4/4
f 12/9/5 13/10/5 11/11/5
f 28/12/6 30/13/6 32/14/6
f 14/15/7 15/16/7 13/10/7
f 31/17/8 10/18/8 27/19/8
f 16/20/9 17/21/9 15/16/9
f 30/22/10 10/18/10 29/23/10
f 18/24/11 19/25/11 17/26/11
f 32/14/12 29/23/12 31/17/12
f 20/27/13 21/28/13 19/25/13
f 28/29/14 31/17/14 27/19/14
f 22/30/15 23/31/15 21/28/15
f 24/32/10 20/33/10 16/20/10
f 9/34/16 27/35/16 10/36/16
f 24/37/17 25/38/17 23/31/17
f 26/39/18 11/11/18 25/38/18
f 17/21/14 21/40/14 25/41/14
f 2/1/1 4/42/1 3/2/1
f 8/4/2 6/8/2 5/5/2
f 7/6/3 5/5/3 1/3/3
f 4/7/4 2/43/4 6/8/4
f 12/9/5 14/15/5 13/10/5
f 28/12/6 9/34/6 30/13/6
f 14/15/7 16/20/7 15/16/7
f 31/17/8 29/23/8 10/18/8
f 16/20/9 18/44/9 17/21/9
f 30/22/10 9/45/10 10/18/10
f 18/24/11 20/27/11 19/25/11
f 32/14/12 30/13/12 29/23/12
f 20/27/13 22/30/13 21/28/13
f 28/29/14 32/46/14 31/17/14
f 22/30/15 24/37/15 23/31/15
f 16/20/10 14/47/10 12/48/10
f 12/48/10 26/49/10 24/32/10
f 24/32/10 22/50/10 20/33/10
f 20/33/10 18/44/10 16/20/10
f 16/20/10 12/48/10 24/32/10
f 9/34/16 28/12/16 27/35/16
f 24/37/17 26/39/17 25/38/17
f 26/39/18 12/9/18 11/11/18
f 25/41/14 11/51/14 13/52/14
f 13/52/14 15/16/14 17/21/14
f 17/21/14 19/53/14 21/40/14
f 21/40/14 23/54/14 25/41/14
f 25/41/14 13/52/14 17/21/14
