# Blender 3.6.0
# www.blender.org
mtllib enemyPlank.mtl
o 鋼板
v -0.095524 0.172006 -0.140880
v 0.095524 0.172006 -0.389908
v -0.095524 0.172006 -0.389908
v -0.095524 -0.352325 0.228887
v 0.095524 -0.352325 0.228887
v -0.095524 -0.197761 0.228887
v 0.095524 -0.179676 0.246972
v 0.095524 0.190091 -0.122795
v -0.095524 -0.179676 0.246972
v 0.095524 -0.334240 0.246972
v -0.095524 -0.334240 0.246972
v -0.095524 0.190091 -0.371823
v 0.095524 0.190091 -0.371823
v -0.095524 0.190091 -0.122795
v 0.095524 0.172006 -0.140880
v 0.095524 -0.197761 0.228887
vn 1.0000 -0.0000 -0.0000
vn -0.0000 -0.7071 0.7071
vn -0.0000 0.7071 -0.7071
vn -0.0000 1.0000 -0.0000
vn -0.0000 -0.7071 -0.7071
vn -0.0000 -0.0000 -1.0000
vn -0.0000 -1.0000 -0.0000
vn -0.0000 -0.0000 1.0000
vn -0.0000 0.7071 0.7071
vn -1.0000 -0.0000 -0.0000
vt 0.442561 0.443037
vt 0.442561 0.500585
vt 0.442561 0.582129
vt 0.463586 0.582129
vt 0.463586 0.426027
vt 0.442561 0.426027
vt 0.463586 0.500585
vt 0.463586 0.443037
s 0
usemtl マテリアル
f 9/1/1 1/2/1 14/2/1
f 12/3/2 2/4/2 13/4/2
f 10/5/3 4/6/3 11/6/3
f 3/3/4 15/7/4 2/4/4
f 7/8/5 14/2/5 8/7/5
f 9/1/6 10/5/6 11/6/6
f 8/7/7 12/3/7 13/4/7
f 11/6/1 6/1/1 9/1/1
f 5/5/8 6/1/8 4/6/8
f 1/2/9 16/8/9 15/7/9
f 13/4/10 15/7/10 8/7/10
f 10/5/10 16/8/10 5/5/10
f 8/7/10 16/8/10 7/8/10
f 12/3/1 1/2/1 3/3/1
f 9/1/1 6/1/1 1/2/1
f 12/3/2 3/3/2 2/4/2
f 10/5/3 5/5/3 4/6/3
f 3/3/4 1/2/4 15/7/4
f 7/8/5 9/1/5 14/2/5
f 9/1/6 7/8/6 10/5/6
f 8/7/7 14/2/7 12/3/7
f 11/6/1 4/6/1 6/1/1
f 5/5/8 16/8/8 6/1/8
f 1/2/9 6/1/9 16/8/9
f 13/4/10 2/4/10 15/7/10
f 10/5/10 7/8/10 16/8/10
f 8/7/10 15/7/10 16/8/10
f 12/3/1 14/2/1 1/2/1
