# Blender 5.0.1
# www.blender.org
mtllib MoneyExchangePlace.mtl
o 換金所
v -8.000000 0.000000 8.000000
v -8.000000 8.000000 8.000000
v -8.000000 0.000000 -8.000000
v -8.000000 8.000000 -8.000000
v 0.000000 0.000000 8.000000
v 0.000000 8.000000 8.000000
v 0.000000 0.000000 -8.000000
v 0.000000 8.000000 -8.000000
v -8.000000 0.000000 0.000000
v -8.000000 8.000000 0.000000
v 0.000000 0.950000 -0.750000
v 0.000000 8.000000 0.000000
v -8.000000 4.000000 8.000000
v -8.000000 4.000000 -8.000000
v 0.000000 4.000000 -8.000000
v 0.000000 4.000000 8.000000
v 0.000000 3.250000 -0.750000
v -8.000000 4.000000 0.000000
v 8.000000 8.000000 0.000000
v 8.000000 8.000000 8.000000
v 8.000000 8.000000 -8.000000
v 7.500000 4.000000 -7.500000
v 7.500000 4.000000 7.500000
v 8.000000 4.000000 0.000000
v -8.000000 8.000000 -6.000000
v 0.000000 0.950000 -5.250000
v -8.000000 0.000000 -6.000000
v 0.000000 8.000000 -6.000000
v 0.000000 3.250000 -5.250000
v -8.000000 4.000000 -6.000000
v 8.000000 8.000000 -6.000000
v 7.500000 4.000000 -6.500000
v -8.000000 0.000000 6.000000
v 0.000000 8.000000 6.000000
v -8.000000 8.000000 6.000000
v 0.000000 0.000000 6.000000
v -8.000000 4.000000 6.000000
v 0.000000 4.000000 6.000000
v 8.000000 8.000000 6.000000
v 7.500000 4.000000 6.500000
v 0.000000 4.000000 0.000000
v 0.000000 0.000000 0.000000
v 0.000000 4.000000 -6.000000
v 0.000000 0.000000 -6.000000
v -0.500000 3.250000 -0.750000
v -0.500000 0.950000 -0.750000
v -0.500000 3.250000 -5.250000
v -0.500000 0.950000 -5.250000
v 6.000000 8.000000 0.000000
v 6.000000 8.000000 -8.000000
v 6.500000 4.000000 -7.500000
v 6.000000 4.000000 0.000000
v 6.500000 4.000000 7.500000
v 6.000000 8.000000 8.000000
v 6.500000 4.000000 -6.500000
v 6.000000 8.000000 -6.000000
v 6.000000 8.000000 6.000000
v 6.500000 4.000000 6.500000
v 8.000000 0.000000 8.000000
v 8.000000 0.000000 -8.000000
v 8.000000 0.000000 6.000000
v 8.000000 0.000000 0.000000
v 8.000000 0.000000 -6.000000
v 6.000000 0.000000 6.000000
v 6.000000 0.000000 0.000000
v 6.000000 0.000000 -6.000000
v 6.000000 0.000000 8.000000
v 6.000000 0.000000 -8.000000
v 2.000000 0.000000 6.000000
v 2.000000 0.000000 -6.000000
v 2.000000 0.000000 0.000000
v 2.000000 0.000000 8.000000
v 2.000000 0.000000 -8.000000
v -0.100000 1.000000 -6.250000
v -0.100000 3.000000 -6.250000
v -0.100000 1.000000 -7.750000
v -0.100000 3.000000 -7.750000
v 0.100000 1.144106 -6.394106
v 0.100000 2.855894 -6.394106
v 0.100000 1.144106 -7.605894
v 0.100000 2.855894 -7.605894
v 0.100000 3.000000 -7.750000
v 0.100000 1.000000 -7.750000
v 0.100000 1.000000 -6.250000
v 0.100000 3.000000 -6.250000
v -8.000000 8.000000 2.000000
v -8.000000 4.000000 2.000000
v -8.000000 0.000000 2.000000
v 0.000000 8.000000 2.000000
v 0.000000 4.000000 2.000000
v 8.000000 8.000000 2.000000
v 8.000000 4.000000 2.000000
v 6.000000 8.000000 2.000000
v 6.000000 4.000000 2.000000
v 2.000000 8.000000 -8.000000
v 2.000000 4.000000 -8.000000
v 2.000000 4.000000 8.000000
v 2.000000 8.000000 8.000000
v 2.000000 8.000000 0.000000
v 2.000000 4.000000 0.000000
v 2.000000 4.000000 -6.000000
v 2.000000 8.000000 -6.000000
v 2.000000 8.000000 6.000000
v 2.000000 4.000000 6.000000
v 2.000000 4.000000 2.000000
v 2.000000 8.000000 2.000000
v 2.000000 4.500000 6.000000
v 6.000000 4.500000 6.000000
v 6.000000 4.500000 2.000000
v 2.000000 4.500000 2.000000
v 0.000000 0.100000 -6.000000
v 0.000000 0.100000 -8.000000
v 0.000000 0.100000 6.000000
v 0.000000 0.100000 0.000000
v 0.000000 0.100000 8.000000
v 7.500000 0.100000 -6.500000
v 7.500000 0.100000 -7.500000
v 7.500000 0.100000 6.500000
v 8.000000 0.100000 0.000000
v 7.500000 0.100000 7.500000
v 2.000000 0.100000 6.000000
v 6.000000 0.100000 0.000000
v 2.000000 0.100000 -6.000000
v 6.500000 0.100000 7.500000
v 6.500000 0.100000 -7.500000
v 6.500000 0.100000 6.500000
v 6.500000 0.100000 -6.500000
v 2.000000 0.100000 0.000000
v 2.000000 0.100000 8.000000
v 2.000000 0.100000 -8.000000
v 0.000000 0.100000 -0.100000
v 0.000000 0.100000 -5.900000
v 8.000000 4.000000 6.000000
v 8.000000 4.000000 8.000000
v 8.000000 4.000000 -8.000000
v 8.000000 4.000000 -6.000000
v 6.000000 4.000000 -6.000000
v 6.000000 4.000000 6.000000
v 6.000000 4.000000 -8.000000
v 6.000000 4.000000 8.000000
v 8.000000 0.100000 -6.000000
v 8.000000 0.100000 -8.000000
v 8.000000 0.100000 8.000000
v 8.000000 0.100000 6.000000
v 6.000000 0.100000 8.000000
v 6.000000 0.100000 -8.000000
v 6.000000 0.100000 6.000000
v 6.000000 0.100000 -6.000000
vn -1.0000 -0.0000 -0.0000
vn -0.0000 -0.0000 -1.0000
vn -0.0000 -0.0000 1.0000
vn -0.0000 -1.0000 -0.0000
vn -0.0000 1.0000 -0.0000
vn 1.0000 -0.0000 -0.0000
vt 0.294025 0.262371
vt 0.319227 0.312775
vt 0.294025 0.312775
vt 0.319227 0.262371
vt 0.369630 0.161564
vt 0.369630 0.262371
vt 0.319227 0.085958
vt 0.369630 0.060756
vt 0.369630 0.085958
vt 0.117612 0.161564
vt 0.067208 0.262371
vt 0.067208 0.161564
vt 0.142814 0.463986
vt 0.117612 0.363179
vt 0.142814 0.363179
vt 0.142814 0.262371
vt 0.142814 0.161564
vt 0.218419 0.161564
vt 0.294025 0.161564
vt 0.294025 0.463986
vt 0.218419 0.363179
vt 0.294025 0.363179
vt 0.218419 0.085958
vt 0.294025 0.060756
vt 0.294025 0.085958
vt 0.193217 0.262371
vt 0.218419 0.312775
vt 0.193217 0.312775
vt 0.193217 0.363179
vt 0.685536 0.254495
vt 0.696812 0.355978
vt 0.685536 0.355978
vt 0.018064 0.161564
vt 0.016804 0.262371
vt 0.418774 0.161564
vt 0.420034 0.161564
vt 0.319227 0.363179
vt 0.142814 0.060756
vt 0.117612 0.010352
vt 0.142814 0.010352
vt 0.218419 0.010352
vt 0.294025 0.010352
vt 0.271003 0.775846
vt 0.226202 0.730440
vt 0.270926 0.729884
vt 0.067208 0.085958
vt 0.117612 0.060756
vt 0.117612 0.085958
vt 0.142814 0.085958
vt 0.270824 0.917118
vt 0.224958 0.775649
vt 0.319227 0.060756
vt 0.319227 0.010352
vt 0.319227 0.463986
vt 0.319227 0.161564
vt 0.218419 0.262371
vt 0.193217 0.060756
vt 0.193217 0.085958
vt 0.193217 0.010352
vt 0.117612 0.312775
vt 0.117612 0.262371
vt 0.142814 0.312775
vt 0.193217 0.161564
vt 0.218419 0.463986
vt 0.583048 0.252522
vt 0.654085 0.235608
vt 0.654085 0.237863
vt 0.583048 0.354004
vt 0.566134 0.235608
vt 0.634917 0.252522
vt 0.654085 0.368662
vt 0.634916 0.354004
vt 0.654085 0.370918
vt 0.566134 0.370918
vt 0.748680 0.254495
vt 0.696812 0.254495
vt 0.696812 0.367253
vt 0.748680 0.355978
vt 0.748680 0.367253
vt 0.748680 0.243219
vt 0.696812 0.243219
vt 0.759956 0.355978
vt 0.759956 0.254495
vt 0.355131 0.636452
vt 0.264978 0.599476
vt 0.351266 0.591835
vt 0.142814 0.136362
vt 0.193217 0.136362
vt 0.294025 0.136362
vt 0.319227 0.136362
vt 0.365602 0.917434
vt 0.363987 0.774702
vt 0.117612 0.136362
vt 0.067208 0.136362
vt 0.365113 0.965567
vt 0.361879 0.728000
vt 0.218419 0.136362
vt 0.369630 0.136362
vt 0.484364 0.369266
vt 0.486619 0.414370
vt 0.484364 0.414370
vt 0.127040 0.646747
vt 0.129308 0.784774
vt 0.127011 0.784786
vt 0.177088 0.922441
vt 0.175431 0.784871
vt 0.177728 0.784876
vt 0.484364 0.098647
vt 0.486619 0.233957
vt 0.484364 0.233957
vt 0.706336 0.919746
vt 0.616130 0.964849
vt 0.616130 0.919746
vt 0.616130 0.604023
vt 0.706336 0.649126
vt 0.616130 0.649126
vt 0.616130 0.784436
vt 0.130915 0.922253
vt 0.128547 0.922439
vt 0.175401 0.646751
vt 0.177703 0.646751
vt 0.486619 0.369266
vt 0.133901 0.959283
vt 0.170803 0.967446
vt 0.170304 0.969266
vt 0.554597 0.926440
vt 0.520770 0.881337
vt 0.554597 0.881337
vt 0.520770 0.926440
vt 0.516259 0.881337
vt 0.548678 0.854101
vt 0.521350 0.815498
vt 0.548678 0.815498
vt 0.559107 0.926440
vt 0.559107 0.881337
vt 0.520770 0.876827
vt 0.554597 0.930951
vt 0.520770 0.930951
vt 0.513010 0.884587
vt 0.516259 0.926440
vt 0.513010 0.923191
vt 0.551347 0.873577
vt 0.524020 0.873577
vt 0.524020 0.934201
vt 0.551347 0.934201
vt 0.562357 0.923191
vt 0.562357 0.884587
vt 0.272993 0.648858
vt 0.268373 0.642851
vt 0.218419 0.060756
vt 0.224918 0.643934
vt 0.408592 0.725178
vt 0.401111 0.632388
vt 0.411429 0.773122
vt 0.413612 0.966918
vt 0.413914 0.917461
vt 0.396420 0.586186
vt 0.292780 0.661705
vt 0.337318 0.706243
vt 0.292780 0.706243
vt 0.348888 0.641411
vt 0.356805 0.721751
vt 0.277628 0.725177
vt 0.129341 0.646747
vt 0.174811 0.922334
vt 0.531723 0.233957
vt 0.531723 0.369266
vt 0.531723 0.231702
vt 0.486619 0.098647
vt 0.531723 0.414370
vt 0.531723 0.053544
vt 0.531723 0.098647
vt 0.175398 0.600697
vt 0.177701 0.600697
vt 0.484364 0.053544
vt 0.486619 0.416625
vt 0.531723 0.416625
vt 0.135510 0.957817
vt 0.175398 0.598394
vt 0.129347 0.600697
vt 0.129347 0.598394
vt 0.531723 0.051289
vt 0.486619 0.053544
vt 0.486619 0.051289
vt 0.173063 0.967648
vt 0.127045 0.600696
vt 0.654085 0.416021
vt 0.566134 0.190505
vt 0.566134 0.100298
vt 0.654085 0.100298
vt 0.566134 0.055195
vt 0.654085 0.055195
vt 0.235192 0.633125
vt 0.223123 0.602052
vt 0.234168 0.611997
vt 0.235068 0.952184
vt 0.223745 0.916712
vt 0.235364 0.928606
vt 0.258920 0.928844
vt 0.256751 0.632338
vt 0.258660 0.952484
vt 0.223123 0.963816
vt 0.255281 0.610853
vt 0.270320 0.964472
vt 0.163115 0.933037
vt 0.160961 0.953719
vt 0.163885 0.612210
vt 0.163886 0.635236
vt 0.140858 0.612209
vt 0.142946 0.951045
vt 0.140856 0.635234
vt 0.142092 0.932408
vt 0.019545 0.963858
vt 0.107496 0.986410
vt 0.019545 0.986410
vt 0.019545 0.941306
vt 0.107496 0.963858
vt 0.019545 0.918755
vt 0.107496 0.941306
vt 0.019545 0.896203
vt 0.107496 0.918755
vt 0.016431 0.623516
vt 0.104383 0.646068
vt 0.016431 0.646068
vt 0.016431 0.600965
vt 0.104383 0.623516
vt 0.016431 0.578413
vt 0.104383 0.600965
vt 0.104383 0.668620
vt 0.016431 0.668620
vt 0.117612 0.463986
vt 0.016804 0.161564
vt 0.420034 0.262371
vt 0.067208 0.060756
vt 0.706336 0.964849
vt 0.706336 0.604023
vt 0.706336 0.784436
vt 0.521350 0.854101
vt 0.554597 0.876827
vt 0.351108 0.643256
vt 0.337318 0.661705
vt 0.354905 0.723904
vt 0.275518 0.723209
vt 0.274773 0.646807
vt 0.531723 0.100902
vt 0.566134 0.416021
vt 0.107496 0.896203
vt 0.104383 0.578413
s 0
usemtl マテリアル.001
f 25/1/1 14/2/1 30/3/1
f 4/4/2 15/5/2 14/6/2
f 50/7/2 135/8/2 139/9/2
f 6/10/3 13/11/3 16/12/3
f 36/13/4 1/14/4 33/15/4
f 35/16/5 6/10/5 34/17/5
f 25/1/5 12/18/5 28/19/5
f 44/20/4 9/21/4 27/22/4
f 49/23/5 31/24/5 56/25/5
f 86/26/1 18/27/1 87/28/1
f 87/28/1 9/21/1 88/29/1
f 26/30/5 46/31/5 11/32/5
f 115/33/3 13/11/3 1/34/3
f 14/6/2 112/35/2 7/36/2
f 30/3/1 3/37/1 27/22/1
f 39/38/6 134/39/6 133/40/6
f 31/24/6 24/41/6 136/42/6
f 52/43/4 92/44/4 94/45/4
f 140/46/3 20/47/3 54/48/3
f 54/48/5 39/38/5 57/49/5
f 137/50/4 24/51/4 52/43/4
f 21/52/6 136/42/6 135/53/6
f 18/27/1 27/22/1 9/21/1
f 56/25/5 21/52/5 50/7/5
f 7/54/4 27/22/4 3/37/4
f 4/4/5 28/19/5 8/55/5
f 10/56/1 30/3/1 18/27/1
f 57/49/5 91/57/5 93/58/5
f 91/57/6 133/40/6 92/59/6
f 13/60/1 33/15/1 1/14/1
f 2/61/1 37/62/1 13/60/1
f 86/26/5 34/17/5 89/63/5
f 42/64/4 33/15/4 88/29/4
f 17/65/6 114/66/6 131/67/6
f 29/68/6 41/69/6 17/65/6
f 11/70/6 132/71/6 26/72/6
f 26/72/6 111/73/6 43/74/6
f 47/75/6 46/31/6 48/76/6
f 11/77/2 45/78/2 17/79/2
f 29/80/3 48/76/3 26/81/3
f 17/82/4 47/75/4 29/83/4
f 104/84/4 140/85/4 97/86/4
f 103/87/5 93/58/5 106/88/5
f 102/89/5 50/7/5 95/90/5
f 101/91/4 52/43/4 100/92/4
f 98/93/5 57/49/5 103/87/5
f 97/94/3 54/48/3 98/93/3
f 96/95/4 137/50/4 101/91/4
f 100/92/4 94/45/4 105/96/4
f 99/97/5 56/25/5 102/89/5
f 95/90/2 139/9/2 96/98/2
f 69/99/6 129/100/6 72/101/6
f 64/102/1 122/103/1 65/104/1
f 63/105/6 119/106/6 62/107/6
f 70/108/6 128/109/6 71/110/6
f 66/111/5 73/112/5 70/113/5
f 72/114/5 64/115/5 69/116/5
f 71/117/5 66/111/5 70/113/5
f 64/115/5 71/117/5 69/116/5
f 65/104/1 148/118/1 66/119/1
f 62/107/6 144/120/6 61/121/6
f 71/110/6 121/122/6 69/99/6
f 68/123/2 142/124/2 60/125/2
f 75/126/1 76/127/1 74/128/1
f 77/129/2 83/130/2 76/127/2
f 81/131/6 78/132/6 80/133/6
f 85/134/3 74/128/3 84/135/3
f 83/136/4 74/128/4 76/127/4
f 77/129/5 85/137/5 82/138/5
f 80/139/6 82/140/6 81/141/6
f 78/142/6 83/136/6 80/143/6
f 81/144/6 85/137/6 79/145/6
f 79/146/6 84/135/6 78/147/6
f 104/84/2 108/148/2 138/149/2
f 106/88/5 49/23/5 99/97/5
f 10/56/5 89/63/5 12/18/5
f 19/150/6 92/59/6 24/41/6
f 93/58/5 19/150/5 49/23/5
f 94/45/4 133/151/4 138/149/4
f 37/62/1 88/29/1 33/15/1
f 35/16/1 87/28/1 37/62/1
f 89/63/5 99/97/5 12/18/5
f 90/152/4 104/84/4 38/153/4
f 8/55/2 96/98/2 15/5/2
f 12/18/5 102/89/5 28/19/5
f 41/154/4 105/96/4 90/152/4
f 15/155/4 101/91/4 43/156/4
f 16/12/3 98/93/3 6/10/3
f 6/10/5 103/87/5 34/17/5
f 43/156/4 100/92/4 41/154/4
f 28/19/5 95/90/5 8/55/5
f 34/17/5 106/88/5 89/63/5
f 38/153/4 97/86/4 16/157/4
f 110/158/4 108/159/4 107/160/4
f 105/96/6 107/161/6 104/84/6
f 94/45/3 110/162/3 105/96/3
f 138/149/1 109/163/1 94/45/1
f 144/120/5 122/103/5 147/164/5
f 122/103/5 141/165/5 148/118/5
f 121/122/5 114/166/5 113/167/5
f 131/168/5 128/109/5 123/169/5
f 115/170/5 121/122/5 113/167/5
f 123/169/5 112/171/5 111/172/5
f 61/121/6 143/173/6 59/174/6
f 73/175/6 123/169/6 70/108/6
f 72/176/3 115/170/3 5/177/3
f 66/119/1 146/178/1 68/123/1
f 59/179/3 145/180/3 67/181/3
f 7/182/2 130/183/2 73/184/2
f 60/185/6 141/165/6 63/105/6
f 67/186/1 147/164/1 64/102/1
f 112/187/6 43/74/6 111/73/6
f 114/66/6 90/188/6 38/189/6
f 113/190/6 16/191/6 115/192/6
f 40/193/4 134/194/4 23/195/4
f 22/196/4 136/197/4 32/198/4
f 32/198/4 137/50/4 55/199/4
f 58/200/4 133/151/4 40/193/4
f 51/201/4 135/202/4 22/196/4
f 23/195/4 140/85/4 53/203/4
f 53/203/4 138/149/4 58/200/4
f 55/199/4 139/204/4 51/201/4
f 116/205/5 142/124/5 117/206/5
f 120/207/5 144/120/5 118/208/5
f 124/209/5 143/173/5 120/207/5
f 117/206/5 146/178/5 125/210/5
f 118/208/5 147/164/5 126/211/5
f 127/212/5 141/165/5 116/205/5
f 125/210/5 148/118/5 127/212/5
f 126/211/5 145/180/5 124/209/5
f 125/213/2 22/214/2 117/215/2
f 127/216/1 51/217/1 125/213/1
f 116/218/3 55/219/3 127/216/3
f 117/220/6 32/221/6 116/218/6
f 126/222/2 40/223/2 118/224/2
f 124/225/1 58/226/1 126/222/1
f 120/227/3 53/228/3 124/225/3
f 118/224/6 23/229/6 120/230/6
f 25/1/1 4/4/1 14/2/1
f 4/4/2 8/55/2 15/5/2
f 50/7/2 21/52/2 135/8/2
f 6/10/3 2/61/3 13/11/3
f 36/13/4 5/231/4 1/14/4
f 35/16/5 2/61/5 6/10/5
f 25/1/5 10/56/5 12/18/5
f 44/20/4 42/64/4 9/21/4
f 49/23/5 19/150/5 31/24/5
f 86/26/1 10/56/1 18/27/1
f 87/28/1 18/27/1 9/21/1
f 26/30/5 48/76/5 46/31/5
f 1/34/3 5/232/3 115/33/3
f 115/33/3 16/12/3 13/11/3
f 7/36/2 3/233/2 14/6/2
f 14/6/2 15/5/2 112/35/2
f 30/3/1 14/2/1 3/37/1
f 39/38/6 20/47/6 134/39/6
f 31/24/6 19/150/6 24/41/6
f 52/43/4 24/51/4 92/44/4
f 140/46/3 134/234/3 20/47/3
f 54/48/5 20/47/5 39/38/5
f 137/50/4 136/197/4 24/51/4
f 21/52/6 31/24/6 136/42/6
f 18/27/1 30/3/1 27/22/1
f 56/25/5 31/24/5 21/52/5
f 7/54/4 44/20/4 27/22/4
f 4/4/5 25/1/5 28/19/5
f 10/56/1 25/1/1 30/3/1
f 57/49/5 39/38/5 91/57/5
f 91/57/6 39/38/6 133/40/6
f 13/60/1 37/62/1 33/15/1
f 2/61/1 35/16/1 37/62/1
f 86/26/5 35/16/5 34/17/5
f 88/29/4 9/21/4 42/64/4
f 42/64/4 36/13/4 33/15/4
f 131/67/6 11/70/6 17/65/6
f 17/65/6 41/69/6 114/66/6
f 29/68/6 43/74/6 41/69/6
f 11/70/6 131/67/6 132/71/6
f 43/74/6 29/68/6 26/72/6
f 26/72/6 132/71/6 111/73/6
f 47/75/6 45/78/6 46/31/6
f 11/77/2 46/31/2 45/78/2
f 29/80/3 47/75/3 48/76/3
f 17/82/4 45/78/4 47/75/4
f 104/84/4 138/149/4 140/85/4
f 103/87/5 57/49/5 93/58/5
f 102/89/5 56/25/5 50/7/5
f 101/91/4 137/50/4 52/43/4
f 98/93/5 54/48/5 57/49/5
f 97/94/3 140/46/3 54/48/3
f 96/95/4 139/204/4 137/50/4
f 100/92/4 52/43/4 94/45/4
f 99/97/5 49/23/5 56/25/5
f 95/90/2 50/7/2 139/9/2
f 69/99/6 121/122/6 129/100/6
f 64/102/1 147/164/1 122/103/1
f 63/105/6 141/165/6 119/106/6
f 70/108/6 123/169/6 128/109/6
f 66/111/5 68/235/5 73/112/5
f 72/114/5 67/236/5 64/115/5
f 71/117/5 65/237/5 66/111/5
f 64/115/5 65/237/5 71/117/5
f 65/104/1 122/103/1 148/118/1
f 62/107/6 119/106/6 144/120/6
f 71/110/6 128/109/6 121/122/6
f 68/123/2 146/178/2 142/124/2
f 75/126/1 77/129/1 76/127/1
f 77/129/2 82/140/2 83/130/2
f 81/131/6 79/238/6 78/132/6
f 85/134/3 75/126/3 74/128/3
f 83/136/4 84/239/4 74/128/4
f 77/129/5 75/126/5 85/137/5
f 80/139/6 83/130/6 82/140/6
f 78/142/6 84/239/6 83/136/6
f 81/144/6 82/138/6 85/137/6
f 79/146/6 85/134/6 84/135/6
f 104/84/2 107/240/2 108/148/2
f 106/88/5 93/58/5 49/23/5
f 10/56/5 86/26/5 89/63/5
f 19/150/6 91/57/6 92/59/6
f 93/58/5 91/57/5 19/150/5
f 94/45/4 92/44/4 133/151/4
f 37/62/1 87/28/1 88/29/1
f 35/16/1 86/26/1 87/28/1
f 89/63/5 106/88/5 99/97/5
f 90/152/4 105/96/4 104/84/4
f 8/55/2 95/90/2 96/98/2
f 12/18/5 99/97/5 102/89/5
f 41/154/4 100/92/4 105/96/4
f 15/155/4 96/95/4 101/91/4
f 16/12/3 97/94/3 98/93/3
f 6/10/5 98/93/5 103/87/5
f 43/156/4 101/91/4 100/92/4
f 28/19/5 102/89/5 95/90/5
f 34/17/5 103/87/5 106/88/5
f 38/153/4 104/84/4 97/86/4
f 110/158/4 109/241/4 108/159/4
f 105/96/6 110/242/6 107/161/6
f 94/45/3 109/243/3 110/162/3
f 138/149/1 108/244/1 109/163/1
f 144/120/5 119/106/5 122/103/5
f 122/103/5 119/106/5 141/165/5
f 121/122/5 128/109/5 114/166/5
f 123/169/5 111/172/5 132/245/5
f 131/168/5 114/166/5 128/109/5
f 123/169/5 132/245/5 131/168/5
f 115/170/5 129/100/5 121/122/5
f 123/169/5 130/183/5 112/171/5
f 61/121/6 144/120/6 143/173/6
f 73/175/6 130/183/6 123/169/6
f 72/176/3 129/100/3 115/170/3
f 66/119/1 148/118/1 146/178/1
f 59/179/3 143/173/3 145/180/3
f 7/182/2 112/171/2 130/183/2
f 60/185/6 142/124/6 141/165/6
f 67/186/1 145/180/1 147/164/1
f 112/187/6 15/246/6 43/74/6
f 38/189/6 113/190/6 114/66/6
f 114/66/6 41/69/6 90/188/6
f 113/190/6 38/189/6 16/191/6
f 40/193/4 133/151/4 134/194/4
f 22/196/4 135/202/4 136/197/4
f 32/198/4 136/197/4 137/50/4
f 58/200/4 138/149/4 133/151/4
f 51/201/4 139/204/4 135/202/4
f 23/195/4 134/194/4 140/85/4
f 53/203/4 140/85/4 138/149/4
f 55/199/4 137/50/4 139/204/4
f 116/205/5 141/165/5 142/124/5
f 120/207/5 143/173/5 144/120/5
f 124/209/5 145/180/5 143/173/5
f 117/206/5 142/124/5 146/178/5
f 118/208/5 144/120/5 147/164/5
f 127/212/5 148/118/5 141/165/5
f 125/210/5 146/178/5 148/118/5
f 126/211/5 147/164/5 145/180/5
f 125/213/2 51/217/2 22/214/2
f 127/216/1 55/219/1 51/217/1
f 116/218/3 32/221/3 55/219/3
f 117/220/6 22/247/6 32/221/6
f 126/222/2 58/226/2 40/223/2
f 124/225/1 53/228/1 58/226/1
f 120/227/3 23/248/3 53/228/3
f 118/224/6 40/223/6 23/229/6
