{
	"asset":{
		"generator":"Khronos glTF Blender I/O v3.6.27",
		"version":"2.0"
	},
	"scene":0,
	"scenes":[
		{
			"name":"Scene",
			"nodes":[
				0,
				1
			]
		}
	],
	"nodes":[
		{
			"mesh":0,
			"name":"\u7acb\u65b9\u4f53"
		},
		{
			"mesh":1,
			"name":"\u7acb\u65b9\u4f53.001"
		}
	],
	"materials":[
		{
			"doubleSided":true,
			"name":"\u30de\u30c6\u30ea\u30a2\u30eb",
			"pbrMetallicRoughness":{
				"baseColorTexture":{
					"index":0
				},
				"metallicFactor":0,
				"roughnessFactor":0.5
			}
		},
		{
			"doubleSided":true,
			"name":"\u30de\u30c6\u30ea\u30a2\u30eb.001",
			"pbrMetallicRoughness":{
				"baseColorTexture":{
					"index":1
				},
				"metallicFactor":0,
				"roughnessFactor":0.5
			}
		}
	],
	"meshes":[
		{
			"name":"\u7acb\u65b9\u4f53",
			"primitives":[
				{
					"attributes":{
						"POSITION":0,
						"NORMAL":1,
						"TEXCOORD_0":2
					},
					"indices":3,
					"material":0
				}
			]
		},
		{
			"name":"\u7acb\u65b9\u4f53.001",
			"primitives":[
				{
					"attributes":{
						"POSITION":4,
						"NORMAL":5,
						"TEXCOORD_0":6
					},
					"indices":7,
					"material":1
				}
			]
		}
	],
	"textures":[
		{
			"sampler":0,
			"source":0
		},
		{
			"sampler":0,
			"source":1
		}
	],
	"images":[
		{
			"mimeType":"image/png",
			"name":"trainColor",
			"uri":"trainColor.png"
		},
		{
			"mimeType":"image/png",
			"name":"trainTopColor",
			"uri":"trainTopColor.png"
		}
	],
	"accessors":[
		{
			"bufferView":0,
			"componentType":5126,
			"count":2880,
			"max":[
				280.42108154296875,
				7,
				3
			],
			"min":[
				13.02105712890625,
				0,
				-3
			],
			"type":"VEC3"
		},
		{
			"bufferView":1,
			"componentType":5126,
			"count":2880,
			"type":"VEC3"
		},
		{
			"bufferView":2,
			"componentType":5126,
			"count":2880,
			"type":"VEC2"
		},
		{
			"bufferView":3,
			"componentType":5123,
			"count":5880,
			"type":"SCALAR"
		},
		{
			"bufferView":4,
			"componentType":5126,
			"count":154,
			"max":[
				13.799999237060547,
				9.717294692993164,
				3
			],
			"min":[
				-15.92739486694336,
				0,
				-3
			],
			"type":"VEC3"
		},
		{
			"bufferView":5,
			"componentType":5126,
			"count":154,
			"type":"VEC3"
		},
		{
			"bufferView":6,
			"componentType":5126,
			"count":154,
			"type":"VEC2"
		},
		{
			"bufferView":7,
			"componentType":5123,
			"count":300,
			"type":"SCALAR"
		}
	],
	"bufferViews":[
		{
			"buffer":0,
			"byteLength":34560,
			"byteOffset":0,
			"target":34962
		},
		{
			"buffer":0,
			"byteLength":34560,
			"byteOffset":34560,
			"target":34962
		},
		{
			"buffer":0,
			"byteLength":23040,
			"byteOffset":69120,
			"target":34962
		},
		{
			"buffer":0,
			"byteLength":11760,
			"byteOffset":92160,
			"target":34963
		},
		{
			"buffer":0,
			"byteLength":1848,
			"byteOffset":103920,
			"target":34962
		},
		{
			"buffer":0,
			"byteLength":1848,
			"byteOffset":105768,
			"target":34962
		},
		{
			"buffer":0,
			"byteLength":1232,
			"byteOffset":107616,
			"target":34962
		},
		{
			"buffer":0,
			"byteLength":600,
			"byteOffset":108848,
			"target":34963
		}
	],
	"samplers":[
		{
			"magFilter":9729,
			"minFilter":9987
		}
	],
	"buffers":[
		{
			"byteLength":109448,
			"uri":"train.bin"
		}
	]
}
