# Blender 5.0.1
# www.blender.org
mtllib scrapBox.mtl
o スクラップボックス
v -0.750000 0.000000 0.750000
v -0.750000 0.300000 0.750000
v -0.750000 0.000000 -0.750000
v -0.750000 0.300000 -0.750000
v 0.750000 0.000000 0.750000
v 0.750000 0.300000 0.750000
v 0.750000 0.000000 -0.750000
v 0.750000 0.300000 -0.750000
v -0.897837 1.851671 0.897837
v -0.897837 1.851671 -0.897837
v 0.897837 1.851671 -0.897837
v 0.897837 1.851671 0.897837
vn -1.0000 -0.0000 -0.0000
vn -0.0000 -0.0000 -1.0000
vn 1.0000 -0.0000 -0.0000
vn -0.0000 -0.0000 1.0000
vn -0.0000 -1.0000 -0.0000
vn 0.9955 -0.0948 -0.0000
vn -0.0000 1.0000 -0.0000
vn -0.9955 -0.0948 -0.0000
vn -0.0000 -0.0948 0.9955
vn -0.0000 -0.0948 -0.9955
vt 0.271291 0.999900
vt 0.045299 0.954701
vt 0.271291 0.954701
vt 0.000100 0.954701
vt 0.045299 0.728709
vt 0.045299 0.683510
vt 0.271291 0.728709
vt 0.316490 0.728709
vt 0.806712 0.722373
vt 0.816208 0.380768
vt 0.966513 0.562572
vt 0.433608 0.380768
vt 0.624908 0.572068
vt 0.443104 0.039162
vt 0.283303 0.198964
vt 0.966513 0.198964
vt 0.624908 0.189467
vt 0.806712 0.039162
vt 0.283303 0.562572
vt 0.443104 0.722373
vt 0.045299 0.999900
vt 0.000100 0.728709
vt 0.271291 0.683510
vt 0.316490 0.954701
s 0
usemtl マテリアル
f 2/1/1 3/2/1 1/3/1
f 4/4/2 7/5/2 3/2/2
f 8/6/3 5/7/3 7/5/3
f 6/8/4 1/3/4 5/7/4
f 7/5/5 1/3/5 3/2/5
f 8/9/6 12/10/6 6/11/6
f 10/12/7 12/10/7 11/13/7
f 2/14/8 10/12/8 4/15/8
f 6/16/9 9/17/9 2/18/9
f 4/19/10 11/13/10 8/20/10
f 2/1/1 4/21/1 3/2/1
f 4/4/2 8/22/2 7/5/2
f 8/6/3 6/23/3 5/7/3
f 6/8/4 2/24/4 1/3/4
f 7/5/5 5/7/5 1/3/5
f 8/9/6 11/13/6 12/10/6
f 10/12/7 9/17/7 12/10/7
f 2/14/8 9/17/8 10/12/8
f 6/16/9 12/10/9 9/17/9
f 4/19/10 10/12/10 11/13/10
