# Blender 5.0.1
# www.blender.org
mtllib TrackCarTire.mtl
o タイヤ
v -0.160000 -0.000000 -0.320000
v 0.160000 0.000000 -0.320000
v -0.160000 -0.062429 -0.313851
v 0.160000 -0.062429 -0.313851
v -0.160000 -0.122459 -0.295641
v 0.160000 -0.122459 -0.295641
v -0.160000 -0.177783 -0.266070
v 0.160000 -0.177782 -0.266070
v -0.160000 -0.226274 -0.226274
v 0.160000 -0.226274 -0.226274
v -0.160000 -0.266070 -0.177782
v 0.160000 -0.266070 -0.177782
v -0.160000 -0.295641 -0.122459
v 0.160000 -0.295641 -0.122459
v -0.160000 -0.313851 -0.062429
v 0.160000 -0.313851 -0.062429
v -0.160000 -0.320000 0.000000
v 0.160000 -0.320000 0.000000
v -0.160000 -0.313851 0.062429
v 0.160000 -0.313851 0.062429
v -0.160000 -0.295641 0.122459
v 0.160000 -0.295641 0.122459
v -0.160000 -0.266070 0.177782
v 0.160000 -0.266070 0.177782
v -0.160000 -0.226274 0.226274
v 0.160000 -0.226274 0.226274
v -0.160000 -0.177783 0.266070
v 0.160000 -0.177782 0.266070
v -0.160000 -0.122459 0.295641
v 0.160000 -0.122459 0.295641
v -0.160000 -0.062429 0.313851
v 0.160000 -0.062429 0.313851
v -0.160000 -0.000000 0.320000
v 0.160000 0.000000 0.320000
v -0.160000 0.062429 0.313851
v 0.160000 0.062429 0.313851
v -0.160000 0.122459 0.295641
v 0.160000 0.122459 0.295641
v -0.160000 0.177782 0.266070
v 0.160000 0.177783 0.266070
v -0.160000 0.226274 0.226274
v 0.160000 0.226274 0.226274
v -0.160000 0.266070 0.177782
v 0.160000 0.266070 0.177782
v -0.160000 0.295641 0.122459
v 0.160000 0.295641 0.122459
v -0.160000 0.313851 0.062429
v 0.160000 0.313851 0.062429
v -0.160000 0.320000 0.000000
v 0.160000 0.320000 0.000000
v -0.160000 0.313851 -0.062429
v 0.160000 0.313851 -0.062429
v -0.160000 0.295641 -0.122459
v 0.160000 0.295641 -0.122459
v -0.160000 0.266070 -0.177782
v 0.160000 0.266070 -0.177782
v -0.160000 0.226274 -0.226274
v 0.160000 0.226274 -0.226274
v -0.160000 0.177782 -0.266070
v 0.160000 0.177783 -0.266070
v -0.160000 0.122459 -0.295641
v 0.160000 0.122459 -0.295641
v -0.160000 0.062429 -0.313851
v 0.160000 0.062429 -0.313851
v 0.160000 -0.042825 -0.215298
v 0.160000 0.000000 -0.219516
v 0.160000 0.042825 -0.215298
v 0.160000 0.084005 -0.202806
v 0.160000 0.121957 -0.182521
v 0.160000 0.155221 -0.155221
v 0.160000 0.182521 -0.121957
v 0.160000 0.202806 -0.084005
v 0.160000 0.215298 -0.042825
v 0.160000 0.219516 0.000000
v 0.160000 0.215298 0.042825
v 0.160000 0.202806 0.084005
v 0.160000 0.182521 0.121957
v 0.160000 0.155221 0.155221
v 0.160000 0.121957 0.182521
v 0.160000 0.084005 0.202806
v 0.160000 0.042825 0.215298
v 0.160000 0.000000 0.219516
v 0.160000 -0.042825 0.215298
v 0.160000 -0.084005 0.202806
v 0.160000 -0.121957 0.182521
v 0.160000 -0.155221 0.155221
v 0.160000 -0.182521 0.121957
v 0.160000 -0.202806 0.084005
v 0.160000 -0.215298 0.042825
v 0.160000 -0.219516 0.000000
v 0.160000 -0.215298 -0.042825
v 0.160000 -0.202806 -0.084005
v 0.160000 -0.182521 -0.121957
v 0.160000 -0.155221 -0.155221
v 0.160000 -0.121957 -0.182521
v 0.160000 -0.084005 -0.202806
v -0.160000 -0.000000 -0.219516
v -0.160000 -0.042825 -0.215298
v -0.160000 -0.084005 -0.202806
v -0.160000 -0.121957 -0.182521
v -0.160000 -0.155221 -0.155221
v -0.160000 -0.182521 -0.121957
v -0.160000 -0.202806 -0.084005
v -0.160000 -0.215298 -0.042825
v -0.160000 -0.219516 0.000000
v -0.160000 -0.215298 0.042825
v -0.160000 -0.202806 0.084005
v -0.160000 -0.182521 0.121957
v -0.160000 -0.155221 0.155221
v -0.160000 -0.121957 0.182521
v -0.160000 -0.084005 0.202806
v -0.160000 -0.042825 0.215298
v -0.160000 -0.000000 0.219516
v -0.160000 0.042825 0.215298
v -0.160000 0.084005 0.202806
v -0.160000 0.121957 0.182521
v -0.160000 0.155221 0.155221
v -0.160000 0.182521 0.121957
v -0.160000 0.202806 0.084005
v -0.160000 0.215298 0.042825
v -0.160000 0.219516 0.000000
v -0.160000 0.215298 -0.042825
v -0.160000 0.202806 -0.084005
v -0.160000 0.182521 -0.121957
v -0.160000 0.155221 -0.155221
v -0.160000 0.121957 -0.182521
v -0.160000 0.084005 -0.202806
v -0.160000 0.042825 -0.215298
v 0.119908 -0.042825 -0.215298
v 0.119908 0.000000 -0.219516
v 0.119908 -0.084005 -0.202806
v 0.119908 0.042825 -0.215298
v 0.119908 0.084005 -0.202806
v 0.119908 0.121957 -0.182521
v 0.119908 0.155221 -0.155221
v 0.119908 0.182521 -0.121957
v 0.119908 0.202806 -0.084005
v 0.119908 0.215298 -0.042825
v 0.119908 0.219516 -0.000000
v 0.119908 0.215298 0.042825
v 0.119908 0.202806 0.084005
v 0.119908 0.182521 0.121957
v 0.119908 0.155221 0.155221
v 0.119908 0.121957 0.182521
v 0.119908 0.084005 0.202806
v 0.119908 0.042825 0.215298
v 0.119908 0.000000 0.219516
v 0.119908 -0.042825 0.215298
v 0.119908 -0.084005 0.202806
v 0.119908 -0.121957 0.182521
v 0.119908 -0.155221 0.155221
v 0.119908 -0.182521 0.121957
v 0.119908 -0.202806 0.084005
v 0.119908 -0.215298 0.042825
v 0.119908 -0.219516 -0.000000
v 0.119908 -0.215298 -0.042825
v 0.119908 -0.202806 -0.084005
v 0.119908 -0.182521 -0.121957
v 0.119908 -0.155221 -0.155221
v 0.119908 -0.121957 -0.182521
v -0.119908 -0.000000 -0.219516
v -0.119908 -0.042825 -0.215298
v -0.119908 0.042825 -0.215298
v -0.119908 -0.084005 -0.202806
v -0.119908 -0.121957 -0.182521
v -0.119908 -0.155221 -0.155221
v -0.119908 -0.182521 -0.121957
v -0.119908 -0.202806 -0.084005
v -0.119908 -0.215298 -0.042825
v -0.119908 -0.219516 0.000000
v -0.119908 -0.215298 0.042825
v -0.119908 -0.202806 0.084005
v -0.119908 -0.182521 0.121957
v -0.119908 -0.155221 0.155221
v -0.119908 -0.121957 0.182521
v -0.119908 -0.084005 0.202806
v -0.119908 -0.042825 0.215298
v -0.119908 -0.000000 0.219516
v -0.119908 0.042825 0.215298
v -0.119908 0.084005 0.202806
v -0.119908 0.121957 0.182521
v -0.119908 0.155221 0.155221
v -0.119908 0.182521 0.121957
v -0.119908 0.202806 0.084005
v -0.119908 0.215298 0.042825
v -0.119908 0.219516 0.000000
v -0.119908 0.215298 -0.042825
v -0.119908 0.202806 -0.084005
v -0.119908 0.182521 -0.121957
v -0.119908 0.155221 -0.155221
v -0.119908 0.121957 -0.182521
v -0.119908 0.084005 -0.202806
v 0.119908 -0.029103 -0.146311
v 0.119908 0.000000 -0.149177
v 0.119908 0.029103 -0.146311
v 0.119908 0.057088 -0.137822
v 0.119908 0.082879 -0.124037
v 0.119908 0.105484 -0.105484
v 0.119908 0.124037 -0.082879
v 0.119908 0.137822 -0.057088
v 0.119908 0.146311 -0.029103
v 0.119908 0.149177 -0.000000
v 0.119908 0.146311 0.029103
v 0.119908 0.137822 0.057088
v 0.119908 0.124037 0.082879
v 0.119908 0.105484 0.105484
v 0.119908 0.082879 0.124037
v 0.119908 0.057088 0.137822
v 0.119908 0.029103 0.146311
v 0.119908 0.000000 0.149177
v 0.119908 -0.029103 0.146311
v 0.119908 -0.057088 0.137822
v 0.119908 -0.082879 0.124037
v 0.119908 -0.105484 0.105484
v 0.119908 -0.124036 0.082879
v 0.119908 -0.137822 0.057088
v 0.119908 -0.146311 0.029103
v 0.119908 -0.149177 -0.000000
v 0.119908 -0.146311 -0.029103
v 0.119908 -0.137822 -0.057088
v 0.119908 -0.124036 -0.082879
v 0.119908 -0.105484 -0.105484
v 0.119908 -0.082879 -0.124037
v 0.119908 -0.057088 -0.137822
v -0.119908 -0.000000 -0.149177
v -0.119908 -0.029103 -0.146311
v -0.119908 -0.057088 -0.137822
v -0.119908 -0.082879 -0.124037
v -0.119908 -0.105484 -0.105484
v -0.119908 -0.124037 -0.082879
v -0.119908 -0.137822 -0.057088
v -0.119908 -0.146311 -0.029103
v -0.119908 -0.149177 0.000000
v -0.119908 -0.146311 0.029103
v -0.119908 -0.137822 0.057088
v -0.119908 -0.124037 0.082879
v -0.119908 -0.105484 0.105484
v -0.119908 -0.082879 0.124037
v -0.119908 -0.057088 0.137822
v -0.119908 -0.029103 0.146311
v -0.119908 -0.000000 0.149177
v -0.119908 0.029103 0.146311
v -0.119908 0.057088 0.137822
v -0.119908 0.082879 0.124037
v -0.119908 0.105484 0.105484
v -0.119908 0.124036 0.082879
v -0.119908 0.137822 0.057088
v -0.119908 0.146311 0.029103
v -0.119908 0.149177 0.000000
v -0.119908 0.146311 -0.029103
v -0.119908 0.137822 -0.057088
v -0.119908 0.124036 -0.082879
v -0.119908 0.105484 -0.105484
v -0.119908 0.082879 -0.124037
v -0.119908 0.057088 -0.137822
v -0.119908 0.029103 -0.146311
v 0.165422 -0.025341 -0.127396
v 0.165422 0.000000 -0.129892
v 0.165422 -0.049707 -0.120004
v 0.165422 0.025341 -0.127396
v 0.165422 0.049707 -0.120004
v 0.165422 0.072164 -0.108001
v 0.165422 0.091847 -0.091847
v 0.165422 0.108001 -0.072164
v 0.165422 0.120004 -0.049707
v 0.165422 0.127396 -0.025341
v 0.165422 0.129892 -0.000000
v 0.165422 0.127396 0.025341
v 0.165422 0.120004 0.049707
v 0.165422 0.108001 0.072164
v 0.165422 0.091847 0.091847
v 0.165422 0.072164 0.108001
v 0.165422 0.049707 0.120004
v 0.165422 0.025341 0.127396
v 0.165422 0.000000 0.129892
v 0.165422 -0.025341 0.127396
v 0.165422 -0.049707 0.120004
v 0.165422 -0.072164 0.108001
v 0.165422 -0.091847 0.091847
v 0.165422 -0.108001 0.072164
v 0.165422 -0.120004 0.049707
v 0.165422 -0.127396 0.025341
v 0.165422 -0.129892 -0.000000
v 0.165422 -0.127396 -0.025341
v 0.165422 -0.120004 -0.049707
v 0.165422 -0.108001 -0.072164
v 0.165422 -0.091847 -0.091847
v 0.165422 -0.072164 -0.108001
v -0.165422 -0.000000 -0.129892
v -0.165422 -0.025341 -0.127396
v -0.165422 0.025341 -0.127396
v -0.165422 -0.049707 -0.120004
v -0.165422 -0.072164 -0.108001
v -0.165422 -0.091847 -0.091847
v -0.165422 -0.108001 -0.072164
v -0.165422 -0.120004 -0.049707
v -0.165422 -0.127396 -0.025341
v -0.165422 -0.129892 0.000000
v -0.165422 -0.127396 0.025341
v -0.165422 -0.120004 0.049707
v -0.165422 -0.108001 0.072164
v -0.165422 -0.091847 0.091847
v -0.165422 -0.072164 0.108001
v -0.165422 -0.049707 0.120004
v -0.165422 -0.025341 0.127396
v -0.165422 -0.000000 0.129892
v -0.165422 0.025341 0.127396
v -0.165422 0.049707 0.120004
v -0.165422 0.072164 0.108001
v -0.165422 0.091847 0.091847
v -0.165422 0.108001 0.072164
v -0.165422 0.120004 0.049707
v -0.165422 0.127396 0.025341
v -0.165422 0.129892 0.000000
v -0.165422 0.127396 -0.025341
v -0.165422 0.120004 -0.049707
v -0.165422 0.108001 -0.072164
v -0.165422 0.091847 -0.091847
v -0.165422 0.072164 -0.108001
v -0.165422 0.049707 -0.120004
vn -0.0000 -0.0980 -0.9952
vn -0.0000 -0.2903 -0.9569
vn -0.0000 -0.4714 -0.8819
vn -0.0000 -0.6344 -0.7730
vn -0.0000 -0.7730 -0.6344
vn -0.0000 -0.8819 -0.4714
vn -0.0000 -0.9569 -0.2903
vn -0.0000 -0.9952 -0.0980
vn -0.0000 -0.9952 0.0980
vn -0.0000 -0.9569 0.2903
vn -0.0000 -0.8819 0.4714
vn -0.0000 -0.7730 0.6344
vn -0.0000 -0.6344 0.7730
vn -0.0000 -0.4714 0.8819
vn -0.0000 -0.2903 0.9569
vn -0.0000 -0.0980 0.9952
vn -0.0000 0.0980 0.9952
vn -0.0000 0.2903 0.9569
vn -0.0000 0.4714 0.8819
vn -0.0000 0.6344 0.7730
vn -0.0000 0.7730 0.6344
vn -0.0000 0.8819 0.4714
vn -0.0000 0.9569 0.2903
vn -0.0000 0.9952 0.0980
vn -0.0000 0.9952 -0.0980
vn -0.0000 0.9569 -0.2903
vn -0.0000 0.8819 -0.4714
vn -0.0000 0.7730 -0.6344
vn -0.0000 0.6344 -0.7730
vn -0.0000 0.4714 -0.8819
vn -0.0000 0.2903 -0.9569
vn -0.0000 0.0980 -0.9952
vn 1.0000 -0.0000 -0.0000
vn -1.0000 -0.0000 -0.0000
vn -0.3886 0.4344 -0.8126
vn 0.3886 0.4344 0.8126
vn -0.3886 -0.5845 -0.7123
vn 0.3886 0.2675 0.8818
vn -0.3886 0.2675 -0.8818
vn -0.3886 -0.7123 -0.5845
vn 0.3886 0.0903 0.9170
vn -0.3886 -0.8126 -0.4344
vn 0.3886 -0.0903 0.9170
vn -0.3886 -0.8818 -0.2675
vn 0.3886 -0.2675 0.8818
vn -0.3886 -0.9170 -0.0903
vn 0.3886 -0.4344 0.8126
vn -0.3886 -0.9170 0.0903
vn 0.3886 -0.5845 0.7123
vn -0.3886 -0.8818 0.2675
vn 0.3886 -0.7123 0.5845
vn -0.3886 -0.8126 0.4344
vn 0.3886 -0.8126 0.4344
vn -0.3886 -0.7123 0.5845
vn 0.3886 -0.8818 0.2675
vn -0.3886 -0.5845 0.7123
vn 0.3886 -0.9170 0.0903
vn -0.3886 -0.4344 0.8126
vn 0.3886 -0.9170 -0.0903
vn 0.3886 -0.0903 -0.9170
vn -0.3886 -0.2675 0.8818
vn 0.3886 -0.8818 -0.2675
vn 0.3886 -0.2675 -0.8818
vn -0.3886 -0.0903 0.9170
vn 0.3886 -0.8126 -0.4344
vn 0.3886 0.0903 -0.9170
vn -0.3886 0.0903 0.9170
vn 0.3886 -0.7123 -0.5845
vn 0.3886 0.2675 -0.8818
vn -0.3886 0.2675 0.8818
vn 0.3886 -0.5845 -0.7123
vn 0.3886 0.4344 -0.8126
vn -0.3886 0.4344 0.8126
vn 0.3886 -0.4344 -0.8126
vn 0.3886 0.5845 -0.7123
vn -0.3886 0.5845 0.7123
vn 0.3886 0.7123 -0.5845
vn -0.3886 0.7123 0.5845
vn 0.3886 0.8126 -0.4344
vn -0.3886 0.8126 0.4344
vn 0.3886 0.8818 -0.2675
vn -0.3886 0.8818 0.2675
vn 0.3886 0.9170 -0.0903
vn -0.3886 0.9170 0.0903
vn 0.3886 0.9170 0.0903
vn -0.3886 0.9170 -0.0903
vn 0.3886 0.8818 0.2675
vn -0.3886 0.8818 -0.2675
vn -0.3886 -0.0903 -0.9170
vn 0.3886 0.8126 0.4344
vn -0.3886 0.8126 -0.4344
vn -0.3886 0.0903 -0.9170
vn 0.3886 0.7123 0.5845
vn -0.3886 0.7123 -0.5845
vn -0.3886 -0.2675 -0.8818
vn 0.3886 0.5845 0.7123
vn -0.3886 0.5845 -0.7123
vn -0.3886 -0.4344 -0.8126
vt 1.000000 1.000000
vt 0.968750 0.500000
vt 1.000000 0.500000
vt 0.968750 1.000000
vt 0.937500 0.500000
vt 0.937500 1.000000
vt 0.906250 0.500000
vt 0.906250 1.000000
vt 0.875000 0.500000
vt 0.875000 1.000000
vt 0.843750 0.500000
vt 0.843750 1.000000
vt 0.812500 0.500000
vt 0.812500 1.000000
vt 0.781250 0.500000
vt 0.781250 1.000000
vt 0.750000 0.500000
vt 0.750000 1.000000
vt 0.718750 0.500000
vt 0.718750 1.000000
vt 0.687500 0.500000
vt 0.687500 1.000000
vt 0.656250 0.500000
vt 0.656250 1.000000
vt 0.625000 0.500000
vt 0.625000 1.000000
vt 0.593750 0.500000
vt 0.593750 1.000000
vt 0.562500 0.500000
vt 0.562500 1.000000
vt 0.531250 0.500000
vt 0.531250 1.000000
vt 0.500000 0.500000
vt 0.500000 1.000000
vt 0.468750 0.500000
vt 0.468750 1.000000
vt 0.437500 0.500000
vt 0.437500 1.000000
vt 0.406250 0.500000
vt 0.406250 1.000000
vt 0.375000 0.500000
vt 0.375000 1.000000
vt 0.343750 0.500000
vt 0.343750 1.000000
vt 0.312500 0.500000
vt 0.312500 1.000000
vt 0.281250 0.500000
vt 0.281250 1.000000
vt 0.250000 0.500000
vt 0.250000 1.000000
vt 0.218750 0.500000
vt 0.218750 1.000000
vt 0.187500 0.500000
vt 0.187500 1.000000
vt 0.156250 0.500000
vt 0.156250 1.000000
vt 0.125000 0.500000
vt 0.093750 1.000000
vt 0.093750 0.500000
vt 0.062500 0.500000
vt 0.366416 0.133584
vt 0.341467 0.113109
vt 0.062500 1.000000
vt 0.031250 0.500000
vt 0.031250 1.000000
vt 0.000000 0.500000
vt 0.911474 0.217881
vt 0.914637 0.250000
vt 0.250000 0.490000
vt 0.282119 0.411474
vt 0.296822 0.485388
vt 0.203178 0.485388
vt 0.250000 0.414637
vt 0.158156 0.471731
vt 0.217881 0.411474
vt 0.116663 0.449553
vt 0.186996 0.402105
vt 0.133584 0.366416
vt 0.158533 0.386891
vt 0.050447 0.383337
vt 0.080294 0.419706
vt 0.028269 0.341844
vt 0.113109 0.341467
vt 0.014612 0.296822
vt 0.097895 0.313004
vt 0.085363 0.250000
vt 0.088526 0.282119
vt 0.014612 0.203178
vt 0.010000 0.250000
vt 0.097895 0.186996
vt 0.088526 0.217881
vt 0.028269 0.158156
vt 0.113109 0.158532
vt 0.050447 0.116663
vt 0.133584 0.133584
vt 0.080294 0.080294
vt 0.158532 0.113109
vt 0.158156 0.028269
vt 0.116663 0.050447
vt 0.203178 0.014612
vt 0.186996 0.097895
vt 0.250000 0.010000
vt 0.217881 0.088526
vt 0.296822 0.014612
vt 0.250000 0.085363
vt 0.341844 0.028269
vt 0.282119 0.088526
vt 0.383337 0.050447
vt 0.313004 0.097895
vt 0.449553 0.116663
vt 0.419706 0.080294
vt 0.471731 0.158156
vt 0.386891 0.158533
vt 0.485388 0.203178
vt 0.402105 0.186996
vt 0.490000 0.250000
vt 0.411474 0.217881
vt 0.485388 0.296822
vt 0.414637 0.250000
vt 0.402105 0.313004
vt 0.411474 0.282119
vt 0.449553 0.383337
vt 0.471731 0.341844
vt 0.419706 0.419706
vt 0.386891 0.341468
vt 0.341467 0.386891
vt 0.366416 0.366416
vt 0.341844 0.471731
vt 0.383337 0.449553
vt 0.313004 0.402105
vt 0.796822 0.485388
vt 0.750000 0.414637
vt 0.750000 0.490000
vt 0.841844 0.471731
vt 0.782119 0.411474
vt 0.883337 0.449553
vt 0.813004 0.402105
vt 0.866416 0.366416
vt 0.841467 0.386891
vt 0.949553 0.383337
vt 0.919706 0.419706
vt 0.971731 0.341844
vt 0.886891 0.341467
vt 0.985388 0.296822
vt 0.902105 0.313004
vt 0.911473 0.282119
vt 0.985388 0.203178
vt 0.990000 0.250000
vt 0.902105 0.186996
vt 0.971731 0.158156
vt 0.886891 0.158532
vt 0.949553 0.116663
vt 0.866416 0.133584
vt 0.919706 0.080294
vt 0.841467 0.113109
vt 0.841844 0.028269
vt 0.883337 0.050447
vt 0.796822 0.014612
vt 0.813004 0.097895
vt 0.750000 0.010000
vt 0.782119 0.088526
vt 0.703178 0.014612
vt 0.750000 0.085363
vt 0.658156 0.028269
vt 0.717881 0.088526
vt 0.616663 0.050447
vt 0.686996 0.097895
vt 0.633584 0.133584
vt 0.658533 0.113109
vt 0.550447 0.116663
vt 0.580294 0.080294
vt 0.528269 0.158156
vt 0.613109 0.158533
vt 0.514612 0.203178
vt 0.597895 0.186996
vt 0.510000 0.250000
vt 0.588526 0.217881
vt 0.514612 0.296822
vt 0.585363 0.250000
vt 0.597895 0.313004
vt 0.588526 0.282119
vt 0.550447 0.383337
vt 0.528269 0.341844
vt 0.580294 0.419706
vt 0.613109 0.341467
vt 0.658533 0.386891
vt 0.633584 0.366416
vt 0.658156 0.471731
vt 0.616663 0.449553
vt 0.703178 0.485388
vt 0.686996 0.402105
vt 0.717881 0.411474
vt 0.707184 0.353366
vt 0.687841 0.343027
vt 0.207184 0.146634
vt 0.187841 0.156973
vt 0.250000 0.361883
vt 0.271827 0.359733
vt 0.207184 0.353367
vt 0.228173 0.359733
vt 0.187841 0.343028
vt 0.156973 0.312159
vt 0.170887 0.329113
vt 0.146634 0.292816
vt 0.140267 0.271827
vt 0.140267 0.228173
vt 0.138117 0.250000
vt 0.156973 0.187841
vt 0.146634 0.207184
vt 0.170887 0.170887
vt 0.250000 0.138117
vt 0.228173 0.140267
vt 0.271827 0.140267
vt 0.312159 0.156973
vt 0.292816 0.146634
vt 0.343027 0.187841
vt 0.329113 0.170887
vt 0.359733 0.228173
vt 0.353366 0.207184
vt 0.359733 0.271827
vt 0.361883 0.250000
vt 0.343027 0.312159
vt 0.353366 0.292816
vt 0.329113 0.329113
vt 0.312159 0.343027
vt 0.292816 0.353366
vt 0.750000 0.361883
vt 0.792816 0.353367
vt 0.771827 0.359733
vt 0.812159 0.343028
vt 0.843028 0.312159
vt 0.829113 0.329113
vt 0.853367 0.292816
vt 0.859733 0.271827
vt 0.859733 0.228173
vt 0.861883 0.250000
vt 0.843028 0.187841
vt 0.853367 0.207184
vt 0.812159 0.156973
vt 0.829113 0.170887
vt 0.792816 0.146634
vt 0.750000 0.138117
vt 0.771827 0.140267
vt 0.728173 0.140267
vt 0.687841 0.156973
vt 0.707184 0.146634
vt 0.656973 0.187841
vt 0.670887 0.170887
vt 0.640267 0.228173
vt 0.646634 0.207184
vt 0.640267 0.271827
vt 0.638117 0.250000
vt 0.656973 0.312159
vt 0.646633 0.292816
vt 0.670887 0.329113
vt 0.728173 0.359733
vt 0.125000 1.000000
vt 0.000000 1.000000
s 0
usemtl マテリアル.003
f 2/1/1 3/2/1 1/3/1
f 4/4/2 5/5/2 3/2/2
f 6/6/3 7/7/3 5/5/3
f 8/8/4 9/9/4 7/7/4
f 10/10/5 11/11/5 9/9/5
f 12/12/6 13/13/6 11/11/6
f 14/14/7 15/15/7 13/13/7
f 16/16/8 17/17/8 15/15/8
f 18/18/9 19/19/9 17/17/9
f 20/20/10 21/21/10 19/19/10
f 22/22/11 23/23/11 21/21/11
f 24/24/12 25/25/12 23/23/12
f 26/26/13 27/27/13 25/25/13
f 28/28/14 29/29/14 27/27/14
f 30/30/15 31/31/15 29/29/15
f 32/32/16 33/33/16 31/31/16
f 34/34/17 35/35/17 33/33/17
f 36/36/18 37/37/18 35/35/18
f 38/38/19 39/39/19 37/37/19
f 40/40/20 41/41/20 39/39/20
f 42/42/21 43/43/21 41/41/21
f 44/44/22 45/45/22 43/43/22
f 46/46/23 47/47/23 45/45/23
f 48/48/24 49/49/24 47/47/24
f 50/50/25 51/51/25 49/49/25
f 52/52/26 53/53/26 51/51/26
f 54/54/27 55/55/27 53/53/27
f 56/56/28 57/57/28 55/55/28
f 57/57/29 60/58/29 59/59/29
f 60/58/30 61/60/30 59/59/30
f 86/61/29 150/62/29 85/62/29
f 62/63/31 63/64/31 61/60/31
f 64/65/32 1/66/32 63/64/32
f 106/67/25 170/68/25 105/68/25
f 2/69/33 65/70/33 4/71/33
f 64/72/33 66/73/33 2/69/33
f 62/74/33 67/75/33 64/72/33
f 60/76/33 68/77/33 62/74/33
f 60/76/33 70/78/33 69/79/33
f 56/80/33 70/78/33 58/81/33
f 54/82/33 71/83/33 56/80/33
f 52/84/33 72/85/33 54/82/33
f 52/84/33 74/86/33 73/87/33
f 48/88/33 74/86/33 50/89/33
f 48/88/33 76/90/33 75/91/33
f 46/92/33 77/93/33 76/90/33
f 44/94/33 78/95/33 77/93/33
f 42/96/33 79/97/33 78/95/33
f 38/98/33 79/97/33 40/99/33
f 36/100/33 80/101/33 38/98/33
f 34/102/33 81/103/33 36/100/33
f 32/104/33 82/105/33 34/102/33
f 30/106/33 83/107/33 32/104/33
f 28/108/33 84/109/33 30/106/33
f 28/108/33 86/61/33 85/62/33
f 24/110/33 86/61/33 26/111/33
f 22/112/33 87/113/33 24/110/33
f 20/114/33 88/115/33 22/112/33
f 18/116/33 89/117/33 20/114/33
f 16/118/33 90/119/33 18/116/33
f 16/118/33 92/120/33 91/121/33
f 12/122/33 92/120/33 14/123/33
f 10/124/33 93/125/33 12/122/33
f 10/124/33 95/126/33 94/127/33
f 6/128/33 95/126/33 8/129/33
f 4/71/33 96/130/33 6/128/33
f 3/131/34 97/132/34 1/133/34
f 5/134/34 98/135/34 3/131/34
f 7/136/34 99/137/34 5/134/34
f 7/136/34 101/138/34 100/139/34
f 11/140/34 101/138/34 9/141/34
f 13/142/34 102/143/34 11/140/34
f 15/144/34 103/145/34 13/142/34
f 15/144/34 105/68/34 104/146/34
f 19/147/34 105/68/34 17/148/34
f 19/147/34 107/149/34 106/67/34
f 21/150/34 108/151/34 107/149/34
f 23/152/34 109/153/34 108/151/34
f 25/154/34 110/155/34 109/153/34
f 29/156/34 110/155/34 27/157/34
f 31/158/34 111/159/34 29/156/34
f 33/160/34 112/161/34 31/158/34
f 35/162/34 113/163/34 33/160/34
f 37/164/34 114/165/34 35/162/34
f 39/166/34 115/167/34 37/164/34
f 39/166/34 117/168/34 116/169/34
f 43/170/34 117/168/34 41/171/34
f 45/172/34 118/173/34 43/170/34
f 47/174/34 119/175/34 45/172/34
f 49/176/34 120/177/34 47/174/34
f 51/178/34 121/179/34 49/176/34
f 51/178/34 123/180/34 122/181/34
f 55/182/34 123/180/34 53/183/34
f 57/184/34 124/185/34 55/182/34
f 57/184/34 126/186/34 125/187/34
f 61/188/34 126/186/34 59/189/34
f 63/190/34 127/191/34 61/188/34
f 1/133/34 128/192/34 63/190/34
f 255/193/35 319/194/35 254/194/35
f 208/195/36 272/196/36 207/196/36
f 107/149/26 171/67/26 106/67/26
f 87/113/28 151/61/28 86/61/28
f 108/151/27 172/149/27 107/149/27
f 88/115/27 152/113/27 87/113/27
f 109/153/28 173/151/28 108/151/28
f 89/117/26 153/115/26 88/115/26
f 110/155/29 174/153/29 109/153/29
f 90/119/25 154/117/25 89/117/25
f 110/155/30 176/159/30 175/155/30
f 91/121/24 155/119/24 90/119/24
f 66/73/17 129/70/17 65/70/17
f 112/161/31 176/159/31 111/159/31
f 92/120/23 156/121/23 91/121/23
f 65/70/18 131/130/18 96/130/18
f 113/163/32 177/161/32 112/161/32
f 93/125/22 157/120/22 92/120/22
f 66/73/16 132/75/16 130/73/16
f 114/165/1 178/163/1 113/163/1
f 94/127/21 158/125/21 93/125/21
f 68/77/15 132/75/15 67/75/15
f 115/167/2 179/165/2 114/165/2
f 95/126/20 159/127/20 94/127/20
f 69/79/14 133/77/14 68/77/14
f 115/167/3 181/169/3 180/167/3
f 96/130/19 160/126/19 95/126/19
f 70/78/13 134/79/13 69/79/13
f 117/168/4 181/169/4 116/169/4
f 71/83/12 135/78/12 70/78/12
f 118/173/5 182/168/5 117/168/5
f 72/85/11 136/83/11 71/83/11
f 119/175/6 183/173/6 118/173/6
f 73/87/10 137/85/10 72/85/10
f 120/177/7 184/175/7 119/175/7
f 74/86/9 138/87/9 73/87/9
f 121/179/8 185/177/8 120/177/8
f 75/91/8 139/86/8 74/86/8
f 122/181/9 186/179/9 121/179/9
f 76/90/7 140/91/7 75/91/7
f 123/180/10 187/181/10 122/181/10
f 97/132/17 162/135/17 161/132/17
f 77/93/6 141/90/6 76/90/6
f 124/185/11 188/180/11 123/180/11
f 97/132/16 163/192/16 128/192/16
f 78/95/5 142/93/5 77/93/5
f 125/187/12 189/185/12 124/185/12
f 99/137/18 162/135/18 98/135/18
f 79/97/4 143/95/4 78/95/4
f 126/186/13 190/187/13 125/187/13
f 100/139/19 164/137/19 99/137/19
f 79/97/3 145/101/3 144/97/3
f 127/191/14 191/186/14 126/186/14
f 101/138/20 165/139/20 100/139/20
f 81/103/2 145/101/2 80/101/2
f 128/192/15 192/191/15 127/191/15
f 102/143/21 166/138/21 101/138/21
f 82/105/1 146/103/1 81/103/1
f 103/145/22 167/143/22 102/143/22
f 83/107/32 147/105/32 82/105/32
f 104/146/23 168/145/23 103/145/23
f 84/109/31 148/107/31 83/107/31
f 105/68/24 169/146/24 104/146/24
f 84/109/30 150/62/30 149/109/30
f 129/70/33 194/197/33 193/198/33
f 132/75/33 194/197/33 130/73/33
f 132/75/33 196/199/33 195/200/33
f 134/79/33 196/199/33 133/77/33
f 135/78/33 197/201/33 134/79/33
f 135/78/33 199/202/33 198/203/33
f 137/85/33 199/202/33 136/83/33
f 138/87/33 200/204/33 137/85/33
f 139/86/33 201/205/33 138/87/33
f 139/86/33 203/206/33 202/207/33
f 141/90/33 203/206/33 140/91/33
f 141/90/33 205/208/33 204/209/33
f 143/95/33 205/208/33 142/93/33
f 143/95/33 207/196/33 206/210/33
f 145/101/33 207/196/33 144/97/33
f 146/103/33 208/195/33 145/101/33
f 146/103/33 210/211/33 209/212/33
f 148/107/33 210/211/33 147/105/33
f 149/109/33 211/213/33 148/107/33
f 149/109/33 213/214/33 212/215/33
f 151/61/33 213/214/33 150/62/33
f 151/61/33 215/216/33 214/217/33
f 153/115/33 215/216/33 152/113/33
f 153/115/33 217/218/33 216/219/33
f 155/119/33 217/218/33 154/117/33
f 155/119/33 219/220/33 218/221/33
f 157/120/33 219/220/33 156/121/33
f 157/120/33 221/222/33 220/223/33
f 158/125/33 222/224/33 221/222/33
f 160/126/33 222/224/33 159/127/33
f 131/130/33 223/225/33 160/126/33
f 129/70/33 224/226/33 131/130/33
f 162/135/34 225/227/34 161/132/34
f 162/135/34 227/228/34 226/229/34
f 165/139/34 227/228/34 164/137/34
f 166/138/34 228/230/34 165/139/34
f 166/138/34 230/231/34 229/232/34
f 168/145/34 230/231/34 167/143/34
f 169/146/34 231/233/34 168/145/34
f 170/68/34 232/234/34 169/146/34
f 170/68/34 234/235/34 233/236/34
f 172/149/34 234/235/34 171/67/34
f 172/149/34 236/237/34 235/238/34
f 174/153/34 236/237/34 173/151/34
f 174/153/34 238/239/34 237/240/34
f 176/159/34 238/239/34 175/155/34
f 177/161/34 239/241/34 176/159/34
f 177/161/34 241/242/34 240/243/34
f 179/165/34 241/242/34 178/163/34
f 180/167/34 242/244/34 179/165/34
f 180/167/34 244/245/34 243/246/34
f 182/168/34 244/245/34 181/169/34
f 182/168/34 246/247/34 245/248/34
f 184/175/34 246/247/34 183/173/34
f 184/175/34 248/249/34 247/250/34
f 186/179/34 248/249/34 185/177/34
f 186/179/34 250/251/34 249/252/34
f 188/180/34 250/251/34 187/181/34
f 188/180/34 252/253/34 251/254/34
f 189/185/34 253/255/34 252/253/34
f 191/186/34 253/255/34 190/187/34
f 192/191/34 254/194/34 191/186/34
f 163/192/34 255/193/34 192/191/34
f 163/192/34 225/227/34 256/256/34
f 273/195/33 281/219/33 259/226/33
f 305/243/34 313/249/34 291/256/34
f 229/232/37 293/230/37 228/230/37
f 209/212/38 273/195/38 208/195/38
f 256/256/39 320/193/39 255/193/39
f 230/231/40 294/232/40 229/232/40
f 210/211/41 274/212/41 209/212/41
f 231/233/42 295/231/42 230/231/42
f 211/213/43 275/211/43 210/211/43
f 232/234/44 296/233/44 231/233/44
f 212/215/45 276/213/45 211/213/45
f 233/236/46 297/234/46 232/234/46
f 212/215/47 278/214/47 277/215/47
f 234/235/48 298/236/48 233/236/48
f 214/217/49 278/214/49 213/214/49
f 235/238/50 299/235/50 234/235/50
f 214/217/51 280/216/51 279/217/51
f 235/238/52 301/237/52 300/238/52
f 216/219/53 280/216/53 215/216/53
f 237/240/54 301/237/54 236/237/54
f 216/219/55 282/218/55 281/219/55
f 237/240/56 303/239/56 302/240/56
f 218/221/57 282/218/57 217/218/57
f 239/241/58 303/239/58 238/239/58
f 218/221/59 284/220/59 283/221/59
f 194/197/60 257/198/60 193/198/60
f 240/243/61 304/241/61 239/241/61
f 220/223/62 284/220/62 219/220/62
f 193/198/63 259/226/63 224/226/63
f 240/243/64 306/242/64 305/243/64
f 221/222/65 285/223/65 220/223/65
f 195/200/66 258/197/66 194/197/66
f 241/242/67 307/244/67 306/242/67
f 222/224/68 286/222/68 221/222/68
f 196/199/69 260/200/69 195/200/69
f 243/246/70 307/244/70 242/244/70
f 222/224/71 288/225/71 287/224/71
f 196/199/72 262/201/72 261/199/72
f 243/246/73 309/245/73 308/246/73
f 224/226/74 288/225/74 223/225/74
f 198/203/75 262/201/75 197/201/75
f 245/248/76 309/245/76 244/245/76
f 199/202/77 263/203/77 198/203/77
f 245/248/78 311/247/78 310/248/78
f 200/204/79 264/202/79 199/202/79
f 247/250/80 311/247/80 246/247/80
f 201/205/81 265/204/81 200/204/81
f 247/250/82 313/249/82 312/250/82
f 202/207/83 266/205/83 201/205/83
f 249/252/84 313/249/84 248/249/84
f 203/206/85 267/207/85 202/207/85
f 249/252/86 315/251/86 314/252/86
f 204/209/87 268/206/87 203/206/87
f 251/254/88 315/251/88 250/251/88
f 226/229/89 289/227/89 225/227/89
f 204/209/90 270/208/90 269/209/90
f 252/253/91 316/254/91 251/254/91
f 256/256/92 289/227/92 291/256/92
f 206/210/93 270/208/93 205/208/93
f 253/255/94 317/253/94 252/253/94
f 227/228/95 290/229/95 226/229/95
f 206/210/96 272/196/96 271/210/96
f 253/255/97 319/194/97 318/255/97
f 227/228/98 293/230/98 292/228/98
f 2/1/1 4/4/1 3/2/1
f 4/4/2 6/6/2 5/5/2
f 6/6/3 8/8/3 7/7/3
f 8/8/4 10/10/4 9/9/4
f 10/10/5 12/12/5 11/11/5
f 12/12/6 14/14/6 13/13/6
f 14/14/7 16/16/7 15/15/7
f 16/16/8 18/18/8 17/17/8
f 18/18/9 20/20/9 19/19/9
f 20/20/10 22/22/10 21/21/10
f 22/22/11 24/24/11 23/23/11
f 24/24/12 26/26/12 25/25/12
f 26/26/13 28/28/13 27/27/13
f 28/28/14 30/30/14 29/29/14
f 30/30/15 32/32/15 31/31/15
f 32/32/16 34/34/16 33/33/16
f 34/34/17 36/36/17 35/35/17
f 36/36/18 38/38/18 37/37/18
f 38/38/19 40/40/19 39/39/19
f 40/40/20 42/42/20 41/41/20
f 42/42/21 44/44/21 43/43/21
f 44/44/22 46/46/22 45/45/22
f 46/46/23 48/48/23 47/47/23
f 48/48/24 50/50/24 49/49/24
f 50/50/25 52/52/25 51/51/25
f 52/52/26 54/54/26 53/53/26
f 54/54/27 56/56/27 55/55/27
f 56/56/28 58/257/28 57/57/28
f 57/57/29 58/257/29 60/58/29
f 60/58/30 62/63/30 61/60/30
f 86/61/29 151/61/29 150/62/29
f 62/63/31 64/65/31 63/64/31
f 64/65/32 2/258/32 1/66/32
f 106/67/25 171/67/25 170/68/25
f 2/69/33 66/73/33 65/70/33
f 64/72/33 67/75/33 66/73/33
f 62/74/33 68/77/33 67/75/33
f 60/76/33 69/79/33 68/77/33
f 60/76/33 58/81/33 70/78/33
f 56/80/33 71/83/33 70/78/33
f 54/82/33 72/85/33 71/83/33
f 52/84/33 73/87/33 72/85/33
f 52/84/33 50/89/33 74/86/33
f 48/88/33 75/91/33 74/86/33
f 48/88/33 46/92/33 76/90/33
f 46/92/33 44/94/33 77/93/33
f 44/94/33 42/96/33 78/95/33
f 42/96/33 40/99/33 79/97/33
f 38/98/33 80/101/33 79/97/33
f 36/100/33 81/103/33 80/101/33
f 34/102/33 82/105/33 81/103/33
f 32/104/33 83/107/33 82/105/33
f 30/106/33 84/109/33 83/107/33
f 28/108/33 85/62/33 84/109/33
f 28/108/33 26/111/33 86/61/33
f 24/110/33 87/113/33 86/61/33
f 22/112/33 88/115/33 87/113/33
f 20/114/33 89/117/33 88/115/33
f 18/116/33 90/119/33 89/117/33
f 16/118/33 91/121/33 90/119/33
f 16/118/33 14/123/33 92/120/33
f 12/122/33 93/125/33 92/120/33
f 10/124/33 94/127/33 93/125/33
f 10/124/33 8/129/33 95/126/33
f 6/128/33 96/130/33 95/126/33
f 4/71/33 65/70/33 96/130/33
f 3/131/34 98/135/34 97/132/34
f 5/134/34 99/137/34 98/135/34
f 7/136/34 100/139/34 99/137/34
f 7/136/34 9/141/34 101/138/34
f 11/140/34 102/143/34 101/138/34
f 13/142/34 103/145/34 102/143/34
f 15/144/34 104/146/34 103/145/34
f 15/144/34 17/148/34 105/68/34
f 19/147/34 106/67/34 105/68/34
f 19/147/34 21/150/34 107/149/34
f 21/150/34 23/152/34 108/151/34
f 23/152/34 25/154/34 109/153/34
f 25/154/34 27/157/34 110/155/34
f 29/156/34 111/159/34 110/155/34
f 31/158/34 112/161/34 111/159/34
f 33/160/34 113/163/34 112/161/34
f 35/162/34 114/165/34 113/163/34
f 37/164/34 115/167/34 114/165/34
f 39/166/34 116/169/34 115/167/34
f 39/166/34 41/171/34 117/168/34
f 43/170/34 118/173/34 117/168/34
f 45/172/34 119/175/34 118/173/34
f 47/174/34 120/177/34 119/175/34
f 49/176/34 121/179/34 120/177/34
f 51/178/34 122/181/34 121/179/34
f 51/178/34 53/183/34 123/180/34
f 55/182/34 124/185/34 123/180/34
f 57/184/34 125/187/34 124/185/34
f 57/184/34 59/189/34 126/186/34
f 61/188/34 127/191/34 126/186/34
f 63/190/34 128/192/34 127/191/34
f 1/133/34 97/132/34 128/192/34
f 255/193/35 320/193/35 319/194/35
f 208/195/36 273/195/36 272/196/36
f 107/149/26 172/149/26 171/67/26
f 87/113/28 152/113/28 151/61/28
f 108/151/27 173/151/27 172/149/27
f 88/115/27 153/115/27 152/113/27
f 109/153/28 174/153/28 173/151/28
f 89/117/26 154/117/26 153/115/26
f 110/155/29 175/155/29 174/153/29
f 90/119/25 155/119/25 154/117/25
f 110/155/30 111/159/30 176/159/30
f 91/121/24 156/121/24 155/119/24
f 66/73/17 130/73/17 129/70/17
f 112/161/31 177/161/31 176/159/31
f 92/120/23 157/120/23 156/121/23
f 65/70/18 129/70/18 131/130/18
f 113/163/32 178/163/32 177/161/32
f 93/125/22 158/125/22 157/120/22
f 66/73/16 67/75/16 132/75/16
f 114/165/1 179/165/1 178/163/1
f 94/127/21 159/127/21 158/125/21
f 68/77/15 133/77/15 132/75/15
f 115/167/2 180/167/2 179/165/2
f 95/126/20 160/126/20 159/127/20
f 69/79/14 134/79/14 133/77/14
f 115/167/3 116/169/3 181/169/3
f 96/130/19 131/130/19 160/126/19
f 70/78/13 135/78/13 134/79/13
f 117/168/4 182/168/4 181/169/4
f 71/83/12 136/83/12 135/78/12
f 118/173/5 183/173/5 182/168/5
f 72/85/11 137/85/11 136/83/11
f 119/175/6 184/175/6 183/173/6
f 73/87/10 138/87/10 137/85/10
f 120/177/7 185/177/7 184/175/7
f 74/86/9 139/86/9 138/87/9
f 121/179/8 186/179/8 185/177/8
f 75/91/8 140/91/8 139/86/8
f 122/181/9 187/181/9 186/179/9
f 76/90/7 141/90/7 140/91/7
f 123/180/10 188/180/10 187/181/10
f 97/132/17 98/135/17 162/135/17
f 77/93/6 142/93/6 141/90/6
f 124/185/11 189/185/11 188/180/11
f 97/132/16 161/132/16 163/192/16
f 78/95/5 143/95/5 142/93/5
f 125/187/12 190/187/12 189/185/12
f 99/137/18 164/137/18 162/135/18
f 79/97/4 144/97/4 143/95/4
f 126/186/13 191/186/13 190/187/13
f 100/139/19 165/139/19 164/137/19
f 79/97/3 80/101/3 145/101/3
f 127/191/14 192/191/14 191/186/14
f 101/138/20 166/138/20 165/139/20
f 81/103/2 146/103/2 145/101/2
f 128/192/15 163/192/15 192/191/15
f 102/143/21 167/143/21 166/138/21
f 82/105/1 147/105/1 146/103/1
f 103/145/22 168/145/22 167/143/22
f 83/107/32 148/107/32 147/105/32
f 104/146/23 169/146/23 168/145/23
f 84/109/31 149/109/31 148/107/31
f 105/68/24 170/68/24 169/146/24
f 84/109/30 85/62/30 150/62/30
f 129/70/33 130/73/33 194/197/33
f 132/75/33 195/200/33 194/197/33
f 132/75/33 133/77/33 196/199/33
f 134/79/33 197/201/33 196/199/33
f 135/78/33 198/203/33 197/201/33
f 135/78/33 136/83/33 199/202/33
f 137/85/33 200/204/33 199/202/33
f 138/87/33 201/205/33 200/204/33
f 139/86/33 202/207/33 201/205/33
f 139/86/33 140/91/33 203/206/33
f 141/90/33 204/209/33 203/206/33
f 141/90/33 142/93/33 205/208/33
f 143/95/33 206/210/33 205/208/33
f 143/95/33 144/97/33 207/196/33
f 145/101/33 208/195/33 207/196/33
f 146/103/33 209/212/33 208/195/33
f 146/103/33 147/105/33 210/211/33
f 148/107/33 211/213/33 210/211/33
f 149/109/33 212/215/33 211/213/33
f 149/109/33 150/62/33 213/214/33
f 151/61/33 214/217/33 213/214/33
f 151/61/33 152/113/33 215/216/33
f 153/115/33 216/219/33 215/216/33
f 153/115/33 154/117/33 217/218/33
f 155/119/33 218/221/33 217/218/33
f 155/119/33 156/121/33 219/220/33
f 157/120/33 220/223/33 219/220/33
f 157/120/33 158/125/33 221/222/33
f 158/125/33 159/127/33 222/224/33
f 160/126/33 223/225/33 222/224/33
f 131/130/33 224/226/33 223/225/33
f 129/70/33 193/198/33 224/226/33
f 162/135/34 226/229/34 225/227/34
f 162/135/34 164/137/34 227/228/34
f 165/139/34 228/230/34 227/228/34
f 166/138/34 229/232/34 228/230/34
f 166/138/34 167/143/34 230/231/34
f 168/145/34 231/233/34 230/231/34
f 169/146/34 232/234/34 231/233/34
f 170/68/34 233/236/34 232/234/34
f 170/68/34 171/67/34 234/235/34
f 172/149/34 235/238/34 234/235/34
f 172/149/34 173/151/34 236/237/34
f 174/153/34 237/240/34 236/237/34
f 174/153/34 175/155/34 238/239/34
f 176/159/34 239/241/34 238/239/34
f 177/161/34 240/243/34 239/241/34
f 177/161/34 178/163/34 241/242/34
f 179/165/34 242/244/34 241/242/34
f 180/167/34 243/246/34 242/244/34
f 180/167/34 181/169/34 244/245/34
f 182/168/34 245/248/34 244/245/34
f 182/168/34 183/173/34 246/247/34
f 184/175/34 247/250/34 246/247/34
f 184/175/34 185/177/34 248/249/34
f 186/179/34 249/252/34 248/249/34
f 186/179/34 187/181/34 250/251/34
f 188/180/34 251/254/34 250/251/34
f 188/180/34 189/185/34 252/253/34
f 189/185/34 190/187/34 253/255/34
f 191/186/34 254/194/34 253/255/34
f 192/191/34 255/193/34 254/194/34
f 163/192/34 256/256/34 255/193/34
f 163/192/34 161/132/34 225/227/34
f 259/226/33 257/198/33 258/197/33
f 258/197/33 260/200/33 261/199/33
f 261/199/33 262/201/33 263/203/33
f 263/203/33 264/202/33 265/204/33
f 265/204/33 266/205/33 267/207/33
f 267/207/33 268/206/33 269/209/33
f 269/209/33 270/208/33 271/210/33
f 271/210/33 272/196/33 273/195/33
f 273/195/33 274/212/33 275/211/33
f 275/211/33 276/213/33 277/215/33
f 277/215/33 278/214/33 279/217/33
f 279/217/33 280/216/33 281/219/33
f 281/219/33 282/218/33 283/221/33
f 283/221/33 284/220/33 285/223/33
f 285/223/33 286/222/33 287/224/33
f 287/224/33 288/225/33 259/226/33
f 259/226/33 258/197/33 261/199/33
f 261/199/33 263/203/33 265/204/33
f 265/204/33 267/207/33 269/209/33
f 269/209/33 271/210/33 273/195/33
f 273/195/33 275/211/33 277/215/33
f 277/215/33 279/217/33 281/219/33
f 281/219/33 283/221/33 285/223/33
f 285/223/33 287/224/33 259/226/33
f 259/226/33 261/199/33 265/204/33
f 265/204/33 269/209/33 273/195/33
f 273/195/33 277/215/33 281/219/33
f 281/219/33 285/223/33 259/226/33
f 259/226/33 265/204/33 273/195/33
f 291/256/34 289/227/34 290/229/34
f 290/229/34 292/228/34 293/230/34
f 293/230/34 294/232/34 295/231/34
f 295/231/34 296/233/34 297/234/34
f 297/234/34 298/236/34 299/235/34
f 299/235/34 300/238/34 301/237/34
f 301/237/34 302/240/34 303/239/34
f 303/239/34 304/241/34 305/243/34
f 305/243/34 306/242/34 307/244/34
f 307/244/34 308/246/34 309/245/34
f 309/245/34 310/248/34 311/247/34
f 311/247/34 312/250/34 313/249/34
f 313/249/34 314/252/34 315/251/34
f 315/251/34 316/254/34 317/253/34
f 317/253/34 318/255/34 319/194/34
f 319/194/34 320/193/34 291/256/34
f 291/256/34 290/229/34 293/230/34
f 293/230/34 295/231/34 297/234/34
f 297/234/34 299/235/34 301/237/34
f 301/237/34 303/239/34 305/243/34
f 305/243/34 307/244/34 309/245/34
f 309/245/34 311/247/34 313/249/34
f 313/249/34 315/251/34 317/253/34
f 317/253/34 319/194/34 291/256/34
f 291/256/34 293/230/34 297/234/34
f 297/234/34 301/237/34 305/243/34
f 305/243/34 309/245/34 313/249/34
f 313/249/34 317/253/34 291/256/34
f 291/256/34 297/234/34 305/243/34
f 229/232/37 294/232/37 293/230/37
f 209/212/38 274/212/38 273/195/38
f 256/256/39 291/256/39 320/193/39
f 230/231/40 295/231/40 294/232/40
f 210/211/41 275/211/41 274/212/41
f 231/233/42 296/233/42 295/231/42
f 211/213/43 276/213/43 275/211/43
f 232/234/44 297/234/44 296/233/44
f 212/215/45 277/215/45 276/213/45
f 233/236/46 298/236/46 297/234/46
f 212/215/47 213/214/47 278/214/47
f 234/235/48 299/235/48 298/236/48
f 214/217/49 279/217/49 278/214/49
f 235/238/50 300/238/50 299/235/50
f 214/217/51 215/216/51 280/216/51
f 235/238/52 236/237/52 301/237/52
f 216/219/53 281/219/53 280/216/53
f 237/240/54 302/240/54 301/237/54
f 216/219/55 217/218/55 282/218/55
f 237/240/56 238/239/56 303/239/56
f 218/221/57 283/221/57 282/218/57
f 239/241/58 304/241/58 303/239/58
f 218/221/59 219/220/59 284/220/59
f 194/197/60 258/197/60 257/198/60
f 240/243/61 305/243/61 304/241/61
f 220/223/62 285/223/62 284/220/62
f 193/198/63 257/198/63 259/226/63
f 240/243/64 241/242/64 306/242/64
f 221/222/65 286/222/65 285/223/65
f 195/200/66 260/200/66 258/197/66
f 241/242/67 242/244/67 307/244/67
f 222/224/68 287/224/68 286/222/68
f 196/199/69 261/199/69 260/200/69
f 243/246/70 308/246/70 307/244/70
f 222/224/71 223/225/71 288/225/71
f 196/199/72 197/201/72 262/201/72
f 243/246/73 244/245/73 309/245/73
f 224/226/74 259/226/74 288/225/74
f 198/203/75 263/203/75 262/201/75
f 245/248/76 310/248/76 309/245/76
f 199/202/77 264/202/77 263/203/77
f 245/248/78 246/247/78 311/247/78
f 200/204/79 265/204/79 264/202/79
f 247/250/80 312/250/80 311/247/80
f 201/205/81 266/205/81 265/204/81
f 247/250/82 248/249/82 313/249/82
f 202/207/83 267/207/83 266/205/83
f 249/252/84 314/252/84 313/249/84
f 203/206/85 268/206/85 267/207/85
f 249/252/86 250/251/86 315/251/86
f 204/209/87 269/209/87 268/206/87
f 251/254/88 316/254/88 315/251/88
f 226/229/89 290/229/89 289/227/89
f 204/209/90 205/208/90 270/208/90
f 252/253/91 317/253/91 316/254/91
f 256/256/92 225/227/92 289/227/92
f 206/210/93 271/210/93 270/208/93
f 253/255/94 318/255/94 317/253/94
f 227/228/95 292/228/95 290/229/95
f 206/210/96 207/196/96 272/196/96
f 253/255/97 254/194/97 319/194/97
f 227/228/98 228/230/98 293/230/98
