# Blender 5.0.1
# www.blender.org
mtllib TrackCarBody.mtl
o 車体
v -0.975000 0.200000 2.925000
v 0.975000 0.200000 2.925000
v -0.975000 0.200000 0.000000
v 0.975000 0.200000 0.000000
v -1.000000 1.000000 3.000000
v 1.000000 1.000000 3.000000
v 1.000000 1.000000 0.000000
v -1.000000 1.000000 0.000000
v 0.975000 0.200000 -0.800000
v -0.975000 0.200000 -0.800000
v 1.000000 1.000000 -0.800000
v -1.000000 1.000000 -0.800000
v -0.717823 0.709098 -1.147441
v 0.949994 1.333096 0.050006
v 0.949994 1.333096 2.949994
v -0.717823 0.529795 -0.958949
v -0.717823 0.685076 -1.056476
v -0.949994 1.333096 2.949994
v -0.717823 0.619447 -0.987484
v -0.949994 1.333096 0.050006
v -0.717823 0.529795 -1.680771
v 1.000000 1.333096 -0.800000
v -0.717823 0.709098 -1.492279
v -1.000000 1.333096 -0.800000
v -0.717823 0.619447 -1.652236
v 1.000000 1.333096 0.000000
v 1.000000 1.333096 3.000000
v -0.717823 0.685076 -1.583244
v -1.000000 1.333096 3.000000
v -1.000000 1.333096 0.000000
v 0.949994 0.804468 0.050006
v 0.949994 0.804468 2.949994
v -0.949994 0.804468 2.949994
v -0.949994 0.804468 0.050006
v -0.975000 0.200000 -1.946826
v -0.926124 0.200000 -2.000000
v -0.907414 1.950553 -1.469648
v -0.850000 2.000000 -1.446684
v -0.856439 1.955984 -1.520403
v 0.926124 0.200000 -2.000000
v 0.975000 0.200000 -1.946826
v 0.717823 0.709098 -1.147441
v 0.717823 0.529795 -0.958949
v 0.856439 1.955984 -1.520403
v 0.717823 0.685076 -1.056476
v 0.850000 2.000000 -1.446684
v 0.717823 0.619447 -0.987484
v 0.907414 1.950553 -1.469648
v 0.717823 0.529795 -1.680771
v -0.850000 2.000000 -0.085596
v 0.717823 0.709098 -1.492280
v -0.907414 1.950553 -0.079249
v 0.717823 0.619447 -1.652236
v 0.907414 1.950553 -0.079249
v 0.850000 2.000000 -0.085596
v 0.717823 0.685076 -1.583244
v -1.000000 1.000000 -1.946699
v -0.949866 1.000000 -2.000000
v 0.949866 1.000000 -2.000000
v 1.000000 1.000000 -1.946699
v -0.907414 1.950553 -0.786664
v -0.850000 2.000000 -0.785596
v 0.907414 1.950553 -0.786664
v 0.850000 2.000000 -0.785596
v 0.949850 1.333096 -1.856061
v 1.000000 1.333096 -1.802499
v -1.000000 1.333096 -1.802499
v -0.949850 1.333096 -1.856061
v -0.717823 0.709098 2.176490
v -0.881408 1.385915 -1.827598
v -0.717823 0.529795 2.364981
v -0.803840 1.903165 -1.548866
v -0.717823 0.685076 2.267454
v 0.803840 1.903165 -1.548866
v -0.717823 0.619447 2.336447
v 0.881408 1.385915 -1.827598
v -0.717823 0.529795 1.643160
v -0.991103 1.392433 -0.858732
v -0.916312 1.891216 -0.847959
v -0.717823 0.709098 1.831651
v -0.916312 1.891216 -1.433641
v -0.717823 0.619447 1.671694
v -0.717823 0.685076 1.740687
v -0.991103 1.392433 -1.702519
v 0.991103 1.392433 -1.702519
v 0.916312 1.891216 -1.433641
v 0.916312 1.891216 -0.847959
v 0.991103 1.392433 -0.858732
v -0.991103 1.392433 -0.068097
v -0.916312 1.891216 -0.132115
v -0.916312 1.891216 -0.727932
v -0.991103 1.392433 -0.738705
v 0.991103 1.392433 -0.738705
v 0.916312 1.891216 -0.727932
v 0.916312 1.891216 -0.132115
v 0.991103 1.392433 -0.068097
v 0.717823 0.709098 2.176490
v 0.669847 1.912411 -0.074354
v 0.657586 1.925610 -0.076048
v 0.717823 0.529795 2.364981
v 0.717823 0.685076 2.267454
v -0.657586 1.925610 -0.076048
v -0.669847 1.912411 -0.074354
v 0.717823 0.619447 2.336447
v -0.730416 1.407486 -0.009548
v 0.717823 0.529795 1.643160
v 0.730416 1.407486 -0.009548
v 0.717823 0.709098 1.831651
v 1.000000 0.700000 3.000000
v 0.717823 0.619447 1.671694
v 1.000000 0.700000 0.000000
v 0.717823 0.685076 1.740687
v -1.000000 0.700000 0.000000
v -1.000000 0.700000 3.000000
v -1.000000 0.700000 -0.800000
v 1.000000 0.700000 -0.800000
v -0.949869 0.700000 -2.000000
v -1.000000 0.700000 -1.946762
v 1.000000 0.700000 -1.946762
v 0.949869 0.700000 -2.000000
v -1.028292 0.156068 2.988328
v -1.028292 0.356068 2.988328
v -1.028292 0.156068 2.656659
v -1.028292 0.356068 2.656659
v 1.028292 0.156068 2.988328
v 1.028292 0.356068 2.988328
v 1.028292 0.156068 2.656659
v 1.028292 0.356068 2.656659
v -1.028292 0.156068 -1.778210
v -1.028292 0.356068 -1.778210
v -1.028292 0.156068 -2.109879
v -1.028292 0.356068 -2.109879
v 1.028292 0.156068 -1.778210
v 1.028292 0.356068 -1.778210
v 1.028292 0.156068 -2.109879
v 1.028292 0.356068 -2.109879
v 0.717823 0.200000 2.381471
v 0.717823 0.200000 1.626670
v 0.975000 0.200000 2.381471
v 0.975000 0.200000 1.626670
v -0.975000 0.200000 2.381471
v -0.975000 0.200000 1.626670
v -0.717823 0.200000 1.626670
v -0.717823 0.200000 2.381471
v -1.000000 0.709098 2.176490
v -1.000000 0.700000 2.210940
v -1.000000 0.700000 1.797201
v -1.000000 0.709098 1.831651
v 1.000000 0.700000 2.210940
v 1.000000 0.709098 2.176490
v 1.000000 0.700000 1.797201
v 1.000000 0.709098 1.831651
v -1.000000 0.709098 -1.147441
v -1.000000 0.700000 -1.112991
v -1.000000 0.700000 -1.526729
v -1.000000 0.709098 -1.492279
v -0.975000 0.200000 -0.942460
v -0.975000 0.200000 -1.697260
v -0.717823 0.200000 -0.942460
v 0.717823 0.200000 -0.942460
v 0.975000 0.200000 -0.942460
v 0.975000 0.200000 -1.697260
v 0.717823 0.200000 -1.697260
v -0.717823 0.200000 -1.697260
v 1.000000 0.700000 -1.112991
v 1.000000 0.709098 -1.147441
v 1.000000 0.700000 -1.526729
v 1.000000 0.709098 -1.492279
v 0.995972 0.619447 -0.987484
v 0.999254 0.685076 -1.056476
v 0.995972 0.619447 -1.652236
v 0.991490 0.529795 -1.680771
v 0.999254 0.685076 -1.583244
v 0.991490 0.529795 -0.958949
v -0.995972 0.619447 -0.987484
v -0.991490 0.529795 -0.958949
v -0.999254 0.685076 -1.056476
v -0.995972 0.619447 -1.652236
v -0.999254 0.685076 -1.583244
v -0.991490 0.529795 -1.680771
v 0.995972 0.619447 2.336447
v 0.999254 0.685076 2.267454
v 0.995972 0.619447 1.671694
v 0.991490 0.529795 1.643160
v 0.999254 0.685076 1.740687
v 0.991490 0.529795 2.364981
v -0.995972 0.619447 2.336447
v -0.991490 0.529795 2.364981
v -0.999254 0.685076 2.267454
v -0.999254 0.685076 1.740687
v -0.991490 0.529795 1.643160
v -0.995972 0.619447 1.671694
v -0.942439 0.419006 3.024641
v -0.942439 0.619006 3.024641
v -0.942439 0.419006 2.824641
v -0.942439 0.619006 2.824641
v -0.642439 0.419006 3.024641
v -0.642439 0.619006 3.024641
v -0.642439 0.419006 2.824641
v -0.642439 0.619006 2.824641
v 0.942439 0.419006 3.024641
v 0.942439 0.619006 3.024641
v 0.942439 0.419006 2.824641
v 0.942439 0.619006 2.824641
v 0.642439 0.419006 3.024641
v 0.642439 0.619006 3.024641
v 0.642439 0.419006 2.824641
v 0.642439 0.619006 2.824641
v -0.200000 0.421838 3.007594
v 0.200000 0.421838 3.007594
v -0.200000 0.621838 3.007594
v 0.200000 0.621838 3.007594
v -0.200000 0.621838 -2.031537
v 0.200000 0.621838 -2.031537
v -0.200000 0.421838 -2.031537
v 0.200000 0.421838 -2.031537
v 0.575533 0.419849 -1.865725
v 0.575533 0.619849 -1.865725
v 0.575533 0.419849 -2.065725
v 0.575533 0.619849 -2.065725
v 0.875533 0.419849 -1.865725
v 0.875533 0.619849 -1.865725
v 0.875533 0.419849 -2.065725
v 0.875533 0.619849 -2.065725
v -0.575533 0.419849 -1.865725
v -0.575533 0.619849 -1.865725
v -0.575533 0.419849 -2.065725
v -0.575533 0.619849 -2.065725
v -0.875533 0.419849 -1.865725
v -0.875533 0.619849 -1.865725
v -0.875533 0.419849 -2.065725
v -0.875533 0.619849 -2.065725
vn -0.0000 -0.0000 1.0000
vn -0.0000 -1.0000 -0.0000
vn -1.0000 -0.0000 -0.0000
vn 1.0000 -0.0000 -0.0000
vn -0.0000 -0.0000 -1.0000
vn -0.0000 1.0000 -0.0000
vn -0.4934 0.7651 -0.4137
vn 0.4934 0.7651 -0.4137
vn -0.6526 0.7577 -0.0000
vn -0.7275 -0.0363 -0.6851
vn -0.0000 0.8586 -0.5127
vn 0.7275 -0.0363 -0.6851
vn 0.6526 0.7577 -0.0000
vn -0.7000 0.2837 -0.6554
vn 0.7000 0.2837 -0.6554
vn 0.6593 0.4310 -0.6161
vn -0.6593 0.4310 -0.6161
vn -0.0000 0.4744 -0.8803
vn -0.9889 0.1483 -0.0000
vn 0.9889 0.1483 -0.0000
vn -0.0000 0.1273 0.9919
vn -0.0000 0.3967 -0.9180
vn 0.9988 -0.0499 -0.0000
vn -0.9988 -0.0499 -0.0000
vn 0.7284 0.0001 -0.6851
vn -0.7284 0.0001 -0.6851
vn -0.0000 -0.1483 0.9889
vn -0.0000 -0.9669 0.2553
vn -0.0000 -0.7245 0.6892
vn -0.0000 -0.3033 0.9529
vn -0.0000 -0.9669 -0.2553
vn -0.0000 -0.7245 -0.6892
vn -0.0000 -0.3033 -0.9529
vn -0.0000 -0.0499 -0.9988
vn -0.0000 -0.0499 0.9988
vn -0.7358 -0.0349 -0.6763
vn -0.0000 0.8586 -0.5126
vn 0.7358 -0.0349 -0.6763
vn -0.6984 0.2839 -0.6569
vn 0.6984 0.2839 -0.6569
vn 0.6587 0.4311 -0.6167
vn -0.6587 0.4311 -0.6167
vn 0.7280 -0.0000 -0.6855
vn -0.7280 -0.0000 -0.6855
vt 0.177893 0.027760
vt 0.022060 0.000173
vt 0.189156 0.011904
vt 0.492336 0.120383
vt 0.370316 0.265629
vt 0.381151 0.132898
vt 0.376011 0.328518
vt 0.524404 0.255856
vt 0.524529 0.324694
vt 0.037757 0.022333
vt 0.022875 0.282951
vt 0.829838 0.919692
vt 0.847101 0.850379
vt 0.847100 0.870837
vt 0.829856 0.436804
vt 0.847652 0.389341
vt 0.847654 0.436803
vt 0.829844 0.211362
vt 0.847636 0.092708
vt 0.847642 0.211361
vt 0.847105 0.260217
vt 0.847106 0.280676
vt 0.829851 0.741712
vt 0.847652 0.694252
vt 0.847649 0.741713
vt 0.176788 0.031709
vt 0.059798 0.057872
vt 0.042051 0.035987
vt 0.225094 0.236320
vt 0.251614 0.222544
vt 0.275850 0.298312
vt 0.304101 0.284767
vt 0.063001 0.280741
vt 0.022060 0.401726
vt 0.216234 0.232571
vt 0.068334 0.266734
vt 0.083310 0.240315
vt 0.164402 0.049692
vt 0.194011 0.218291
vt 0.142237 0.419338
vt 0.144051 0.414623
vt 0.143933 0.422829
vt 0.251379 0.364345
vt 0.247941 0.361761
vt 0.250974 0.361893
vt 0.117934 0.368999
vt 0.123791 0.367382
vt 0.508803 0.454586
vt 0.503795 0.426544
vt 0.519378 0.447917
vt 0.392944 0.413274
vt 0.383914 0.439643
vt 0.376977 0.432408
vt 0.210738 0.280740
vt 0.233804 0.318941
vt 0.229226 0.321603
vt 0.143054 0.498979
vt 0.127048 0.541583
vt 0.136712 0.493242
vt 0.330559 0.405112
vt 0.297667 0.396131
vt 0.298052 0.389835
vt 0.108154 0.319040
vt 0.105548 0.317419
vt 0.829854 0.694251
vt 0.847115 0.653181
vt 0.847114 0.673639
vt 0.829859 0.621880
vt 0.847658 0.509175
vt 0.847657 0.621880
vt 0.507721 0.345286
vt 0.499986 0.405407
vt 0.398082 0.397911
vt 0.737338 0.937896
vt 0.695202 0.817041
vt 0.737338 0.811478
vt 0.967968 0.703285
vt 0.931799 0.662056
vt 0.967968 0.642774
vt 0.847115 0.457415
vt 0.847116 0.477873
vt 0.967968 0.723686
vt 0.931799 0.764915
vt 0.931799 0.704404
vt 0.422872 0.948737
vt 0.459041 0.905236
vt 0.459041 0.953328
vt 0.774192 0.815822
vt 0.775146 0.911017
vt 0.737685 0.916240
vt 0.386356 0.905236
vt 0.422525 0.948737
vt 0.386356 0.953328
vt 0.324796 0.420471
vt 0.152950 0.548345
vt 0.152360 0.486093
vt 0.143898 0.430344
vt 0.288220 0.399859
vt 0.253149 0.367257
vt 0.062544 0.388121
vt 0.114797 0.374443
vt 0.071075 0.396520
vt 0.127497 0.476683
vt 0.142755 0.420184
vt 0.293000 0.378086
vt 0.239000 0.320405
vt 0.251881 0.361202
vt 0.275230 0.306889
vt 0.065043 0.297733
vt 0.111617 0.366597
vt 0.106172 0.315940
vt 0.065339 0.375390
vt 0.268323 0.293408
vt 0.212096 0.279492
vt 0.236082 0.313474
vt 0.230687 0.247134
vt 0.212324 0.278922
vt 0.201238 0.278583
vt 0.199548 0.279794
vt 0.113467 0.307868
vt 0.115836 0.308845
vt 0.090336 0.275328
vt 0.201598 0.243164
vt 0.338766 0.334183
vt 0.357835 0.344639
vt 0.351507 0.350380
vt 0.367951 0.409372
vt 0.391765 0.413564
vt 0.504982 0.428761
vt 0.524814 0.422883
vt 0.533443 0.421973
vt 0.567156 0.327671
vt 0.554784 0.348946
vt 0.546924 0.342458
vt 0.847658 0.504836
vt 0.829860 0.509175
vt 0.829860 0.504834
vt 0.847657 0.626218
vt 0.829859 0.626221
vt 0.567156 0.253106
vt 0.359087 0.035516
vt 0.353888 0.072286
vt 0.347778 0.075023
vt 0.330905 0.267785
vt 0.341007 0.132802
vt 0.473138 0.028696
vt 0.372615 0.054126
vt 0.529772 0.117144
vt 0.536060 0.110671
vt 0.478416 0.000173
vt 0.511722 0.042619
vt 0.503386 0.041466
vt 0.082002 0.715366
vt 0.058250 0.739117
vt 0.058250 0.715366
vt 0.082002 0.739117
vt 0.058250 0.762868
vt 0.082002 0.762868
vt 0.058250 0.786620
vt 0.082002 0.786620
vt 0.058250 0.810371
vt 0.034499 0.786620
vt 0.034499 0.762868
vt 0.105753 0.762868
vt 0.162904 0.713816
vt 0.139152 0.737567
vt 0.139152 0.713816
vt 0.162904 0.737567
vt 0.139152 0.761318
vt 0.162904 0.761318
vt 0.139152 0.785070
vt 0.162904 0.785070
vt 0.139152 0.808821
vt 0.115401 0.785070
vt 0.115401 0.761318
vt 0.186655 0.761318
vt 0.532635 0.400426
vt 0.554563 0.405055
vt 0.549833 0.412039
vt 0.543549 0.417707
vt 0.527718 0.403480
vt 0.540152 0.366829
vt 0.562044 0.367268
vt 0.562509 0.374403
vt 0.560617 0.359117
vt 0.536893 0.361996
vt 0.532153 0.358156
vt 0.524270 0.332612
vt 0.541262 0.372234
vt 0.507835 0.417949
vt 0.522460 0.404873
vt 0.536568 0.395867
vt 0.366665 0.388080
vt 0.359962 0.405388
vt 0.355250 0.400559
vt 0.369855 0.391856
vt 0.373962 0.394521
vt 0.375085 0.410449
vt 0.364556 0.364191
vt 0.346115 0.370312
vt 0.346566 0.365074
vt 0.347329 0.358782
vt 0.367417 0.360212
vt 0.371649 0.356852
vt 0.377145 0.334931
vt 0.393232 0.344336
vt 0.363495 0.368507
vt 0.351797 0.394985
vt 0.378487 0.395880
vt 0.390221 0.406999
vt 0.521338 0.096410
vt 0.542144 0.087460
vt 0.541577 0.094833
vt 0.540463 0.101835
vt 0.518594 0.101110
vt 0.510366 0.064112
vt 0.526765 0.051280
vt 0.531687 0.057662
vt 0.520942 0.046399
vt 0.505607 0.061653
vt 0.500449 0.060785
vt 0.485125 0.049131
vt 0.522237 0.091471
vt 0.508444 0.126201
vt 0.514302 0.105028
vt 0.349526 0.114987
vt 0.336028 0.126087
vt 0.334221 0.120548
vt 0.351171 0.118632
vt 0.354393 0.121844
vt 0.347348 0.137164
vt 0.353820 0.090766
vt 0.335728 0.090029
vt 0.338413 0.084584
vt 0.341723 0.079855
vt 0.357186 0.087778
vt 0.361255 0.085776
vt 0.370122 0.072713
vt 0.380816 0.080289
vt 0.351679 0.094758
vt 0.332765 0.115150
vt 0.358857 0.124165
vt 0.367857 0.141390
vt 0.319765 0.871936
vt 0.296014 0.895687
vt 0.296014 0.871936
vt 0.319765 0.895687
vt 0.296014 0.919438
vt 0.319765 0.919438
vt 0.296014 0.943190
vt 0.319765 0.943190
vt 0.296014 0.966941
vt 0.272262 0.943190
vt 0.272262 0.919438
vt 0.343516 0.919438
vt 0.208355 0.902886
vt 0.232107 0.879135
vt 0.208355 0.879135
vt 0.208355 0.926637
vt 0.232107 0.902886
vt 0.208355 0.950388
vt 0.232107 0.926637
vt 0.208355 0.974140
vt 0.232107 0.950388
vt 0.184604 0.950388
vt 0.184604 0.926637
vt 0.255858 0.926637
vt 0.361726 0.762618
vt 0.376068 0.791304
vt 0.361726 0.791304
vt 0.376415 0.762618
vt 0.390758 0.791304
vt 0.376415 0.791304
vt 0.066236 0.883025
vt 0.042484 0.906776
vt 0.042484 0.883025
vt 0.066236 0.906776
vt 0.042484 0.930528
vt 0.066236 0.930528
vt 0.042484 0.954279
vt 0.066236 0.954279
vt 0.042484 0.978030
vt 0.018733 0.954279
vt 0.018733 0.930528
vt 0.089987 0.930528
vt 0.123095 0.902915
vt 0.146846 0.879164
vt 0.123095 0.879164
vt 0.123095 0.926667
vt 0.146846 0.902915
vt 0.123095 0.950418
vt 0.146846 0.926667
vt 0.123095 0.974169
vt 0.146846 0.950418
vt 0.099343 0.950418
vt 0.099343 0.926667
vt 0.170597 0.926667
vt 0.476664 0.062553
vt 0.847640 0.872881
vt 0.847636 0.919694
vt 0.847641 0.848335
vt 0.829854 0.389342
vt 0.829838 0.092709
vt 0.847646 0.282719
vt 0.847645 0.258174
vt 0.847653 0.675683
vt 0.847655 0.651137
vt 0.695202 0.932333
vt 0.931799 0.704058
vt 0.847656 0.479917
vt 0.847655 0.455371
vt 0.967968 0.765688
vt 0.422872 0.906009
vt 0.737685 0.811478
vt 0.775146 0.816701
vt 0.774192 0.911896
vt 0.422525 0.906009
vt 0.082002 0.810371
vt 0.105753 0.786620
vt 0.162904 0.808821
vt 0.186655 0.785070
vt 0.514019 0.068287
vt 0.319765 0.966941
vt 0.343516 0.943190
vt 0.232107 0.974140
vt 0.255858 0.950388
vt 0.376068 0.762618
vt 0.390758 0.762618
vt 0.066236 0.978030
vt 0.089987 0.954279
vt 0.146846 0.974169
vt 0.170597 0.950418
s 0
usemtl マテリアル.004
f 27/1/1 5/2/1 6/3/1
f 143/4/2 4/5/2 138/6/2
f 9/7/2 3/8/2 10/9/2
f 29/10/3 8/11/3 5/2/3
f 5/12/3 148/13/3 145/14/3
f 11/15/4 111/16/4 116/17/4
f 6/18/1 114/19/1 109/20/1
f 6/18/4 150/21/4 152/22/4
f 8/23/3 115/24/3 113/25/3
f 15/26/5 33/27/5 18/28/5
f 26/29/4 6/3/4 7/30/4
f 22/31/4 7/30/4 11/32/4
f 30/33/3 12/34/3 8/11/3
f 15/26/6 26/29/6 14/35/6
f 18/28/6 27/1/6 15/26/6
f 20/36/6 29/10/6 18/28/6
f 14/35/6 30/33/6 20/36/6
f 34/37/6 32/38/6 31/39/6
f 18/28/4 34/37/4 20/36/4
f 14/35/3 32/38/3 15/26/3
f 20/36/1 31/39/1 14/35/1
f 37/40/7 38/41/7 39/42/7
f 44/43/8 46/44/8 48/45/8
f 38/41/9 61/46/9 62/47/9
f 117/48/10 35/49/10 118/50/10
f 46/44/11 39/42/11 38/41/11
f 41/51/12 120/52/12 119/53/12
f 55/54/13 63/55/13 64/56/13
f 68/57/14 57/58/14 67/59/14
f 60/60/15 65/61/15 66/62/15
f 50/63/9 61/46/9 52/64/9
f 46/44/13 63/55/13 48/45/13
f 66/62/16 44/43/16 48/45/16
f 39/42/17 67/59/17 37/40/17
f 12/65/3 156/66/3 153/67/3
f 58/68/5 120/69/5 117/70/5
f 159/71/2 164/72/2 163/73/2
f 38/41/6 64/56/6 46/44/6
f 70/74/18 74/75/18 76/76/18
f 78/77/19 81/78/19 84/79/19
f 11/15/4 166/80/4 168/81/4
f 86/82/20 88/83/20 85/84/20
f 62/47/6 55/54/6 64/56/6
f 90/85/19 92/86/19 89/87/19
f 98/88/21 102/89/21 105/90/21
f 93/91/20 95/92/20 96/93/20
f 68/57/22 59/94/22 58/95/22
f 12/34/3 67/59/3 57/58/3
f 66/62/4 11/32/4 60/60/4
f 39/42/18 70/96/18 68/57/18
f 44/43/18 72/97/18 39/42/18
f 44/43/18 76/98/18 74/99/18
f 68/57/18 76/98/18 65/61/18
f 24/100/19 79/101/19 78/102/19
f 37/40/19 79/101/19 61/46/19
f 37/40/19 84/103/19 81/104/19
f 24/100/19 84/103/19 67/59/19
f 48/45/20 85/105/20 66/62/20
f 48/45/20 87/106/20 86/107/20
f 22/31/20 87/106/20 63/55/20
f 22/31/20 85/105/20 88/108/20
f 52/64/19 89/109/19 30/33/19
f 52/64/19 91/110/19 90/111/19
f 61/46/19 92/112/19 91/110/19
f 24/100/19 89/109/19 92/112/19
f 63/55/20 93/113/20 22/31/20
f 54/114/20 94/115/20 63/55/20
f 54/114/20 96/116/20 95/117/20
f 22/31/20 96/116/20 26/29/20
f 55/54/21 98/118/21 54/114/21
f 50/63/21 99/119/21 55/54/21
f 50/63/21 103/120/21 102/121/21
f 52/64/21 105/122/21 103/120/21
f 26/29/21 105/122/21 30/33/21
f 54/114/21 107/123/21 26/29/21
f 116/124/23 174/125/23 169/126/23
f 41/51/23 119/53/23 171/127/23
f 117/48/5 40/128/5 36/129/5
f 118/50/24 180/130/24 178/131/24
f 115/132/24 175/133/24 176/134/24
f 119/135/25 59/136/25 60/137/25
f 58/68/26 118/138/26 57/139/26
f 113/140/24 10/9/24 3/8/24
f 109/141/23 186/142/23 181/143/23
f 4/5/23 111/144/23 183/145/23
f 109/141/27 1/146/27 2/147/27
f 116/124/23 4/5/23 9/7/23
f 113/140/24 191/148/24 192/149/24
f 114/150/24 187/151/24 188/152/24
f 122/153/3 123/154/3 121/155/3
f 124/156/5 127/157/5 123/154/5
f 128/158/4 125/159/4 127/157/4
f 126/160/1 121/161/1 125/159/1
f 127/157/2 121/162/2 123/163/2
f 124/164/6 126/160/6 128/158/6
f 130/165/3 131/166/3 129/167/3
f 132/168/5 135/169/5 131/166/5
f 136/170/4 133/171/4 135/169/4
f 134/172/1 129/173/1 133/171/1
f 135/169/2 129/174/2 131/175/2
f 132/176/6 134/172/6 136/170/6
f 28/177/28 156/178/28 155/179/28
f 178/131/29 28/177/29 179/180/29
f 180/130/30 25/181/30 178/131/30
f 17/182/31 154/183/31 153/184/31
f 17/182/32 175/133/32 177/185/32
f 19/186/33 176/134/33 175/133/33
f 16/187/34 157/188/34 176/134/34
f 156/178/2 13/189/2 153/184/2
f 158/190/35 21/191/35 180/130/35
f 16/187/3 23/192/3 25/181/3
f 51/193/28 173/194/28 167/195/28
f 56/196/29 171/127/29 173/194/29
f 53/197/30 172/198/30 171/127/30
f 45/199/31 166/200/31 165/201/31
f 169/126/32 45/199/32 170/202/32
f 174/125/33 47/203/33 169/126/33
f 43/204/34 161/205/34 160/206/34
f 42/207/2 168/208/2 166/200/2
f 49/209/35 162/210/35 172/198/35
f 43/204/4 53/197/4 51/193/4
f 83/211/28 148/212/28 147/213/28
f 192/149/29 83/211/29 190/214/29
f 191/148/30 82/215/30 192/149/30
f 73/216/31 146/217/31 145/218/31
f 73/216/32 187/151/32 189/219/32
f 75/220/33 188/152/33 187/151/33
f 71/221/34 141/222/34 188/152/34
f 80/223/2 145/218/2 148/212/2
f 142/224/35 77/225/35 191/148/35
f 82/215/3 71/221/3 73/216/3
f 108/226/28 185/227/28 151/228/28
f 112/229/29 183/145/29 185/227/29
f 110/230/30 184/231/30 183/145/30
f 101/232/31 150/233/31 149/234/31
f 181/143/32 101/232/32 182/235/32
f 186/142/33 104/236/33 181/143/33
f 100/237/34 139/238/34 137/239/34
f 97/240/2 152/241/2 150/233/2
f 106/242/35 140/243/35 184/231/35
f 100/237/4 110/230/4 108/226/4
f 194/244/3 195/245/3 193/246/3
f 196/247/5 199/248/5 195/245/5
f 200/249/4 197/250/4 199/248/4
f 198/251/1 193/252/1 197/250/1
f 199/248/2 193/253/2 195/254/2
f 196/255/6 198/251/6 200/249/6
f 203/256/4 202/257/4 201/258/4
f 207/259/5 204/260/5 203/256/5
f 205/261/3 208/262/3 207/259/3
f 201/263/1 206/264/1 205/261/1
f 201/265/2 207/259/2 203/266/2
f 206/264/6 204/267/6 208/262/6
f 210/268/1 211/269/1 209/270/1
f 214/271/5 215/272/5 213/273/5
f 218/274/3 219/275/3 217/276/3
f 220/277/5 223/278/5 219/275/5
f 224/279/4 221/280/4 223/278/4
f 222/281/1 217/282/1 221/280/1
f 223/278/2 217/283/2 219/284/2
f 220/285/6 222/281/6 224/279/6
f 227/286/4 226/287/4 225/288/4
f 231/289/5 228/290/5 227/286/5
f 229/291/3 232/292/3 231/289/3
f 225/293/1 230/294/1 229/291/1
f 225/295/2 231/289/2 227/296/2
f 230/294/6 228/297/6 232/292/6
f 27/1/1 29/10/1 5/2/1
f 137/239/2 139/238/2 2/147/2
f 2/147/2 1/146/2 141/222/2
f 2/147/2 141/222/2 144/298/2
f 137/239/2 2/147/2 144/298/2
f 143/4/2 142/224/2 3/8/2
f 137/239/2 144/298/2 143/4/2
f 4/5/2 140/243/2 138/6/2
f 138/6/2 137/239/2 143/4/2
f 143/4/2 3/8/2 4/5/2
f 9/7/2 4/5/2 3/8/2
f 29/10/3 30/33/3 8/11/3
f 146/299/3 114/300/3 5/12/3
f 5/12/3 8/23/3 113/25/3
f 113/25/3 147/301/3 148/13/3
f 145/14/3 146/299/3 5/12/3
f 5/12/3 113/25/3 148/13/3
f 11/15/4 7/302/4 111/16/4
f 6/18/1 5/303/1 114/19/1
f 152/22/4 151/304/4 111/16/4
f 111/16/4 7/302/4 6/18/4
f 6/18/4 109/20/4 149/305/4
f 6/18/4 149/305/4 150/21/4
f 152/22/4 111/16/4 6/18/4
f 8/23/3 12/65/3 115/24/3
f 15/26/5 32/38/5 33/27/5
f 26/29/4 27/1/4 6/3/4
f 22/31/4 26/29/4 7/30/4
f 30/33/3 24/100/3 12/34/3
f 15/26/6 27/1/6 26/29/6
f 18/28/6 29/10/6 27/1/6
f 20/36/6 30/33/6 29/10/6
f 14/35/6 26/29/6 30/33/6
f 34/37/6 33/27/6 32/38/6
f 18/28/4 33/27/4 34/37/4
f 14/35/3 31/39/3 32/38/3
f 20/36/1 34/37/1 31/39/1
f 38/41/9 37/40/9 61/46/9
f 117/48/36 36/129/36 35/49/36
f 46/44/37 44/43/37 39/42/37
f 41/51/38 40/128/38 120/52/38
f 55/54/13 54/114/13 63/55/13
f 68/57/39 58/95/39 57/58/39
f 60/60/40 59/94/40 65/61/40
f 50/63/9 62/47/9 61/46/9
f 46/44/13 64/56/13 63/55/13
f 66/62/41 65/61/41 44/43/41
f 39/42/42 68/57/42 67/59/42
f 154/306/3 115/24/3 12/65/3
f 12/65/3 57/139/3 118/138/3
f 118/138/3 155/307/3 156/66/3
f 153/67/3 154/306/3 12/65/3
f 12/65/3 118/138/3 156/66/3
f 58/68/5 59/136/5 120/69/5
f 161/205/2 9/7/2 10/9/2
f 10/9/2 157/188/2 159/71/2
f 164/72/2 158/190/2 35/49/2
f 164/72/2 35/49/2 36/129/2
f 36/129/2 40/128/2 41/51/2
f 41/51/2 162/210/2 163/73/2
f 160/206/2 161/205/2 10/9/2
f 36/129/2 41/51/2 163/73/2
f 163/73/2 160/206/2 10/9/2
f 163/73/2 10/9/2 159/71/2
f 164/72/2 36/129/2 163/73/2
f 38/41/6 62/47/6 64/56/6
f 70/74/18 72/308/18 74/75/18
f 78/77/19 79/309/19 81/78/19
f 168/81/4 167/310/4 119/135/4
f 119/135/4 60/137/4 11/15/4
f 11/15/4 116/17/4 165/311/4
f 11/15/4 165/311/4 166/80/4
f 168/81/4 119/135/4 11/15/4
f 86/82/20 87/312/20 88/83/20
f 62/47/6 50/63/6 55/54/6
f 90/85/19 91/313/19 92/86/19
f 105/90/21 107/314/21 98/88/21
f 98/88/21 99/315/21 102/89/21
f 102/89/21 103/316/21 105/90/21
f 93/91/20 94/317/20 95/92/20
f 68/57/22 65/61/22 59/94/22
f 12/34/3 24/100/3 67/59/3
f 66/62/4 22/31/4 11/32/4
f 39/42/18 72/97/18 70/96/18
f 44/43/18 74/99/18 72/97/18
f 44/43/18 65/61/18 76/98/18
f 68/57/18 70/96/18 76/98/18
f 24/100/19 61/46/19 79/101/19
f 37/40/19 81/104/19 79/101/19
f 37/40/19 67/59/19 84/103/19
f 24/100/19 78/102/19 84/103/19
f 48/45/20 86/107/20 85/105/20
f 48/45/20 63/55/20 87/106/20
f 22/31/20 88/108/20 87/106/20
f 22/31/20 66/62/20 85/105/20
f 52/64/19 90/111/19 89/109/19
f 52/64/19 61/46/19 91/110/19
f 61/46/19 24/100/19 92/112/19
f 24/100/19 30/33/19 89/109/19
f 63/55/20 94/115/20 93/113/20
f 54/114/20 95/117/20 94/115/20
f 54/114/20 26/29/20 96/116/20
f 22/31/20 93/113/20 96/116/20
f 55/54/21 99/119/21 98/118/21
f 50/63/21 102/121/21 99/119/21
f 50/63/21 52/64/21 103/120/21
f 52/64/21 30/33/21 105/122/21
f 26/29/21 107/123/21 105/122/21
f 54/114/21 98/118/21 107/123/21
f 170/202/23 165/201/23 116/124/23
f 116/124/23 9/7/23 161/205/23
f 116/124/23 161/205/23 174/125/23
f 169/126/23 170/202/23 116/124/23
f 172/198/23 162/210/23 41/51/23
f 119/53/23 167/195/23 173/194/23
f 171/127/23 172/198/23 41/51/23
f 119/53/23 173/194/23 171/127/23
f 117/48/5 120/52/5 40/128/5
f 179/180/24 155/179/24 118/50/24
f 118/50/24 35/49/24 158/190/24
f 118/50/24 158/190/24 180/130/24
f 178/131/24 179/180/24 118/50/24
f 157/188/24 10/9/24 115/132/24
f 115/132/24 154/183/24 177/185/24
f 115/132/24 177/185/24 175/133/24
f 176/134/24 157/188/24 115/132/24
f 119/135/43 120/69/43 59/136/43
f 58/68/44 117/70/44 118/138/44
f 113/140/24 115/132/24 10/9/24
f 182/235/23 149/234/23 109/141/23
f 109/141/23 2/147/23 139/238/23
f 109/141/23 139/238/23 186/142/23
f 181/143/23 182/235/23 109/141/23
f 184/231/23 140/243/23 4/5/23
f 111/144/23 151/228/23 185/227/23
f 183/145/23 184/231/23 4/5/23
f 111/144/23 185/227/23 183/145/23
f 109/141/27 114/150/27 1/146/27
f 116/124/23 111/144/23 4/5/23
f 190/214/24 147/213/24 113/140/24
f 113/140/24 3/8/24 142/224/24
f 113/140/24 142/224/24 191/148/24
f 192/149/24 190/214/24 113/140/24
f 141/222/24 1/146/24 114/150/24
f 114/150/24 146/217/24 189/219/24
f 114/150/24 189/219/24 187/151/24
f 188/152/24 141/222/24 114/150/24
f 122/153/3 124/156/3 123/154/3
f 124/156/5 128/158/5 127/157/5
f 128/158/4 126/160/4 125/159/4
f 126/160/1 122/318/1 121/161/1
f 127/157/2 125/159/2 121/162/2
f 124/164/6 122/319/6 126/160/6
f 130/165/3 132/168/3 131/166/3
f 132/168/5 136/170/5 135/169/5
f 136/170/4 134/172/4 133/171/4
f 134/172/1 130/320/1 129/173/1
f 135/169/2 133/171/2 129/174/2
f 132/176/6 130/321/6 134/172/6
f 155/179/28 179/180/28 28/177/28
f 28/177/28 23/192/28 156/178/28
f 178/131/29 25/181/29 28/177/29
f 180/130/30 21/191/30 25/181/30
f 153/184/31 13/189/31 17/182/31
f 17/182/31 177/185/31 154/183/31
f 17/182/32 19/186/32 175/133/32
f 19/186/33 16/187/33 176/134/33
f 16/187/34 159/71/34 157/188/34
f 156/178/2 23/192/2 13/189/2
f 158/190/35 164/72/35 21/191/35
f 25/181/3 21/191/3 164/72/3
f 164/72/3 159/71/3 16/187/3
f 16/187/3 19/186/3 17/182/3
f 17/182/3 13/189/3 23/192/3
f 23/192/3 28/177/3 25/181/3
f 25/181/3 164/72/3 16/187/3
f 16/187/3 17/182/3 23/192/3
f 167/195/28 168/208/28 51/193/28
f 51/193/28 56/196/28 173/194/28
f 56/196/29 53/197/29 171/127/29
f 53/197/30 49/209/30 172/198/30
f 165/201/31 170/202/31 45/199/31
f 45/199/31 42/207/31 166/200/31
f 169/126/32 47/203/32 45/199/32
f 174/125/33 43/204/33 47/203/33
f 43/204/34 174/125/34 161/205/34
f 42/207/2 51/193/2 168/208/2
f 49/209/35 163/73/35 162/210/35
f 51/193/4 42/207/4 45/199/4
f 45/199/4 47/203/4 43/204/4
f 43/204/4 160/206/4 163/73/4
f 163/73/4 49/209/4 53/197/4
f 53/197/4 56/196/4 51/193/4
f 51/193/4 45/199/4 43/204/4
f 43/204/4 163/73/4 53/197/4
f 147/213/28 190/214/28 83/211/28
f 83/211/28 80/223/28 148/212/28
f 192/149/29 82/215/29 83/211/29
f 191/148/30 77/225/30 82/215/30
f 145/218/31 69/322/31 73/216/31
f 73/216/31 189/219/31 146/217/31
f 73/216/32 75/220/32 187/151/32
f 75/220/33 71/221/33 188/152/33
f 71/221/34 144/298/34 141/222/34
f 80/223/2 69/322/2 145/218/2
f 142/224/35 143/4/35 77/225/35
f 73/216/3 69/322/3 80/223/3
f 80/223/3 83/211/3 82/215/3
f 82/215/3 77/225/3 143/4/3
f 143/4/3 144/298/3 71/221/3
f 71/221/3 75/220/3 73/216/3
f 73/216/3 80/223/3 82/215/3
f 82/215/3 143/4/3 71/221/3
f 151/228/28 152/241/28 108/226/28
f 108/226/28 112/229/28 185/227/28
f 112/229/29 110/230/29 183/145/29
f 110/230/30 106/242/30 184/231/30
f 149/234/31 182/235/31 101/232/31
f 101/232/31 97/240/31 150/233/31
f 181/143/32 104/236/32 101/232/32
f 186/142/33 100/237/33 104/236/33
f 100/237/34 186/142/34 139/238/34
f 97/240/2 108/226/2 152/241/2
f 106/242/35 138/6/35 140/243/35
f 108/226/4 97/240/4 101/232/4
f 101/232/4 104/236/4 100/237/4
f 100/237/4 137/239/4 138/6/4
f 138/6/4 106/242/4 110/230/4
f 110/230/4 112/229/4 108/226/4
f 108/226/4 101/232/4 100/237/4
f 100/237/4 138/6/4 110/230/4
f 194/244/3 196/247/3 195/245/3
f 196/247/5 200/249/5 199/248/5
f 200/249/4 198/251/4 197/250/4
f 198/251/1 194/323/1 193/252/1
f 199/248/2 197/250/2 193/253/2
f 196/255/6 194/324/6 198/251/6
f 203/256/4 204/260/4 202/257/4
f 207/259/5 208/262/5 204/260/5
f 205/261/3 206/264/3 208/262/3
f 201/263/1 202/325/1 206/264/1
f 201/265/2 205/261/2 207/259/2
f 206/264/6 202/326/6 204/267/6
f 210/268/1 212/327/1 211/269/1
f 214/271/5 216/328/5 215/272/5
f 218/274/3 220/277/3 219/275/3
f 220/277/5 224/279/5 223/278/5
f 224/279/4 222/281/4 221/280/4
f 222/281/1 218/329/1 217/282/1
f 223/278/2 221/280/2 217/283/2
f 220/285/6 218/330/6 222/281/6
f 227/286/4 228/290/4 226/287/4
f 231/289/5 232/292/5 228/290/5
f 229/291/3 230/294/3 232/292/3
f 225/293/1 226/331/1 230/294/1
f 225/295/2 229/291/2 231/289/2
f 230/294/6 226/332/6 228/297/6
