{
	"asset":{
		"generator":"Khronos glTF Blender I/O v3.6.27",
		"version":"2.0"
	},
	"extensionsUsed":[
		"KHR_materials_specular",
		"KHR_materials_ior"
	],
	"scene":0,
	"scenes":[
		{
			"name":"Scene",
			"nodes":[
				66
			]
		}
	],
	"nodes":[
		{
			"name":"mixamorig:HeadTop_End",
			"rotation":[
				4.284084553773937e-08,
				-4.1916472071079625e-08,
				-3.1530333899354446e-14,
				1
			],
			"scale":[
				1,
				0.9999999403953552,
				0.9999999403953552
			],
			"translation":[
				1.0127929499503807e-06,
				20.962778091430664,
				10.122950553894043
			]
		},
		{
			"children":[
				0
			],
			"name":"mixamorig:Head",
			"rotation":[
				-8.381903882082042e-08,
				1.6214787734725178e-08,
				-6.7723608737299285e-15,
				1
			],
			"scale":[
				1,
				0.9999999403953552,
				0.9999999403953552
			],
			"translation":[
				-7.827523518244561e-09,
				9.341898918151855,
				2.8410370349884033
			]
		},
		{
			"children":[
				1
			],
			"name":"mixamorig:Neck",
			"rotation":[
				8.381903882082042e-08,
				-1.72096594752702e-08,
				1.8762769116165146e-14,
				1
			],
			"scale":[
				1,
				0.9999999403953552,
				0.9999999403953552
			],
			"translation":[
				4.289262278689421e-10,
				16.865325927734375,
				-1.8358230590820312e-05
			]
		},
		{
			"name":"mixamorig:RightHandThumb4",
			"rotation":[
				0.005774694494903088,
				-0.11751051247119904,
				-0.04874507337808609,
				0.9918577671051025
			],
			"scale":[
				1.0000001192092896,
				1.0000001192092896,
				1
			],
			"translation":[
				-5.960464477539062e-07,
				2.57498836517334,
				1.699753920547664e-05
			]
		},
		{
			"children":[
				3
			],
			"name":"mixamorig:RightHandThumb3",
			"rotation":[
				-0.0016621719114482403,
				-0.0008072275086306036,
				0.006921046879142523,
				0.9999743103981018
			],
			"scale":[
				1,
				1,
				0.9999998807907104
			],
			"translation":[
				1.0132789611816406e-06,
				3.4162542819976807,
				-1.1444091796875e-05
			]
		},
		{
			"children":[
				4
			],
			"name":"mixamorig:RightHandThumb2",
			"rotation":[
				-0.0023163098376244307,
				-0.0011703433701768517,
				0.009300175122916698,
				0.9999533891677856
			],
			"scale":[
				0.9999999403953552,
				1,
				1
			],
			"translation":[
				-1.1086463928222656e-05,
				4.188997745513916,
				3.883261524606496e-05
			]
		},
		{
			"children":[
				5
			],
			"name":"mixamorig:RightHandThumb1",
			"rotation":[
				0.2532833218574524,
				0.061618294566869736,
				-0.22821176052093506,
				0.9380672574043274
			],
			"translation":[
				2.6818602085113525,
				2.464803457260132,
				1.5739915370941162
			]
		},
		{
			"name":"mixamorig:RightHandIndex4",
			"rotation":[
				-8.734437528801209e-08,
				0.0010028707329183817,
				8.716513548279181e-05,
				0.9999995231628418
			],
			"scale":[
				1,
				1,
				1.0000001192092896
			],
			"translation":[
				-6.468544597737491e-07,
				2.772183895111084,
				3.1629742807126604e-06
			]
		},
		{
			"children":[
				7
			],
			"name":"mixamorig:RightHandIndex3",
			"rotation":[
				8.030874596443027e-06,
				-2.628062532039621e-07,
				-8.812105807010084e-05,
				1
			],
			"translation":[
				6.669160939054564e-07,
				2.8500125408172607,
				1.0129232578037772e-05
			]
		},
		{
			"children":[
				8
			],
			"name":"mixamorig:RightHandIndex2",
			"rotation":[
				-8.030869139474817e-06,
				1.8862435524624743e-07,
				0.00025571606238372624,
				1
			],
			"scale":[
				0.9999999403953552,
				0.9999999403953552,
				0.9999999403953552
			],
			"translation":[
				2.918968675658107e-07,
				3.699991464614868,
				2.6910281576419948e-06
			]
		},
		{
			"children":[
				9
			],
			"name":"mixamorig:RightHandIndex1",
			"rotation":[
				-2.0173812273482916e-11,
				-1.2289461892578402e-07,
				-0.00016415485879406333,
				1
			],
			"translation":[
				2.2598423957824707,
				9.108282089233398,
				0.5178698897361755
			]
		},
		{
			"name":"mixamorig:RightHandMiddle4",
			"rotation":[
				-1.5473294467938103e-07,
				0.0009289028821513057,
				0.00016667923773638904,
				0.9999995827674866
			],
			"scale":[
				0.9999998211860657,
				0.9999999403953552,
				1
			],
			"translation":[
				-1.5651166904717684e-06,
				2.94663143157959,
				-1.1317447388137225e-05
			]
		},
		{
			"children":[
				11
			],
			"name":"mixamorig:RightHandMiddle3",
			"rotation":[
				-1.8138478219409393e-10,
				-1.3579898094917553e-08,
				-0.00032187975011765957,
				1
			],
			"scale":[
				1.0000001192092896,
				1,
				1.0000001192092896
			],
			"translation":[
				6.995815056143329e-07,
				2.9499733448028564,
				-2.6757767045637593e-05
			]
		},
		{
			"children":[
				12
			],
			"name":"mixamorig:RightHandMiddle2",
			"rotation":[
				4.803452635648853e-10,
				1.523364723254872e-08,
				0.0008497418602928519,
				0.9999996423721313
			],
			"scale":[
				0.9999999403953552,
				0.9999999403953552,
				0.9999999403953552
			],
			"translation":[
				8.216757123591378e-07,
				3.7000014781951904,
				3.4527685784269124e-05
			]
		},
		{
			"children":[
				13
			],
			"name":"mixamorig:RightHandMiddle1",
			"rotation":[
				-2.550376299037538e-10,
				-7.180774730386474e-08,
				-0.000501646485645324,
				0.9999998807907104
			],
			"translation":[
				-2.326156391063705e-05,
				9.532522201538086,
				1.8425473172101192e-05
			]
		},
		{
			"name":"mixamorig:RightHandRing4",
			"rotation":[
				1.1645712305607958e-07,
				0.00014614235260523856,
				-0.0007994283805601299,
				0.9999997019767761
			],
			"scale":[
				0.9999999403953552,
				1,
				0.9999999403953552
			],
			"translation":[
				8.899041858967394e-08,
				2.6387951374053955,
				1.9733255612663925e-05
			]
		},
		{
			"children":[
				15
			],
			"name":"mixamorig:RightHandRing3",
			"rotation":[
				-2.7390817045058746e-11,
				-2.2610129235545173e-07,
				-0.00011276006989646703,
				1
			],
			"translation":[
				-3.6052369978278875e-07,
				2.889688491821289,
				1.636629895074293e-05
			]
		},
		{
			"children":[
				16
			],
			"name":"mixamorig:RightHandRing2",
			"rotation":[
				-5.340110575957624e-10,
				2.1451367615554773e-07,
				-0.0002215149870608002,
				1
			],
			"scale":[
				0.9999998807907104,
				0.9999998807907104,
				0.9999999403953552
			],
			"translation":[
				-1.3022108760196716e-06,
				3.379286050796509,
				4.195896053715842e-06
			]
		},
		{
			"children":[
				17
			],
			"name":"mixamorig:RightHandRing1",
			"rotation":[
				5.517913903574367e-10,
				-3.826018613040105e-09,
				0.00015592190902680159,
				1
			],
			"translation":[
				-1.8651403188705444,
				9.103597640991211,
				0.04307979345321655
			]
		},
		{
			"name":"mixamorig:RightHandPinky4",
			"rotation":[
				-7.1475528784503695e-06,
				0.0015697975177317858,
				-4.1029230487765744e-05,
				0.9999987483024597
			],
			"scale":[
				0.9999997615814209,
				0.9999998211860657,
				0.9999999403953552
			],
			"translation":[
				1.5252589946612716e-07,
				2.115769386291504,
				1.518349199614022e-05
			]
		},
		{
			"children":[
				19
			],
			"name":"mixamorig:RightHandPinky3",
			"rotation":[
				7.211647243821062e-06,
				-7.952451852588638e-08,
				-0.000497001747135073,
				0.9999998807907104
			],
			"scale":[
				0.9999998807907104,
				1,
				0.9999999403953552
			],
			"translation":[
				7.669777914998122e-07,
				2.099996328353882,
				5.625781795970397e-06
			]
		},
		{
			"children":[
				20
			],
			"name":"mixamorig:RightHandPinky2",
			"rotation":[
				-8.4763414633926e-06,
				1.1432183555371012e-07,
				0.0008464380516670644,
				0.9999996423721313
			],
			"scale":[
				1,
				0.9999998807907104,
				0.9999999403953552
			],
			"translation":[
				-7.900416676420718e-07,
				3.6000144481658936,
				-4.177604569122195e-05
			]
		},
		{
			"children":[
				21
			],
			"name":"mixamorig:RightHandPinky1",
			"rotation":[
				8.477133633277845e-06,
				-1.2370075808121328e-07,
				0.0005202801548875868,
				0.9999998807907104
			],
			"scale":[
				0.9999999403953552,
				0.9999998211860657,
				1
			],
			"translation":[
				-3.806290864944458,
				8.076681137084961,
				0.4867149293422699
			]
		},
		{
			"children":[
				6,
				10,
				14,
				18,
				22
			],
			"name":"mixamorig:RightHand",
			"rotation":[
				2.5472325514411042e-17,
				2.930988785010413e-14,
				-9.431847525297093e-17,
				1
			],
			"scale":[
				0.9999999403953552,
				0.9999999403953552,
				1
			],
			"translation":[
				1.5839072148082778e-05,
				28.328828811645508,
				1.8425458620185964e-05
			]
		},
		{
			"children":[
				23
			],
			"name":"mixamorig:RightForeArm",
			"rotation":[
				-1.8626309383762418e-09,
				9.102354425749581e-09,
				-4.7839452399500715e-09,
				1
			],
			"scale":[
				0.9999999403953552,
				0.9999999403953552,
				1
			],
			"translation":[
				-4.9687155296851415e-06,
				27.84151840209961,
				-2.7410091206547804e-05
			]
		},
		{
			"children":[
				24
			],
			"name":"mixamorig:RightArm",
			"rotation":[
				-0.02461344748735428,
				0.002563005080446601,
				-0.1034989207983017,
				0.9943217039108276
			],
			"scale":[
				0.9999998807907104,
				0.9999998807907104,
				0.9999998807907104
			],
			"translation":[
				4.76837158203125e-07,
				10.838183403015137,
				6.349215254886076e-05
			]
		},
		{
			"children":[
				25
			],
			"name":"mixamorig:RightShoulder",
			"rotation":[
				0.48442938923835754,
				-0.5709654092788696,
				0.5261621475219727,
				0.40308818221092224
			],
			"translation":[
				-4.569970607757568,
				11.195825576782227,
				-0.8066480755805969
			]
		},
		{
			"name":"mixamorig:LeftHandThumb4",
			"rotation":[
				0.005148435942828655,
				0.12268277257680893,
				0.04165206477046013,
				0.9915581345558167
			],
			"scale":[
				1.0000001192092896,
				1.0000001192092896,
				1
			],
			"translation":[
				-1.3828277587890625e-05,
				2.5805766582489014,
				-2.5637593353167176e-05
			]
		},
		{
			"children":[
				27
			],
			"name":"mixamorig:LeftHandThumb3",
			"rotation":[
				-0.001532551134005189,
				0.0007448437390848994,
				-0.006073117721825838,
				0.999980092048645
			],
			"scale":[
				0.9999999403953552,
				1,
				0.9999999403953552
			],
			"translation":[
				-1.0967254638671875e-05,
				3.418393135070801,
				-6.677961209788918e-05
			]
		},
		{
			"children":[
				28
			],
			"name":"mixamorig:LeftHandThumb2",
			"rotation":[
				-0.0020610506180673838,
				0.0010427638189867139,
				-0.008213555440306664,
				0.9999635815620422
			],
			"scale":[
				1,
				0.9999998807907104,
				1
			],
			"translation":[
				1.0371208190917969e-05,
				4.187114715576172,
				2.858174229913857e-05
			]
		},
		{
			"children":[
				29
			],
			"name":"mixamorig:LeftHandThumb1",
			"rotation":[
				0.2530941069126129,
				-0.06132404878735542,
				0.22735261917114258,
				0.9383461475372314
			],
			"scale":[
				0.9999999403953552,
				0.9999998807907104,
				0.9999998807907104
			],
			"translation":[
				-2.681739091873169,
				2.466142416000366,
				1.5761739015579224
			]
		},
		{
			"name":"mixamorig:LeftHandIndex4",
			"rotation":[
				-4.8896144910770545e-09,
				-0.00037745648296549916,
				-1.2974082892469596e-05,
				0.9999999403953552
			],
			"scale":[
				1,
				0.9999999403953552,
				1
			],
			"translation":[
				9.64540959103033e-07,
				2.7748618125915527,
				3.280804230598733e-05
			]
		},
		{
			"children":[
				31
			],
			"name":"mixamorig:LeftHandIndex3",
			"rotation":[
				4.629827771163164e-11,
				-1.3605213666778582e-07,
				-6.629741983488202e-05,
				1
			],
			"scale":[
				1,
				0.9999999403953552,
				1
			],
			"translation":[
				-4.4103944674134254e-07,
				2.8500101566314697,
				3.194684495611e-06
			]
		},
		{
			"children":[
				32
			],
			"name":"mixamorig:LeftHandIndex2",
			"rotation":[
				-4.8995273116414495e-11,
				1.295053380090394e-07,
				0.00010515586473047733,
				1
			],
			"scale":[
				1,
				0.9999999403953552,
				1
			],
			"translation":[
				3.536479198373854e-08,
				3.699990749359131,
				2.3342408894677646e-06
			]
		},
		{
			"children":[
				33
			],
			"name":"mixamorig:LeftHandIndex1",
			"rotation":[
				1.172980847652036e-13,
				2.6641835404461744e-09,
				-4.4107560825068504e-05,
				1
			],
			"scale":[
				0.9999999403953552,
				0.9999998807907104,
				0.9999999403953552
			],
			"translation":[
				-2.2598700523376465,
				9.109322547912598,
				0.5180229544639587
			]
		},
		{
			"name":"mixamorig:LeftHandMiddle4",
			"rotation":[
				2.8507454175041858e-08,
				-0.001023987540975213,
				2.7855578082380816e-05,
				0.999999463558197
			],
			"scale":[
				1,
				0.9999999403953552,
				1
			],
			"translation":[
				2.1216146706137806e-07,
				2.9528956413269043,
				-2.6541223633103073e-05
			]
		},
		{
			"children":[
				35
			],
			"name":"mixamorig:LeftHandMiddle3",
			"rotation":[
				-1.7575035177186393e-11,
				-2.843082711478928e-07,
				2.051777482847683e-05,
				1
			],
			"scale":[
				0.9999999403953552,
				0.9999998807907104,
				0.9999999403953552
			],
			"translation":[
				1.3117387425154448e-06,
				2.950002908706665,
				5.29047756572254e-05
			]
		},
		{
			"children":[
				36
			],
			"name":"mixamorig:LeftHandMiddle2",
			"rotation":[
				-1.9475868834328836e-11,
				2.537270802349667e-07,
				2.147305349353701e-05,
				1
			],
			"scale":[
				0.9999999403953552,
				1,
				0.9999999403953552
			],
			"translation":[
				-9.574978321325034e-07,
				3.6999895572662354,
				1.9569981304812245e-05
			]
		},
		{
			"children":[
				37
			],
			"name":"mixamorig:LeftHandMiddle1",
			"rotation":[
				1.9351020785762785e-11,
				3.6596549790601784e-08,
				-3.1732783099869266e-05,
				1
			],
			"scale":[
				0.9999999403953552,
				1,
				0.9999999403953552
			],
			"translation":[
				-3.434417158132419e-05,
				9.533400535583496,
				-5.7126784668071195e-05
			]
		},
		{
			"name":"mixamorig:LeftHandRing4",
			"rotation":[
				-8.144820817790333e-09,
				0.0004936346667818725,
				1.649961996008642e-05,
				0.9999998807907104
			],
			"scale":[
				1,
				0.9999999403953552,
				1
			],
			"translation":[
				-2.1628409740515053e-05,
				2.644341230392456,
				1.1017682481906377e-06
			]
		},
		{
			"children":[
				39
			],
			"name":"mixamorig:LeftHandRing3",
			"rotation":[
				-2.651070010219192e-13,
				-3.066179488087073e-07,
				-3.0661976779811084e-07,
				1
			],
			"scale":[
				1,
				0.9999999403953552,
				1
			],
			"translation":[
				-8.828355930745602e-07,
				2.9499855041503906,
				2.090740053972695e-05
			]
		},
		{
			"children":[
				40
			],
			"name":"mixamorig:LeftHandRing2",
			"rotation":[
				-3.391153243631484e-12,
				-7.243062816186807e-10,
				-1.6802871982690704e-07,
				1
			],
			"scale":[
				1,
				0.9999999403953552,
				1
			],
			"translation":[
				1.6666708688717335e-06,
				3.150010585784912,
				3.6176370485918596e-05
			]
		},
		{
			"children":[
				41
			],
			"name":"mixamorig:LeftHandRing1",
			"rotation":[
				-1.8718167749294523e-13,
				2.9444844784620727e-08,
				6.3956531448639e-06,
				1
			],
			"scale":[
				0.9999999403953552,
				0.9999998807907104,
				0.9999999403953552
			],
			"translation":[
				1.865088939666748,
				9.104527473449707,
				0.043004490435123444
			]
		},
		{
			"name":"mixamorig:LeftHandPinky4",
			"rotation":[
				-2.3132534465730714e-07,
				-0.00078396504977718,
				-0.0002956844982691109,
				0.9999996423721313
			],
			"scale":[
				0.9999998807907104,
				0.9999999403953552,
				0.9999999403953552
			],
			"translation":[
				-3.3437972888350487e-06,
				2.1255176067352295,
				-1.3543708519136999e-05
			]
		},
		{
			"children":[
				43
			],
			"name":"mixamorig:LeftHandPinky3",
			"rotation":[
				7.266036845976487e-06,
				5.532256182050332e-07,
				-6.685993866994977e-05,
				1
			],
			"scale":[
				1,
				0.9999999403953552,
				1
			],
			"translation":[
				8.058868843363598e-07,
				2.1000311374664307,
				2.1949341316940263e-05
			]
		},
		{
			"children":[
				44
			],
			"name":"mixamorig:LeftHandPinky2",
			"rotation":[
				1.2101327229174785e-06,
				-3.707848605927211e-08,
				-0.00021066064073238522,
				1
			],
			"scale":[
				1,
				0.9999998807907104,
				1
			],
			"translation":[
				-1.9639628590084612e-06,
				3.5999858379364014,
				2.5121709768427536e-05
			]
		},
		{
			"children":[
				45
			],
			"name":"mixamorig:LeftHandPinky1",
			"rotation":[
				-8.477163646603003e-06,
				1.3020732270163649e-09,
				0.0020446183625608683,
				0.9999979138374329
			],
			"scale":[
				0.9999999403953552,
				1,
				0.9999999403953552
			],
			"translation":[
				3.806278705596924,
				8.077792167663574,
				0.4868687689304352
			]
		},
		{
			"children":[
				30,
				34,
				38,
				42,
				46
			],
			"name":"mixamorig:LeftHand",
			"rotation":[
				4.22259529672984e-16,
				7.684732850066212e-10,
				7.683962355287122e-10,
				1
			],
			"scale":[
				0.9999999403953552,
				1,
				0.9999999403953552
			],
			"translation":[
				5.754480298492126e-06,
				28.328855514526367,
				6.493502587545663e-05
			]
		},
		{
			"children":[
				47
			],
			"name":"mixamorig:LeftForeArm",
			"rotation":[
				-1.8626318265546615e-09,
				-9.614090856757684e-09,
				-1.87726767464369e-09,
				1
			],
			"scale":[
				0.9999999403953552,
				1,
				0.9999999403953552
			],
			"translation":[
				2.0101670088479295e-06,
				27.841541290283203,
				1.910514220071491e-05
			]
		},
		{
			"children":[
				48
			],
			"name":"mixamorig:LeftArm",
			"rotation":[
				-0.02460525371134281,
				-0.002562104957178235,
				0.10350485891103745,
				0.9943212270736694
			],
			"scale":[
				1,
				1.0000001192092896,
				1
			],
			"translation":[
				-1.1920928955078125e-06,
				10.8377103805542,
				5.408427750808187e-05
			]
		},
		{
			"children":[
				49
			],
			"name":"mixamorig:LeftShoulder",
			"rotation":[
				0.48442208766937256,
				0.5709717273712158,
				-0.5261605978012085,
				0.4030902683734894
			],
			"scale":[
				0.9999998807907104,
				0.9999995231628418,
				0.9999998807907104
			],
			"translation":[
				4.570446014404297,
				11.195653915405273,
				-0.8066415190696716
			]
		},
		{
			"children":[
				2,
				26,
				50
			],
			"name":"mixamorig:Spine2",
			"rotation":[
				0.012886361218988895,
				7.485601583034907e-10,
				-3.7048284440288626e-08,
				0.9999169707298279
			],
			"scale":[
				1,
				1.0000001192092896,
				1
			],
			"translation":[
				-4.32365254710021e-12,
				9.322078704833984,
				7.152557827794226e-06
			]
		},
		{
			"children":[
				51
			],
			"name":"mixamorig:Spine1",
			"rotation":[
				2.9802320611338473e-08,
				1.6587662798883684e-08,
				7.613354391367011e-14,
				1
			],
			"scale":[
				1,
				1,
				1.0000001192092896
			],
			"translation":[
				-8.393286066166183e-12,
				10.002668380737305,
				7.748604730295483e-06
			]
		},
		{
			"children":[
				52
			],
			"name":"mixamorig:Spine",
			"rotation":[
				0.9967823624610901,
				2.466191233452264e-07,
				-1.815919148384637e-08,
				0.08015614002943039
			],
			"scale":[
				1,
				0.9999999403953552,
				0.9999963641166687
			],
			"translation":[
				-4.1411751805497943e-10,
				-10.182435035705566,
				1.6689301673977752e-06
			]
		},
		{
			"name":"mixamorig:RightToe_End",
			"rotation":[
				8.940018858538679e-08,
				0.011607893742620945,
				1.037809060910888e-09,
				0.9999326467514038
			],
			"scale":[
				1,
				1,
				0.9999999403953552
			],
			"translation":[
				9.535584126751928e-07,
				9.278118133544922,
				2.3015900296741165e-10
			]
		},
		{
			"children":[
				54
			],
			"name":"mixamorig:RightToeBase",
			"rotation":[
				0.3352416157722473,
				1.123109711897996e-07,
				-1.0656218130122852e-08,
				0.9421321749687195
			],
			"scale":[
				1,
				0.9999999403953552,
				1
			],
			"translation":[
				2.6674788387026638e-06,
				13.816863059997559,
				3.2137152174982475e-06
			]
		},
		{
			"children":[
				55
			],
			"name":"mixamorig:RightFoot",
			"rotation":[
				0.4597398340702057,
				1.058655101360273e-07,
				-1.2422476913798164e-07,
				0.8880536556243896
			],
			"scale":[
				1,
				1.0000001192092896,
				1
			],
			"translation":[
				-4.1589846659917384e-06,
				44.52780532836914,
				-1.6464434793306282e-06
			]
		},
		{
			"children":[
				56
			],
			"name":"mixamorig:RightLeg",
			"rotation":[
				-0.038091354072093964,
				-2.695076375403005e-07,
				1.1975495262106506e-08,
				0.9992742538452148
			],
			"scale":[
				1,
				1,
				1.0000001192092896
			],
			"translation":[
				2.5881704459607136e-06,
				44.37146759033203,
				-8.476308721583337e-08
			]
		},
		{
			"children":[
				57
			],
			"name":"mixamorig:RightUpLeg",
			"rotation":[
				2.5714754769978754e-07,
				-0.9999463558197021,
				0.010356503538787365,
				7.549387248673156e-08
			],
			"scale":[
				1,
				1.000000238418579,
				0.9999999403953552
			],
			"translation":[
				-8.207788467407227,
				6.771751880645752,
				1.5122193098068237
			]
		},
		{
			"name":"mixamorig:LeftToe_End",
			"rotation":[
				-2.980617708203681e-08,
				-0.011869271285831928,
				3.538075388220818e-10,
				0.9999295473098755
			],
			"scale":[
				1,
				0.9999999403953552,
				1
			],
			"translation":[
				1.907226533148787e-06,
				9.27812671661377,
				1.4304800970421638e-06
			]
		},
		{
			"children":[
				59
			],
			"name":"mixamorig:LeftToeBase",
			"rotation":[
				0.3352417051792145,
				1.1231090013552603e-07,
				-1.0656154181276634e-08,
				0.9421321749687195
			],
			"translation":[
				2.6675002118281554e-06,
				13.816864967346191,
				2.272236997669097e-06
			]
		},
		{
			"children":[
				60
			],
			"name":"mixamorig:LeftFoot",
			"rotation":[
				0.4597483277320862,
				1.0586509802124056e-07,
				-1.2422700024217193e-07,
				0.8880492448806763
			],
			"scale":[
				1,
				1.000000238418579,
				1.0000001192092896
			],
			"translation":[
				6.093782189964259e-07,
				44.52790069580078,
				-5.565723313338822e-06
			]
		},
		{
			"children":[
				61
			],
			"name":"mixamorig:LeftLeg",
			"rotation":[
				-0.03811241686344147,
				-2.695103660244058e-07,
				1.1978347203012163e-08,
				0.9992734789848328
			],
			"scale":[
				1,
				1,
				0.9999999403953552
			],
			"translation":[
				3.5415553156781243e-06,
				44.37137985229492,
				-4.687080945586786e-09
			]
		},
		{
			"children":[
				62
			],
			"name":"mixamorig:LeftUpLeg",
			"rotation":[
				2.571471497958555e-07,
				-0.9999462366104126,
				0.010367915965616703,
				7.549384406502213e-08
			],
			"scale":[
				1,
				0.9999997019767761,
				1
			],
			"translation":[
				8.207791328430176,
				6.771798133850098,
				1.5122143030166626
			]
		},
		{
			"children":[
				53,
				58,
				63
			],
			"name":"mixamorig:Hips",
			"rotation":[
				0.7116588354110718,
				1.759473917672949e-07,
				-1.7832685728080833e-07,
				0.70252525806427
			],
			"translation":[
				-7.727290721959434e-06,
				1.5543156862258911,
				-104.27487182617188
			]
		},
		{
			"mesh":0,
			"name":"Beta_Surface",
			"skin":0
		},
		{
			"children":[
				65,
				64
			],
			"name":"Armature",
			"rotation":[
				0.70710688829422,
				0,
				0,
				0.7071066498756409
			],
			"scale":[
				0.009999999776482582,
				0.010000000707805157,
				0.010000000707805157
			]
		}
	],
	"animations":[
		{
			"channels":[
				{
					"sampler":0,
					"target":{
						"node":64,
						"path":"translation"
					}
				},
				{
					"sampler":1,
					"target":{
						"node":64,
						"path":"rotation"
					}
				},
				{
					"sampler":2,
					"target":{
						"node":64,
						"path":"scale"
					}
				},
				{
					"sampler":3,
					"target":{
						"node":53,
						"path":"translation"
					}
				},
				{
					"sampler":4,
					"target":{
						"node":53,
						"path":"rotation"
					}
				},
				{
					"sampler":5,
					"target":{
						"node":53,
						"path":"scale"
					}
				},
				{
					"sampler":6,
					"target":{
						"node":52,
						"path":"translation"
					}
				},
				{
					"sampler":7,
					"target":{
						"node":52,
						"path":"rotation"
					}
				},
				{
					"sampler":8,
					"target":{
						"node":52,
						"path":"scale"
					}
				},
				{
					"sampler":9,
					"target":{
						"node":51,
						"path":"translation"
					}
				},
				{
					"sampler":10,
					"target":{
						"node":51,
						"path":"rotation"
					}
				},
				{
					"sampler":11,
					"target":{
						"node":51,
						"path":"scale"
					}
				},
				{
					"sampler":12,
					"target":{
						"node":2,
						"path":"translation"
					}
				},
				{
					"sampler":13,
					"target":{
						"node":2,
						"path":"rotation"
					}
				},
				{
					"sampler":14,
					"target":{
						"node":2,
						"path":"scale"
					}
				},
				{
					"sampler":15,
					"target":{
						"node":1,
						"path":"translation"
					}
				},
				{
					"sampler":16,
					"target":{
						"node":1,
						"path":"rotation"
					}
				},
				{
					"sampler":17,
					"target":{
						"node":1,
						"path":"scale"
					}
				},
				{
					"sampler":18,
					"target":{
						"node":0,
						"path":"translation"
					}
				},
				{
					"sampler":19,
					"target":{
						"node":0,
						"path":"rotation"
					}
				},
				{
					"sampler":20,
					"target":{
						"node":0,
						"path":"scale"
					}
				},
				{
					"sampler":21,
					"target":{
						"node":26,
						"path":"translation"
					}
				},
				{
					"sampler":22,
					"target":{
						"node":26,
						"path":"rotation"
					}
				},
				{
					"sampler":23,
					"target":{
						"node":26,
						"path":"scale"
					}
				},
				{
					"sampler":24,
					"target":{
						"node":25,
						"path":"translation"
					}
				},
				{
					"sampler":25,
					"target":{
						"node":25,
						"path":"rotation"
					}
				},
				{
					"sampler":26,
					"target":{
						"node":25,
						"path":"scale"
					}
				},
				{
					"sampler":27,
					"target":{
						"node":24,
						"path":"translation"
					}
				},
				{
					"sampler":28,
					"target":{
						"node":24,
						"path":"rotation"
					}
				},
				{
					"sampler":29,
					"target":{
						"node":24,
						"path":"scale"
					}
				},
				{
					"sampler":30,
					"target":{
						"node":23,
						"path":"translation"
					}
				},
				{
					"sampler":31,
					"target":{
						"node":23,
						"path":"rotation"
					}
				},
				{
					"sampler":32,
					"target":{
						"node":23,
						"path":"scale"
					}
				},
				{
					"sampler":33,
					"target":{
						"node":6,
						"path":"translation"
					}
				},
				{
					"sampler":34,
					"target":{
						"node":6,
						"path":"rotation"
					}
				},
				{
					"sampler":35,
					"target":{
						"node":6,
						"path":"scale"
					}
				},
				{
					"sampler":36,
					"target":{
						"node":5,
						"path":"translation"
					}
				},
				{
					"sampler":37,
					"target":{
						"node":5,
						"path":"rotation"
					}
				},
				{
					"sampler":38,
					"target":{
						"node":5,
						"path":"scale"
					}
				},
				{
					"sampler":39,
					"target":{
						"node":4,
						"path":"translation"
					}
				},
				{
					"sampler":40,
					"target":{
						"node":4,
						"path":"rotation"
					}
				},
				{
					"sampler":41,
					"target":{
						"node":4,
						"path":"scale"
					}
				},
				{
					"sampler":42,
					"target":{
						"node":3,
						"path":"translation"
					}
				},
				{
					"sampler":43,
					"target":{
						"node":3,
						"path":"rotation"
					}
				},
				{
					"sampler":44,
					"target":{
						"node":3,
						"path":"scale"
					}
				},
				{
					"sampler":45,
					"target":{
						"node":10,
						"path":"translation"
					}
				},
				{
					"sampler":46,
					"target":{
						"node":10,
						"path":"rotation"
					}
				},
				{
					"sampler":47,
					"target":{
						"node":10,
						"path":"scale"
					}
				},
				{
					"sampler":48,
					"target":{
						"node":9,
						"path":"translation"
					}
				},
				{
					"sampler":49,
					"target":{
						"node":9,
						"path":"rotation"
					}
				},
				{
					"sampler":50,
					"target":{
						"node":9,
						"path":"scale"
					}
				},
				{
					"sampler":51,
					"target":{
						"node":8,
						"path":"translation"
					}
				},
				{
					"sampler":52,
					"target":{
						"node":8,
						"path":"rotation"
					}
				},
				{
					"sampler":53,
					"target":{
						"node":8,
						"path":"scale"
					}
				},
				{
					"sampler":54,
					"target":{
						"node":7,
						"path":"translation"
					}
				},
				{
					"sampler":55,
					"target":{
						"node":7,
						"path":"rotation"
					}
				},
				{
					"sampler":56,
					"target":{
						"node":7,
						"path":"scale"
					}
				},
				{
					"sampler":57,
					"target":{
						"node":14,
						"path":"translation"
					}
				},
				{
					"sampler":58,
					"target":{
						"node":14,
						"path":"rotation"
					}
				},
				{
					"sampler":59,
					"target":{
						"node":14,
						"path":"scale"
					}
				},
				{
					"sampler":60,
					"target":{
						"node":13,
						"path":"translation"
					}
				},
				{
					"sampler":61,
					"target":{
						"node":13,
						"path":"rotation"
					}
				},
				{
					"sampler":62,
					"target":{
						"node":13,
						"path":"scale"
					}
				},
				{
					"sampler":63,
					"target":{
						"node":12,
						"path":"translation"
					}
				},
				{
					"sampler":64,
					"target":{
						"node":12,
						"path":"rotation"
					}
				},
				{
					"sampler":65,
					"target":{
						"node":12,
						"path":"scale"
					}
				},
				{
					"sampler":66,
					"target":{
						"node":11,
						"path":"translation"
					}
				},
				{
					"sampler":67,
					"target":{
						"node":11,
						"path":"rotation"
					}
				},
				{
					"sampler":68,
					"target":{
						"node":11,
						"path":"scale"
					}
				},
				{
					"sampler":69,
					"target":{
						"node":18,
						"path":"translation"
					}
				},
				{
					"sampler":70,
					"target":{
						"node":18,
						"path":"rotation"
					}
				},
				{
					"sampler":71,
					"target":{
						"node":18,
						"path":"scale"
					}
				},
				{
					"sampler":72,
					"target":{
						"node":17,
						"path":"translation"
					}
				},
				{
					"sampler":73,
					"target":{
						"node":17,
						"path":"rotation"
					}
				},
				{
					"sampler":74,
					"target":{
						"node":17,
						"path":"scale"
					}
				},
				{
					"sampler":75,
					"target":{
						"node":16,
						"path":"translation"
					}
				},
				{
					"sampler":76,
					"target":{
						"node":16,
						"path":"rotation"
					}
				},
				{
					"sampler":77,
					"target":{
						"node":16,
						"path":"scale"
					}
				},
				{
					"sampler":78,
					"target":{
						"node":15,
						"path":"translation"
					}
				},
				{
					"sampler":79,
					"target":{
						"node":15,
						"path":"rotation"
					}
				},
				{
					"sampler":80,
					"target":{
						"node":15,
						"path":"scale"
					}
				},
				{
					"sampler":81,
					"target":{
						"node":22,
						"path":"translation"
					}
				},
				{
					"sampler":82,
					"target":{
						"node":22,
						"path":"rotation"
					}
				},
				{
					"sampler":83,
					"target":{
						"node":22,
						"path":"scale"
					}
				},
				{
					"sampler":84,
					"target":{
						"node":21,
						"path":"translation"
					}
				},
				{
					"sampler":85,
					"target":{
						"node":21,
						"path":"rotation"
					}
				},
				{
					"sampler":86,
					"target":{
						"node":21,
						"path":"scale"
					}
				},
				{
					"sampler":87,
					"target":{
						"node":20,
						"path":"translation"
					}
				},
				{
					"sampler":88,
					"target":{
						"node":20,
						"path":"rotation"
					}
				},
				{
					"sampler":89,
					"target":{
						"node":20,
						"path":"scale"
					}
				},
				{
					"sampler":90,
					"target":{
						"node":19,
						"path":"translation"
					}
				},
				{
					"sampler":91,
					"target":{
						"node":19,
						"path":"rotation"
					}
				},
				{
					"sampler":92,
					"target":{
						"node":19,
						"path":"scale"
					}
				},
				{
					"sampler":93,
					"target":{
						"node":50,
						"path":"translation"
					}
				},
				{
					"sampler":94,
					"target":{
						"node":50,
						"path":"rotation"
					}
				},
				{
					"sampler":95,
					"target":{
						"node":50,
						"path":"scale"
					}
				},
				{
					"sampler":96,
					"target":{
						"node":49,
						"path":"translation"
					}
				},
				{
					"sampler":97,
					"target":{
						"node":49,
						"path":"rotation"
					}
				},
				{
					"sampler":98,
					"target":{
						"node":49,
						"path":"scale"
					}
				},
				{
					"sampler":99,
					"target":{
						"node":48,
						"path":"translation"
					}
				},
				{
					"sampler":100,
					"target":{
						"node":48,
						"path":"rotation"
					}
				},
				{
					"sampler":101,
					"target":{
						"node":48,
						"path":"scale"
					}
				},
				{
					"sampler":102,
					"target":{
						"node":47,
						"path":"translation"
					}
				},
				{
					"sampler":103,
					"target":{
						"node":47,
						"path":"rotation"
					}
				},
				{
					"sampler":104,
					"target":{
						"node":47,
						"path":"scale"
					}
				},
				{
					"sampler":105,
					"target":{
						"node":30,
						"path":"translation"
					}
				},
				{
					"sampler":106,
					"target":{
						"node":30,
						"path":"rotation"
					}
				},
				{
					"sampler":107,
					"target":{
						"node":30,
						"path":"scale"
					}
				},
				{
					"sampler":108,
					"target":{
						"node":29,
						"path":"translation"
					}
				},
				{
					"sampler":109,
					"target":{
						"node":29,
						"path":"rotation"
					}
				},
				{
					"sampler":110,
					"target":{
						"node":29,
						"path":"scale"
					}
				},
				{
					"sampler":111,
					"target":{
						"node":28,
						"path":"translation"
					}
				},
				{
					"sampler":112,
					"target":{
						"node":28,
						"path":"rotation"
					}
				},
				{
					"sampler":113,
					"target":{
						"node":28,
						"path":"scale"
					}
				},
				{
					"sampler":114,
					"target":{
						"node":27,
						"path":"translation"
					}
				},
				{
					"sampler":115,
					"target":{
						"node":27,
						"path":"rotation"
					}
				},
				{
					"sampler":116,
					"target":{
						"node":27,
						"path":"scale"
					}
				},
				{
					"sampler":117,
					"target":{
						"node":34,
						"path":"translation"
					}
				},
				{
					"sampler":118,
					"target":{
						"node":34,
						"path":"rotation"
					}
				},
				{
					"sampler":119,
					"target":{
						"node":34,
						"path":"scale"
					}
				},
				{
					"sampler":120,
					"target":{
						"node":33,
						"path":"translation"
					}
				},
				{
					"sampler":121,
					"target":{
						"node":33,
						"path":"rotation"
					}
				},
				{
					"sampler":122,
					"target":{
						"node":33,
						"path":"scale"
					}
				},
				{
					"sampler":123,
					"target":{
						"node":32,
						"path":"translation"
					}
				},
				{
					"sampler":124,
					"target":{
						"node":32,
						"path":"rotation"
					}
				},
				{
					"sampler":125,
					"target":{
						"node":32,
						"path":"scale"
					}
				},
				{
					"sampler":126,
					"target":{
						"node":31,
						"path":"translation"
					}
				},
				{
					"sampler":127,
					"target":{
						"node":31,
						"path":"rotation"
					}
				},
				{
					"sampler":128,
					"target":{
						"node":31,
						"path":"scale"
					}
				},
				{
					"sampler":129,
					"target":{
						"node":38,
						"path":"translation"
					}
				},
				{
					"sampler":130,
					"target":{
						"node":38,
						"path":"rotation"
					}
				},
				{
					"sampler":131,
					"target":{
						"node":38,
						"path":"scale"
					}
				},
				{
					"sampler":132,
					"target":{
						"node":37,
						"path":"translation"
					}
				},
				{
					"sampler":133,
					"target":{
						"node":37,
						"path":"rotation"
					}
				},
				{
					"sampler":134,
					"target":{
						"node":37,
						"path":"scale"
					}
				},
				{
					"sampler":135,
					"target":{
						"node":36,
						"path":"translation"
					}
				},
				{
					"sampler":136,
					"target":{
						"node":36,
						"path":"rotation"
					}
				},
				{
					"sampler":137,
					"target":{
						"node":36,
						"path":"scale"
					}
				},
				{
					"sampler":138,
					"target":{
						"node":35,
						"path":"translation"
					}
				},
				{
					"sampler":139,
					"target":{
						"node":35,
						"path":"rotation"
					}
				},
				{
					"sampler":140,
					"target":{
						"node":35,
						"path":"scale"
					}
				},
				{
					"sampler":141,
					"target":{
						"node":42,
						"path":"translation"
					}
				},
				{
					"sampler":142,
					"target":{
						"node":42,
						"path":"rotation"
					}
				},
				{
					"sampler":143,
					"target":{
						"node":42,
						"path":"scale"
					}
				},
				{
					"sampler":144,
					"target":{
						"node":41,
						"path":"translation"
					}
				},
				{
					"sampler":145,
					"target":{
						"node":41,
						"path":"rotation"
					}
				},
				{
					"sampler":146,
					"target":{
						"node":41,
						"path":"scale"
					}
				},
				{
					"sampler":147,
					"target":{
						"node":40,
						"path":"translation"
					}
				},
				{
					"sampler":148,
					"target":{
						"node":40,
						"path":"rotation"
					}
				},
				{
					"sampler":149,
					"target":{
						"node":40,
						"path":"scale"
					}
				},
				{
					"sampler":150,
					"target":{
						"node":39,
						"path":"translation"
					}
				},
				{
					"sampler":151,
					"target":{
						"node":39,
						"path":"rotation"
					}
				},
				{
					"sampler":152,
					"target":{
						"node":39,
						"path":"scale"
					}
				},
				{
					"sampler":153,
					"target":{
						"node":46,
						"path":"translation"
					}
				},
				{
					"sampler":154,
					"target":{
						"node":46,
						"path":"rotation"
					}
				},
				{
					"sampler":155,
					"target":{
						"node":46,
						"path":"scale"
					}
				},
				{
					"sampler":156,
					"target":{
						"node":45,
						"path":"translation"
					}
				},
				{
					"sampler":157,
					"target":{
						"node":45,
						"path":"rotation"
					}
				},
				{
					"sampler":158,
					"target":{
						"node":45,
						"path":"scale"
					}
				},
				{
					"sampler":159,
					"target":{
						"node":44,
						"path":"translation"
					}
				},
				{
					"sampler":160,
					"target":{
						"node":44,
						"path":"rotation"
					}
				},
				{
					"sampler":161,
					"target":{
						"node":44,
						"path":"scale"
					}
				},
				{
					"sampler":162,
					"target":{
						"node":43,
						"path":"translation"
					}
				},
				{
					"sampler":163,
					"target":{
						"node":43,
						"path":"rotation"
					}
				},
				{
					"sampler":164,
					"target":{
						"node":43,
						"path":"scale"
					}
				},
				{
					"sampler":165,
					"target":{
						"node":58,
						"path":"translation"
					}
				},
				{
					"sampler":166,
					"target":{
						"node":58,
						"path":"rotation"
					}
				},
				{
					"sampler":167,
					"target":{
						"node":58,
						"path":"scale"
					}
				},
				{
					"sampler":168,
					"target":{
						"node":57,
						"path":"translation"
					}
				},
				{
					"sampler":169,
					"target":{
						"node":57,
						"path":"rotation"
					}
				},
				{
					"sampler":170,
					"target":{
						"node":57,
						"path":"scale"
					}
				},
				{
					"sampler":171,
					"target":{
						"node":56,
						"path":"translation"
					}
				},
				{
					"sampler":172,
					"target":{
						"node":56,
						"path":"rotation"
					}
				},
				{
					"sampler":173,
					"target":{
						"node":56,
						"path":"scale"
					}
				},
				{
					"sampler":174,
					"target":{
						"node":55,
						"path":"translation"
					}
				},
				{
					"sampler":175,
					"target":{
						"node":55,
						"path":"rotation"
					}
				},
				{
					"sampler":176,
					"target":{
						"node":55,
						"path":"scale"
					}
				},
				{
					"sampler":177,
					"target":{
						"node":54,
						"path":"translation"
					}
				},
				{
					"sampler":178,
					"target":{
						"node":54,
						"path":"rotation"
					}
				},
				{
					"sampler":179,
					"target":{
						"node":54,
						"path":"scale"
					}
				},
				{
					"sampler":180,
					"target":{
						"node":63,
						"path":"translation"
					}
				},
				{
					"sampler":181,
					"target":{
						"node":63,
						"path":"rotation"
					}
				},
				{
					"sampler":182,
					"target":{
						"node":63,
						"path":"scale"
					}
				},
				{
					"sampler":183,
					"target":{
						"node":62,
						"path":"translation"
					}
				},
				{
					"sampler":184,
					"target":{
						"node":62,
						"path":"rotation"
					}
				},
				{
					"sampler":185,
					"target":{
						"node":62,
						"path":"scale"
					}
				},
				{
					"sampler":186,
					"target":{
						"node":61,
						"path":"translation"
					}
				},
				{
					"sampler":187,
					"target":{
						"node":61,
						"path":"rotation"
					}
				},
				{
					"sampler":188,
					"target":{
						"node":61,
						"path":"scale"
					}
				},
				{
					"sampler":189,
					"target":{
						"node":60,
						"path":"translation"
					}
				},
				{
					"sampler":190,
					"target":{
						"node":60,
						"path":"rotation"
					}
				},
				{
					"sampler":191,
					"target":{
						"node":60,
						"path":"scale"
					}
				},
				{
					"sampler":192,
					"target":{
						"node":59,
						"path":"translation"
					}
				},
				{
					"sampler":193,
					"target":{
						"node":59,
						"path":"rotation"
					}
				},
				{
					"sampler":194,
					"target":{
						"node":59,
						"path":"scale"
					}
				}
			],
			"name":"Armature|mixamo.com|Layer0",
			"samplers":[
				{
					"input":7,
					"interpolation":"LINEAR",
					"output":8
				},
				{
					"input":7,
					"interpolation":"LINEAR",
					"output":9
				},
				{
					"input":10,
					"interpolation":"STEP",
					"output":11
				},
				{
					"input":10,
					"interpolation":"LINEAR",
					"output":12
				},
				{
					"input":7,
					"interpolation":"LINEAR",
					"output":13
				},
				{
					"input":10,
					"interpolation":"LINEAR",
					"output":14
				},
				{
					"input":10,
					"interpolation":"LINEAR",
					"output":15
				},
				{
					"input":7,
					"interpolation":"LINEAR",
					"output":16
				},
				{
					"input":10,
					"interpolation":"LINEAR",
					"output":17
				},
				{
					"input":10,
					"interpolation":"LINEAR",
					"output":18
				},
				{
					"input":7,
					"interpolation":"LINEAR",
					"output":19
				},
				{
					"input":10,
					"interpolation":"LINEAR",
					"output":20
				},
				{
					"input":10,
					"interpolation":"LINEAR",
					"output":21
				},
				{
					"input":7,
					"interpolation":"LINEAR",
					"output":22
				},
				{
					"input":10,
					"interpolation":"LINEAR",
					"output":23
				},
				{
					"input":10,
					"interpolation":"LINEAR",
					"output":24
				},
				{
					"input":7,
					"interpolation":"LINEAR",
					"output":25
				},
				{
					"input":10,
					"interpolation":"STEP",
					"output":26
				},
				{
					"input":10,
					"interpolation":"LINEAR",
					"output":27
				},
				{
					"input":10,
					"interpolation":"LINEAR",
					"output":28
				},
				{
					"input":10,
					"interpolation":"LINEAR",
					"output":29
				},
				{
					"input":10,
					"interpolation":"LINEAR",
					"output":30
				},
				{
					"input":7,
					"interpolation":"LINEAR",
					"output":31
				},
				{
					"input":10,
					"interpolation":"LINEAR",
					"output":32
				},
				{
					"input":10,
					"interpolation":"LINEAR",
					"output":33
				},
				{
					"input":7,
					"interpolation":"LINEAR",
					"output":34
				},
				{
					"input":10,
					"interpolation":"LINEAR",
					"output":35
				},
				{
					"input":10,
					"interpolation":"LINEAR",
					"output":36
				},
				{
					"input":7,
					"interpolation":"LINEAR",
					"output":37
				},
				{
					"input":10,
					"interpolation":"LINEAR",
					"output":38
				},
				{
					"input":10,
					"interpolation":"LINEAR",
					"output":39
				},
				{
					"input":7,
					"interpolation":"LINEAR",
					"output":40
				},
				{
					"input":10,
					"interpolation":"LINEAR",
					"output":41
				},
				{
					"input":10,
					"interpolation":"LINEAR",
					"output":42
				},
				{
					"input":7,
					"interpolation":"LINEAR",
					"output":43
				},
				{
					"input":10,
					"interpolation":"LINEAR",
					"output":44
				},
				{
					"input":10,
					"interpolation":"LINEAR",
					"output":45
				},
				{
					"input":7,
					"interpolation":"LINEAR",
					"output":46
				},
				{
					"input":10,
					"interpolation":"LINEAR",
					"output":47
				},
				{
					"input":10,
					"interpolation":"LINEAR",
					"output":48
				},
				{
					"input":10,
					"interpolation":"LINEAR",
					"output":49
				},
				{
					"input":10,
					"interpolation":"LINEAR",
					"output":50
				},
				{
					"input":10,
					"interpolation":"LINEAR",
					"output":51
				},
				{
					"input":10,
					"interpolation":"LINEAR",
					"output":52
				},
				{
					"input":10,
					"interpolation":"LINEAR",
					"output":53
				},
				{
					"input":10,
					"interpolation":"LINEAR",
					"output":54
				},
				{
					"input":7,
					"interpolation":"LINEAR",
					"output":55
				},
				{
					"input":10,
					"interpolation":"LINEAR",
					"output":56
				},
				{
					"input":10,
					"interpolation":"LINEAR",
					"output":57
				},
				{
					"input":7,
					"interpolation":"LINEAR",
					"output":58
				},
				{
					"input":10,
					"interpolation":"LINEAR",
					"output":59
				},
				{
					"input":10,
					"interpolation":"LINEAR",
					"output":60
				},
				{
					"input":10,
					"interpolation":"LINEAR",
					"output":61
				},
				{
					"input":10,
					"interpolation":"STEP",
					"output":62
				},
				{
					"input":10,
					"interpolation":"LINEAR",
					"output":63
				},
				{
					"input":10,
					"interpolation":"LINEAR",
					"output":64
				},
				{
					"input":10,
					"interpolation":"LINEAR",
					"output":65
				},
				{
					"input":10,
					"interpolation":"LINEAR",
					"output":66
				},
				{
					"input":7,
					"interpolation":"LINEAR",
					"output":67
				},
				{
					"input":10,
					"interpolation":"STEP",
					"output":68
				},
				{
					"input":10,
					"interpolation":"LINEAR",
					"output":69
				},
				{
					"input":7,
					"interpolation":"LINEAR",
					"output":70
				},
				{
					"input":10,
					"interpolation":"STEP",
					"output":71
				},
				{
					"input":10,
					"interpolation":"LINEAR",
					"output":72
				},
				{
					"input":10,
					"interpolation":"LINEAR",
					"output":73
				},
				{
					"input":10,
					"interpolation":"LINEAR",
					"output":74
				},
				{
					"input":10,
					"interpolation":"LINEAR",
					"output":75
				},
				{
					"input":10,
					"interpolation":"LINEAR",
					"output":76
				},
				{
					"input":10,
					"interpolation":"LINEAR",
					"output":77
				},
				{
					"input":10,
					"interpolation":"LINEAR",
					"output":78
				},
				{
					"input":7,
					"interpolation":"LINEAR",
					"output":79
				},
				{
					"input":10,
					"interpolation":"STEP",
					"output":80
				},
				{
					"input":10,
					"interpolation":"LINEAR",
					"output":81
				},
				{
					"input":7,
					"interpolation":"LINEAR",
					"output":82
				},
				{
					"input":10,
					"interpolation":"STEP",
					"output":83
				},
				{
					"input":10,
					"interpolation":"LINEAR",
					"output":84
				},
				{
					"input":10,
					"interpolation":"LINEAR",
					"output":85
				},
				{
					"input":10,
					"interpolation":"LINEAR",
					"output":86
				},
				{
					"input":10,
					"interpolation":"LINEAR",
					"output":87
				},
				{
					"input":10,
					"interpolation":"LINEAR",
					"output":88
				},
				{
					"input":10,
					"interpolation":"LINEAR",
					"output":89
				},
				{
					"input":10,
					"interpolation":"LINEAR",
					"output":90
				},
				{
					"input":7,
					"interpolation":"LINEAR",
					"output":91
				},
				{
					"input":10,
					"interpolation":"LINEAR",
					"output":92
				},
				{
					"input":10,
					"interpolation":"LINEAR",
					"output":93
				},
				{
					"input":7,
					"interpolation":"LINEAR",
					"output":94
				},
				{
					"input":10,
					"interpolation":"STEP",
					"output":95
				},
				{
					"input":10,
					"interpolation":"LINEAR",
					"output":96
				},
				{
					"input":10,
					"interpolation":"LINEAR",
					"output":97
				},
				{
					"input":10,
					"interpolation":"STEP",
					"output":98
				},
				{
					"input":10,
					"interpolation":"LINEAR",
					"output":99
				},
				{
					"input":10,
					"interpolation":"LINEAR",
					"output":100
				},
				{
					"input":10,
					"interpolation":"STEP",
					"output":101
				},
				{
					"input":10,
					"interpolation":"LINEAR",
					"output":102
				},
				{
					"input":7,
					"interpolation":"LINEAR",
					"output":103
				},
				{
					"input":10,
					"interpolation":"LINEAR",
					"output":104
				},
				{
					"input":10,
					"interpolation":"LINEAR",
					"output":105
				},
				{
					"input":7,
					"interpolation":"LINEAR",
					"output":106
				},
				{
					"input":10,
					"interpolation":"LINEAR",
					"output":107
				},
				{
					"input":10,
					"interpolation":"LINEAR",
					"output":108
				},
				{
					"input":7,
					"interpolation":"LINEAR",
					"output":109
				},
				{
					"input":10,
					"interpolation":"LINEAR",
					"output":110
				},
				{
					"input":10,
					"interpolation":"LINEAR",
					"output":111
				},
				{
					"input":7,
					"interpolation":"LINEAR",
					"output":112
				},
				{
					"input":10,
					"interpolation":"STEP",
					"output":113
				},
				{
					"input":10,
					"interpolation":"LINEAR",
					"output":114
				},
				{
					"input":7,
					"interpolation":"LINEAR",
					"output":115
				},
				{
					"input":10,
					"interpolation":"LINEAR",
					"output":116
				},
				{
					"input":10,
					"interpolation":"LINEAR",
					"output":117
				},
				{
					"input":7,
					"interpolation":"LINEAR",
					"output":118
				},
				{
					"input":10,
					"interpolation":"LINEAR",
					"output":119
				},
				{
					"input":10,
					"interpolation":"LINEAR",
					"output":120
				},
				{
					"input":10,
					"interpolation":"LINEAR",
					"output":121
				},
				{
					"input":10,
					"interpolation":"STEP",
					"output":122
				},
				{
					"input":10,
					"interpolation":"LINEAR",
					"output":123
				},
				{
					"input":10,
					"interpolation":"LINEAR",
					"output":124
				},
				{
					"input":10,
					"interpolation":"LINEAR",
					"output":125
				},
				{
					"input":10,
					"interpolation":"LINEAR",
					"output":126
				},
				{
					"input":7,
					"interpolation":"LINEAR",
					"output":127
				},
				{
					"input":10,
					"interpolation":"LINEAR",
					"output":128
				},
				{
					"input":10,
					"interpolation":"LINEAR",
					"output":129
				},
				{
					"input":7,
					"interpolation":"LINEAR",
					"output":130
				},
				{
					"input":10,
					"interpolation":"STEP",
					"output":131
				},
				{
					"input":10,
					"interpolation":"LINEAR",
					"output":132
				},
				{
					"input":10,
					"interpolation":"LINEAR",
					"output":133
				},
				{
					"input":10,
					"interpolation":"STEP",
					"output":134
				},
				{
					"input":10,
					"interpolation":"LINEAR",
					"output":135
				},
				{
					"input":10,
					"interpolation":"LINEAR",
					"output":136
				},
				{
					"input":10,
					"interpolation":"LINEAR",
					"output":137
				},
				{
					"input":10,
					"interpolation":"LINEAR",
					"output":138
				},
				{
					"input":7,
					"interpolation":"LINEAR",
					"output":139
				},
				{
					"input":10,
					"interpolation":"LINEAR",
					"output":140
				},
				{
					"input":10,
					"interpolation":"LINEAR",
					"output":141
				},
				{
					"input":7,
					"interpolation":"LINEAR",
					"output":142
				},
				{
					"input":10,
					"interpolation":"STEP",
					"output":143
				},
				{
					"input":10,
					"interpolation":"LINEAR",
					"output":144
				},
				{
					"input":10,
					"interpolation":"LINEAR",
					"output":145
				},
				{
					"input":10,
					"interpolation":"LINEAR",
					"output":146
				},
				{
					"input":10,
					"interpolation":"LINEAR",
					"output":147
				},
				{
					"input":10,
					"interpolation":"LINEAR",
					"output":148
				},
				{
					"input":10,
					"interpolation":"LINEAR",
					"output":149
				},
				{
					"input":10,
					"interpolation":"LINEAR",
					"output":150
				},
				{
					"input":7,
					"interpolation":"LINEAR",
					"output":151
				},
				{
					"input":10,
					"interpolation":"LINEAR",
					"output":152
				},
				{
					"input":10,
					"interpolation":"LINEAR",
					"output":153
				},
				{
					"input":7,
					"interpolation":"LINEAR",
					"output":154
				},
				{
					"input":10,
					"interpolation":"LINEAR",
					"output":155
				},
				{
					"input":10,
					"interpolation":"LINEAR",
					"output":156
				},
				{
					"input":10,
					"interpolation":"LINEAR",
					"output":157
				},
				{
					"input":10,
					"interpolation":"LINEAR",
					"output":158
				},
				{
					"input":10,
					"interpolation":"LINEAR",
					"output":159
				},
				{
					"input":10,
					"interpolation":"LINEAR",
					"output":160
				},
				{
					"input":10,
					"interpolation":"LINEAR",
					"output":161
				},
				{
					"input":10,
					"interpolation":"LINEAR",
					"output":162
				},
				{
					"input":7,
					"interpolation":"LINEAR",
					"output":163
				},
				{
					"input":10,
					"interpolation":"STEP",
					"output":164
				},
				{
					"input":10,
					"interpolation":"LINEAR",
					"output":165
				},
				{
					"input":7,
					"interpolation":"LINEAR",
					"output":166
				},
				{
					"input":10,
					"interpolation":"LINEAR",
					"output":167
				},
				{
					"input":10,
					"interpolation":"LINEAR",
					"output":168
				},
				{
					"input":10,
					"interpolation":"LINEAR",
					"output":169
				},
				{
					"input":10,
					"interpolation":"STEP",
					"output":170
				},
				{
					"input":10,
					"interpolation":"LINEAR",
					"output":171
				},
				{
					"input":10,
					"interpolation":"LINEAR",
					"output":172
				},
				{
					"input":10,
					"interpolation":"LINEAR",
					"output":173
				},
				{
					"input":10,
					"interpolation":"LINEAR",
					"output":174
				},
				{
					"input":7,
					"interpolation":"LINEAR",
					"output":175
				},
				{
					"input":10,
					"interpolation":"STEP",
					"output":176
				},
				{
					"input":10,
					"interpolation":"LINEAR",
					"output":177
				},
				{
					"input":7,
					"interpolation":"LINEAR",
					"output":178
				},
				{
					"input":10,
					"interpolation":"LINEAR",
					"output":179
				},
				{
					"input":10,
					"interpolation":"LINEAR",
					"output":180
				},
				{
					"input":7,
					"interpolation":"LINEAR",
					"output":181
				},
				{
					"input":10,
					"interpolation":"LINEAR",
					"output":182
				},
				{
					"input":10,
					"interpolation":"LINEAR",
					"output":183
				},
				{
					"input":7,
					"interpolation":"LINEAR",
					"output":184
				},
				{
					"input":10,
					"interpolation":"LINEAR",
					"output":185
				},
				{
					"input":10,
					"interpolation":"LINEAR",
					"output":186
				},
				{
					"input":10,
					"interpolation":"LINEAR",
					"output":187
				},
				{
					"input":10,
					"interpolation":"LINEAR",
					"output":188
				},
				{
					"input":10,
					"interpolation":"LINEAR",
					"output":189
				},
				{
					"input":7,
					"interpolation":"LINEAR",
					"output":190
				},
				{
					"input":10,
					"interpolation":"LINEAR",
					"output":191
				},
				{
					"input":10,
					"interpolation":"LINEAR",
					"output":192
				},
				{
					"input":7,
					"interpolation":"LINEAR",
					"output":193
				},
				{
					"input":10,
					"interpolation":"LINEAR",
					"output":194
				},
				{
					"input":10,
					"interpolation":"LINEAR",
					"output":195
				},
				{
					"input":7,
					"interpolation":"LINEAR",
					"output":196
				},
				{
					"input":10,
					"interpolation":"LINEAR",
					"output":197
				},
				{
					"input":10,
					"interpolation":"LINEAR",
					"output":198
				},
				{
					"input":7,
					"interpolation":"LINEAR",
					"output":199
				},
				{
					"input":10,
					"interpolation":"LINEAR",
					"output":200
				},
				{
					"input":10,
					"interpolation":"LINEAR",
					"output":201
				},
				{
					"input":10,
					"interpolation":"LINEAR",
					"output":202
				},
				{
					"input":10,
					"interpolation":"LINEAR",
					"output":203
				}
			]
		}
	],
	"materials":[
		{
			"doubleSided":true,
			"extensions":{
				"KHR_materials_specular":{
					"specularColorFactor":[
						2.371357614441398,
						2.371357614441398,
						2.371357614441398
					]
				},
				"KHR_materials_ior":{
					"ior":1.4500000476837158
				}
			},
			"name":"Beta_HighLimbsGeoSG3",
			"pbrMetallicRoughness":{
				"baseColorTexture":{
					"index":0
				},
				"metallicFactor":0,
				"roughnessFactor":0.8082915544509888
			}
		}
	],
	"meshes":[
		{
			"name":"Beta_Surface",
			"primitives":[
				{
					"attributes":{
						"POSITION":0,
						"NORMAL":1,
						"TEXCOORD_0":2,
						"JOINTS_0":3,
						"WEIGHTS_0":4
					},
					"indices":5,
					"material":0
				}
			]
		}
	],
	"textures":[
		{
			"sampler":0,
			"source":0
		}
	],
	"images":[
		{
			"mimeType":"image/png",
			"name":"iku",
			"uri":"iku.png"
		}
	],
	"skins":[
		{
			"inverseBindMatrices":6,
			"joints":[
				64,
				53,
				52,
				51,
				2,
				1,
				0,
				26,
				25,
				24,
				23,
				6,
				5,
				4,
				3,
				10,
				9,
				8,
				7,
				14,
				13,
				12,
				11,
				18,
				17,
				16,
				15,
				22,
				21,
				20,
				19,
				50,
				49,
				48,
				47,
				30,
				29,
				28,
				27,
				34,
				33,
				32,
				31,
				38,
				37,
				36,
				35,
				42,
				41,
				40,
				39,
				46,
				45,
				44,
				43,
				58,
				57,
				56,
				55,
				54,
				63,
				62,
				61,
				60,
				59
			],
			"name":"Armature"
		}
	],
	"accessors":[
		{
			"bufferView":0,
			"componentType":5126,
			"count":28373,
			"max":[
				0.9025663733482361,
				1.8088833093643188,
				0.17174184322357178
			],
			"min":[
				-0.9025660753250122,
				-0.0003510849201120436,
				-0.14895692467689514
			],
			"type":"VEC3"
		},
		{
			"bufferView":1,
			"componentType":5126,
			"count":28373,
			"type":"VEC3"
		},
		{
			"bufferView":2,
			"componentType":5126,
			"count":28373,
			"type":"VEC2"
		},
		{
			"bufferView":3,
			"componentType":5121,
			"count":28373,
			"type":"VEC4"
		},
		{
			"bufferView":4,
			"componentType":5126,
			"count":28373,
			"type":"VEC4"
		},
		{
			"bufferView":5,
			"componentType":5123,
			"count":147336,
			"type":"SCALAR"
		},
		{
			"bufferView":6,
			"componentType":5126,
			"count":65,
			"type":"MAT4"
		},
		{
			"bufferView":7,
			"componentType":5126,
			"count":51,
			"max":[
				2.0833333333333335
			],
			"min":[
				0
			],
			"type":"SCALAR"
		},
		{
			"bufferView":8,
			"componentType":5126,
			"count":51,
			"type":"VEC3"
		},
		{
			"bufferView":9,
			"componentType":5126,
			"count":51,
			"type":"VEC4"
		},
		{
			"bufferView":10,
			"componentType":5126,
			"count":2,
			"max":[
				2.0833333333333335
			],
			"min":[
				0
			],
			"type":"SCALAR"
		},
		{
			"bufferView":11,
			"componentType":5126,
			"count":2,
			"type":"VEC3"
		},
		{
			"bufferView":12,
			"componentType":5126,
			"count":2,
			"type":"VEC3"
		},
		{
			"bufferView":13,
			"componentType":5126,
			"count":51,
			"type":"VEC4"
		},
		{
			"bufferView":14,
			"componentType":5126,
			"count":2,
			"type":"VEC3"
		},
		{
			"bufferView":15,
			"componentType":5126,
			"count":2,
			"type":"VEC3"
		},
		{
			"bufferView":16,
			"componentType":5126,
			"count":51,
			"type":"VEC4"
		},
		{
			"bufferView":17,
			"componentType":5126,
			"count":2,
			"type":"VEC3"
		},
		{
			"bufferView":18,
			"componentType":5126,
			"count":2,
			"type":"VEC3"
		},
		{
			"bufferView":19,
			"componentType":5126,
			"count":51,
			"type":"VEC4"
		},
		{
			"bufferView":20,
			"componentType":5126,
			"count":2,
			"type":"VEC3"
		},
		{
			"bufferView":21,
			"componentType":5126,
			"count":2,
			"type":"VEC3"
		},
		{
			"bufferView":22,
			"componentType":5126,
			"count":51,
			"type":"VEC4"
		},
		{
			"bufferView":23,
			"componentType":5126,
			"count":2,
			"type":"VEC3"
		},
		{
			"bufferView":24,
			"componentType":5126,
			"count":2,
			"type":"VEC3"
		},
		{
			"bufferView":25,
			"componentType":5126,
			"count":51,
			"type":"VEC4"
		},
		{
			"bufferView":26,
			"componentType":5126,
			"count":2,
			"type":"VEC3"
		},
		{
			"bufferView":27,
			"componentType":5126,
			"count":2,
			"type":"VEC3"
		},
		{
			"bufferView":28,
			"componentType":5126,
			"count":2,
			"type":"VEC4"
		},
		{
			"bufferView":29,
			"componentType":5126,
			"count":2,
			"type":"VEC3"
		},
		{
			"bufferView":30,
			"componentType":5126,
			"count":2,
			"type":"VEC3"
		},
		{
			"bufferView":31,
			"componentType":5126,
			"count":51,
			"type":"VEC4"
		},
		{
			"bufferView":32,
			"componentType":5126,
			"count":2,
			"type":"VEC3"
		},
		{
			"bufferView":33,
			"componentType":5126,
			"count":2,
			"type":"VEC3"
		},
		{
			"bufferView":34,
			"componentType":5126,
			"count":51,
			"type":"VEC4"
		},
		{
			"bufferView":35,
			"componentType":5126,
			"count":2,
			"type":"VEC3"
		},
		{
			"bufferView":36,
			"componentType":5126,
			"count":2,
			"type":"VEC3"
		},
		{
			"bufferView":37,
			"componentType":5126,
			"count":51,
			"type":"VEC4"
		},
		{
			"bufferView":38,
			"componentType":5126,
			"count":2,
			"type":"VEC3"
		},
		{
			"bufferView":39,
			"componentType":5126,
			"count":2,
			"type":"VEC3"
		},
		{
			"bufferView":40,
			"componentType":5126,
			"count":51,
			"type":"VEC4"
		},
		{
			"bufferView":41,
			"componentType":5126,
			"count":2,
			"type":"VEC3"
		},
		{
			"bufferView":42,
			"componentType":5126,
			"count":2,
			"type":"VEC3"
		},
		{
			"bufferView":43,
			"componentType":5126,
			"count":51,
			"type":"VEC4"
		},
		{
			"bufferView":44,
			"componentType":5126,
			"count":2,
			"type":"VEC3"
		},
		{
			"bufferView":45,
			"componentType":5126,
			"count":2,
			"type":"VEC3"
		},
		{
			"bufferView":46,
			"componentType":5126,
			"count":51,
			"type":"VEC4"
		},
		{
			"bufferView":47,
			"componentType":5126,
			"count":2,
			"type":"VEC3"
		},
		{
			"bufferView":48,
			"componentType":5126,
			"count":2,
			"type":"VEC3"
		},
		{
			"bufferView":49,
			"componentType":5126,
			"count":2,
			"type":"VEC4"
		},
		{
			"bufferView":50,
			"componentType":5126,
			"count":2,
			"type":"VEC3"
		},
		{
			"bufferView":51,
			"componentType":5126,
			"count":2,
			"type":"VEC3"
		},
		{
			"bufferView":52,
			"componentType":5126,
			"count":2,
			"type":"VEC4"
		},
		{
			"bufferView":53,
			"componentType":5126,
			"count":2,
			"type":"VEC3"
		},
		{
			"bufferView":54,
			"componentType":5126,
			"count":2,
			"type":"VEC3"
		},
		{
			"bufferView":55,
			"componentType":5126,
			"count":51,
			"type":"VEC4"
		},
		{
			"bufferView":56,
			"componentType":5126,
			"count":2,
			"type":"VEC3"
		},
		{
			"bufferView":57,
			"componentType":5126,
			"count":2,
			"type":"VEC3"
		},
		{
			"bufferView":58,
			"componentType":5126,
			"count":51,
			"type":"VEC4"
		},
		{
			"bufferView":59,
			"componentType":5126,
			"count":2,
			"type":"VEC3"
		},
		{
			"bufferView":60,
			"componentType":5126,
			"count":2,
			"type":"VEC3"
		},
		{
			"bufferView":61,
			"componentType":5126,
			"count":2,
			"type":"VEC4"
		},
		{
			"bufferView":62,
			"componentType":5126,
			"count":2,
			"type":"VEC3"
		},
		{
			"bufferView":63,
			"componentType":5126,
			"count":2,
			"type":"VEC3"
		},
		{
			"bufferView":64,
			"componentType":5126,
			"count":2,
			"type":"VEC4"
		},
		{
			"bufferView":65,
			"componentType":5126,
			"count":2,
			"type":"VEC3"
		},
		{
			"bufferView":66,
			"componentType":5126,
			"count":2,
			"type":"VEC3"
		},
		{
			"bufferView":67,
			"componentType":5126,
			"count":51,
			"type":"VEC4"
		},
		{
			"bufferView":68,
			"componentType":5126,
			"count":2,
			"type":"VEC3"
		},
		{
			"bufferView":69,
			"componentType":5126,
			"count":2,
			"type":"VEC3"
		},
		{
			"bufferView":70,
			"componentType":5126,
			"count":51,
			"type":"VEC4"
		},
		{
			"bufferView":71,
			"componentType":5126,
			"count":2,
			"type":"VEC3"
		},
		{
			"bufferView":72,
			"componentType":5126,
			"count":2,
			"type":"VEC3"
		},
		{
			"bufferView":73,
			"componentType":5126,
			"count":2,
			"type":"VEC4"
		},
		{
			"bufferView":74,
			"componentType":5126,
			"count":2,
			"type":"VEC3"
		},
		{
			"bufferView":75,
			"componentType":5126,
			"count":2,
			"type":"VEC3"
		},
		{
			"bufferView":76,
			"componentType":5126,
			"count":2,
			"type":"VEC4"
		},
		{
			"bufferView":77,
			"componentType":5126,
			"count":2,
			"type":"VEC3"
		},
		{
			"bufferView":78,
			"componentType":5126,
			"count":2,
			"type":"VEC3"
		},
		{
			"bufferView":79,
			"componentType":5126,
			"count":51,
			"type":"VEC4"
		},
		{
			"bufferView":80,
			"componentType":5126,
			"count":2,
			"type":"VEC3"
		},
		{
			"bufferView":81,
			"componentType":5126,
			"count":2,
			"type":"VEC3"
		},
		{
			"bufferView":82,
			"componentType":5126,
			"count":51,
			"type":"VEC4"
		},
		{
			"bufferView":83,
			"componentType":5126,
			"count":2,
			"type":"VEC3"
		},
		{
			"bufferView":84,
			"componentType":5126,
			"count":2,
			"type":"VEC3"
		},
		{
			"bufferView":85,
			"componentType":5126,
			"count":2,
			"type":"VEC4"
		},
		{
			"bufferView":86,
			"componentType":5126,
			"count":2,
			"type":"VEC3"
		},
		{
			"bufferView":87,
			"componentType":5126,
			"count":2,
			"type":"VEC3"
		},
		{
			"bufferView":88,
			"componentType":5126,
			"count":2,
			"type":"VEC4"
		},
		{
			"bufferView":89,
			"componentType":5126,
			"count":2,
			"type":"VEC3"
		},
		{
			"bufferView":90,
			"componentType":5126,
			"count":2,
			"type":"VEC3"
		},
		{
			"bufferView":91,
			"componentType":5126,
			"count":51,
			"type":"VEC4"
		},
		{
			"bufferView":92,
			"componentType":5126,
			"count":2,
			"type":"VEC3"
		},
		{
			"bufferView":93,
			"componentType":5126,
			"count":2,
			"type":"VEC3"
		},
		{
			"bufferView":94,
			"componentType":5126,
			"count":51,
			"type":"VEC4"
		},
		{
			"bufferView":95,
			"componentType":5126,
			"count":2,
			"type":"VEC3"
		},
		{
			"bufferView":96,
			"componentType":5126,
			"count":2,
			"type":"VEC3"
		},
		{
			"bufferView":97,
			"componentType":5126,
			"count":2,
			"type":"VEC4"
		},
		{
			"bufferView":98,
			"componentType":5126,
			"count":2,
			"type":"VEC3"
		},
		{
			"bufferView":99,
			"componentType":5126,
			"count":2,
			"type":"VEC3"
		},
		{
			"bufferView":100,
			"componentType":5126,
			"count":2,
			"type":"VEC4"
		},
		{
			"bufferView":101,
			"componentType":5126,
			"count":2,
			"type":"VEC3"
		},
		{
			"bufferView":102,
			"componentType":5126,
			"count":2,
			"type":"VEC3"
		},
		{
			"bufferView":103,
			"componentType":5126,
			"count":51,
			"type":"VEC4"
		},
		{
			"bufferView":104,
			"componentType":5126,
			"count":2,
			"type":"VEC3"
		},
		{
			"bufferView":105,
			"componentType":5126,
			"count":2,
			"type":"VEC3"
		},
		{
			"bufferView":106,
			"componentType":5126,
			"count":51,
			"type":"VEC4"
		},
		{
			"bufferView":107,
			"componentType":5126,
			"count":2,
			"type":"VEC3"
		},
		{
			"bufferView":108,
			"componentType":5126,
			"count":2,
			"type":"VEC3"
		},
		{
			"bufferView":109,
			"componentType":5126,
			"count":51,
			"type":"VEC4"
		},
		{
			"bufferView":110,
			"componentType":5126,
			"count":2,
			"type":"VEC3"
		},
		{
			"bufferView":111,
			"componentType":5126,
			"count":2,
			"type":"VEC3"
		},
		{
			"bufferView":112,
			"componentType":5126,
			"count":51,
			"type":"VEC4"
		},
		{
			"bufferView":113,
			"componentType":5126,
			"count":2,
			"type":"VEC3"
		},
		{
			"bufferView":114,
			"componentType":5126,
			"count":2,
			"type":"VEC3"
		},
		{
			"bufferView":115,
			"componentType":5126,
			"count":51,
			"type":"VEC4"
		},
		{
			"bufferView":116,
			"componentType":5126,
			"count":2,
			"type":"VEC3"
		},
		{
			"bufferView":117,
			"componentType":5126,
			"count":2,
			"type":"VEC3"
		},
		{
			"bufferView":118,
			"componentType":5126,
			"count":51,
			"type":"VEC4"
		},
		{
			"bufferView":119,
			"componentType":5126,
			"count":2,
			"type":"VEC3"
		},
		{
			"bufferView":120,
			"componentType":5126,
			"count":2,
			"type":"VEC3"
		},
		{
			"bufferView":121,
			"componentType":5126,
			"count":2,
			"type":"VEC4"
		},
		{
			"bufferView":122,
			"componentType":5126,
			"count":2,
			"type":"VEC3"
		},
		{
			"bufferView":123,
			"componentType":5126,
			"count":2,
			"type":"VEC3"
		},
		{
			"bufferView":124,
			"componentType":5126,
			"count":2,
			"type":"VEC4"
		},
		{
			"bufferView":125,
			"componentType":5126,
			"count":2,
			"type":"VEC3"
		},
		{
			"bufferView":126,
			"componentType":5126,
			"count":2,
			"type":"VEC3"
		},
		{
			"bufferView":127,
			"componentType":5126,
			"count":51,
			"type":"VEC4"
		},
		{
			"bufferView":128,
			"componentType":5126,
			"count":2,
			"type":"VEC3"
		},
		{
			"bufferView":129,
			"componentType":5126,
			"count":2,
			"type":"VEC3"
		},
		{
			"bufferView":130,
			"componentType":5126,
			"count":51,
			"type":"VEC4"
		},
		{
			"bufferView":131,
			"componentType":5126,
			"count":2,
			"type":"VEC3"
		},
		{
			"bufferView":132,
			"componentType":5126,
			"count":2,
			"type":"VEC3"
		},
		{
			"bufferView":133,
			"componentType":5126,
			"count":2,
			"type":"VEC4"
		},
		{
			"bufferView":134,
			"componentType":5126,
			"count":2,
			"type":"VEC3"
		},
		{
			"bufferView":135,
			"componentType":5126,
			"count":2,
			"type":"VEC3"
		},
		{
			"bufferView":136,
			"componentType":5126,
			"count":2,
			"type":"VEC4"
		},
		{
			"bufferView":137,
			"componentType":5126,
			"count":2,
			"type":"VEC3"
		},
		{
			"bufferView":138,
			"componentType":5126,
			"count":2,
			"type":"VEC3"
		},
		{
			"bufferView":139,
			"componentType":5126,
			"count":51,
			"type":"VEC4"
		},
		{
			"bufferView":140,
			"componentType":5126,
			"count":2,
			"type":"VEC3"
		},
		{
			"bufferView":141,
			"componentType":5126,
			"count":2,
			"type":"VEC3"
		},
		{
			"bufferView":142,
			"componentType":5126,
			"count":51,
			"type":"VEC4"
		},
		{
			"bufferView":143,
			"componentType":5126,
			"count":2,
			"type":"VEC3"
		},
		{
			"bufferView":144,
			"componentType":5126,
			"count":2,
			"type":"VEC3"
		},
		{
			"bufferView":145,
			"componentType":5126,
			"count":2,
			"type":"VEC4"
		},
		{
			"bufferView":146,
			"componentType":5126,
			"count":2,
			"type":"VEC3"
		},
		{
			"bufferView":147,
			"componentType":5126,
			"count":2,
			"type":"VEC3"
		},
		{
			"bufferView":148,
			"componentType":5126,
			"count":2,
			"type":"VEC4"
		},
		{
			"bufferView":149,
			"componentType":5126,
			"count":2,
			"type":"VEC3"
		},
		{
			"bufferView":150,
			"componentType":5126,
			"count":2,
			"type":"VEC3"
		},
		{
			"bufferView":151,
			"componentType":5126,
			"count":51,
			"type":"VEC4"
		},
		{
			"bufferView":152,
			"componentType":5126,
			"count":2,
			"type":"VEC3"
		},
		{
			"bufferView":153,
			"componentType":5126,
			"count":2,
			"type":"VEC3"
		},
		{
			"bufferView":154,
			"componentType":5126,
			"count":51,
			"type":"VEC4"
		},
		{
			"bufferView":155,
			"componentType":5126,
			"count":2,
			"type":"VEC3"
		},
		{
			"bufferView":156,
			"componentType":5126,
			"count":2,
			"type":"VEC3"
		},
		{
			"bufferView":157,
			"componentType":5126,
			"count":2,
			"type":"VEC4"
		},
		{
			"bufferView":158,
			"componentType":5126,
			"count":2,
			"type":"VEC3"
		},
		{
			"bufferView":159,
			"componentType":5126,
			"count":2,
			"type":"VEC3"
		},
		{
			"bufferView":160,
			"componentType":5126,
			"count":2,
			"type":"VEC4"
		},
		{
			"bufferView":161,
			"componentType":5126,
			"count":2,
			"type":"VEC3"
		},
		{
			"bufferView":162,
			"componentType":5126,
			"count":2,
			"type":"VEC3"
		},
		{
			"bufferView":163,
			"componentType":5126,
			"count":51,
			"type":"VEC4"
		},
		{
			"bufferView":164,
			"componentType":5126,
			"count":2,
			"type":"VEC3"
		},
		{
			"bufferView":165,
			"componentType":5126,
			"count":2,
			"type":"VEC3"
		},
		{
			"bufferView":166,
			"componentType":5126,
			"count":51,
			"type":"VEC4"
		},
		{
			"bufferView":167,
			"componentType":5126,
			"count":2,
			"type":"VEC3"
		},
		{
			"bufferView":168,
			"componentType":5126,
			"count":2,
			"type":"VEC3"
		},
		{
			"bufferView":169,
			"componentType":5126,
			"count":2,
			"type":"VEC4"
		},
		{
			"bufferView":170,
			"componentType":5126,
			"count":2,
			"type":"VEC3"
		},
		{
			"bufferView":171,
			"componentType":5126,
			"count":2,
			"type":"VEC3"
		},
		{
			"bufferView":172,
			"componentType":5126,
			"count":2,
			"type":"VEC4"
		},
		{
			"bufferView":173,
			"componentType":5126,
			"count":2,
			"type":"VEC3"
		},
		{
			"bufferView":174,
			"componentType":5126,
			"count":2,
			"type":"VEC3"
		},
		{
			"bufferView":175,
			"componentType":5126,
			"count":51,
			"type":"VEC4"
		},
		{
			"bufferView":176,
			"componentType":5126,
			"count":2,
			"type":"VEC3"
		},
		{
			"bufferView":177,
			"componentType":5126,
			"count":2,
			"type":"VEC3"
		},
		{
			"bufferView":178,
			"componentType":5126,
			"count":51,
			"type":"VEC4"
		},
		{
			"bufferView":179,
			"componentType":5126,
			"count":2,
			"type":"VEC3"
		},
		{
			"bufferView":180,
			"componentType":5126,
			"count":2,
			"type":"VEC3"
		},
		{
			"bufferView":181,
			"componentType":5126,
			"count":51,
			"type":"VEC4"
		},
		{
			"bufferView":182,
			"componentType":5126,
			"count":2,
			"type":"VEC3"
		},
		{
			"bufferView":183,
			"componentType":5126,
			"count":2,
			"type":"VEC3"
		},
		{
			"bufferView":184,
			"componentType":5126,
			"count":51,
			"type":"VEC4"
		},
		{
			"bufferView":185,
			"componentType":5126,
			"count":2,
			"type":"VEC3"
		},
		{
			"bufferView":186,
			"componentType":5126,
			"count":2,
			"type":"VEC3"
		},
		{
			"bufferView":187,
			"componentType":5126,
			"count":2,
			"type":"VEC4"
		},
		{
			"bufferView":188,
			"componentType":5126,
			"count":2,
			"type":"VEC3"
		},
		{
			"bufferView":189,
			"componentType":5126,
			"count":2,
			"type":"VEC3"
		},
		{
			"bufferView":190,
			"componentType":5126,
			"count":51,
			"type":"VEC4"
		},
		{
			"bufferView":191,
			"componentType":5126,
			"count":2,
			"type":"VEC3"
		},
		{
			"bufferView":192,
			"componentType":5126,
			"count":2,
			"type":"VEC3"
		},
		{
			"bufferView":193,
			"componentType":5126,
			"count":51,
			"type":"VEC4"
		},
		{
			"bufferView":194,
			"componentType":5126,
			"count":2,
			"type":"VEC3"
		},
		{
			"bufferView":195,
			"componentType":5126,
			"count":2,
			"type":"VEC3"
		},
		{
			"bufferView":196,
			"componentType":5126,
			"count":51,
			"type":"VEC4"
		},
		{
			"bufferView":197,
			"componentType":5126,
			"count":2,
			"type":"VEC3"
		},
		{
			"bufferView":198,
			"componentType":5126,
			"count":2,
			"type":"VEC3"
		},
		{
			"bufferView":199,
			"componentType":5126,
			"count":51,
			"type":"VEC4"
		},
		{
			"bufferView":200,
			"componentType":5126,
			"count":2,
			"type":"VEC3"
		},
		{
			"bufferView":201,
			"componentType":5126,
			"count":2,
			"type":"VEC3"
		},
		{
			"bufferView":202,
			"componentType":5126,
			"count":2,
			"type":"VEC4"
		},
		{
			"bufferView":203,
			"componentType":5126,
			"count":2,
			"type":"VEC3"
		}
	],
	"bufferViews":[
		{
			"buffer":0,
			"byteLength":340476,
			"byteOffset":0,
			"target":34962
		},
		{
			"buffer":0,
			"byteLength":340476,
			"byteOffset":340476,
			"target":34962
		},
		{
			"buffer":0,
			"byteLength":226984,
			"byteOffset":680952,
			"target":34962
		},
		{
			"buffer":0,
			"byteLength":113492,
			"byteOffset":907936,
			"target":34962
		},
		{
			"buffer":0,
			"byteLength":453968,
			"byteOffset":1021428,
			"target":34962
		},
		{
			"buffer":0,
			"byteLength":294672,
			"byteOffset":1475396,
			"target":34963
		},
		{
			"buffer":0,
			"byteLength":4160,
			"byteOffset":1770068
		},
		{
			"buffer":0,
			"byteLength":204,
			"byteOffset":1774228
		},
		{
			"buffer":0,
			"byteLength":612,
			"byteOffset":1774432
		},
		{
			"buffer":0,
			"byteLength":816,
			"byteOffset":1775044
		},
		{
			"buffer":0,
			"byteLength":8,
			"byteOffset":1775860
		},
		{
			"buffer":0,
			"byteLength":24,
			"byteOffset":1775868
		},
		{
			"buffer":0,
			"byteLength":24,
			"byteOffset":1775892
		},
		{
			"buffer":0,
			"byteLength":816,
			"byteOffset":1775916
		},
		{
			"buffer":0,
			"byteLength":24,
			"byteOffset":1776732
		},
		{
			"buffer":0,
			"byteLength":24,
			"byteOffset":1776756
		},
		{
			"buffer":0,
			"byteLength":816,
			"byteOffset":1776780
		},
		{
			"buffer":0,
			"byteLength":24,
			"byteOffset":1777596
		},
		{
			"buffer":0,
			"byteLength":24,
			"byteOffset":1777620
		},
		{
			"buffer":0,
			"byteLength":816,
			"byteOffset":1777644
		},
		{
			"buffer":0,
			"byteLength":24,
			"byteOffset":1778460
		},
		{
			"buffer":0,
			"byteLength":24,
			"byteOffset":1778484
		},
		{
			"buffer":0,
			"byteLength":816,
			"byteOffset":1778508
		},
		{
			"buffer":0,
			"byteLength":24,
			"byteOffset":1779324
		},
		{
			"buffer":0,
			"byteLength":24,
			"byteOffset":1779348
		},
		{
			"buffer":0,
			"byteLength":816,
			"byteOffset":1779372
		},
		{
			"buffer":0,
			"byteLength":24,
			"byteOffset":1780188
		},
		{
			"buffer":0,
			"byteLength":24,
			"byteOffset":1780212
		},
		{
			"buffer":0,
			"byteLength":32,
			"byteOffset":1780236
		},
		{
			"buffer":0,
			"byteLength":24,
			"byteOffset":1780268
		},
		{
			"buffer":0,
			"byteLength":24,
			"byteOffset":1780292
		},
		{
			"buffer":0,
			"byteLength":816,
			"byteOffset":1780316
		},
		{
			"buffer":0,
			"byteLength":24,
			"byteOffset":1781132
		},
		{
			"buffer":0,
			"byteLength":24,
			"byteOffset":1781156
		},
		{
			"buffer":0,
			"byteLength":816,
			"byteOffset":1781180
		},
		{
			"buffer":0,
			"byteLength":24,
			"byteOffset":1781996
		},
		{
			"buffer":0,
			"byteLength":24,
			"byteOffset":1782020
		},
		{
			"buffer":0,
			"byteLength":816,
			"byteOffset":1782044
		},
		{
			"buffer":0,
			"byteLength":24,
			"byteOffset":1782860
		},
		{
			"buffer":0,
			"byteLength":24,
			"byteOffset":1782884
		},
		{
			"buffer":0,
			"byteLength":816,
			"byteOffset":1782908
		},
		{
			"buffer":0,
			"byteLength":24,
			"byteOffset":1783724
		},
		{
			"buffer":0,
			"byteLength":24,
			"byteOffset":1783748
		},
		{
			"buffer":0,
			"byteLength":816,
			"byteOffset":1783772
		},
		{
			"buffer":0,
			"byteLength":24,
			"byteOffset":1784588
		},
		{
			"buffer":0,
			"byteLength":24,
			"byteOffset":1784612
		},
		{
			"buffer":0,
			"byteLength":816,
			"byteOffset":1784636
		},
		{
			"buffer":0,
			"byteLength":24,
			"byteOffset":1785452
		},
		{
			"buffer":0,
			"byteLength":24,
			"byteOffset":1785476
		},
		{
			"buffer":0,
			"byteLength":32,
			"byteOffset":1785500
		},
		{
			"buffer":0,
			"byteLength":24,
			"byteOffset":1785532
		},
		{
			"buffer":0,
			"byteLength":24,
			"byteOffset":1785556
		},
		{
			"buffer":0,
			"byteLength":32,
			"byteOffset":1785580
		},
		{
			"buffer":0,
			"byteLength":24,
			"byteOffset":1785612
		},
		{
			"buffer":0,
			"byteLength":24,
			"byteOffset":1785636
		},
		{
			"buffer":0,
			"byteLength":816,
			"byteOffset":1785660
		},
		{
			"buffer":0,
			"byteLength":24,
			"byteOffset":1786476
		},
		{
			"buffer":0,
			"byteLength":24,
			"byteOffset":1786500
		},
		{
			"buffer":0,
			"byteLength":816,
			"byteOffset":1786524
		},
		{
			"buffer":0,
			"byteLength":24,
			"byteOffset":1787340
		},
		{
			"buffer":0,
			"byteLength":24,
			"byteOffset":1787364
		},
		{
			"buffer":0,
			"byteLength":32,
			"byteOffset":1787388
		},
		{
			"buffer":0,
			"byteLength":24,
			"byteOffset":1787420
		},
		{
			"buffer":0,
			"byteLength":24,
			"byteOffset":1787444
		},
		{
			"buffer":0,
			"byteLength":32,
			"byteOffset":1787468
		},
		{
			"buffer":0,
			"byteLength":24,
			"byteOffset":1787500
		},
		{
			"buffer":0,
			"byteLength":24,
			"byteOffset":1787524
		},
		{
			"buffer":0,
			"byteLength":816,
			"byteOffset":1787548
		},
		{
			"buffer":0,
			"byteLength":24,
			"byteOffset":1788364
		},
		{
			"buffer":0,
			"byteLength":24,
			"byteOffset":1788388
		},
		{
			"buffer":0,
			"byteLength":816,
			"byteOffset":1788412
		},
		{
			"buffer":0,
			"byteLength":24,
			"byteOffset":1789228
		},
		{
			"buffer":0,
			"byteLength":24,
			"byteOffset":1789252
		},
		{
			"buffer":0,
			"byteLength":32,
			"byteOffset":1789276
		},
		{
			"buffer":0,
			"byteLength":24,
			"byteOffset":1789308
		},
		{
			"buffer":0,
			"byteLength":24,
			"byteOffset":1789332
		},
		{
			"buffer":0,
			"byteLength":32,
			"byteOffset":1789356
		},
		{
			"buffer":0,
			"byteLength":24,
			"byteOffset":1789388
		},
		{
			"buffer":0,
			"byteLength":24,
			"byteOffset":1789412
		},
		{
			"buffer":0,
			"byteLength":816,
			"byteOffset":1789436
		},
		{
			"buffer":0,
			"byteLength":24,
			"byteOffset":1790252
		},
		{
			"buffer":0,
			"byteLength":24,
			"byteOffset":1790276
		},
		{
			"buffer":0,
			"byteLength":816,
			"byteOffset":1790300
		},
		{
			"buffer":0,
			"byteLength":24,
			"byteOffset":1791116
		},
		{
			"buffer":0,
			"byteLength":24,
			"byteOffset":1791140
		},
		{
			"buffer":0,
			"byteLength":32,
			"byteOffset":1791164
		},
		{
			"buffer":0,
			"byteLength":24,
			"byteOffset":1791196
		},
		{
			"buffer":0,
			"byteLength":24,
			"byteOffset":1791220
		},
		{
			"buffer":0,
			"byteLength":32,
			"byteOffset":1791244
		},
		{
			"buffer":0,
			"byteLength":24,
			"byteOffset":1791276
		},
		{
			"buffer":0,
			"byteLength":24,
			"byteOffset":1791300
		},
		{
			"buffer":0,
			"byteLength":816,
			"byteOffset":1791324
		},
		{
			"buffer":0,
			"byteLength":24,
			"byteOffset":1792140
		},
		{
			"buffer":0,
			"byteLength":24,
			"byteOffset":1792164
		},
		{
			"buffer":0,
			"byteLength":816,
			"byteOffset":1792188
		},
		{
			"buffer":0,
			"byteLength":24,
			"byteOffset":1793004
		},
		{
			"buffer":0,
			"byteLength":24,
			"byteOffset":1793028
		},
		{
			"buffer":0,
			"byteLength":32,
			"byteOffset":1793052
		},
		{
			"buffer":0,
			"byteLength":24,
			"byteOffset":1793084
		},
		{
			"buffer":0,
			"byteLength":24,
			"byteOffset":1793108
		},
		{
			"buffer":0,
			"byteLength":32,
			"byteOffset":1793132
		},
		{
			"buffer":0,
			"byteLength":24,
			"byteOffset":1793164
		},
		{
			"buffer":0,
			"byteLength":24,
			"byteOffset":1793188
		},
		{
			"buffer":0,
			"byteLength":816,
			"byteOffset":1793212
		},
		{
			"buffer":0,
			"byteLength":24,
			"byteOffset":1794028
		},
		{
			"buffer":0,
			"byteLength":24,
			"byteOffset":1794052
		},
		{
			"buffer":0,
			"byteLength":816,
			"byteOffset":1794076
		},
		{
			"buffer":0,
			"byteLength":24,
			"byteOffset":1794892
		},
		{
			"buffer":0,
			"byteLength":24,
			"byteOffset":1794916
		},
		{
			"buffer":0,
			"byteLength":816,
			"byteOffset":1794940
		},
		{
			"buffer":0,
			"byteLength":24,
			"byteOffset":1795756
		},
		{
			"buffer":0,
			"byteLength":24,
			"byteOffset":1795780
		},
		{
			"buffer":0,
			"byteLength":816,
			"byteOffset":1795804
		},
		{
			"buffer":0,
			"byteLength":24,
			"byteOffset":1796620
		},
		{
			"buffer":0,
			"byteLength":24,
			"byteOffset":1796644
		},
		{
			"buffer":0,
			"byteLength":816,
			"byteOffset":1796668
		},
		{
			"buffer":0,
			"byteLength":24,
			"byteOffset":1797484
		},
		{
			"buffer":0,
			"byteLength":24,
			"byteOffset":1797508
		},
		{
			"buffer":0,
			"byteLength":816,
			"byteOffset":1797532
		},
		{
			"buffer":0,
			"byteLength":24,
			"byteOffset":1798348
		},
		{
			"buffer":0,
			"byteLength":24,
			"byteOffset":1798372
		},
		{
			"buffer":0,
			"byteLength":32,
			"byteOffset":1798396
		},
		{
			"buffer":0,
			"byteLength":24,
			"byteOffset":1798428
		},
		{
			"buffer":0,
			"byteLength":24,
			"byteOffset":1798452
		},
		{
			"buffer":0,
			"byteLength":32,
			"byteOffset":1798476
		},
		{
			"buffer":0,
			"byteLength":24,
			"byteOffset":1798508
		},
		{
			"buffer":0,
			"byteLength":24,
			"byteOffset":1798532
		},
		{
			"buffer":0,
			"byteLength":816,
			"byteOffset":1798556
		},
		{
			"buffer":0,
			"byteLength":24,
			"byteOffset":1799372
		},
		{
			"buffer":0,
			"byteLength":24,
			"byteOffset":1799396
		},
		{
			"buffer":0,
			"byteLength":816,
			"byteOffset":1799420
		},
		{
			"buffer":0,
			"byteLength":24,
			"byteOffset":1800236
		},
		{
			"buffer":0,
			"byteLength":24,
			"byteOffset":1800260
		},
		{
			"buffer":0,
			"byteLength":32,
			"byteOffset":1800284
		},
		{
			"buffer":0,
			"byteLength":24,
			"byteOffset":1800316
		},
		{
			"buffer":0,
			"byteLength":24,
			"byteOffset":1800340
		},
		{
			"buffer":0,
			"byteLength":32,
			"byteOffset":1800364
		},
		{
			"buffer":0,
			"byteLength":24,
			"byteOffset":1800396
		},
		{
			"buffer":0,
			"byteLength":24,
			"byteOffset":1800420
		},
		{
			"buffer":0,
			"byteLength":816,
			"byteOffset":1800444
		},
		{
			"buffer":0,
			"byteLength":24,
			"byteOffset":1801260
		},
		{
			"buffer":0,
			"byteLength":24,
			"byteOffset":1801284
		},
		{
			"buffer":0,
			"byteLength":816,
			"byteOffset":1801308
		},
		{
			"buffer":0,
			"byteLength":24,
			"byteOffset":1802124
		},
		{
			"buffer":0,
			"byteLength":24,
			"byteOffset":1802148
		},
		{
			"buffer":0,
			"byteLength":32,
			"byteOffset":1802172
		},
		{
			"buffer":0,
			"byteLength":24,
			"byteOffset":1802204
		},
		{
			"buffer":0,
			"byteLength":24,
			"byteOffset":1802228
		},
		{
			"buffer":0,
			"byteLength":32,
			"byteOffset":1802252
		},
		{
			"buffer":0,
			"byteLength":24,
			"byteOffset":1802284
		},
		{
			"buffer":0,
			"byteLength":24,
			"byteOffset":1802308
		},
		{
			"buffer":0,
			"byteLength":816,
			"byteOffset":1802332
		},
		{
			"buffer":0,
			"byteLength":24,
			"byteOffset":1803148
		},
		{
			"buffer":0,
			"byteLength":24,
			"byteOffset":1803172
		},
		{
			"buffer":0,
			"byteLength":816,
			"byteOffset":1803196
		},
		{
			"buffer":0,
			"byteLength":24,
			"byteOffset":1804012
		},
		{
			"buffer":0,
			"byteLength":24,
			"byteOffset":1804036
		},
		{
			"buffer":0,
			"byteLength":32,
			"byteOffset":1804060
		},
		{
			"buffer":0,
			"byteLength":24,
			"byteOffset":1804092
		},
		{
			"buffer":0,
			"byteLength":24,
			"byteOffset":1804116
		},
		{
			"buffer":0,
			"byteLength":32,
			"byteOffset":1804140
		},
		{
			"buffer":0,
			"byteLength":24,
			"byteOffset":1804172
		},
		{
			"buffer":0,
			"byteLength":24,
			"byteOffset":1804196
		},
		{
			"buffer":0,
			"byteLength":816,
			"byteOffset":1804220
		},
		{
			"buffer":0,
			"byteLength":24,
			"byteOffset":1805036
		},
		{
			"buffer":0,
			"byteLength":24,
			"byteOffset":1805060
		},
		{
			"buffer":0,
			"byteLength":816,
			"byteOffset":1805084
		},
		{
			"buffer":0,
			"byteLength":24,
			"byteOffset":1805900
		},
		{
			"buffer":0,
			"byteLength":24,
			"byteOffset":1805924
		},
		{
			"buffer":0,
			"byteLength":32,
			"byteOffset":1805948
		},
		{
			"buffer":0,
			"byteLength":24,
			"byteOffset":1805980
		},
		{
			"buffer":0,
			"byteLength":24,
			"byteOffset":1806004
		},
		{
			"buffer":0,
			"byteLength":32,
			"byteOffset":1806028
		},
		{
			"buffer":0,
			"byteLength":24,
			"byteOffset":1806060
		},
		{
			"buffer":0,
			"byteLength":24,
			"byteOffset":1806084
		},
		{
			"buffer":0,
			"byteLength":816,
			"byteOffset":1806108
		},
		{
			"buffer":0,
			"byteLength":24,
			"byteOffset":1806924
		},
		{
			"buffer":0,
			"byteLength":24,
			"byteOffset":1806948
		},
		{
			"buffer":0,
			"byteLength":816,
			"byteOffset":1806972
		},
		{
			"buffer":0,
			"byteLength":24,
			"byteOffset":1807788
		},
		{
			"buffer":0,
			"byteLength":24,
			"byteOffset":1807812
		},
		{
			"buffer":0,
			"byteLength":816,
			"byteOffset":1807836
		},
		{
			"buffer":0,
			"byteLength":24,
			"byteOffset":1808652
		},
		{
			"buffer":0,
			"byteLength":24,
			"byteOffset":1808676
		},
		{
			"buffer":0,
			"byteLength":816,
			"byteOffset":1808700
		},
		{
			"buffer":0,
			"byteLength":24,
			"byteOffset":1809516
		},
		{
			"buffer":0,
			"byteLength":24,
			"byteOffset":1809540
		},
		{
			"buffer":0,
			"byteLength":32,
			"byteOffset":1809564
		},
		{
			"buffer":0,
			"byteLength":24,
			"byteOffset":1809596
		},
		{
			"buffer":0,
			"byteLength":24,
			"byteOffset":1809620
		},
		{
			"buffer":0,
			"byteLength":816,
			"byteOffset":1809644
		},
		{
			"buffer":0,
			"byteLength":24,
			"byteOffset":1810460
		},
		{
			"buffer":0,
			"byteLength":24,
			"byteOffset":1810484
		},
		{
			"buffer":0,
			"byteLength":816,
			"byteOffset":1810508
		},
		{
			"buffer":0,
			"byteLength":24,
			"byteOffset":1811324
		},
		{
			"buffer":0,
			"byteLength":24,
			"byteOffset":1811348
		},
		{
			"buffer":0,
			"byteLength":816,
			"byteOffset":1811372
		},
		{
			"buffer":0,
			"byteLength":24,
			"byteOffset":1812188
		},
		{
			"buffer":0,
			"byteLength":24,
			"byteOffset":1812212
		},
		{
			"buffer":0,
			"byteLength":816,
			"byteOffset":1812236
		},
		{
			"buffer":0,
			"byteLength":24,
			"byteOffset":1813052
		},
		{
			"buffer":0,
			"byteLength":24,
			"byteOffset":1813076
		},
		{
			"buffer":0,
			"byteLength":32,
			"byteOffset":1813100
		},
		{
			"buffer":0,
			"byteLength":24,
			"byteOffset":1813132
		}
	],
	"samplers":[
		{
			"magFilter":9729,
			"minFilter":9987
		}
	],
	"buffers":[
		{
			"byteLength":1813156,
			"uri":"iku.bin"
		}
	]
}
