# Blender 3.6.0
# www.blender.org
mtllib leftNeedle.mtl
o プレイヤー(糸針)
v 0.079999 0.030033 -1.919830
v 0.079999 0.080000 -1.444847
v 0.079999 0.000000 -1.919830
v -0.000001 0.080000 -1.744847
v -0.080000 0.030033 -1.919830
v -0.000001 0.080000 -1.244847
v -0.080000 0.000000 -1.244847
v -0.000000 0.080000 1.755153
v 0.079999 0.000000 -1.244847
v -0.080000 0.080000 -1.444847
v -0.000001 -0.080000 -1.244847
v 0.080000 -0.000000 1.755153
v 0.079999 -0.080000 -1.444847
v 0.079999 -0.030033 -1.919830
v -0.000001 -0.080000 -1.744847
v -0.080000 -0.030033 -1.919830
v -0.080000 0.000000 -1.919830
v -0.080000 -0.080000 -1.444847
v -0.000000 -0.080000 1.755153
v -0.000000 -0.000000 3.755153
v -0.080000 -0.000000 1.755153
v 0.079999 0.000000 -2.169863
v 0.079999 0.030033 -2.169863
v -0.000001 0.035685 -2.344847
v -0.080000 0.030033 -2.169863
v -0.000001 -0.035684 -2.344847
v 0.079999 -0.030033 -2.169863
v -0.080000 -0.030033 -2.169863
v -0.080000 0.000000 -2.169863
v 0.079999 0.000000 -1.744847
v 0.079999 0.080000 -1.744847
v 0.079999 -0.080000 -1.744847
v -0.080000 -0.080000 -1.744847
v -0.035685 -0.035684 -2.344847
v -0.080000 0.000000 -1.744847
v -0.080000 0.080000 -1.744847
v 0.035684 0.035685 -2.344847
v 0.035684 0.000000 -2.344847
v 0.035684 -0.035684 -2.344847
v -0.035685 0.000000 -2.344847
v -0.035685 0.035685 -2.344847
v 0.079999 0.000000 -2.344847
v 0.079999 0.080000 -2.344847
v -0.000001 0.080000 -2.344847
v -0.080001 0.080000 -2.344847
v -0.000001 -0.080000 -2.344847
v 0.079999 -0.080000 -2.344847
v -0.080001 -0.080000 -2.344847
v -0.080001 0.000000 -2.344847
vn 1.0000 -0.0000 -0.0000
vn -0.0000 1.0000 -0.0000
vn -0.0000 -1.0000 -0.0000
vn -0.7071 0.7071 -0.0000
vn -0.6804 0.6804 0.2722
vn 0.7071 0.7071 -0.0000
vn 0.6804 0.6804 0.2722
vn -1.0000 -0.0000 -0.0000
vn 0.6804 -0.6804 0.2722
vn 0.7071 -0.7071 -0.0000
vn -0.6804 -0.6804 0.2722
vn 0.7068 -0.7068 0.0283
vn 0.7068 0.7068 0.0283
vn -0.7068 -0.7068 0.0283
vn -0.7068 0.7068 0.0283
vn -0.7071 -0.7071 -0.0000
vn -0.0000 -0.0000 1.0000
vn -0.0000 -0.0000 -1.0000
vt 0.625000 0.875000
vt 0.500000 1.000000
vt 0.500000 0.875000
vt 0.500000 0.000000
vt 0.625000 0.125000
vt 0.500000 0.125000
vt 0.500000 0.250000
vt 0.625000 0.625000
vt 0.625000 0.750000
vt 0.000000 0.000000
vt 0.375000 0.125000
vt 0.500000 0.375000
vt 0.625000 0.375000
vt 0.500000 0.625000
vt 0.500000 0.750000
vt 0.375000 0.625000
vt 0.625000 0.500000
vt 0.500000 0.500000
vt 0.625000 0.000000
vt 0.250000 0.625000
vt 0.250000 0.500000
vt 0.625000 0.250000
vt 0.625000 0.828073
vt 0.625000 0.875000
vt 0.625000 0.375000
vt 0.625000 0.921927
vt 0.625000 0.421927
vt 0.625000 0.328073
vt 0.625000 1.000000
vt 0.625000 0.421927
vt 0.625000 0.328073
vt 0.805757 0.625000
vt 0.694243 0.625000
vt 0.750000 0.569243
vt 0.805757 0.680757
vt 0.750000 0.750000
vt 0.750000 0.680757
vt 0.875000 0.625000
vt 0.875000 0.750000
vt 0.805757 0.569243
vt 0.694243 0.680757
vt 0.694243 0.569243
vt 0.750000 0.500000
vt 0.875000 0.500000
s 0
usemtl マテリアル.004
f 30/1/1 2/2/1 9/3/1
f 2/4/2 4/5/2 6/6/2
f 4/5/2 10/7/2 6/6/2
f 15/8/3 47/9/3 32/9/3
f 7/10/4 8/11/4 6/6/4
f 7/12/5 6/6/5 10/7/5
f 12/10/6 6/6/6 8/10/6
f 6/6/7 9/3/7 2/4/7
f 10/7/8 35/13/8 7/12/8
f 9/3/9 11/14/9 13/15/9
f 9/3/10 19/16/10 11/14/10
f 13/15/1 30/1/1 9/3/1
f 15/8/3 13/15/3 11/14/3
f 15/8/3 48/17/3 46/8/3
f 18/18/3 15/8/3 11/14/3
f 31/19/2 44/5/2 4/5/2
f 35/13/8 18/18/8 7/12/8
f 11/14/11 7/12/11 18/18/11
f 19/16/12 12/10/12 20/20/12
f 12/10/13 8/10/13 20/20/13
f 20/20/14 21/21/14 19/16/14
f 20/20/15 8/10/15 21/21/15
f 11/14/16 21/21/16 7/10/16
f 4/5/2 45/22/2 36/22/2
f 22/1/17 29/13/17 27/23/17
f 3/24/18 17/25/18 1/26/18
f 1/26/1 30/1/1 3/24/1
f 14/23/1 30/1/1 32/9/1
f 16/27/8 48/17/8 33/17/8
f 16/27/8 35/13/8 17/25/8
f 5/28/8 35/13/8 36/22/8
f 23/26/1 31/29/1 1/26/1
f 23/26/1 42/1/1 43/29/1
f 27/23/1 42/1/1 22/1/1
f 28/30/8 49/13/8 48/17/8
f 25/31/8 49/13/8 29/13/8
f 14/23/1 47/9/1 27/23/1
f 25/31/8 36/22/8 45/22/8
f 16/27/2 27/23/2 28/30/2
f 23/26/3 5/28/3 25/31/3
f 24/32/18 26/33/18 40/34/18
f 37/35/18 42/36/18 38/37/18
f 37/35/18 44/38/18 43/39/18
f 41/40/18 44/38/18 24/32/18
f 39/41/18 46/8/18 26/33/18
f 39/41/18 42/36/18 47/9/18
f 34/42/18 46/8/18 48/17/18
f 34/42/18 49/43/18 40/34/18
f 41/40/18 49/43/18 45/44/18
f 30/1/1 31/29/1 2/2/1
f 2/4/2 31/19/2 4/5/2
f 4/5/2 36/22/2 10/7/2
f 15/8/3 46/8/3 47/9/3
f 7/10/4 21/21/4 8/11/4
f 12/10/6 9/3/6 6/6/6
f 10/7/8 36/22/8 35/13/8
f 9/3/10 12/10/10 19/16/10
f 13/15/1 32/9/1 30/1/1
f 15/8/3 32/9/3 13/15/3
f 15/8/3 33/17/3 48/17/3
f 18/18/3 33/17/3 15/8/3
f 31/19/2 43/19/2 44/5/2
f 35/13/8 33/17/8 18/18/8
f 11/14/16 19/16/16 21/21/16
f 4/5/2 44/5/2 45/22/2
f 22/1/17 23/26/17 25/31/17
f 29/13/17 28/30/17 27/23/17
f 22/1/17 25/31/17 29/13/17
f 3/24/18 14/23/18 16/27/18
f 17/25/18 5/28/18 1/26/18
f 3/24/18 16/27/18 17/25/18
f 1/26/1 31/29/1 30/1/1
f 14/23/1 3/24/1 30/1/1
f 16/27/8 28/30/8 48/17/8
f 16/27/8 33/17/8 35/13/8
f 5/28/8 17/25/8 35/13/8
f 23/26/1 43/29/1 31/29/1
f 23/26/1 22/1/1 42/1/1
f 27/23/1 47/9/1 42/1/1
f 28/30/8 29/13/8 49/13/8
f 25/31/8 45/22/8 49/13/8
f 14/23/1 32/9/1 47/9/1
f 25/31/8 5/28/8 36/22/8
f 16/27/2 14/23/2 27/23/2
f 23/26/3 1/26/3 5/28/3
f 24/32/18 37/35/18 38/37/18
f 38/37/18 39/41/18 26/33/18
f 26/33/18 34/42/18 40/34/18
f 40/34/18 41/40/18 24/32/18
f 24/32/18 38/37/18 26/33/18
f 37/35/18 43/39/18 42/36/18
f 37/35/18 24/32/18 44/38/18
f 41/40/18 45/44/18 44/38/18
f 39/41/18 47/9/18 46/8/18
f 39/41/18 38/37/18 42/36/18
f 34/42/18 26/33/18 46/8/18
f 34/42/18 48/17/18 49/43/18
f 41/40/18 40/34/18 49/43/18
