{
	"asset":{
		"generator":"Khronos glTF Blender I/O v5.1.20",
		"version":"2.0"
	},
	"scene":0,
	"scenes":[
		{
			"name":"Scene",
			"nodes":[
				0
			]
		}
	],
	"nodes":[
		{
			"mesh":0,
			"name":"rock"
		}
	],
	"materials":[
		{
			"doubleSided":true,
			"name":"\u30de\u30c6\u30ea\u30a2\u30eb",
			"normalTexture":{
				"index":0
			},
			"pbrMetallicRoughness":{
				"baseColorTexture":{
					"index":1
				},
				"metallicFactor":0,
				"metallicRoughnessTexture":{
					"index":2
				}
			}
		}
	],
	"meshes":[
		{
			"name":"rock",
			"primitives":[
				{
					"attributes":{
						"POSITION":0,
						"NORMAL":1,
						"TEXCOORD_0":2,
						"TANGENT":3
					},
					"indices":4,
					"material":0
				}
			]
		}
	],
	"textures":[
		{
			"sampler":0,
			"source":0
		},
		{
			"sampler":0,
			"source":1
		},
		{
			"sampler":0,
			"source":2
		}
	],
	"images":[
		{
			"mimeType":"image/png",
			"name":"\u7121\u984c",
			"uri":"lockNormal.png"
		},
		{
			"mimeType":"image/png",
			"name":"lockColor2.png",
			"uri":"lockColor2.png"
		},
		{
			"mimeType":"image/png",
			"name":"\u7121\u984c.001",
			"uri":"lockSpecular.png"
		}
	],
	"accessors":[
		{
			"bufferView":0,
			"componentType":5126,
			"count":7680,
			"max":[
				10.31033706665039,
				3.840108871459961,
				2.8393466472625732
			],
			"min":[
				-9.030231475830078,
				-2.3042845726013184,
				-3.805840492248535
			],
			"type":"VEC3"
		},
		{
			"bufferView":1,
			"componentType":5126,
			"count":7680,
			"type":"VEC3"
		},
		{
			"bufferView":2,
			"componentType":5126,
			"count":7680,
			"type":"VEC2"
		},
		{
			"bufferView":3,
			"componentType":5126,
			"count":7680,
			"type":"VEC4"
		},
		{
			"bufferView":4,
			"componentType":5123,
			"count":11520,
			"type":"SCALAR"
		}
	],
	"bufferViews":[
		{
			"buffer":0,
			"byteLength":92160,
			"byteOffset":0,
			"target":34962
		},
		{
			"buffer":0,
			"byteLength":92160,
			"byteOffset":92160,
			"target":34962
		},
		{
			"buffer":0,
			"byteLength":61440,
			"byteOffset":184320,
			"target":34962
		},
		{
			"buffer":0,
			"byteLength":122880,
			"byteOffset":245760,
			"target":34962
		},
		{
			"buffer":0,
			"byteLength":23040,
			"byteOffset":368640,
			"target":34963
		}
	],
	"samplers":[
		{
			"magFilter":9729,
			"minFilter":9987
		}
	],
	"buffers":[
		{
			"byteLength":391680,
			"uri":"lock.bin"
		}
	]
}
