{
	"asset":{
		"generator":"Khronos glTF Blender I/O v3.6.27",
		"version":"2.0"
	},
	"scene":0,
	"scenes":[
		{
			"name":"Scene",
			"nodes":[
				0
			]
		}
	],
	"nodes":[
		{
			"mesh":0,
			"name":"\u7acb\u65b9\u4f53"
		}
	],
	"materials":[
		{
			"doubleSided":true,
			"name":"\u30de\u30c6\u30ea\u30a2\u30eb",
			"pbrMetallicRoughness":{
				"baseColorTexture":{
					"index":0
				},
				"metallicFactor":0,
				"roughnessFactor":0.5
			}
		}
	],
	"meshes":[
		{
			"name":"\u7acb\u65b9\u4f53",
			"primitives":[
				{
					"attributes":{
						"POSITION":0,
						"NORMAL":1,
						"TEXCOORD_0":2
					},
					"indices":3,
					"material":0
				}
			]
		}
	],
	"textures":[
		{
			"sampler":0,
			"source":0
		}
	],
	"images":[
		{
			"mimeType":"image/png",
			"name":"shipColor",
			"uri":"shipColor.png"
		}
	],
	"accessors":[
		{
			"bufferView":0,
			"componentType":5126,
			"count":6915,
			"max":[
				10.00000286102295,
				52.96839904785156,
				67.89795684814453
			],
			"min":[
				-10.000000953674316,
				-4.340002059936523,
				-56.556610107421875
			],
			"type":"VEC3"
		},
		{
			"bufferView":1,
			"componentType":5126,
			"count":6915,
			"type":"VEC3"
		},
		{
			"bufferView":2,
			"componentType":5126,
			"count":6915,
			"type":"VEC2"
		},
		{
			"bufferView":3,
			"componentType":5123,
			"count":13656,
			"type":"SCALAR"
		}
	],
	"bufferViews":[
		{
			"buffer":0,
			"byteLength":82980,
			"byteOffset":0,
			"target":34962
		},
		{
			"buffer":0,
			"byteLength":82980,
			"byteOffset":82980,
			"target":34962
		},
		{
			"buffer":0,
			"byteLength":55320,
			"byteOffset":165960,
			"target":34962
		},
		{
			"buffer":0,
			"byteLength":27312,
			"byteOffset":221280,
			"target":34963
		}
	],
	"samplers":[
		{
			"magFilter":9729,
			"minFilter":9987
		}
	],
	"buffers":[
		{
			"byteLength":248592,
			"uri":"Ship.bin"
		}
	]
}
