# Blender 3.3.1
# www.blender.org
mtllib tire.mtl
o スクラップ(タイヤ)
v 0.000000 -0.225000 -0.184327
v 0.070539 -0.225000 -0.170296
v 0.070539 0.225000 -0.170296
v -0.000000 0.225000 -0.184327
v 0.130339 -0.225000 -0.130339
v 0.130339 0.225000 -0.130339
v 0.170296 -0.225000 -0.070539
v 0.170296 0.225000 -0.070539
v 0.184327 -0.225000 0.000000
v 0.184327 0.225000 0.000000
v 0.170296 -0.225000 0.070539
v 0.170296 0.225000 0.070539
v 0.130339 -0.225000 0.130339
v 0.130339 0.225000 0.130339
v 0.070539 -0.225000 0.170296
v 0.070539 0.225000 0.170296
v 0.000000 -0.225000 0.184327
v -0.000000 0.225000 0.184327
v -0.070539 -0.225000 0.170296
v -0.070539 0.225000 0.170296
v -0.130339 -0.225000 0.130339
v -0.130339 0.225000 0.130339
v -0.170296 -0.225000 0.070539
v -0.170296 0.225000 0.070539
v -0.184327 -0.225000 0.000000
v -0.184327 0.225000 0.000000
v -0.170296 -0.225000 -0.070539
v -0.170296 0.225000 -0.070539
v -0.130339 -0.225000 -0.130339
v -0.130339 0.225000 -0.130339
v -0.070539 -0.225000 -0.170296
v -0.070539 0.225000 -0.170296
v 0.000000 -0.225000 -0.694123
v 0.265629 -0.225000 -0.641286
v 0.265629 0.225000 -0.641286
v -0.000000 0.225000 -0.694123
v 0.490819 -0.225000 -0.490819
v 0.490819 0.225000 -0.490819
v 0.641286 -0.225000 -0.265629
v 0.641286 0.225000 -0.265629
v 0.694123 -0.225000 0.000000
v 0.694123 0.225000 0.000000
v 0.641286 -0.225000 0.265629
v 0.641286 0.225000 0.265629
v 0.490819 -0.225000 0.490819
v 0.490819 0.225000 0.490819
v 0.265629 -0.225000 0.641286
v 0.265629 0.225000 0.641286
v 0.000000 -0.225000 0.694123
v -0.000000 0.225000 0.694123
v -0.265629 -0.225000 0.641286
v -0.265629 0.225000 0.641286
v -0.490819 -0.225000 0.490819
v -0.490819 0.225000 0.490819
v -0.641286 -0.225000 0.265629
v -0.641286 0.225000 0.265629
v -0.694123 -0.225000 0.000000
v -0.694123 0.225000 0.000000
v -0.641286 -0.225000 -0.265629
v -0.641286 0.225000 -0.265629
v -0.490819 -0.225000 -0.490819
v -0.490819 0.225000 -0.490819
v -0.265629 -0.225000 -0.641286
v -0.265629 0.225000 -0.641286
v 0.000000 -0.300000 -0.184327
v 0.070539 -0.300000 -0.170296
v 0.070539 0.300000 -0.170296
v -0.000000 0.300000 -0.184327
v 0.130339 -0.300000 -0.130339
v 0.130339 0.300000 -0.130339
v 0.170296 -0.300000 -0.070539
v 0.170296 0.300000 -0.070539
v 0.184327 -0.300000 0.000000
v 0.184327 0.300000 0.000000
v 0.170296 -0.300000 0.070539
v 0.170296 0.300000 0.070539
v 0.130339 -0.300000 0.130339
v 0.130339 0.300000 0.130339
v 0.070539 -0.300000 0.170296
v 0.070539 0.300000 0.170296
v 0.000000 -0.300000 0.184327
v -0.000000 0.300000 0.184327
v -0.070539 -0.300000 0.170296
v -0.070539 0.300000 0.170296
v -0.130339 -0.300000 0.130339
v -0.130339 0.300000 0.130339
v -0.170296 -0.300000 0.070539
v -0.170296 0.300000 0.070539
v -0.184327 -0.300000 0.000000
v -0.184327 0.300000 0.000000
v -0.170296 -0.300000 -0.070539
v -0.170296 0.300000 -0.070539
v -0.130339 -0.300000 -0.130339
v -0.130339 0.300000 -0.130339
v -0.070539 -0.300000 -0.170296
v -0.070539 0.300000 -0.170296
v 0.000000 -0.375000 -0.898041
v 0.000000 -0.225000 -1.000000
v 0.000000 -0.331066 -0.970137
v 0.382683 -0.225000 -0.923880
v 0.343665 -0.375000 -0.829682
v 0.371255 -0.331066 -0.896290
v 0.343665 0.375000 -0.829682
v 0.382683 0.225000 -0.923880
v 0.371255 0.331066 -0.896290
v 0.000000 0.225000 -1.000000
v 0.000000 0.375000 -0.898041
v 0.000000 0.331066 -0.970137
v 0.707107 -0.225000 -0.707107
v 0.635011 -0.375000 -0.635011
v 0.685990 -0.331066 -0.685990
v 0.635011 0.375000 -0.635011
v 0.707107 0.225000 -0.707107
v 0.685990 0.331066 -0.685990
v 0.923880 -0.225000 -0.382683
v 0.829682 -0.375000 -0.343665
v 0.896290 -0.331066 -0.371255
v 0.829682 0.375000 -0.343665
v 0.923880 0.225000 -0.382683
v 0.896290 0.331066 -0.371255
v 1.000000 -0.225000 0.000000
v 0.898041 -0.375000 0.000000
v 0.970137 -0.331066 0.000000
v 0.898041 0.375000 0.000000
v 1.000000 0.225000 0.000000
v 0.970137 0.331066 0.000000
v 0.923880 -0.225000 0.382683
v 0.829682 -0.375000 0.343665
v 0.896290 -0.331066 0.371255
v 0.829682 0.375000 0.343665
v 0.923880 0.225000 0.382683
v 0.896290 0.331066 0.371255
v 0.707107 -0.225000 0.707107
v 0.635011 -0.375000 0.635011
v 0.685990 -0.331066 0.685990
v 0.635011 0.375000 0.635011
v 0.707107 0.225000 0.707107
v 0.685990 0.331066 0.685990
v 0.382683 -0.225000 0.923880
v 0.343665 -0.375000 0.829682
v 0.371255 -0.331066 0.896290
v 0.343665 0.375000 0.829682
v 0.382683 0.225000 0.923880
v 0.371255 0.331066 0.896290
v 0.000000 -0.225000 1.000000
v 0.000000 -0.375000 0.898041
v 0.000000 -0.331066 0.970137
v 0.000000 0.375000 0.898041
v 0.000000 0.225000 1.000000
v 0.000000 0.331066 0.970137
v -0.382683 -0.225000 0.923880
v -0.343665 -0.375000 0.829682
v -0.371255 -0.331066 0.896290
v -0.343665 0.375000 0.829682
v -0.382683 0.225000 0.923880
v -0.371255 0.331066 0.896290
v -0.707107 -0.225000 0.707107
v -0.635011 -0.375000 0.635011
v -0.685990 -0.331066 0.685990
v -0.635011 0.375000 0.635011
v -0.707107 0.225000 0.707107
v -0.685990 0.331066 0.685990
v -0.923880 -0.225000 0.382683
v -0.829682 -0.375000 0.343665
v -0.896290 -0.331066 0.371255
v -0.829682 0.375000 0.343665
v -0.923880 0.225000 0.382683
v -0.896290 0.331066 0.371255
v -1.000000 -0.225000 0.000000
v -0.898041 -0.375000 0.000000
v -0.970137 -0.331066 0.000000
v -0.898041 0.375000 0.000000
v -1.000000 0.225000 0.000000
v -0.970137 0.331066 0.000000
v -0.923880 -0.225000 -0.382683
v -0.829682 -0.375000 -0.343665
v -0.896290 -0.331066 -0.371255
v -0.829682 0.375000 -0.343665
v -0.923880 0.225000 -0.382683
v -0.896290 0.331066 -0.371255
v -0.707107 -0.225000 -0.707107
v -0.635011 -0.375000 -0.635011
v -0.685990 -0.331066 -0.685990
v -0.635011 0.375000 -0.635011
v -0.707107 0.225000 -0.707107
v -0.685990 0.331066 -0.685990
v -0.382683 -0.225000 -0.923880
v -0.343665 -0.375000 -0.829682
v -0.371255 -0.331066 -0.896290
v -0.343665 0.375000 -0.829682
v -0.382683 0.225000 -0.923880
v -0.371255 0.331066 -0.896290
v 0.000000 -0.325000 -0.694123
v 0.000000 -0.375000 -0.745102
v 0.000000 0.375000 -0.745102
v -0.000000 0.325000 -0.694123
v 0.285138 -0.375000 -0.688385
v 0.265629 -0.325000 -0.641286
v 0.265629 0.325000 -0.641286
v 0.285138 0.375000 -0.688385
v 0.526867 -0.375000 -0.526867
v 0.490819 -0.325000 -0.490819
v 0.490819 0.325000 -0.490819
v 0.526867 0.375000 -0.526867
v 0.688385 -0.375000 -0.285138
v 0.641286 -0.325000 -0.265629
v 0.641286 0.325000 -0.265629
v 0.688385 0.375000 -0.285138
v 0.745102 -0.375000 0.000000
v 0.694123 -0.325000 0.000000
v 0.694123 0.325000 0.000000
v 0.745102 0.375000 0.000000
v 0.688385 -0.375000 0.285138
v 0.641286 -0.325000 0.265629
v 0.641286 0.325000 0.265629
v 0.688385 0.375000 0.285138
v 0.526867 -0.375000 0.526867
v 0.490819 -0.325000 0.490819
v 0.490819 0.325000 0.490819
v 0.526867 0.375000 0.526867
v 0.285138 -0.375000 0.688385
v 0.265629 -0.325000 0.641286
v 0.265629 0.325000 0.641286
v 0.285138 0.375000 0.688385
v 0.000000 -0.375000 0.745102
v 0.000000 -0.325000 0.694123
v -0.000000 0.325000 0.694123
v 0.000000 0.375000 0.745102
v -0.285138 -0.375000 0.688385
v -0.265629 -0.325000 0.641286
v -0.265629 0.325000 0.641286
v -0.285138 0.375000 0.688385
v -0.526867 -0.375000 0.526867
v -0.490819 -0.325000 0.490819
v -0.490819 0.325000 0.490819
v -0.526867 0.375000 0.526867
v -0.688385 -0.375000 0.285138
v -0.641286 -0.325000 0.265629
v -0.641286 0.325000 0.265629
v -0.688385 0.375000 0.285138
v -0.745102 -0.375000 0.000000
v -0.694123 -0.325000 0.000000
v -0.694123 0.325000 0.000000
v -0.745102 0.375000 0.000000
v -0.688385 -0.375000 -0.285138
v -0.641286 -0.325000 -0.265629
v -0.641286 0.325000 -0.265629
v -0.688385 0.375000 -0.285138
v -0.526867 -0.375000 -0.526867
v -0.490819 -0.325000 -0.490819
v -0.490819 0.325000 -0.490819
v -0.526867 0.375000 -0.526867
v -0.285138 -0.375000 -0.688385
v -0.265629 -0.325000 -0.641286
v -0.265629 0.325000 -0.641286
v -0.285138 0.375000 -0.688385
vn -0.1951 -0.0000 -0.9808
vn -0.5556 -0.0000 0.8315
vn -0.8315 -0.0000 0.5556
vn -0.9808 -0.0000 0.1951
vn -0.9808 -0.0000 -0.1951
vn -0.8315 -0.0000 -0.5556
vn -0.5556 -0.0000 -0.8315
vn 0.1951 -0.0000 -0.9808
vn 0.5556 -0.0000 -0.8315
vn 0.8315 -0.0000 -0.5556
vn 0.9808 -0.0000 -0.1951
vn 0.9808 -0.0000 0.1951
vn 0.8315 -0.0000 0.5556
vn -0.0000 -1.0000 -0.0000
vn 0.5556 -0.0000 0.8315
vn 0.1951 -0.0000 0.9808
vn -0.0000 1.0000 -0.0000
vn -0.1951 -0.0000 0.9808
vn 0.1881 -0.2662 -0.9454
vn 0.1030 -0.8494 -0.5176
vn 0.1881 0.2662 -0.9454
vn 0.1030 0.8494 -0.5176
vn 0.5355 -0.2662 -0.8015
vn 0.2932 -0.8494 -0.4388
vn 0.5355 0.2662 -0.8015
vn 0.2932 0.8494 -0.4388
vn 0.8015 -0.2662 -0.5355
vn 0.4388 -0.8494 -0.2932
vn 0.8015 0.2662 -0.5355
vn 0.4388 0.8494 -0.2932
vn 0.9454 -0.2662 -0.1881
vn 0.5176 -0.8494 -0.1030
vn 0.9454 0.2662 -0.1881
vn 0.5176 0.8494 -0.1030
vn 0.9454 -0.2662 0.1881
vn 0.5176 -0.8494 0.1030
vn 0.9454 0.2662 0.1881
vn 0.5176 0.8494 0.1030
vn 0.8015 -0.2662 0.5355
vn 0.4388 -0.8494 0.2932
vn 0.8015 0.2662 0.5355
vn 0.4388 0.8494 0.2932
vn 0.5355 -0.2662 0.8015
vn 0.2932 -0.8494 0.4388
vn 0.5355 0.2662 0.8015
vn 0.2932 0.8494 0.4388
vn 0.1881 -0.2662 0.9454
vn 0.1030 -0.8494 0.5176
vn 0.1881 0.2662 0.9454
vn 0.1030 0.8494 0.5176
vn -0.1881 -0.2662 0.9454
vn -0.1030 -0.8494 0.5176
vn -0.1881 0.2662 0.9454
vn -0.1030 0.8494 0.5176
vn -0.5355 -0.2662 0.8015
vn -0.2932 -0.8494 0.4388
vn -0.5355 0.2662 0.8015
vn -0.2932 0.8494 0.4388
vn -0.8015 -0.2662 0.5355
vn -0.4388 -0.8494 0.2932
vn -0.8015 0.2662 0.5355
vn -0.4388 0.8494 0.2932
vn -0.9454 -0.2662 0.1881
vn -0.5176 -0.8494 0.1030
vn -0.9454 0.2662 0.1881
vn -0.5176 0.8494 0.1030
vn -0.9454 -0.2662 -0.1881
vn -0.5176 -0.8494 -0.1030
vn -0.9454 0.2662 -0.1881
vn -0.5176 0.8494 -0.1030
vn -0.8015 -0.2662 -0.5355
vn -0.4388 -0.8494 -0.2932
vn -0.8015 0.2662 -0.5355
vn -0.4388 0.8494 -0.2932
vn -0.5355 -0.2662 -0.8015
vn -0.2932 -0.8494 -0.4388
vn -0.5355 0.2662 -0.8015
vn -0.2932 0.8494 -0.4388
vn -0.1881 -0.2662 -0.9454
vn -0.1030 -0.8494 -0.5176
vn -0.1881 0.2662 -0.9454
vn -0.1030 0.8494 -0.5176
vn -0.1379 -0.7071 0.6935
vn -0.1379 0.7071 0.6935
vn -0.3928 -0.7071 0.5879
vn -0.3928 0.7071 0.5879
vn -0.5879 -0.7071 0.3928
vn -0.5879 0.7071 0.3928
vn -0.6935 -0.7071 0.1379
vn -0.6935 0.7071 0.1380
vn -0.6935 -0.7071 -0.1380
vn -0.6935 0.7071 -0.1379
vn -0.5879 -0.7071 -0.3928
vn -0.5879 0.7071 -0.3928
vn -0.3928 -0.7071 -0.5879
vn -0.3928 0.7071 -0.5879
vn -0.1379 -0.7071 -0.6935
vn -0.1379 0.7071 -0.6935
vn 0.1379 -0.7071 -0.6935
vn 0.1379 0.7071 -0.6935
vn 0.3928 -0.7071 -0.5879
vn 0.3928 0.7071 -0.5879
vn 0.5879 -0.7071 -0.3928
vn 0.5879 0.7071 -0.3928
vn 0.6935 -0.7071 -0.1379
vn 0.6935 0.7071 -0.1380
vn 0.6935 -0.7071 0.1380
vn 0.6935 0.7071 0.1379
vn 0.5879 -0.7071 0.3928
vn 0.5879 0.7071 0.3928
vn 0.3928 -0.7071 0.5879
vn 0.3928 0.7071 0.5879
vn 0.1379 -0.7071 0.6935
vn 0.1379 0.7071 0.6935
vn -0.6935 -0.7071 0.1380
vn -0.6935 0.7071 0.1379
vn -0.6935 -0.7071 -0.1379
vn -0.6935 0.7071 -0.1380
vn 0.6935 -0.7071 -0.1380
vn 0.6935 0.7071 -0.1379
vn 0.6935 -0.7071 0.1379
vn 0.6935 0.7071 0.1380
vt 0.764450 0.217286
vt 0.834179 0.786262
vt 0.773523 0.226360
vt 0.840462 0.802102
vt 0.713925 0.481382
vt 0.722431 0.768086
vt 0.718835 0.469527
vt 0.736767 0.776255
vt 0.778434 0.238215
vt 0.840462 0.819261
vt 0.713925 0.494213
vt 0.706260 0.765753
vt 0.778434 0.251046
vt 0.833771 0.835228
vt 0.718835 0.506068
vt 0.690060 0.769072
vt 0.773523 0.262901
vt 0.821412 0.847412
vt 0.727909 0.515141
vt 0.676210 0.778186
vt 0.764450 0.271974
vt 0.805259 0.853797
vt 0.739763 0.520052
vt 0.666550 0.791737
vt 0.752595 0.276885
vt 0.787911 0.853283
vt 0.752595 0.520052
vt 0.662804 0.807926
vt 0.772175 0.846105
vt 0.739763 0.276885
vt 0.764450 0.515141
vt 0.665410 0.824322
vt 0.727909 0.271974
vt 0.760037 0.833884
vt 0.773523 0.506068
vt 0.674150 0.838272
vt 0.718835 0.262901
vt 0.753306 0.818055
vt 0.778434 0.494213
vt 0.687346 0.847751
vt 0.713925 0.251046
vt 0.752577 0.801109
vt 0.778434 0.481382
vt 0.702448 0.851989
vt 0.713925 0.238215
vt 0.757861 0.785190
vt 0.773523 0.469527
vt 0.717822 0.852392
vt 0.778539 0.767584
vt 0.718835 0.226360
vt 0.767353 0.771811
vt 0.732228 0.849659
vt 0.764450 0.460453
vt 0.747352 0.840944
vt 0.727909 0.217286
vt 0.792951 0.765753
vt 0.752595 0.455543
vt 0.752333 0.823300
vt 0.808188 0.767216
vt 0.739763 0.212376
vt 0.739763 0.455543
vt 0.752333 0.805595
vt 0.752595 0.212376
vt 0.822655 0.774238
vt 0.727909 0.460453
vt 0.747198 0.789340
vt 0.814981 0.141661
vt 0.287691 0.731836
vt 0.849149 0.175828
vt 0.286329 0.674035
vt 0.032174 0.671827
vt 0.624718 0.463637
vt 0.031365 0.729179
vt 0.643210 0.418995
vt 0.285486 0.616383
vt 0.867640 0.220470
vt 0.032365 0.614432
vt 0.624718 0.511958
vt 0.284919 0.558815
vt 0.867640 0.268790
vt 0.032233 0.556993
vt 0.643210 0.556600
vt 0.284520 0.501289
vt 0.849149 0.313433
vt 0.031914 0.499510
vt 0.677377 0.590767
vt 0.284261 0.443785
vt 0.814981 0.347600
vt 0.031453 0.441973
vt 0.722019 0.609258
vt 0.284183 0.386296
vt 0.770339 0.366091
vt 0.030826 0.384364
vt 0.770339 0.609258
vt 0.284419 0.328824
vt 0.722019 0.366091
vt 0.029926 0.326646
vt 0.814981 0.590767
vt 0.285261 0.271374
vt 0.677377 0.347600
vt 0.028512 0.268757
vt 0.849149 0.556600
vt 0.287303 0.213954
vt 0.643210 0.313433
vt 0.026099 0.210611
vt 0.867640 0.511957
vt 0.291698 0.156583
vt 0.624718 0.268791
vt 0.021738 0.152149
vt 0.867640 0.463637
vt 0.300539 0.099320
vt 0.624718 0.220470
vt 0.013732 0.093573
vt 0.849149 0.418995
vt 0.315880 0.042897
vt 0.315880 0.963668
vt 0.643209 0.175828
vt 0.000122 0.036462
vt 0.000837 0.957145
vt 0.814981 0.384828
vt 0.302328 0.906678
vt 0.677377 0.141661
vt 0.016150 0.900858
vt 0.770339 0.366336
vt 0.294371 0.848224
vt 0.722019 0.123169
vt 0.024972 0.843728
vt 0.722019 0.366336
vt 0.290056 0.789878
vt 0.770339 0.123169
vt 0.029349 0.786484
vt 0.677377 0.384828
vt 0.821866 0.794414
vt 0.825654 0.805203
vt 0.718053 0.781918
vt 0.727382 0.787576
vt 0.825595 0.816621
vt 0.707086 0.780482
vt 0.820961 0.826985
vt 0.696025 0.782395
vt 0.812783 0.834895
vt 0.686704 0.788571
vt 0.802239 0.838909
vt 0.680022 0.797391
vt 0.790963 0.838378
vt 0.677472 0.808115
vt 0.780698 0.833261
vt 0.678847 0.818959
vt 0.772358 0.825056
vt 0.684448 0.828273
vt 0.768050 0.814257
vt 0.693274 0.834972
vt 0.767458 0.802686
vt 0.704548 0.837699
vt 0.771618 0.791690
vt 0.716490 0.838733
vt 0.780447 0.782613
vt 0.729377 0.834637
vt 0.793366 0.779322
vt 0.735903 0.821007
vt 0.804440 0.780531
vt 0.736566 0.807875
vt 0.814039 0.786034
vt 0.734015 0.796557
vt 0.223987 0.732354
vt 0.192914 0.732853
vt 0.210186 0.732508
vt 0.192437 0.674155
vt 0.223108 0.673840
vt 0.209478 0.673893
vt 0.095042 0.673530
vt 0.125623 0.673652
vt 0.108624 0.673707
vt 0.125401 0.732177
vt 0.094476 0.731765
vt 0.108198 0.732090
vt 0.192048 0.616056
vt 0.222519 0.615828
vt 0.208976 0.615832
vt 0.095139 0.615679
vt 0.125560 0.615651
vt 0.108656 0.615781
vt 0.191697 0.558241
vt 0.222077 0.558060
vt 0.208574 0.558038
vt 0.094990 0.557995
vt 0.125348 0.557887
vt 0.108482 0.558055
vt 0.191375 0.500540
vt 0.221729 0.500394
vt 0.208237 0.500353
vt 0.094703 0.500356
vt 0.125055 0.500200
vt 0.108193 0.500392
vt 0.191097 0.442837
vt 0.221470 0.442738
vt 0.207971 0.442673
vt 0.094323 0.442678
vt 0.124717 0.442485
vt 0.107833 0.442694
vt 0.190895 0.385029
vt 0.221345 0.385009
vt 0.207815 0.384904
vt 0.093850 0.384872
vt 0.124348 0.384630
vt 0.107405 0.384860
vt 0.190839 0.326963
vt 0.221460 0.327090
vt 0.207860 0.326910
vt 0.093230 0.326795
vt 0.123939 0.326468
vt 0.106876 0.326736
vt 0.191063 0.268349
vt 0.222039 0.268764
vt 0.208294 0.268437
vt 0.092320 0.268197
vt 0.123442 0.267684
vt 0.106143 0.268036
vt 0.191840 0.208608
vt 0.223537 0.209605
vt 0.209498 0.208982
vt 0.090782 0.208602
vt 0.122705 0.207666
vt 0.104943 0.208218
vt 0.193789 0.146537
vt 0.226911 0.148782
vt 0.212306 0.147531
vt 0.087830 0.147138
vt 0.121275 0.145182
vt 0.102617 0.146236
vt 0.198627 0.079635
vt 0.234331 0.084918
vt 0.218871 0.082205
vt 0.081589 0.082321
vt 0.117659 0.077679
vt 0.097486 0.080063
vt 0.208881 0.999878
vt 0.212092 0.001578
vt 0.252327 0.015874
vt 0.249953 0.988741
vt 0.235824 0.008398
vt 0.232487 0.995195
vt 0.066185 0.011302
vt 0.064235 0.984115
vt 0.107345 0.000122
vt 0.104370 0.998387
vt 0.083688 0.004826
vt 0.080697 0.991577
vt 0.198619 0.922490
vt 0.234613 0.917873
vt 0.218749 0.920119
vt 0.082204 0.915235
vt 0.117828 0.920513
vt 0.097630 0.917945
vt 0.195034 0.855130
vt 0.228412 0.853190
vt 0.213655 0.854085
vt 0.089617 0.851513
vt 0.122669 0.853758
vt 0.104191 0.852763
vt 0.193629 0.792767
vt 0.225494 0.791846
vt 0.211359 0.792223
vt 0.092986 0.790816
vt 0.124622 0.791812
vt 0.106998 0.791438
vt 0.266541 0.732352
vt 0.252117 0.732538
vt 0.066595 0.730377
vt 0.052301 0.729826
vt 0.250970 0.674300
vt 0.265286 0.674283
vt 0.053088 0.672147
vt 0.067326 0.672489
vt 0.250244 0.616424
vt 0.264503 0.616492
vt 0.053278 0.614583
vt 0.067494 0.614816
vt 0.249736 0.558730
vt 0.263967 0.558847
vt 0.053154 0.557053
vt 0.067366 0.557229
vt 0.249363 0.501118
vt 0.263582 0.501267
vt 0.052851 0.499511
vt 0.067070 0.499650
vt 0.249109 0.443521
vt 0.263328 0.443707
vt 0.052415 0.441921
vt 0.066652 0.442025
vt 0.249018 0.385886
vt 0.263248 0.386129
vt 0.051828 0.384235
vt 0.066100 0.384293
vt 0.249215 0.328142
vt 0.263473 0.328491
vt 0.050997 0.326380
vt 0.065331 0.326352
vt 0.249968 0.270161
vt 0.264287 0.270718
vt 0.049697 0.268224
vt 0.064144 0.268028
vt 0.251821 0.211689
vt 0.266263 0.212658
vt 0.047460 0.209553
vt 0.062099 0.209015
vt 0.255852 0.152269
vt 0.270517 0.154046
vt 0.043316 0.150068
vt 0.058252 0.148833
vt 0.264130 0.091330
vt 0.279033 0.094625
vt 0.035243 0.089691
vt 0.050599 0.087002
vt 0.281224 0.974654
vt 0.281437 0.031160
vt 0.295047 0.037233
vt 0.295502 0.968711
vt 0.020543 0.031398
vt 0.021621 0.962799
vt 0.034850 0.025434
vt 0.035197 0.968860
vt 0.265538 0.913216
vt 0.280862 0.910540
vt 0.037606 0.905544
vt 0.052474 0.908833
vt 0.257931 0.851513
vt 0.272837 0.850288
vt 0.046106 0.846259
vt 0.060739 0.848032
vt 0.254124 0.791448
vt 0.268735 0.790920
vt 0.050345 0.787773
vt 0.064758 0.788739
s 0
usemtl マテリアル.002
f 191/265/1 98/166/1 187/261/1
f 199/273/2 38/77/2 203/277/2
f 203/277/3 40/81/3 207/281/3
f 207/281/4 42/85/4 211/285/4
f 211/285/5 44/89/5 215/289/5
f 215/289/6 46/93/6 219/293/6
f 219/293/7 48/97/7 223/297/7
f 223/297/1 50/101/1 227/301/1
f 227/301/8 52/105/8 231/305/8
f 231/305/9 54/109/9 235/309/9
f 235/309/10 56/113/10 239/313/10
f 239/313/11 58/118/11 243/319/11
f 243/320/12 60/123/12 247/325/12
f 247/325/13 62/127/13 251/329/13
f 237/311/14 158/226/14 164/232/14
f 251/329/15 64/131/15 255/333/15
f 193/267/16 63/129/16 254/332/16
f 205/279/14 122/190/14 209/283/14
f 106/174/8 100/168/8 98/166/8
f 206/280/3 37/75/3 202/276/3
f 255/333/16 36/73/16 196/270/16
f 200/274/17 107/175/17 195/269/17
f 210/284/4 39/79/4 206/280/4
f 119/187/11 121/189/11 115/183/11
f 214/288/5 41/83/5 210/284/5
f 125/193/12 127/195/12 121/189/12
f 218/292/6 43/87/6 214/288/6
f 131/199/13 133/201/13 127/195/13
f 222/296/7 45/91/7 218/292/7
f 137/205/15 139/207/15 133/201/15
f 226/300/1 47/95/1 222/296/1
f 143/211/16 145/213/16 139/207/16
f 230/304/8 49/99/8 226/300/8
f 149/217/18 151/219/18 145/213/18
f 234/308/9 51/103/9 230/304/9
f 155/223/2 157/225/2 151/219/2
f 238/312/10 53/107/10 234/308/10
f 161/229/3 163/231/3 157/225/3
f 242/317/11 55/111/11 238/312/11
f 167/235/4 169/238/4 163/231/4
f 246/324/12 57/116/12 242/318/12
f 173/246/5 175/249/5 169/237/5
f 250/328/13 59/121/13 246/324/13
f 179/253/6 181/255/6 175/249/6
f 254/332/15 61/125/15 250/328/15
f 185/259/7 187/261/7 181/255/7
f 104/172/9 109/177/9 100/168/9
f 113/181/10 115/183/10 109/177/10
f 29/59/6 91/159/6 27/56/6
f 15/29/15 77/145/15 13/26/15
f 208/282/17 124/192/17 118/186/17
f 240/314/17 160/228/17 236/310/17
f 213/287/14 122/190/14 128/196/14
f 237/311/14 170/239/14 241/316/14
f 216/290/17 124/192/17 212/286/17
f 240/314/17 172/243/17 166/234/17
f 213/287/14 134/202/14 217/291/14
f 245/323/14 170/240/14 176/250/14
f 216/290/17 136/204/17 130/198/17
f 248/326/17 172/244/17 244/322/17
f 221/295/14 134/202/14 140/208/14
f 245/323/14 182/256/14 249/327/14
f 224/298/17 136/204/17 220/294/17
f 253/331/14 97/165/14 194/268/14
f 248/326/17 184/258/17 178/252/17
f 221/295/14 146/214/14 225/299/14
f 256/334/17 107/175/17 190/264/17
f 253/331/14 182/256/14 188/262/14
f 224/298/17 148/216/17 142/210/17
f 197/271/14 110/178/14 201/275/14
f 256/334/17 184/258/17 252/330/17
f 229/303/14 146/214/14 152/220/14
f 200/274/17 112/180/17 103/171/17
f 196/270/18 35/71/18 199/273/18
f 232/306/17 148/216/17 228/302/17
f 205/279/14 110/178/14 116/184/14
f 202/276/2 34/70/2 198/272/2
f 229/303/14 158/226/14 233/307/14
f 208/282/17 112/180/17 204/278/17
f 232/306/17 160/228/17 154/222/17
f 1/1/14 34/69/14 2/3/14
f 3/5/17 36/74/17 4/7/17
f 2/3/14 37/76/14 5/9/14
f 6/11/17 35/72/17 3/5/17
f 5/9/14 39/80/14 7/13/14
f 8/15/17 38/78/17 6/11/17
f 7/13/14 41/84/14 9/17/14
f 8/15/17 42/86/17 40/82/17
f 9/17/14 43/88/14 11/21/14
f 12/23/17 42/86/17 10/19/17
f 11/21/14 45/92/14 13/25/14
f 14/27/17 44/90/17 12/23/17
f 13/25/14 47/96/14 15/30/14
f 16/31/17 46/94/17 14/27/17
f 15/30/14 49/100/14 17/33/14
f 16/31/17 50/102/17 48/98/17
f 17/33/14 51/104/14 19/37/14
f 20/39/17 50/102/17 18/35/17
f 19/37/14 53/108/14 21/41/14
f 22/43/17 52/106/17 20/39/17
f 21/41/14 55/112/14 23/45/14
f 24/47/17 54/110/17 22/43/17
f 23/45/14 57/117/14 25/50/14
f 24/47/17 58/120/17 56/114/17
f 25/50/14 59/122/14 27/55/14
f 28/57/17 58/120/17 26/53/17
f 27/55/14 61/126/14 29/60/14
f 30/61/17 60/124/17 28/57/17
f 29/60/14 63/130/14 31/63/14
f 32/65/17 62/128/17 30/61/17
f 31/63/14 33/67/14 1/1/14
f 32/65/17 36/74/17 64/132/17
f 86/154/17 78/146/17 70/138/17
f 79/147/14 87/155/14 95/163/14
f 14/28/15 80/148/15 16/32/15
f 2/4/8 65/133/8 1/2/8
f 28/58/6 94/162/6 30/62/6
f 17/34/16 79/147/16 15/29/16
f 4/8/8 67/135/8 3/6/8
f 31/64/7 93/161/7 29/59/7
f 16/32/16 82/150/16 18/36/16
f 5/10/9 66/134/9 2/4/9
f 30/62/7 96/164/7 32/66/7
f 19/38/18 81/149/18 17/34/18
f 3/6/9 70/138/9 6/12/9
f 1/2/1 95/163/1 31/64/1
f 18/36/18 84/152/18 20/40/18
f 7/14/10 69/137/10 5/10/10
f 32/66/1 68/136/1 4/8/1
f 21/42/2 83/151/2 19/38/2
f 6/12/10 72/140/10 8/16/10
f 20/40/2 86/154/2 22/44/2
f 9/18/11 71/139/11 7/14/11
f 23/46/3 85/153/3 21/42/3
f 8/16/11 74/142/11 10/20/11
f 22/44/3 88/156/3 24/48/3
f 11/22/12 73/141/12 9/18/12
f 25/51/4 87/155/4 23/46/4
f 10/20/12 76/144/12 12/24/12
f 24/48/4 90/158/4 26/52/4
f 13/26/13 75/143/13 11/22/13
f 27/56/5 89/157/5 25/49/5
f 12/24/13 78/146/13 14/28/13
f 26/54/5 92/160/5 28/58/5
f 100/168/19 99/167/19 98/166/19
f 102/170/20 97/165/20 99/167/20
f 106/174/21 105/173/21 104/172/21
f 105/173/22 107/175/22 103/171/22
f 109/177/23 102/170/23 100/168/23
f 102/170/24 110/178/24 101/169/24
f 104/172/25 114/182/25 113/181/25
f 105/173/26 112/180/26 114/182/26
f 115/183/27 111/179/27 109/177/27
f 117/185/28 110/178/28 111/179/28
f 113/181/29 120/188/29 119/187/29
f 120/188/30 112/180/30 118/186/30
f 121/189/31 117/185/31 115/183/31
f 117/185/32 122/190/32 116/184/32
f 119/187/33 126/194/33 125/193/33
f 120/188/34 124/192/34 126/194/34
f 127/195/35 123/191/35 121/189/35
f 129/197/36 122/190/36 123/191/36
f 125/193/37 132/200/37 131/199/37
f 132/200/38 124/192/38 130/198/38
f 133/201/39 129/197/39 127/195/39
f 129/197/40 134/202/40 128/196/40
f 131/199/41 138/206/41 137/205/41
f 132/200/42 136/204/42 138/206/42
f 139/207/43 135/203/43 133/201/43
f 141/209/44 134/202/44 135/203/44
f 137/205/45 144/212/45 143/211/45
f 144/212/46 136/204/46 142/210/46
f 145/213/47 141/209/47 139/207/47
f 141/209/48 146/214/48 140/208/48
f 143/211/49 150/218/49 149/217/49
f 144/212/50 148/216/50 150/218/50
f 151/219/51 147/215/51 145/213/51
f 153/221/52 146/214/52 147/215/52
f 149/217/53 156/224/53 155/223/53
f 156/224/54 148/216/54 154/222/54
f 157/225/55 153/221/55 151/219/55
f 153/221/56 158/226/56 152/220/56
f 155/223/57 162/230/57 161/229/57
f 156/224/58 160/228/58 162/230/58
f 163/231/59 159/227/59 157/225/59
f 165/233/60 158/226/60 159/227/60
f 161/229/61 168/236/61 167/235/61
f 168/236/62 160/228/62 166/234/62
f 169/238/63 165/233/63 163/231/63
f 165/233/64 170/239/64 164/232/64
f 167/235/65 174/247/65 173/245/65
f 168/236/66 172/243/66 174/247/66
f 175/249/67 171/242/67 169/237/67
f 177/251/68 170/240/68 171/242/68
f 173/246/69 180/254/69 179/253/69
f 180/254/70 172/244/70 178/252/70
f 181/255/71 177/251/71 175/249/71
f 177/251/72 182/256/72 176/250/72
f 179/253/73 186/260/73 185/259/73
f 180/254/74 184/258/74 186/260/74
f 187/261/75 183/257/75 181/255/75
f 189/263/76 182/256/76 183/257/76
f 185/259/77 192/266/77 191/265/77
f 192/266/78 184/258/78 190/264/78
f 98/166/79 189/263/79 187/261/79
f 189/263/80 97/165/80 188/262/80
f 191/265/81 108/176/81 106/174/81
f 192/266/82 107/175/82 108/176/82
f 198/272/18 33/68/18 193/267/18
f 197/271/83 193/267/83 194/268/83
f 195/269/84 199/273/84 200/274/84
f 201/275/85 198/272/85 197/271/85
f 200/274/86 203/277/86 204/278/86
f 205/279/87 202/276/87 201/275/87
f 204/278/88 207/281/88 208/282/88
f 209/283/89 206/280/89 205/279/89
f 208/282/90 211/285/90 212/286/90
f 213/287/91 210/284/91 209/283/91
f 212/286/92 215/289/92 216/290/92
f 217/291/93 214/288/93 213/287/93
f 216/290/94 219/293/94 220/294/94
f 221/295/95 218/292/95 217/291/95
f 220/294/96 223/297/96 224/298/96
f 225/299/97 222/296/97 221/295/97
f 224/298/98 227/301/98 228/302/98
f 229/303/99 226/300/99 225/299/99
f 228/302/100 231/305/100 232/306/100
f 233/307/101 230/304/101 229/303/101
f 232/306/102 235/309/102 236/310/102
f 237/311/103 234/308/103 233/307/103
f 236/310/104 239/313/104 240/314/104
f 241/316/105 238/312/105 237/311/105
f 240/314/106 243/319/106 244/321/106
f 245/323/107 242/318/107 241/315/107
f 244/322/108 247/325/108 248/326/108
f 249/327/109 246/324/109 245/323/109
f 248/326/110 251/329/110 252/330/110
f 253/331/111 250/328/111 249/327/111
f 252/330/112 255/333/112 256/334/112
f 194/268/113 254/332/113 253/331/113
f 256/334/114 196/270/114 195/269/114
f 197/271/14 97/165/14 101/169/14
f 191/265/1 106/174/1 98/166/1
f 199/273/2 35/71/2 38/77/2
f 203/277/3 38/77/3 40/81/3
f 207/281/4 40/81/4 42/85/4
f 211/285/5 42/85/5 44/89/5
f 215/289/6 44/89/6 46/93/6
f 219/293/7 46/93/7 48/97/7
f 223/297/1 48/97/1 50/101/1
f 227/301/8 50/101/8 52/105/8
f 231/305/9 52/105/9 54/109/9
f 235/309/10 54/109/10 56/113/10
f 239/313/11 56/113/11 58/118/11
f 243/320/12 58/119/12 60/123/12
f 247/325/13 60/123/13 62/127/13
f 237/311/14 233/307/14 158/226/14
f 251/329/15 62/127/15 64/131/15
f 193/267/16 33/68/16 63/129/16
f 205/279/14 116/184/14 122/190/14
f 106/174/8 104/172/8 100/168/8
f 206/280/3 39/79/3 37/75/3
f 255/333/16 64/131/16 36/73/16
f 200/274/17 103/171/17 107/175/17
f 210/284/4 41/83/4 39/79/4
f 119/187/11 125/193/11 121/189/11
f 214/288/5 43/87/5 41/83/5
f 125/193/12 131/199/12 127/195/12
f 218/292/6 45/91/6 43/87/6
f 131/199/13 137/205/13 133/201/13
f 222/296/7 47/95/7 45/91/7
f 137/205/15 143/211/15 139/207/15
f 226/300/1 49/99/1 47/95/1
f 143/211/16 149/217/16 145/213/16
f 230/304/8 51/103/8 49/99/8
f 149/217/18 155/223/18 151/219/18
f 234/308/9 53/107/9 51/103/9
f 155/223/2 161/229/2 157/225/2
f 238/312/10 55/111/10 53/107/10
f 161/229/3 167/235/3 163/231/3
f 242/317/11 57/115/11 55/111/11
f 167/235/4 173/245/4 169/238/4
f 246/324/12 59/121/12 57/116/12
f 173/246/5 179/253/5 175/249/5
f 250/328/13 61/125/13 59/121/13
f 179/253/6 185/259/6 181/255/6
f 254/332/15 63/129/15 61/125/15
f 185/259/7 191/265/7 187/261/7
f 104/172/9 113/181/9 109/177/9
f 113/181/10 119/187/10 115/183/10
f 29/59/6 93/161/6 91/159/6
f 15/29/15 79/147/15 77/145/15
f 208/282/17 212/286/17 124/192/17
f 240/314/17 166/234/17 160/228/17
f 213/287/14 209/283/14 122/190/14
f 237/311/14 164/232/14 170/239/14
f 216/290/17 130/198/17 124/192/17
f 240/314/17 244/321/17 172/243/17
f 213/287/14 128/196/14 134/202/14
f 245/323/14 241/315/14 170/240/14
f 216/290/17 220/294/17 136/204/17
f 248/326/17 178/252/17 172/244/17
f 221/295/14 217/291/14 134/202/14
f 245/323/14 176/250/14 182/256/14
f 224/298/17 142/210/17 136/204/17
f 253/331/14 188/262/14 97/165/14
f 248/326/17 252/330/17 184/258/17
f 221/295/14 140/208/14 146/214/14
f 256/334/17 195/269/17 107/175/17
f 253/331/14 249/327/14 182/256/14
f 224/298/17 228/302/17 148/216/17
f 197/271/14 101/169/14 110/178/14
f 256/334/17 190/264/17 184/258/17
f 229/303/14 225/299/14 146/214/14
f 200/274/17 204/278/17 112/180/17
f 196/270/18 36/73/18 35/71/18
f 232/306/17 154/222/17 148/216/17
f 205/279/14 201/275/14 110/178/14
f 202/276/2 37/75/2 34/70/2
f 229/303/14 152/220/14 158/226/14
f 208/282/17 118/186/17 112/180/17
f 232/306/17 236/310/17 160/228/17
f 1/1/14 33/67/14 34/69/14
f 3/5/17 35/72/17 36/74/17
f 2/3/14 34/69/14 37/76/14
f 6/11/17 38/78/17 35/72/17
f 5/9/14 37/76/14 39/80/14
f 8/15/17 40/82/17 38/78/17
f 7/13/14 39/80/14 41/84/14
f 8/15/17 10/19/17 42/86/17
f 9/17/14 41/84/14 43/88/14
f 12/23/17 44/90/17 42/86/17
f 11/21/14 43/88/14 45/92/14
f 14/27/17 46/94/17 44/90/17
f 13/25/14 45/92/14 47/96/14
f 16/31/17 48/98/17 46/94/17
f 15/30/14 47/96/14 49/100/14
f 16/31/17 18/35/17 50/102/17
f 17/33/14 49/100/14 51/104/14
f 20/39/17 52/106/17 50/102/17
f 19/37/14 51/104/14 53/108/14
f 22/43/17 54/110/17 52/106/17
f 21/41/14 53/108/14 55/112/14
f 24/47/17 56/114/17 54/110/17
f 23/45/14 55/112/14 57/117/14
f 24/47/17 26/53/17 58/120/17
f 25/50/14 57/117/14 59/122/14
f 28/57/17 60/124/17 58/120/17
f 27/55/14 59/122/14 61/126/14
f 30/61/17 62/128/17 60/124/17
f 29/60/14 61/126/14 63/130/14
f 32/65/17 64/132/17 62/128/17
f 31/63/14 63/130/14 33/67/14
f 32/65/17 4/7/17 36/74/17
f 70/138/17 67/135/17 68/136/17
f 68/136/17 96/164/17 94/162/17
f 94/162/17 92/160/17 90/158/17
f 90/158/17 88/156/17 86/154/17
f 86/154/17 84/152/17 82/150/17
f 82/150/17 80/148/17 78/146/17
f 78/146/17 76/144/17 74/142/17
f 74/142/17 72/140/17 70/138/17
f 70/138/17 68/136/17 94/162/17
f 94/162/17 90/158/17 86/154/17
f 86/154/17 82/150/17 78/146/17
f 78/146/17 74/142/17 70/138/17
f 70/138/17 94/162/17 86/154/17
f 95/163/14 65/133/14 66/134/14
f 66/134/14 69/137/14 71/139/14
f 71/139/14 73/141/14 75/143/14
f 75/143/14 77/145/14 79/147/14
f 79/147/14 81/149/14 83/151/14
f 83/151/14 85/153/14 87/155/14
f 87/155/14 89/157/14 91/159/14
f 91/159/14 93/161/14 95/163/14
f 95/163/14 66/134/14 71/139/14
f 71/139/14 75/143/14 79/147/14
f 79/147/14 83/151/14 87/155/14
f 87/155/14 91/159/14 95/163/14
f 95/163/14 71/139/14 79/147/14
f 14/28/15 78/146/15 80/148/15
f 2/4/8 66/134/8 65/133/8
f 28/58/6 92/160/6 94/162/6
f 17/34/16 81/149/16 79/147/16
f 4/8/8 68/136/8 67/135/8
f 31/64/7 95/163/7 93/161/7
f 16/32/16 80/148/16 82/150/16
f 5/10/9 69/137/9 66/134/9
f 30/62/7 94/162/7 96/164/7
f 19/38/18 83/151/18 81/149/18
f 3/6/9 67/135/9 70/138/9
f 1/2/1 65/133/1 95/163/1
f 18/36/18 82/150/18 84/152/18
f 7/14/10 71/139/10 69/137/10
f 32/66/1 96/164/1 68/136/1
f 21/42/2 85/153/2 83/151/2
f 6/12/10 70/138/10 72/140/10
f 20/40/2 84/152/2 86/154/2
f 9/18/11 73/141/11 71/139/11
f 23/46/3 87/155/3 85/153/3
f 8/16/11 72/140/11 74/142/11
f 22/44/3 86/154/3 88/156/3
f 11/22/12 75/143/12 73/141/12
f 25/51/4 89/157/4 87/155/4
f 10/20/12 74/142/12 76/144/12
f 24/48/4 88/156/4 90/158/4
f 13/26/13 77/145/13 75/143/13
f 27/56/5 91/159/5 89/157/5
f 12/24/13 76/144/13 78/146/13
f 26/54/5 90/158/5 92/160/5
f 100/168/19 102/170/19 99/167/19
f 102/170/20 101/169/20 97/165/20
f 106/174/21 108/176/21 105/173/21
f 105/173/22 108/176/22 107/175/22
f 109/177/23 111/179/23 102/170/23
f 102/170/24 111/179/24 110/178/24
f 104/172/25 105/173/25 114/182/25
f 105/173/26 103/171/26 112/180/26
f 115/183/27 117/185/27 111/179/27
f 117/185/28 116/184/28 110/178/28
f 113/181/29 114/182/29 120/188/29
f 120/188/30 114/182/30 112/180/30
f 121/189/31 123/191/31 117/185/31
f 117/185/32 123/191/32 122/190/32
f 119/187/33 120/188/33 126/194/33
f 120/188/34 118/186/34 124/192/34
f 127/195/35 129/197/35 123/191/35
f 129/197/36 128/196/36 122/190/36
f 125/193/37 126/194/37 132/200/37
f 132/200/38 126/194/38 124/192/38
f 133/201/39 135/203/39 129/197/39
f 129/197/40 135/203/40 134/202/40
f 131/199/41 132/200/41 138/206/41
f 132/200/42 130/198/42 136/204/42
f 139/207/43 141/209/43 135/203/43
f 141/209/44 140/208/44 134/202/44
f 137/205/45 138/206/45 144/212/45
f 144/212/46 138/206/46 136/204/46
f 145/213/47 147/215/47 141/209/47
f 141/209/48 147/215/48 146/214/48
f 143/211/49 144/212/49 150/218/49
f 144/212/50 142/210/50 148/216/50
f 151/219/51 153/221/51 147/215/51
f 153/221/52 152/220/52 146/214/52
f 149/217/53 150/218/53 156/224/53
f 156/224/54 150/218/54 148/216/54
f 157/225/55 159/227/55 153/221/55
f 153/221/56 159/227/56 158/226/56
f 155/223/57 156/224/57 162/230/57
f 156/224/58 154/222/58 160/228/58
f 163/231/59 165/233/59 159/227/59
f 165/233/60 164/232/60 158/226/60
f 161/229/61 162/230/61 168/236/61
f 168/236/62 162/230/62 160/228/62
f 169/238/63 171/241/63 165/233/63
f 165/233/64 171/241/64 170/239/64
f 167/235/65 168/236/65 174/247/65
f 168/236/66 166/234/66 172/243/66
f 175/249/67 177/251/67 171/242/67
f 177/251/68 176/250/68 170/240/68
f 173/246/69 174/248/69 180/254/69
f 180/254/70 174/248/70 172/244/70
f 181/255/71 183/257/71 177/251/71
f 177/251/72 183/257/72 182/256/72
f 179/253/73 180/254/73 186/260/73
f 180/254/74 178/252/74 184/258/74
f 187/261/75 189/263/75 183/257/75
f 189/263/76 188/262/76 182/256/76
f 185/259/77 186/260/77 192/266/77
f 192/266/78 186/260/78 184/258/78
f 98/166/79 99/167/79 189/263/79
f 189/263/80 99/167/80 97/165/80
f 191/265/81 192/266/81 108/176/81
f 192/266/82 190/264/82 107/175/82
f 198/272/18 34/70/18 33/68/18
f 197/271/83 198/272/83 193/267/83
f 195/269/84 196/270/84 199/273/84
f 201/275/85 202/276/85 198/272/85
f 200/274/86 199/273/86 203/277/86
f 205/279/87 206/280/87 202/276/87
f 204/278/88 203/277/88 207/281/88
f 209/283/115 210/284/115 206/280/115
f 208/282/116 207/281/116 211/285/116
f 213/287/117 214/288/117 210/284/117
f 212/286/118 211/285/118 215/289/118
f 217/291/93 218/292/93 214/288/93
f 216/290/94 215/289/94 219/293/94
f 221/295/95 222/296/95 218/292/95
f 220/294/96 219/293/96 223/297/96
f 225/299/97 226/300/97 222/296/97
f 224/298/98 223/297/98 227/301/98
f 229/303/99 230/304/99 226/300/99
f 228/302/100 227/301/100 231/305/100
f 233/307/101 234/308/101 230/304/101
f 232/306/102 231/305/102 235/309/102
f 237/311/103 238/312/103 234/308/103
f 236/310/104 235/309/104 239/313/104
f 241/316/119 242/317/119 238/312/119
f 240/314/120 239/313/120 243/319/120
f 245/323/121 246/324/121 242/318/121
f 244/322/122 243/320/122 247/325/122
f 249/327/109 250/328/109 246/324/109
f 248/326/110 247/325/110 251/329/110
f 253/331/111 254/332/111 250/328/111
f 252/330/112 251/329/112 255/333/112
f 194/268/113 193/267/113 254/332/113
f 256/334/114 255/333/114 196/270/114
f 197/271/14 194/268/14 97/165/14
