{
	"asset":{
		"generator":"Khronos glTF Blender I/O v3.6.27",
		"version":"2.0"
	},
	"scene":0,
	"scenes":[
		{
			"name":"Scene",
			"nodes":[
				0
			]
		}
	],
	"nodes":[
		{
			"mesh":0,
			"name":"\u6575(\u672c\u4f53)"
		}
	],
	"materials":[
		{
			"doubleSided":true,
			"name":"\u30de\u30c6\u30ea\u30a2\u30eb",
			"normalTexture":{
				"index":0,
				"scale":0.40000003576278687
			},
			"pbrMetallicRoughness":{
				"baseColorTexture":{
					"index":1
				},
				"metallicFactor":0,
				"roughnessFactor":0.5
			}
		}
	],
	"meshes":[
		{
			"name":"\u7acb\u65b9\u4f53.001",
			"primitives":[
				{
					"attributes":{
						"POSITION":0,
						"NORMAL":1,
						"TEXCOORD_0":2
					},
					"indices":3,
					"material":0
				}
			]
		}
	],
	"textures":[
		{
			"sampler":0,
			"source":0
		},
		{
			"sampler":0,
			"source":1
		}
	],
	"images":[
		{
			"mimeType":"image/png",
			"name":"NormalMap",
			"uri":"NormalMap.png"
		},
		{
			"mimeType":"image/png",
			"name":"enemy",
			"uri":"enemy.png"
		}
	],
	"accessors":[
		{
			"bufferView":0,
			"componentType":5126,
			"count":5035,
			"max":[
				1.600000023841858,
				2.8390421867370605,
				2.5987348556518555
			],
			"min":[
				-1.600000023841858,
				1.1920928955078125e-07,
				-2.5987348556518555
			],
			"type":"VEC3"
		},
		{
			"bufferView":1,
			"componentType":5126,
			"count":5035,
			"type":"VEC3"
		},
		{
			"bufferView":2,
			"componentType":5126,
			"count":5035,
			"type":"VEC2"
		},
		{
			"bufferView":3,
			"componentType":5123,
			"count":10890,
			"type":"SCALAR"
		}
	],
	"bufferViews":[
		{
			"buffer":0,
			"byteLength":60420,
			"byteOffset":0,
			"target":34962
		},
		{
			"buffer":0,
			"byteLength":60420,
			"byteOffset":60420,
			"target":34962
		},
		{
			"buffer":0,
			"byteLength":40280,
			"byteOffset":120840,
			"target":34962
		},
		{
			"buffer":0,
			"byteLength":21780,
			"byteOffset":161120,
			"target":34963
		}
	],
	"samplers":[
		{
			"magFilter":9729,
			"minFilter":9987
		}
	],
	"buffers":[
		{
			"byteLength":182900,
			"uri":"enemy.bin"
		}
	]
}
