# Blender 5.0.1
# www.blender.org
mtllib Stone.mtl
o 石.001
v -116.181274 2.894207 89.050232
v -117.703667 1.786486 74.224136
v -119.338112 0.029013 44.786522
v -120.426903 -1.452749 15.059680
v -89.946907 1.550479 117.447479
v -103.014359 -3.209222 102.601929
v -103.789436 -1.018734 74.454201
v -103.933136 -3.097007 44.733681
v -104.279289 -6.805379 14.920201
v -74.342361 0.284969 119.385513
v -74.672188 -3.762912 104.247589
v -74.719025 -0.063144 74.655342
v -75.098450 -0.228407 44.768490
v -75.306839 -0.871219 14.829800
v -44.742508 1.549689 118.629036
v -44.915119 -2.455582 104.047882
v -44.981781 -0.015234 74.982544
v -45.162651 -0.000637 45.016743
v -45.309639 -0.001329 14.945060
v -15.010790 0.388059 119.971230
v -14.940451 -4.806862 104.294395
v -14.909571 -0.092544 75.113533
v -14.986210 0.000003 45.144508
v -15.022240 0.000001 14.996290
v -121.489029 15.033717 92.897888
v -117.779655 31.160458 90.211853
v -123.443466 15.075026 74.719246
v -115.347534 32.674103 73.498741
v -123.262344 15.097454 44.925251
v -108.164253 41.323185 42.815277
v -116.980667 67.659569 33.626015
v -122.716148 14.928721 15.263489
v -115.128212 42.776829 16.064356
v -118.996674 68.458420 24.963696
v -90.271408 6.408269 117.819252
v -101.117439 15.519008 106.989632
v -99.563255 40.779881 94.094437
v -92.994507 73.757172 92.762024
v -88.620743 90.623108 88.308952
v -103.479195 45.116051 71.200470
v -90.323883 69.848885 69.949265
v -87.991287 100.074196 68.593735
v -83.427628 114.981560 56.877132
v -103.286354 48.980202 49.773865
v -106.585838 73.839157 42.656364
v -93.194466 104.580925 46.600380
v -83.115585 115.078743 57.283401
v -107.662888 50.855579 8.215096
v -111.755188 75.752060 15.726025
v -90.135658 95.247849 16.782612
v -75.435600 15.470710 120.747604
v -65.491959 33.071426 115.782913
v -83.638077 23.687277 111.318893
v -73.047607 41.609539 105.271614
v -72.714249 71.266205 93.595032
v -73.597656 93.661156 88.478828
v -73.188873 108.966797 76.969131
v -69.542511 127.416527 61.661678
v -59.577450 148.207916 58.545460
v -80.153214 112.854156 39.177551
v -73.476028 126.182190 46.344299
v -60.300331 150.517090 43.681110
v -74.968369 108.520164 16.735632
v -68.527740 129.184189 15.739341
v -58.982922 151.085495 15.145668
v -44.789810 15.153419 125.828590
v -44.927921 40.349094 125.092735
v -44.082268 50.682030 107.605247
v -44.032997 69.704269 95.082329
v -44.348660 93.926933 87.086182
v -43.838230 107.921288 77.712112
v -43.455231 130.661484 65.374565
v -42.891953 147.647339 56.422298
v -40.882259 163.779617 41.224087
v -26.946339 173.767014 29.062567
v -45.718239 169.097153 14.944077
v -29.851551 176.986725 15.025126
v -15.214480 15.162380 122.183800
v -15.519341 35.896568 115.574150
v -15.502050 48.055637 104.624207
v -14.641150 71.061722 98.761635
v -11.732000 100.593117 86.397820
v 0.856490 117.352638 81.321205
v -20.002539 109.050606 76.894440
v -10.118019 126.882103 68.145546
v -7.823160 153.887070 51.462349
v 2.753530 169.832947 49.498848
v -16.439789 163.490082 44.418308
v -9.670580 178.418594 38.975914
v -12.036901 181.349411 15.608356
v -118.289421 -0.296731 -14.842420
v -119.521011 -1.207613 -44.936043
v -117.923309 0.464064 -74.335739
v -118.380112 0.612383 -89.017044
v -104.426575 -7.899321 -14.977449
v -104.356308 -6.740063 -44.902779
v -104.721970 -7.367516 -74.755997
v -104.121445 -1.536287 -93.230965
v -75.348404 -1.012611 -14.940270
v -75.248100 -0.755263 -44.782379
v -74.963310 -0.520536 -73.996445
v -71.801292 -1.429248 -103.430374
v -58.425941 5.099991 -113.465454
v -45.340279 -0.001201 -14.974689
v -45.236557 -0.000013 -44.958992
v -44.983082 -0.053636 -74.370041
v -44.892532 -2.008158 -104.239655
v -44.545330 5.640121 -113.039009
v -15.020600 -0.000001 -14.996671
v -14.966660 -0.000003 -45.090271
v -14.928451 -0.178256 -74.516319
v -14.998980 -5.169448 -104.739166
v -15.077519 3.300521 -115.708633
v -113.690796 14.692888 -13.484990
v -109.989532 30.958172 -1.828882
v -117.200661 8.322096 -44.694042
v -116.439133 4.891914 -73.782082
v -117.910828 2.260233 -88.779236
v -108.110031 22.957117 -22.499811
v -102.201920 40.001942 -11.184933
v -91.087257 69.498001 -10.722546
v -84.136765 91.762894 -11.846517
v -110.310150 21.404705 -43.933701
v -101.458397 42.026817 -43.330875
v -89.918045 74.136322 -43.880413
v -84.943085 90.214996 -34.279148
v -109.871185 19.795004 -73.545547
v -92.032852 41.475906 -71.866249
v -86.253952 64.484200 -62.522507
v -97.832428 11.562393 -88.232483
v -85.723511 30.039783 -86.375580
v -80.108643 109.290703 -13.638568
v -71.579292 133.266785 -14.465041
v -57.828270 149.776505 -13.870602
v -82.091217 84.205887 -53.152897
v -77.375320 100.966934 -43.498409
v -59.758591 131.754883 -42.178425
v -55.364170 146.512650 -33.268513
v -80.131264 52.009262 -80.824677
v -78.564491 74.630234 -72.880997
v -62.824829 100.074806 -69.768974
v -57.161003 123.070808 -59.356186
v -78.293625 14.986972 -113.045807
v -70.625381 40.947311 -98.754921
v -61.915302 72.513313 -88.416100
v -58.015629 90.119545 -86.355873
v -60.856762 15.255811 -116.740234
v -59.614632 29.168451 -113.912094
v -42.024330 168.396118 -12.852572
v -28.078840 173.332306 0.065177
v -53.261543 142.820450 -51.950413
v -46.573120 158.199432 -45.204750
v -43.731251 111.679825 -81.705780
v -46.219769 135.661118 -69.696861
v -36.798260 151.526917 -61.723080
v -39.770000 42.032303 -98.449554
v -41.581303 71.285774 -96.208969
v -43.339802 96.155319 -92.177658
v -44.788910 15.207711 -116.881882
v -42.987751 30.485231 -107.865723
v -13.131880 166.504028 -15.746322
v -12.060510 172.878281 -0.693973
v -14.501090 158.900330 -42.026970
v -15.902090 110.700829 -79.838158
v -15.829750 130.514420 -67.683517
v -15.119090 151.756775 -61.736061
v -23.501789 50.860275 -109.724442
v -15.554649 73.964294 -114.452187
v -15.621910 96.256470 -93.071297
v -15.036280 15.244591 -117.533203
v -14.859650 43.342052 -115.135803
v -5.684870 60.960590 -116.329964
v 15.176889 1.793369 118.431618
v 15.021660 -5.347412 104.330978
v 15.001381 -0.185684 75.168365
v 14.995630 0.000003 45.169121
v 15.002810 0.000001 15.000549
v 44.977287 -0.370301 121.050148
v 44.953480 -5.705101 104.381332
v 45.051048 -0.089554 75.065918
v 45.219997 0.000003 45.091782
v 45.283169 0.000001 15.008390
v 74.020584 0.728289 119.830780
v 74.595741 -4.746532 104.308212
v 74.604942 -0.223494 74.578384
v 75.168900 -0.252497 44.831329
v 75.374550 -0.239179 15.022020
v 88.516769 2.684799 116.806702
v 102.575821 -2.451293 101.734909
v 104.549225 -5.748474 74.770218
v 104.511032 -7.824437 44.871132
v 104.424248 -7.782099 14.999841
v 114.017021 4.163617 87.006569
v 116.521286 2.138596 73.979370
v 119.202957 -0.764237 44.757610
v 120.450783 -1.881389 14.966140
v 15.142060 15.063749 124.800072
v 16.156460 29.731007 104.420662
v 15.854011 45.879238 103.574486
v 15.809391 71.954819 98.936539
v 15.744220 102.844490 93.615143
v 15.375950 125.898842 89.160988
v 15.124691 139.209122 80.148148
v 17.064020 171.078796 75.062317
v 6.983871 170.858932 51.235287
v 22.530369 173.077545 53.039440
v 16.142990 188.420532 46.543884
v 15.796949 202.218658 14.776344
v 45.091110 15.184109 129.058777
v 46.434486 42.479645 118.429382
v 58.417202 72.964729 114.664879
v 60.884964 83.422165 109.864304
v 39.321629 49.323219 104.516975
v 45.439857 71.240349 102.972786
v 45.667061 95.884026 93.314308
v 32.093399 123.001503 84.442696
v 48.742188 109.785789 78.546410
v 39.120758 130.184464 70.833412
v 29.288139 153.656006 62.717899
v 47.997520 137.740570 43.291801
v 32.489250 163.034180 44.284309
v 25.520050 176.522736 35.841198
v 47.148949 138.905212 14.043429
v 34.893791 158.888718 14.037397
v 26.787169 177.912140 14.601576
v 75.247437 14.906870 131.355133
v 78.622391 47.081482 130.644119
v 65.763611 74.007759 119.774406
v 52.362789 77.811295 103.954872
v 83.491684 54.104778 113.464211
v 78.713295 73.791138 104.564659
v 64.025932 91.927414 102.962959
v 82.297783 82.733307 82.655846
v 71.631821 100.408524 72.866943
v 56.404400 117.565689 61.035152
v 80.400658 83.493576 33.486774
v 77.491028 100.478302 43.517662
v 60.627769 123.450485 43.996841
v 80.638336 83.753738 25.331465
v 72.814743 97.033623 14.373582
v 57.737450 124.085342 14.156931
v 87.955742 15.291238 116.412651
v 84.976837 35.824486 113.630219
v 99.314255 15.240758 98.289078
v 93.091057 39.858017 97.852386
v 87.105858 63.282669 95.389854
v 108.005035 45.789684 73.898071
v 91.739960 73.019608 74.009193
v 85.913406 88.703270 64.819374
v 111.013649 25.874712 31.701067
v 105.142380 40.526703 43.218426
v 89.564171 72.779991 44.209339
v 83.941154 87.773308 53.180664
v 109.795677 25.368862 24.546137
v 101.947723 37.139820 13.570888
v 87.543289 72.008888 14.332894
v 82.119934 86.370117 3.965914
v 113.946579 15.063726 87.015831
v 112.214828 27.823317 86.043777
v 115.145378 14.921625 73.920586
v 117.931755 32.530933 74.293915
v 118.450661 16.753344 42.752209
v 114.692345 32.206764 51.448345
v 112.686455 15.696812 14.362669
v 108.430473 26.828051 2.973778
v 15.011271 -0.000001 -15.011030
v 15.084710 -0.000003 -45.203789
v 15.113029 -0.149256 -74.411629
v 13.052711 -3.585998 -104.797066
v 0.521230 4.174441 -114.529114
v 45.238861 -0.000001 -14.983580
v 45.117870 -0.000153 -45.184341
v 44.863262 -2.469446 -74.262672
v 45.015148 -6.641717 -98.408882
v 75.199493 -0.088161 -14.783140
v 74.594849 -0.068873 -44.654430
v 74.259018 -3.605976 -74.140450
v 74.052559 -1.466527 -91.630371
v 104.127701 -5.279851 -14.761141
v 104.377892 -4.961524 -44.652180
v 101.950645 -2.048306 -71.551849
v 84.071236 6.116084 -81.440697
v 121.994720 -2.842271 -14.858789
v 119.606102 -0.408403 -44.469719
v 111.295074 5.840436 -54.744610
v 10.065531 165.044739 -17.726374
v 16.891180 175.376099 -10.829933
v 19.897730 139.294678 -49.406071
v 13.521490 154.456299 -34.207020
v 27.333332 175.465393 -26.877974
v 20.727360 80.505989 -78.794441
v 10.775980 98.195473 -71.242577
v 12.078520 131.556992 -61.386890
v 1.551900 146.799194 -55.882523
v 18.225729 16.934362 -108.805046
v 20.787720 43.996902 -112.340279
v 13.838130 73.189941 -102.864082
v 2.912980 89.505867 -87.511742
v 4.494770 16.283060 -114.088654
v 6.557270 44.407593 -116.661613
v 2.364640 60.093761 -115.133331
v 52.375031 143.190048 -14.000220
v 40.679520 161.565567 -13.970412
v 29.137249 177.711975 -13.627123
v 52.260250 112.757439 -52.337826
v 41.982311 130.987061 -41.018192
v 32.548061 160.453705 -30.296360
v 28.384970 175.428787 -26.841532
v 50.095062 50.554161 -78.749908
v 38.761639 69.477814 -71.449844
v 40.303158 100.439064 -57.666512
v 32.494461 119.778618 -55.091309
v 43.406090 15.525482 -104.101700
v 46.369728 45.670601 -102.363419
v 30.285891 60.954323 -87.417397
v 76.792511 105.529015 -14.714078
v 62.651821 127.762268 -14.302959
v 79.004196 77.261978 -49.184288
v 70.959221 102.440857 -43.032440
v 56.151993 120.093391 -32.042019
v 76.317909 16.627804 -75.564812
v 66.286247 39.850376 -69.070114
v 69.797020 69.072685 -59.518993
v 61.027451 93.681984 -57.367367
v 73.624184 12.761783 -94.224228
v 63.485432 35.309513 -93.023598
v 106.321411 46.374989 -12.096434
v 101.350639 68.010979 -18.208946
v 86.344925 90.358215 -15.154876
v 110.027321 18.350525 -48.969589
v 107.711426 44.025475 -46.172802
v 102.414154 70.984932 -43.254776
v 88.298607 91.448776 -33.037476
v 99.391800 9.922256 -68.544937
v 85.684479 39.877506 -53.898323
v 84.733063 57.514896 -53.709415
v 80.444107 -0.126916 -76.329567
v 121.954079 14.745809 -14.989221
v 110.462227 39.783859 -18.856983
v 112.441971 56.451946 -29.581425
v 115.231239 11.466197 -41.897541
v 116.497375 44.048325 -31.504175
v 111.474487 55.731636 -27.317833
v 112.508453 0.050556 -55.509560
vn -0.1983 -0.9757 0.0933
vn -0.1985 -0.9776 0.0703
vn -0.1982 -0.9777 0.0693
vn -0.2000 -0.9774 0.0690
vn -0.1984 -0.9785 0.0560
vn -0.0379 -0.9414 0.3351
vn 0.0333 -0.9964 -0.0785
vn 0.0987 -0.9927 0.0689
vn 0.1996 -0.9727 0.1187
vn 0.0447 -0.9650 0.2583
vn 0.0473 -0.9637 0.2630
vn 0.0441 -0.9654 0.2572
vn 0.0030 -0.9923 -0.1241
vn -0.0000 -1.0000 0.0032
vn 0.0046 -1.0000 0.0025
vn 0.0076 -1.0000 0.0008
vn 0.0289 -0.9994 0.0213
vn -0.0776 -0.9611 0.2649
vn -0.0022 -0.9965 -0.0837
vn -0.0016 -1.0000 -0.0001
vn -0.0018 -1.0000 -0.0020
vn -0.0000 -1.0000 -0.0000
vn 0.0049 -1.0000 -0.0000
vn -0.9005 -0.4241 0.0959
vn -0.9069 0.4106 -0.0948
vn -0.9181 -0.3963 -0.0059
vn -0.8671 0.4941 -0.0637
vn -0.9676 -0.2518 -0.0164
vn -0.8319 0.4985 0.2437
vn -0.9555 -0.2142 0.2026
vn -0.7374 -0.0824 0.6704
vn -0.7379 -0.0822 0.6699
vn -0.7337 -0.0836 0.6743
vn -0.7333 -0.0838 0.6747
vn -0.4018 0.4358 0.8054
vn -0.4019 0.4358 0.8053
vn -0.4027 0.4357 0.8050
vn -0.6779 0.6923 0.2471
vn -0.8722 0.4548 -0.1800
vn -0.9970 0.0772 0.0052
vn -0.7073 0.6968 0.1193
vn -0.8564 0.0338 0.5152
vn -0.6892 0.1134 0.7157
vn -0.8920 0.3522 0.2832
vn 0.7201 -0.5515 -0.4212
vn -0.7710 0.1017 -0.6286
vn -0.6095 0.7739 0.1720
vn -0.8837 0.4132 -0.2200
vn -0.1347 -0.0981 0.9860
vn -0.4330 0.4585 0.7761
vn -0.4331 0.4583 0.7761
vn -0.4314 0.4599 0.7761
vn -0.4452 0.5111 0.7352
vn -0.3535 0.4798 0.8030
vn 0.0068 0.3663 0.9305
vn -0.0556 0.2203 0.9739
vn -0.6320 0.4765 0.6112
vn -0.6661 0.5498 0.5040
vn -0.6018 0.7748 -0.1937
vn -0.6847 0.7192 0.1179
vn -0.8679 0.4827 0.1172
vn -0.6257 0.7240 -0.2902
vn -0.6308 0.7214 -0.2859
vn -0.6317 0.7209 -0.2852
vn -0.8693 0.4855 -0.0929
vn -0.9165 0.3985 -0.0344
vn 0.0425 -0.4672 0.8831
vn -0.4194 0.0242 0.9075
vn -0.4685 0.7704 0.4325
vn -0.0134 0.5498 0.8352
vn -0.0322 0.3129 0.9492
vn -0.0012 0.5566 0.8308
vn 0.0020 0.5567 0.8307
vn 0.0005 0.5565 0.8308
vn -0.1815 0.4713 0.8631
vn 0.1273 0.4591 0.8792
vn -0.3690 0.6613 0.6531
vn -0.7763 0.5746 0.2591
vn -0.4279 0.8576 0.2853
vn -0.0504 -0.1486 0.9876
vn 0.1165 0.3032 0.9458
vn 0.1377 0.6627 0.7361
vn 0.1226 0.2408 0.9628
vn -0.0604 0.3905 0.9186
vn -0.1248 0.6848 0.7180
vn -0.3811 0.5688 0.7288
vn -0.0231 0.4506 0.8924
vn 0.0272 0.5237 0.8515
vn 0.0076 0.5958 0.8031
vn -0.3663 0.4608 0.8084
vn -0.5292 0.4920 0.6913
vn -0.3367 0.9295 0.1507
vn -0.3146 -0.9474 -0.0591
vn -0.3425 -0.9386 0.0424
vn -0.3417 -0.9371 -0.0719
vn -0.5100 -0.8601 0.0072
vn 0.2303 -0.9725 0.0344
vn 0.2303 -0.9724 -0.0371
vn 0.2238 -0.9745 0.0177
vn 0.2217 -0.9319 -0.2869
vn 0.0304 -0.9995 -0.0010
vn 0.0313 -0.9995 0.0023
vn 0.0337 -0.9994 -0.0019
vn 0.0317 -0.9995 -0.0025
vn 0.0204 -0.9998 -0.0030
vn 0.0176 -0.9998 -0.0051
vn 0.0158 -0.9993 0.0326
vn 0.0160 -0.9993 0.0326
vn 0.0137 -0.9994 0.0324
vn -0.0349 -0.8158 -0.5773
vn -0.0000 -1.0000 0.0001
vn -0.0020 -1.0000 0.0039
vn -0.0027 -1.0000 0.0002
vn -0.0038 -0.9979 0.0653
vn -0.1186 -0.7471 -0.6540
vn -0.9465 -0.1286 -0.2961
vn -0.8741 0.2502 -0.4163
vn -0.9561 0.2889 0.0485
vn -0.9699 0.2375 -0.0534
vn -0.9489 0.3133 0.0381
vn -0.9033 0.3659 -0.2238
vn -0.8562 0.3091 -0.4139
vn -0.7796 0.0599 -0.6234
vn -0.9324 0.2795 -0.2294
vn -0.8847 0.4626 0.0573
vn -0.9446 0.3282 -0.0012
vn -0.9409 0.3384 0.0142
vn -0.9545 0.2978 0.0130
vn -0.9564 0.2921 0.0076
vn -0.9543 0.2986 0.0137
vn -0.8832 0.4674 -0.0385
vn -0.7368 0.6260 -0.2555
vn -0.8879 0.3134 -0.3368
vn -0.2484 0.2073 -0.9462
vn -0.6498 0.2975 -0.6994
vn -0.5623 0.5129 -0.6487
vn -0.9569 0.2371 0.1679
vn -0.9314 0.3362 0.1395
vn -0.7660 0.6401 -0.0594
vn -0.8644 0.4265 -0.2664
vn -0.8741 0.4412 -0.2030
vn -0.8724 0.2970 -0.3883
vn -0.7452 0.6356 -0.2016
vn -0.7491 0.6312 -0.2014
vn -0.7488 0.6313 -0.2020
vn -0.7505 0.4016 -0.5248
vn -0.8833 0.3398 -0.3229
vn -0.7658 0.4689 -0.4401
vn -0.8025 0.4747 -0.3613
vn -0.2696 0.4536 -0.8495
vn -0.7076 0.5126 -0.4864
vn -0.7375 0.3357 -0.5860
vn -0.7378 0.3355 -0.5857
vn -0.7304 0.3361 -0.5946
vn -0.6314 0.2955 -0.7169
vn -0.7058 0.4982 -0.5036
vn -0.1897 -0.3422 -0.9203
vn -0.4357 0.5294 -0.7279
vn -0.7541 0.6464 -0.1165
vn -0.4286 0.8647 -0.2620
vn -0.9090 0.3775 -0.1769
vn -0.8263 0.5600 -0.0603
vn -0.6529 0.4400 -0.6166
vn -0.8216 0.3352 -0.4612
vn -0.6223 0.5252 -0.5804
vn -0.0016 0.3116 -0.9502
vn -0.3421 0.1836 -0.9216
vn -0.4869 0.4800 -0.7298
vn -0.0093 -0.3089 -0.9510
vn -0.0080 0.1999 -0.9798
vn -0.0147 0.6344 -0.7729
vn 0.0227 0.9255 -0.3782
vn 0.0033 0.8873 -0.4611
vn 0.0356 0.9595 -0.2795
vn 0.0349 0.9595 -0.2794
vn 0.1353 0.4548 -0.8802
vn 0.1258 0.3849 -0.9144
vn -0.0102 0.9402 -0.3405
vn -0.5774 0.0288 -0.8160
vn -0.5774 0.0288 -0.8159
vn -0.5791 0.0266 -0.8148
vn -0.0324 0.1577 -0.9870
vn -0.0262 0.6750 -0.7373
vn -0.0198 -0.3731 -0.9276
vn -0.0195 0.5099 -0.8600
vn -0.3479 0.2503 -0.9035
vn -0.3005 -0.0909 -0.9495
vn 0.0601 -0.9474 0.3142
vn -0.0028 -0.9872 -0.1595
vn -0.0000 -1.0000 -0.0055
vn -0.0011 -1.0000 -0.0056
vn -0.0114 -0.8920 0.4519
vn -0.0140 -0.8920 0.4519
vn -0.0145 -0.9846 -0.1743
vn -0.0115 -0.9846 -0.1743
vn 0.0020 -1.0000 -0.0047
vn -0.0000 -1.0000 -0.0062
vn -0.0007 -1.0000 0.0017
vn 0.0488 -0.9513 0.3044
vn 0.0313 -0.9817 -0.1879
vn -0.0065 -1.0000 -0.0011
vn -0.0076 -1.0000 -0.0015
vn -0.0081 -1.0000 -0.0002
vn 0.1940 -0.9229 0.3327
vn 0.0671 -0.9864 -0.1500
vn -0.1814 -0.9834 -0.0025
vn -0.2506 -0.9681 -0.0014
vn -0.2499 -0.9683 -0.0022
vn 0.6242 -0.7687 0.1397
vn 0.5519 -0.8320 0.0571
vn 0.4331 -0.9013 -0.0025
vn -0.0789 -0.4315 0.8987
vn 0.3438 0.7540 0.5597
vn 0.3412 0.0556 0.9383
vn -0.0108 0.1751 0.9845
vn -0.2631 0.1632 0.9508
vn -0.5373 0.1517 0.8297
vn -0.6125 0.4353 0.6599
vn -0.7330 0.1505 0.6634
vn -0.7174 0.6299 0.2977
vn -0.1471 0.9877 0.0531
vn -0.4302 0.4356 0.7907
vn -0.4274 0.8275 0.3641
vn -0.1237 -0.4535 0.8826
vn -0.5080 0.3342 0.7939
vn -0.5290 0.6226 0.5767
vn -0.6676 0.2361 0.7061
vn -0.1317 0.1062 0.9856
vn -0.5771 0.3026 0.7585
vn -0.1171 0.3633 0.9243
vn 0.0909 0.3505 0.9322
vn 0.6156 0.5058 0.6043
vn 0.4747 0.6533 0.5899
vn 0.4660 0.4571 0.7575
vn 0.7958 0.4724 0.3789
vn 0.8004 0.4658 0.3773
vn 0.7964 0.4666 0.3847
vn 0.8008 0.4661 0.3762
vn 0.7982 0.4695 0.3775
vn 0.7876 0.5633 0.2498
vn 0.8524 0.5228 -0.0039
vn 0.8525 0.5228 -0.0039
vn 0.8866 0.4625 0.0071
vn 0.9084 0.4102 0.0810
vn -0.0649 -0.6260 0.7771
vn -0.3615 0.0585 0.9305
vn -0.3719 0.1892 0.9088
vn -0.4923 0.6541 0.5743
vn 0.7390 0.5239 0.4236
vn 0.6344 0.5607 0.5321
vn 0.6842 -0.5949 -0.4218
vn 0.7082 0.6056 0.3630
vn 0.0570 0.9571 0.2841
vn 0.4312 0.7393 0.5172
vn 0.6908 0.7094 0.1396
vn 0.6823 0.6219 0.3844
vn 0.6818 0.6222 0.3847
vn 0.6824 0.6220 0.3840
vn 0.9882 0.1495 0.0336
vn 0.7886 0.5830 -0.1954
vn 0.7494 0.6595 -0.0586
vn 0.1990 0.0395 0.9792
vn 0.7447 0.1945 0.6384
vn 0.7488 0.2570 0.6109
vn 0.8319 0.1913 0.5209
vn 0.8787 0.0757 0.4713
vn 0.9104 0.2659 0.3171
vn 0.7895 0.2602 0.5559
vn 0.8091 0.4486 0.3796
vn 0.8065 0.4919 0.3281
vn 0.8874 0.4334 -0.1572
vn 0.9195 0.3869 -0.0702
vn 0.9272 0.2951 -0.2308
vn 0.5698 0.8059 -0.1609
vn 0.8878 0.4231 -0.1810
vn 0.9138 0.3806 -0.1419
vn 0.8297 0.5537 -0.0704
vn 0.8994 0.4220 0.1140
vn 0.6103 0.0033 0.7921
vn 0.6052 0.1418 0.7833
vn 0.9794 0.1062 0.1718
vn 0.9861 0.1406 0.0887
vn 0.6689 0.5174 0.5337
vn 0.6688 0.5175 0.5338
vn 0.6696 0.5172 0.5330
vn 0.9910 0.1070 0.0803
vn 0.9782 0.1738 0.1139
vn 0.7642 0.5590 -0.3216
vn 0.7963 0.5926 -0.1213
vn 0.9981 0.0474 0.0400
vn 0.8617 0.4695 -0.1924
vn 0.9457 0.3227 -0.0380
vn 0.0005 -1.0000 0.0057
vn 0.0004 -1.0000 0.0048
vn 0.0559 -0.9851 0.1626
vn 0.0902 -0.7880 -0.6091
vn -0.0014 -1.0000 -0.0001
vn -0.0778 -0.9970 0.0050
vn -0.1181 -0.9858 0.1195
vn -0.0067 -1.0000 -0.0037
vn -0.0026 -1.0000 -0.0003
vn -0.0388 -0.9956 0.0849
vn 0.1344 -0.9763 0.1695
vn -0.1765 -0.9843 -0.0050
vn -0.1766 -0.9843 -0.0039
vn -0.1765 -0.9842 -0.0109
vn -0.1621 -0.9868 0.0026
vn 0.0447 -0.9919 0.1185
vn 0.6624 -0.7426 -0.0987
vn 0.3442 -0.9353 -0.0821
vn 0.2865 -0.9580 -0.0078
vn 0.7712 -0.6217 -0.1369
vn 0.0245 0.9199 -0.3913
vn -0.4689 0.5996 -0.6486
vn 0.2666 0.8353 -0.4808
vn -0.6195 0.6758 -0.3993
vn 0.1703 0.5148 -0.8402
vn 0.4708 0.5687 -0.6745
vn 0.3838 0.2370 -0.8925
vn 0.2603 0.8562 -0.4462
vn 0.5590 0.7351 -0.3835
vn 0.4244 0.6275 -0.6529
vn 0.4912 0.6471 -0.5830
vn 0.5470 -0.1496 -0.8236
vn 0.0829 -0.1508 -0.9851
vn 0.3615 -0.1112 -0.9257
vn 0.1688 0.0827 -0.9822
vn 0.2908 0.1695 -0.9416
vn -0.0695 -0.0314 -0.9971
vn 0.3341 0.4717 -0.8160
vn 0.8291 0.5085 0.2322
vn 0.7961 0.5644 0.2184
vn -0.1924 0.9811 -0.0230
vn 0.7660 0.4218 -0.4851
vn -0.0701 0.6914 -0.7191
vn 0.8347 0.3332 -0.4384
vn 0.1156 0.2586 -0.9591
vn 0.0402 0.9842 -0.1723
vn 0.3240 0.5197 -0.7905
vn 0.2081 0.2112 -0.9550
vn 0.4113 0.2434 -0.8784
vn 0.4099 0.2435 -0.8790
vn 0.4006 0.2450 -0.8829
vn 0.4665 0.5113 -0.7217
vn 0.1666 -0.2298 -0.9589
vn 0.1689 -0.2335 -0.9576
vn 0.1663 -0.2292 -0.9591
vn 0.1739 -0.1437 -0.9742
vn 0.5338 0.8074 -0.2512
vn 0.7666 0.3560 -0.5344
vn 0.5806 0.5490 -0.6012
vn 0.8386 0.4813 0.2551
vn 0.8441 0.4725 0.2534
vn 0.8384 0.4816 0.2551
vn 0.7946 0.5694 0.2108
vn 0.6776 0.7030 -0.2162
vn 0.7009 0.6172 -0.3575
vn 0.7261 0.4931 -0.4792
vn 0.3164 0.5004 -0.8059
vn 0.5969 0.2785 -0.7524
vn 0.1424 0.3966 -0.9069
vn 0.5839 0.4470 -0.6777
vn 0.2850 -0.2190 -0.9332
vn 0.8868 0.4101 -0.2130
vn 0.4806 0.0033 -0.8770
vn 0.6249 0.7505 -0.2153
vn 0.8890 0.3611 0.2814
vn 0.8123 0.5104 0.2823
vn 0.8142 0.5055 0.2855
vn 0.8124 0.5104 0.2820
vn 0.8148 0.5047 0.2853
vn 0.8140 0.5059 0.2854
vn 0.8415 0.5311 0.0988
vn 0.6284 0.3682 -0.6852
vn 0.8413 0.5261 0.1240
vn 0.6065 0.5556 -0.5687
vn 0.5536 0.4374 -0.7087
vn 0.3262 0.0277 -0.9449
vn 0.4945 0.2158 -0.8420
vn 0.3085 0.2966 -0.9038
vn 0.5650 0.3126 -0.7636
vn 0.7451 -0.0978 -0.6598
vn 0.3212 0.1220 -0.9391
vn 0.9987 0.0027 0.0516
vn 0.8026 0.5480 0.2357
vn 0.9153 0.3031 0.2651
vn 0.9154 0.3031 0.2650
vn 0.9021 0.1526 0.4037
vn 0.9340 0.3541 -0.0462
vn 0.9682 0.0411 -0.2469
vn 0.8534 0.1285 -0.5052
vn 0.8510 0.1313 -0.5085
vn 0.8503 0.1322 -0.5095
vn 0.8545 0.2054 0.4770
vn 0.9231 0.2158 -0.3182
vn -0.8220 -0.3374 -0.4587
vn 0.8171 0.3925 -0.4222
vn 0.7638 0.3060 -0.5683
vn 0.8811 0.2605 -0.3947
vn -0.3664 -0.9284 -0.0622
vn -0.1983 -0.9777 0.0693
vn -0.3114 -0.9426 0.1209
vn -0.1100 -0.9596 0.2590
vn -0.0122 -0.9922 -0.1240
vn 0.0328 -0.9994 0.0051
vn 0.0989 -0.9949 0.0207
vn 0.0479 -0.9633 0.2640
vn 0.0432 -0.9956 -0.0837
vn -0.0512 -0.9481 0.3139
vn -0.0759 -0.9843 -0.1591
vn -0.9094 -0.3974 0.1231
vn -0.9653 0.2394 0.1043
vn -0.9653 -0.2520 0.0686
vn -0.9086 0.4176 -0.0052
vn -0.9894 -0.1388 0.0432
vn -0.9645 0.2634 -0.0193
vn -0.9438 -0.2347 0.2329
vn -0.7306 -0.1005 0.6753
vn -0.5000 -0.4526 0.7384
vn -0.5536 0.2592 0.7914
vn -0.4689 0.8832 0.0118
vn -0.9590 0.1992 0.2018
vn -0.9660 0.2111 -0.1493
vn -0.8277 0.5600 -0.0359
vn -0.8786 0.4712 0.0771
vn -0.7903 -0.0515 0.6106
vn -0.8499 0.0889 0.5194
vn -0.8212 0.4888 0.2944
vn -0.8038 0.0468 -0.5931
vn -0.5538 0.8074 0.2034
vn -0.6637 0.7263 0.1790
vn -0.1295 -0.0843 0.9880
vn -0.4085 0.4546 0.7915
vn -0.4297 0.4616 0.7761
vn -0.4029 0.4357 0.8049
vn -0.3889 0.1144 0.9141
vn -0.0081 0.2572 0.9663
vn -0.1844 0.8886 0.4201
vn -0.6360 0.5877 0.5001
vn -0.8288 0.5227 -0.1998
vn 0.5837 -0.7676 -0.2647
vn -0.8743 0.4473 0.1885
vn -0.6251 0.7244 -0.2908
vn -0.9237 0.2751 -0.2665
vn -0.8797 0.4657 -0.0965
vn -0.1638 -0.0998 0.9814
vn -0.1500 0.3460 0.9262
vn -0.2609 0.6490 0.7147
vn -0.1869 0.3617 0.9134
vn 0.0443 0.2242 0.9735
vn 0.0326 0.6001 0.7992
vn 0.0032 0.6381 0.7699
vn -0.1645 0.2228 0.9609
vn 0.0524 0.9872 0.1508
vn -0.5648 0.8252 -0.0096
vn -0.4082 0.8772 0.2526
vn 0.1084 -0.4647 0.8788
vn 0.3118 0.0294 0.9497
vn 0.2851 0.8191 0.4978
vn -0.1289 0.5455 0.8281
vn -0.1322 0.3092 0.9418
vn 0.0021 0.5565 0.8309
vn -0.3684 0.5118 0.7761
vn 0.0076 0.4768 0.8790
vn -0.0206 0.4667 0.8842
vn -0.0859 0.6888 0.7198
vn -0.3431 0.3356 0.8773
vn -0.0670 0.8074 0.5862
vn -0.2376 0.9349 0.2636
vn -0.4803 -0.8764 0.0344
vn -0.4808 -0.8761 -0.0351
vn -0.5095 -0.8601 0.0243
vn -0.2282 -0.9263 -0.2998
vn 0.2007 -0.9797 0.0044
vn 0.2014 -0.9795 -0.0068
vn 0.2014 -0.9795 -0.0078
vn 0.2014 -0.9795 -0.0059
vn 0.0135 -0.9994 0.0323
vn 0.0290 -0.9996 -0.0000
vn 0.0156 -0.9999 0.0020
vn -0.0195 -0.9977 0.0652
vn 0.0495 -0.7548 -0.6541
vn -0.1011 -0.9815 0.1623
vn -0.0935 -0.7884 -0.6081
vn -0.9530 0.2975 -0.0566
vn -0.8743 0.3980 -0.2778
vn -0.9713 0.2357 0.0326
vn -0.9464 0.3214 -0.0332
vn -0.9625 0.2694 0.0327
vn -0.8477 0.4643 -0.2568
vn -0.8295 0.3259 -0.4535
vn -0.8468 0.3257 -0.4206
vn -0.5362 0.6254 -0.5669
vn -0.8373 0.5465 -0.0174
vn -0.9176 0.3920 0.0658
vn -0.9358 0.3526 0.0006
vn -0.9565 0.2917 0.0071
vn -0.9123 0.4032 -0.0714
vn -0.9180 0.3951 -0.0351
vn -0.8891 0.3453 -0.3004
vn -0.1712 0.4220 -0.8903
vn -0.4148 0.9023 -0.1176
vn -0.5596 0.4375 -0.7039
vn -0.6422 0.7331 -0.2238
vn -0.9391 0.3007 0.1665
vn -0.9055 0.3986 0.1454
vn -0.8803 0.3971 -0.2595
vn -0.9740 0.2258 0.0194
vn -0.8438 0.4920 -0.2144
vn -0.8060 0.4628 -0.3690
vn -0.8730 0.2143 -0.4381
vn -0.8679 0.3504 -0.3520
vn -0.7618 0.5187 -0.3880
vn -0.7953 0.4015 -0.4541
vn -0.6077 -0.5664 -0.5567
vn -0.7370 0.4798 -0.4761
vn -0.7379 0.3358 -0.5855
vn -0.6921 0.3899 -0.6075
vn -0.6485 0.2286 -0.7261
vn -0.2986 -0.5675 -0.7673
vn -0.2057 0.2125 -0.9553
vn -0.8041 0.5915 -0.0587
vn -0.2818 0.9575 -0.0616
vn -0.8676 0.4601 -0.1886
vn -0.7412 0.6402 -0.2019
vn -0.7878 0.2085 -0.5796
vn -0.9151 0.2870 -0.2834
vn -0.6170 0.6139 -0.4925
vn -0.3548 0.0495 -0.9336
vn -0.4077 0.1179 -0.9055
vn -0.6569 0.5471 -0.5188
vn 0.0429 -0.3714 -0.9275
vn 0.2696 0.4656 -0.8429
vn 0.1331 0.8271 -0.5461
vn 0.0076 0.9206 -0.3904
vn -0.2220 0.9408 -0.2561
vn 0.0091 0.9533 -0.3017
vn 0.0754 0.5212 -0.8501
vn -0.0034 0.2697 -0.9629
vn 0.0160 0.9303 -0.3664
vn -0.5758 0.0309 -0.8170
vn -0.5002 0.5986 -0.6257
vn 0.0751 0.5589 -0.8258
vn -0.1010 -0.1499 -0.9835
vn -0.2849 0.0833 -0.9549
vn -0.6527 0.5797 -0.4878
vn -0.4211 0.1587 -0.8930
vn -0.0166 -0.8919 0.4519
vn -0.0175 -0.9845 -0.1743
vn -0.0955 -0.9480 0.3035
vn 0.0025 -0.9821 -0.1881
vn 0.0313 -0.9422 0.3335
vn -0.0070 -0.9886 -0.1504
vn -0.0079 -1.0000 -0.0028
vn 0.1121 -0.9040 0.4126
vn -0.1811 -0.9777 0.1063
vn -0.2494 -0.9661 0.0674
vn -0.2513 -0.9679 -0.0006
vn 0.5459 -0.8056 0.2302
vn 0.4304 -0.8935 0.1283
vn 0.3452 -0.9372 0.0496
vn 0.0572 -0.1471 0.9875
vn -0.0809 0.3016 0.9500
vn 0.0711 0.6674 0.7413
vn 0.0494 0.2449 0.9683
vn -0.0167 0.3875 0.9217
vn -0.2610 0.4541 0.8519
vn -0.5447 0.3953 0.7396
vn -0.5557 0.4706 0.6854
vn -0.4288 0.3851 0.8172
vn -0.1551 0.3297 0.9313
vn -0.4010 0.4184 0.8149
vn -0.5892 0.7922 0.1590
vn -0.1100 -0.4303 0.8960
vn -0.0856 0.8107 0.5792
vn -0.0476 0.0514 0.9975
vn -0.7456 0.3622 0.5594
vn -0.0651 0.1746 0.9825
vn -0.6323 0.4415 0.6367
vn 0.0494 0.1697 0.9843
vn 0.2966 0.1857 0.9368
vn 0.6192 0.5159 0.5920
vn 0.3141 0.5364 0.7834
vn 0.7500 0.0595 0.6587
vn 0.8671 0.4284 0.2541
vn 0.8558 0.4581 0.2405
vn 0.9177 0.3891 0.0799
vn 0.9180 0.3889 0.0770
vn 0.9178 0.3888 0.0802
vn 0.8494 0.4874 0.2024
vn 0.0546 -0.4574 0.8876
vn -0.0674 0.3649 0.9286
vn -0.5714 0.3180 0.7566
vn 0.6883 -0.4305 -0.5839
vn 0.6903 0.4305 0.5816
vn -0.5829 0.5252 0.6200
vn -0.2313 0.6631 0.7119
vn 0.7036 0.6185 0.3498
vn 0.7031 0.6186 0.3508
vn 0.7024 0.6187 0.3519
vn 0.4181 0.6164 0.6673
vn 0.6755 0.5173 0.5254
vn 0.7513 0.5437 0.3740
vn 0.6769 0.6246 0.3895
vn 0.9064 0.3772 -0.1900
vn 0.8713 0.4851 -0.0741
vn 0.8137 0.5813 -0.0005
vn 0.6636 -0.5056 0.5514
vn 0.9130 -0.0870 0.3985
vn 0.8462 0.0542 0.5302
vn 0.8429 0.2218 0.4902
vn 0.9500 0.0799 0.3019
vn 0.8566 0.3704 0.3593
vn 0.7924 0.4718 0.3866
vn 0.8562 0.4140 0.3091
vn 0.7038 0.6184 0.3496
vn 0.8565 0.5119 -0.0666
vn 0.9518 0.2475 -0.1811
vn 0.8458 0.4692 -0.2540
vn 0.8228 0.5437 0.1656
vn 0.8727 0.4654 -0.1472
vn 0.8973 0.4356 -0.0719
vn 0.7376 0.6739 0.0430
vn 0.8054 0.5791 0.1268
vn 0.7031 0.2586 0.6624
vn 0.5907 0.1633 0.7902
vn 0.9958 0.0064 0.0911
vn 0.9114 -0.1523 0.3824
vn 0.6612 0.5203 0.5405
vn 0.9926 0.0550 0.1085
vn 0.9789 -0.1520 -0.1366
vn 0.8824 0.3747 -0.2845
vn 0.7301 0.6589 -0.1812
vn 0.8993 0.3904 -0.1971
vn 0.8738 0.4514 -0.1807
vn 0.8389 0.5441 -0.0163
vn 0.0009 -1.0000 0.0051
vn 0.0006 -0.9937 0.1124
vn 0.0412 -0.7546 -0.6549
vn -0.0001 -0.9964 0.0846
vn -0.0775 -0.9825 0.1693
vn -0.0045 -0.9929 0.1192
vn -0.0378 -0.9919 -0.1209
vn -0.2506 -0.9649 -0.0786
vn -0.1766 -0.9842 -0.0120
vn -0.1614 -0.9826 -0.0919
vn 0.1065 -0.6636 -0.7405
vn 0.1353 -0.9900 0.0389
vn 0.1341 -0.9867 -0.0919
vn 0.2285 -0.7387 -0.6341
vn -0.2987 0.6585 -0.6908
vn -0.2314 0.8634 -0.4483
vn 0.0365 0.9595 -0.2795
vn -0.6262 0.5896 -0.5101
vn 0.3996 0.2453 -0.8833
vn 0.4739 0.7148 -0.5142
vn 0.1816 0.4425 -0.8782
vn 0.3729 0.8685 -0.3265
vn 0.5752 0.5729 -0.5840
vn 0.2603 0.7483 -0.6101
vn 0.4236 0.6164 -0.6638
vn 0.3572 -0.2650 -0.8956
vn 0.1748 -0.0215 -0.9844
vn 0.2833 -0.1505 -0.9471
vn -0.0665 -0.0861 -0.9941
vn 0.4473 0.3707 -0.8140
vn 0.1602 0.1380 -0.9774
vn 0.1697 0.2658 -0.9490
vn 0.8231 0.5235 0.2201
vn 0.9182 0.3891 0.0737
vn 0.8463 0.3853 -0.3678
vn 0.7671 0.4889 -0.4154
vn 0.4574 0.4297 -0.7786
vn 0.8034 0.5774 -0.1455
vn 0.0418 0.2356 -0.9709
vn -0.2153 0.9672 -0.1347
vn 0.5205 0.3255 -0.7894
vn 0.3208 0.6236 -0.7129
vn 0.3847 0.2728 -0.8818
vn 0.5133 0.5283 -0.6763
vn 0.1690 -0.2336 -0.9575
vn 0.3623 0.0181 -0.9319
vn 0.5615 0.5683 -0.6014
vn 0.1829 0.7790 -0.5997
vn 0.7545 0.5359 -0.3788
vn 0.8267 0.5219 0.2102
vn 0.8114 0.5359 0.2331
vn 0.7376 0.4780 -0.4769
vn 0.5835 0.7215 -0.3727
vn 0.7043 0.5050 -0.4990
vn 0.5916 0.1854 -0.7846
vn 0.6428 0.3694 -0.6711
vn 0.3535 0.2058 -0.9125
vn 0.1118 0.3011 -0.9470
vn 0.2522 -0.1662 -0.9533
vn 0.8822 0.4329 -0.1852
vn 0.3208 0.1936 -0.9272
vn 0.5980 0.7609 -0.2517
vn 0.8906 0.3009 0.3409
vn 0.8381 0.4821 0.2554
vn 0.8316 0.5414 0.1239
vn 0.3438 0.5984 -0.7237
vn 0.6066 0.7672 -0.2086
vn 0.3062 0.1303 -0.9430
vn 0.3848 0.5415 -0.7475
vn 0.3984 0.1757 -0.9002
vn 0.6155 0.0416 -0.7870
vn 0.5555 0.3355 -0.7608
vn -0.5559 0.6956 0.4551
vn -0.3239 0.7049 0.6311
vn 0.9517 0.2429 -0.1877
vn 0.8788 0.3972 0.2646
vn 0.8352 0.4353 0.3360
vn 0.8203 0.3220 0.4727
vn 0.9702 0.0004 -0.2424
vn 0.7537 0.4236 0.5025
vn 0.8541 0.1276 -0.5042
vn -0.8710 -0.2164 -0.4411
vn 0.7504 0.4839 -0.4502
vn 0.8038 0.5858 0.1037
vn -0.8948 -0.2375 0.3781
vn -0.7691 -0.2395 0.5926
vn 0.7767 0.3027 -0.5523
vt 0.140625 0.718750
vt 0.390625 0.015625
vt 0.375000 0.031250
vt 0.140625 0.687500
vt 0.375000 0.062500
vt 0.375000 0.109375
vt 0.156250 0.750000
vt 0.390625 0.984375
vt 0.125000 0.750000
vt 0.156250 0.718750
vt 0.156250 0.687500
vt 0.156250 0.640625
vt 0.140625 0.640625
vt 0.203125 0.750000
vt 0.375000 0.968750
vt 0.187500 0.718750
vt 0.187500 0.687500
vt 0.187500 0.640625
vt 0.234375 0.750000
vt 0.375000 0.937500
vt 0.234375 0.718750
vt 0.234375 0.687500
vt 0.234375 0.640625
vt 0.390625 0.031250
vt 0.421875 0.015625
vt 0.421875 0.031250
vt 0.390625 0.062500
vt 0.437500 0.078125
vt 0.390625 0.109375
vt 0.437500 0.109375
vt 0.468750 0.078125
vt 0.468750 0.093750
vt 0.406250 1.000000
vt 0.453125 1.000000
vt 0.437500 0.031250
vt 0.500000 0.000000
vt 0.515625 0.015625
vt 0.531250 0.984375
vt 0.546875 0.015625
vt 0.453125 0.062500
vt 0.500000 0.062500
vt 0.531250 0.031250
vt 0.593750 0.031250
vt 0.437500 0.125000
vt 0.484375 0.109375
vt 0.500000 0.093750
vt 0.406250 0.968750
vt 0.421875 0.984375
vt 0.453125 0.968750
vt 0.546875 0.984375
vt 0.593750 0.968750
vt 0.609375 0.968750
vt 0.578125 0.046875
vt 0.593750 0.078125
vt 0.609375 0.093750
vt 0.390625 0.937500
vt 0.437500 0.937500
vt 0.484375 0.937500
vt 0.515625 0.937500
vt 0.546875 0.953125
vt 0.578125 0.953125
vt 0.812500 0.750000
vt 0.828125 0.687500
vt 0.812500 0.687500
vt 0.406250 0.890625
vt 0.390625 0.890625
vt 0.468750 0.937500
vt 0.562500 0.921875
vt 0.578125 0.921875
vt 0.593750 0.859375
vt 0.609375 0.906250
vt 0.625000 0.937500
vt 0.796875 0.734375
vt 0.796875 0.671875
vt 0.375000 0.140625
vt 0.140625 0.562500
vt 0.375000 0.187500
vt 0.375000 0.218750
vt 0.375000 0.234375
vt 0.140625 0.531250
vt 0.156250 0.609375
vt 0.140625 0.609375
vt 0.156250 0.531250
vt 0.390625 0.234375
vt 0.187500 0.609375
vt 0.156250 0.562500
vt 0.187500 0.562500
vt 0.156250 0.500000
vt 0.187500 0.531250
vt 0.390625 0.281250
vt 0.187500 0.500000
vt 0.234375 0.609375
vt 0.234375 0.562500
vt 0.234375 0.531250
vt 0.390625 0.359375
vt 0.390625 0.312500
vt 0.390625 0.140625
vt 0.421875 0.125000
vt 0.390625 0.171875
vt 0.390625 0.218750
vt 0.406250 0.156250
vt 0.437500 0.140625
vt 0.484375 0.125000
vt 0.546875 0.093750
vt 0.421875 0.171875
vt 0.437500 0.187500
vt 0.500000 0.171875
vt 0.546875 0.109375
vt 0.406250 0.218750
vt 0.453125 0.203125
vt 0.484375 0.187500
vt 0.406250 0.234375
vt 0.421875 0.218750
vt 0.578125 0.093750
vt 0.609375 0.109375
vt 0.515625 0.171875
vt 0.562500 0.109375
vt 0.593750 0.156250
vt 0.859375 0.593750
vt 0.453125 0.234375
vt 0.500000 0.203125
vt 0.562500 0.171875
vt 0.578125 0.171875
vt 0.406250 0.250000
vt 0.437500 0.234375
vt 0.500000 0.218750
vt 0.531250 0.218750
vt 0.421875 0.265625
vt 0.843750 0.593750
vt 0.843750 0.609375
vt 0.875000 0.578125
vt 0.859375 0.578125
vt 0.562500 0.187500
vt 0.593750 0.187500
vt 0.859375 0.562500
vt 0.500000 0.234375
vt 0.546875 0.218750
vt 0.453125 0.265625
vt 0.796875 0.609375
vt 0.468750 0.296875
vt 0.578125 0.187500
vt 0.437500 0.359375
vt 0.453125 0.343750
vt 0.500000 0.312500
vt 0.390625 0.859375
vt 0.265625 0.718750
vt 0.265625 0.687500
vt 0.265625 0.640625
vt 0.312500 0.734375
vt 0.265625 0.750000
vt 0.312500 0.718750
vt 0.312500 0.687500
vt 0.390625 0.781250
vt 0.375000 0.812500
vt 0.343750 0.750000
vt 0.343750 0.718750
vt 0.312500 0.640625
vt 0.343750 0.687500
vt 0.390625 0.765625
vt 0.375000 0.750000
vt 0.359375 0.718750
vt 0.343750 0.640625
vt 0.359375 0.687500
vt 0.390625 0.718750
vt 0.359375 0.640625
vt 0.390625 0.687500
vt 0.406250 0.859375
vt 0.515625 0.890625
vt 0.500000 0.921875
vt 0.546875 0.890625
vt 0.562500 0.875000
vt 0.609375 0.875000
vt 0.718750 0.734375
vt 0.703125 0.718750
vt 0.734375 0.687500
vt 0.734375 0.640625
vt 0.406250 0.812500
vt 0.500000 0.859375
vt 0.500000 0.812500
vt 0.515625 0.828125
vt 0.500000 0.796875
vt 0.546875 0.734375
vt 0.578125 0.796875
vt 0.625000 0.750000
vt 0.671875 0.718750
vt 0.640625 0.640625
vt 0.640625 0.687500
vt 0.718750 0.671875
vt 0.687500 0.625000
vt 0.656250 0.625000
vt 0.687500 0.640625
vt 0.406250 0.781250
vt 0.437500 0.781250
vt 0.468750 0.781250
vt 0.515625 0.796875
vt 0.453125 0.750000
vt 0.531250 0.765625
vt 0.500000 0.750000
vt 0.500000 0.734375
vt 0.531250 0.718750
vt 0.578125 0.718750
vt 0.562500 0.656250
vt 0.593750 0.640625
vt 0.531250 0.640625
vt 0.578125 0.609375
vt 0.593750 0.625000
vt 0.421875 0.765625
vt 0.421875 0.734375
vt 0.453125 0.734375
vt 0.468750 0.750000
vt 0.468750 0.703125
vt 0.484375 0.718750
vt 0.500000 0.703125
vt 0.500000 0.656250
vt 0.437500 0.687500
vt 0.437500 0.656250
vt 0.500000 0.640625
vt 0.421875 0.718750
vt 0.437500 0.718750
vt 0.406250 0.718750
vt 0.453125 0.687500
vt 0.406250 0.671875
vt 0.390625 0.640625
vt 0.406250 0.656250
vt 0.265625 0.609375
vt 0.265625 0.562500
vt 0.265625 0.500000
vt 0.234375 0.515625
vt 0.390625 0.375000
vt 0.312500 0.609375
vt 0.312500 0.562500
vt 0.296875 0.531250
vt 0.265625 0.531250
vt 0.328125 0.515625
vt 0.343750 0.609375
vt 0.343750 0.562500
vt 0.328125 0.531250
vt 0.390625 0.515625
vt 0.359375 0.609375
vt 0.359375 0.562500
vt 0.375000 0.531250
vt 0.375000 0.562500
vt 0.390625 0.546875
vt 0.750000 0.609375
vt 0.843750 0.578125
vt 0.750000 0.578125
vt 0.859375 0.546875
vt 0.843750 0.546875
vt 0.796875 0.562500
vt 0.562500 0.203125
vt 0.562500 0.296875
vt 0.437500 0.375000
vt 0.390625 0.390625
vt 0.468750 0.343750
vt 0.437500 0.437500
vt 0.640625 0.578125
vt 0.718750 0.578125
vt 0.671875 0.625000
vt 0.734375 0.562500
vt 0.843750 0.531250
vt 0.593750 0.437500
vt 0.406250 0.500000
vt 0.578125 0.203125
vt 0.453125 0.437500
vt 0.609375 0.562500
vt 0.687500 0.515625
vt 0.578125 0.484375
vt 0.593750 0.359375
vt 0.546875 0.484375
vt 0.453125 0.453125
vt 0.500000 0.453125
vt 0.437500 0.609375
vt 0.484375 0.593750
vt 0.531250 0.562500
vt 0.546875 0.500000
vt 0.515625 0.515625
vt 0.500000 0.468750
vt 0.437500 0.531250
vt 0.406250 0.531250
vt 0.515625 0.484375
vt 0.453125 0.531250
vt 0.406250 0.609375
vt 0.375000 0.609375
vt 0.453125 0.593750
vt 0.406250 0.562500
vt 0.437500 0.578125
s 1
usemtl マテリアル.010
f 7/1/1 1/2/1 2/3/1
f 8/4/2 2/3/3 3/5/4
f 4/6/5 8/4/2 3/5/4
f 11/7/6 5/8/6 6/9/6
f 12/10/7 6/9/7 7/1/7
f 13/11/8 7/1/8 8/4/8
f 14/12/9 8/4/9 9/13/9
f 16/14/10 10/15/11 11/7/12
f 17/16/13 11/7/13 12/10/13
f 18/17/14 12/10/15 13/11/16
f 19/18/17 13/11/17 14/12/17
f 21/19/18 15/20/18 16/14/18
f 22/21/19 16/14/19 17/16/19
f 23/22/20 17/16/21 18/17/14
f 24/23/22 18/17/14 19/18/23
f 27/24/24 1/2/24 25/2/24
f 27/24/25 26/25/25 28/26/25
f 29/27/26 2/3/26 27/24/26
f 29/27/27 28/26/27 30/28/27
f 32/29/28 3/5/28 29/27/28
f 33/30/29 29/27/29 30/28/29
f 33/30/30 31/31/30 34/32/30
f 6/9/31 35/8/32 36/33/33
f 36/33/33 1/2/34 6/9/31
f 26/25/35 36/33/36 37/34/37
f 28/26/38 37/34/38 40/35/38
f 40/35/39 38/36/39 41/37/39
f 41/37/40 39/38/40 42/39/40
f 44/40/41 28/26/41 40/35/41
f 44/40/42 41/37/42 45/41/42
f 31/31/43 44/40/43 45/41/43
f 45/41/44 42/39/44 46/42/44
f 47/43/45 42/39/45 43/43/45
f 34/32/46 48/44/46 33/30/46
f 49/45/47 31/31/47 45/41/47
f 50/46/48 45/41/48 46/42/48
f 35/8/49 10/15/49 51/47/49
f 53/48/50 35/8/51 51/47/52
f 53/48/53 52/49/53 54/49/53
f 37/34/54 53/48/54 54/49/54
f 38/36/55 54/49/55 55/36/55
f 39/38/56 55/36/56 56/38/56
f 42/39/57 56/38/57 57/50/57
f 43/43/58 57/50/58 58/51/58
f 47/43/59 60/43/59 46/42/59
f 61/43/60 43/43/60 58/51/60
f 61/43/61 59/51/61 62/52/61
f 50/46/62 60/43/63 63/53/64
f 64/54/65 60/43/65 61/43/65
f 64/54/66 62/52/66 65/55/66
f 66/56/67 10/15/67 15/20/67
f 52/49/68 66/56/68 67/57/68
f 68/58/69 52/49/69 67/57/69
f 55/36/70 68/58/70 69/59/70
f 70/60/71 55/36/71 69/59/71
f 57/50/72 70/60/73 71/60/74
f 58/51/75 71/60/75 72/61/75
f 59/51/76 72/61/76 73/51/76
f 62/52/77 73/51/77 74/62/77
f 65/55/78 74/62/78 76/63/78
f 76/63/79 75/62/79 77/64/79
f 78/65/80 15/20/80 20/66/80
f 79/67/81 66/56/81 78/65/81
f 68/58/82 79/67/82 80/67/82
f 81/68/83 68/58/83 80/67/83
f 70/60/84 81/68/84 82/69/84
f 84/69/85 70/60/85 82/69/85
f 84/69/86 83/70/86 85/71/86
f 72/61/87 84/69/87 85/71/87
f 73/51/88 85/71/88 86/72/88
f 88/72/89 73/51/89 86/72/89
f 88/72/90 87/73/90 89/73/90
f 75/62/91 88/72/91 89/73/91
f 90/74/92 75/62/92 89/73/92
f 91/75/93 9/13/93 4/6/93
f 96/76/94 91/75/94 92/77/94
f 93/78/95 96/76/95 92/77/95
f 94/79/96 97/80/96 93/78/96
f 99/81/97 9/13/97 95/82/97
f 96/76/98 99/81/98 95/82/98
f 101/83/99 96/76/99 97/80/99
f 98/84/100 101/83/100 97/80/100
f 104/85/101 14/12/102 99/81/103
f 100/86/104 104/85/101 99/81/103
f 101/83/105 105/87/106 100/86/104
f 102/88/107 106/89/108 101/83/109
f 103/90/110 107/91/110 102/88/110
f 109/92/22 19/18/23 104/85/22
f 105/87/111 109/92/22 104/85/22
f 106/89/112 110/93/113 105/87/111
f 107/91/114 111/94/114 106/89/114
f 113/95/115 107/91/115 108/96/115
f 114/97/116 4/6/116 32/29/116
f 115/98/117 32/29/117 33/30/117
f 116/99/118 91/75/118 114/97/118
f 117/100/119 92/77/119 116/99/119
f 118/84/120 93/78/120 117/100/120
f 115/98/121 119/101/121 114/97/121
f 115/98/122 48/44/122 120/102/122
f 121/103/123 48/44/123 49/45/123
f 121/103/124 50/46/124 122/104/124
f 116/99/125 119/101/125 123/105/125
f 124/106/126 119/101/126 120/102/126
f 124/106/127 121/103/127 125/107/127
f 126/108/128 121/103/129 122/104/130
f 127/109/131 116/99/131 123/105/131
f 127/109/132 124/106/132 128/110/132
f 129/111/133 124/106/133 125/107/133
f 118/84/134 98/84/134 94/79/134
f 130/112/135 117/100/135 127/109/135
f 131/113/136 127/109/136 128/110/136
f 122/104/137 63/53/137 132/114/137
f 132/114/138 64/54/138 133/115/138
f 133/115/139 65/55/139 134/115/139
f 126/108/140 135/116/140 125/107/140
f 126/108/141 132/114/141 136/117/141
f 137/118/142 132/114/142 133/115/142
f 138/119/143 133/115/144 134/115/145
f 129/111/146 139/120/146 128/110/146
f 129/111/147 135/116/147 140/121/147
f 141/122/148 135/116/148 136/117/148
f 142/123/149 136/117/149 137/118/149
f 130/112/150 102/88/150 98/84/150
f 131/113/151 143/124/151 130/112/151
f 131/113/152 139/120/153 144/125/154
f 145/126/155 139/120/155 140/121/155
f 146/127/156 140/121/156 141/122/156
f 103/90/157 143/124/157 147/90/157
f 148/128/158 143/124/158 144/125/158
f 134/115/159 76/63/159 149/129/159
f 150/130/160 76/63/160 77/64/160
f 138/119/161 151/131/161 137/118/161
f 138/119/162 149/129/162 152/132/162
f 142/123/163 153/133/163 141/122/163
f 142/123/164 151/131/164 154/134/164
f 155/135/165 151/131/165 152/132/165
f 145/126/166 156/120/166 144/125/166
f 146/127/167 157/136/167 145/126/167
f 146/127/168 153/133/168 158/137/168
f 159/96/169 103/90/169 147/90/169
f 148/128/170 159/96/170 147/90/170
f 160/138/171 144/125/171 156/120/171
f 150/130/172 161/129/172 149/129/172
f 150/130/173 90/74/173 162/139/173
f 163/132/174 149/129/175 161/129/174
f 165/134/176 153/133/176 154/134/176
f 155/135/177 165/134/177 154/134/177
f 155/135/178 163/132/178 166/135/178
f 157/136/179 167/140/180 156/120/181
f 169/137/182 157/136/182 158/137/182
f 158/137/183 164/141/183 169/137/183
f 170/95/184 108/96/184 159/96/184
f 160/138/185 170/95/185 159/96/185
f 160/138/186 167/140/186 171/142/186
f 172/143/187 167/140/187 168/144/187
f 21/19/188 173/145/188 20/66/188
f 175/146/189 21/19/189 22/21/189
f 176/147/190 22/21/191 23/22/20
f 177/148/22 23/22/20 24/23/22
f 179/149/192 173/145/193 174/150/193
f 175/146/194 179/149/195 174/150/194
f 176/147/190 180/151/196 175/146/197
f 177/148/22 181/152/198 176/147/190
f 179/149/199 183/153/199 178/154/199
f 180/151/200 184/155/200 179/149/200
f 181/152/198 185/156/201 180/151/196
f 182/157/202 186/158/203 181/152/198
f 184/155/204 188/159/204 183/153/204
f 185/156/205 189/160/205 184/155/205
f 186/158/206 190/161/206 185/156/206
f 187/162/207 191/163/207 186/158/208
f 190/161/209 193/164/209 189/160/209
f 191/163/210 194/164/210 190/161/210
f 192/165/211 195/166/211 191/163/211
f 78/65/212 173/145/212 197/167/212
f 79/67/213 197/167/213 198/168/213
f 199/169/214 79/67/214 198/168/214
f 81/68/215 199/169/215 200/170/215
f 82/69/216 200/170/216 201/171/216
f 83/70/217 201/171/217 202/70/217
f 203/172/218 83/70/218 202/70/218
f 86/72/219 203/172/219 204/173/219
f 205/73/220 86/72/220 204/173/220
f 206/174/221 205/73/221 204/173/221
f 207/175/222 87/73/222 205/73/222
f 208/176/223 89/73/223 207/175/223
f 197/167/224 178/154/224 209/177/224
f 198/168/225 209/177/225 210/178/225
f 213/178/226 198/168/226 210/178/226
f 213/178/227 211/179/227 214/180/227
f 200/170/228 213/178/228 214/180/228
f 214/180/229 212/181/229 215/182/229
f 215/182/230 200/170/230 214/180/230
f 216/183/231 201/171/231 215/182/231
f 217/182/232 216/183/232 215/182/232
f 203/172/233 216/183/233 218/184/233
f 219/185/234 203/172/234 218/184/234
f 220/186/235 219/185/236 218/184/237
f 206/174/238 219/185/236 221/187/239
f 222/188/240 206/174/240 221/187/240
f 224/189/241 220/186/241 223/190/242
f 224/189/243 222/188/243 221/187/243
f 208/176/244 222/188/244 225/191/244
f 209/177/245 183/153/245 226/192/245
f 210/178/246 226/192/246 227/193/246
f 228/194/247 210/178/247 227/193/247
f 229/195/248 211/179/248 228/194/248
f 230/196/249 228/194/249 227/193/249
f 232/197/250 228/194/250 231/198/250
f 232/197/251 212/181/251 229/195/251
f 233/199/252 232/197/252 231/198/252
f 234/200/253 215/182/253 232/197/253
f 235/201/254 217/182/254 234/200/254
f 237/202/255 235/201/255 234/200/255
f 220/186/256 235/201/257 238/203/258
f 239/204/259 237/202/259 236/204/259
f 240/205/260 238/203/260 237/202/260
f 241/206/261 220/186/261 238/203/261
f 242/207/262 183/153/262 188/159/262
f 243/196/263 226/192/263 242/207/263
f 244/208/264 188/159/264 189/160/264
f 244/208/265 243/196/265 242/207/265
f 230/196/266 243/196/266 245/209/266
f 246/210/267 230/196/267 245/209/267
f 247/211/268 246/210/268 245/209/268
f 233/199/269 246/210/269 248/212/269
f 249/213/270 233/199/270 248/212/270
f 252/214/271 247/211/271 251/215/271
f 253/213/272 248/212/272 252/214/272
f 253/213/273 236/204/273 237/202/273
f 253/213/274 234/200/274 249/213/274
f 255/216/275 250/215/275 254/215/275
f 256/217/276 251/215/276 255/216/276
f 239/204/277 252/214/277 256/217/277
f 257/204/278 239/204/278 256/217/278
f 244/208/279 193/164/279 258/218/279
f 259/219/280 244/208/280 258/218/280
f 260/220/281 193/164/281 194/164/281
f 260/220/282 259/219/282 258/218/282
f 247/211/283 259/219/284 261/221/285
f 195/166/286 260/220/286 194/164/286
f 263/215/287 260/220/287 262/222/287
f 263/215/288 250/215/288 251/215/288
f 263/215/289 247/211/289 261/221/289
f 196/223/290 262/222/290 195/166/290
f 264/224/291 250/215/291 262/222/291
f 265/216/292 254/215/292 264/224/292
f 109/92/22 177/148/22 24/23/22
f 110/93/113 266/225/22 109/92/22
f 111/94/293 267/226/294 110/93/113
f 269/227/295 111/94/295 112/228/295
f 270/229/296 112/228/296 113/95/296
f 271/230/297 177/148/22 266/225/22
f 272/231/22 266/225/22 267/226/294
f 273/232/298 267/226/298 268/233/298
f 274/234/299 268/233/299 269/227/299
f 275/235/300 182/157/202 271/230/297
f 276/236/301 271/230/297 272/231/22
f 277/237/302 272/231/302 273/232/302
f 278/238/303 273/232/303 274/234/303
f 279/239/304 187/162/305 275/235/306
f 280/240/307 275/235/307 276/236/307
f 281/241/308 276/236/308 277/237/308
f 282/238/309 277/237/309 278/238/309
f 279/239/310 196/223/310 192/165/310
f 284/242/311 279/239/311 280/240/311
f 285/243/312 280/240/312 281/241/312
f 162/139/313 286/129/313 161/129/313
f 287/244/314 90/74/314 208/176/314
f 163/132/315 286/129/315 289/245/315
f 290/246/316 286/129/316 287/244/316
f 293/247/317 164/141/317 165/134/317
f 294/248/318 288/249/318 293/247/318
f 294/248/319 165/134/319 166/135/319
f 294/248/320 163/132/320 289/245/320
f 298/250/321 291/250/321 297/251/321
f 298/250/322 168/144/322 169/137/322
f 298/250/323 164/141/323 292/141/323
f 299/229/324 269/227/324 270/229/324
f 170/95/325 270/229/325 113/95/325
f 300/252/326 295/253/326 299/229/326
f 171/142/327 299/229/327 170/95/327
f 301/254/328 296/255/328 300/252/328
f 172/143/329 300/252/329 171/142/329
f 301/254/330 168/144/330 297/251/330
f 302/256/331 224/189/331 223/190/331
f 304/257/332 224/189/332 303/258/332
f 287/244/333 225/191/333 304/257/333
f 307/259/334 302/256/334 306/249/334
f 307/259/335 288/249/335 289/245/335
f 308/246/336 303/258/336 307/259/336
f 290/246/337 307/259/337 289/245/337
f 290/246/338 304/257/338 308/246/338
f 311/260/339 291/250/339 292/141/339
f 312/260/340 305/261/340 311/260/340
f 312/260/341 292/141/342 293/247/343
f 312/260/344 288/249/344 306/249/344
f 313/262/345 269/227/346 295/253/347
f 296/255/348 313/262/348 295/253/348
f 315/250/349 309/263/349 314/264/349
f 315/250/350 296/255/350 297/251/350
f 315/250/351 291/250/351 310/263/351
f 316/205/352 241/206/353 240/205/354
f 317/265/355 223/190/355 241/206/355
f 320/266/356 316/205/356 319/267/356
f 320/266/357 305/261/357 306/249/357
f 320/266/358 302/256/358 317/265/358
f 323/268/359 309/263/359 310/263/359
f 324/261/360 318/269/360 323/268/360
f 324/261/361 310/263/361 311/260/361
f 324/261/362 305/261/362 319/267/362
f 325/255/363 274/234/363 313/262/363
f 326/270/364 321/271/364 325/255/364
f 326/270/365 313/262/365 314/264/365
f 326/270/366 309/263/366 322/263/366
f 327/272/367 256/217/367 255/216/367
f 328/273/368 257/204/369 256/217/370
f 316/205/371 257/204/369 329/274/372
f 333/275/373 328/273/373 332/276/373
f 333/275/374 318/269/374 319/267/374
f 333/275/375 316/205/375 329/274/375
f 335/277/376 330/278/376 334/279/376
f 335/277/377 321/271/377 322/263/377
f 336/280/378 331/281/378 335/277/378
f 336/280/379 322/263/379 323/268/379
f 336/280/380 318/269/380 332/276/380
f 282/238/381 334/279/381 281/241/381
f 325/255/382 282/238/382 278/238/382
f 337/237/383 321/271/383 334/279/383
f 338/282/384 196/223/384 283/283/384
f 338/282/385 265/216/385 264/224/385
f 327/272/386 265/216/387 339/272/386
f 340/284/388 327/272/388 339/272/388
f 341/285/389 283/283/389 284/242/389
f 342/286/390 338/282/390 341/285/390
f 342/286/391 330/278/392 331/281/393
f 342/286/394 340/284/394 339/272/394
f 343/284/395 331/281/395 332/276/395
f 343/284/396 328/273/396 340/284/396
f 285/243/397 341/285/397 284/242/397
f 334/279/398 285/243/398 281/241/398
f 344/243/399 330/278/399 341/285/399
f 7/1/400 6/9/400 1/2/400
f 8/4/2 7/1/401 2/3/3
f 4/6/402 9/13/402 8/4/402
f 11/7/403 10/15/403 5/8/403
f 12/10/404 11/7/404 6/9/404
f 13/11/405 12/10/405 7/1/405
f 14/12/406 13/11/406 8/4/406
f 16/14/10 15/20/407 10/15/11
f 17/16/408 16/14/408 11/7/408
f 18/17/14 17/16/21 12/10/15
f 19/18/23 18/17/14 13/11/16
f 21/19/409 20/66/409 15/20/409
f 22/21/410 21/19/410 16/14/410
f 23/22/20 22/21/191 17/16/21
f 24/23/22 23/22/20 18/17/14
f 27/24/411 2/3/411 1/2/411
f 27/24/412 25/2/412 26/25/412
f 29/27/413 3/5/413 2/3/413
f 29/27/414 27/24/414 28/26/414
f 32/29/415 4/6/415 3/5/415
f 33/30/416 32/29/416 29/27/416
f 33/30/417 30/28/417 31/31/417
f 6/9/418 5/8/418 35/8/418
f 36/33/419 25/2/419 1/2/419
f 26/25/420 25/2/420 36/33/420
f 28/26/421 26/25/421 37/34/421
f 40/35/422 37/34/422 38/36/422
f 41/37/423 38/36/423 39/38/423
f 44/40/424 30/28/424 28/26/424
f 44/40/425 40/35/425 41/37/425
f 31/31/426 30/28/426 44/40/426
f 45/41/427 41/37/427 42/39/427
f 47/43/428 46/42/428 42/39/428
f 34/32/429 49/45/429 48/44/429
f 49/45/430 34/32/430 31/31/430
f 50/46/431 49/45/431 45/41/431
f 35/8/432 5/8/432 10/15/432
f 53/48/433 36/33/433 35/8/433
f 53/48/50 51/47/52 52/49/434
f 37/34/37 36/33/36 53/48/435
f 38/36/436 37/34/436 54/49/436
f 39/38/437 38/36/437 55/36/437
f 42/39/438 39/38/438 56/38/438
f 43/43/439 42/39/439 57/50/439
f 47/43/440 61/43/440 60/43/440
f 61/43/441 47/43/441 43/43/441
f 61/43/442 58/51/442 59/51/442
f 50/46/62 46/42/443 60/43/63
f 64/54/444 63/53/444 60/43/444
f 64/54/445 61/43/445 62/52/445
f 66/56/446 51/47/446 10/15/446
f 52/49/447 51/47/447 66/56/447
f 68/58/448 54/49/448 52/49/448
f 55/36/449 54/49/449 68/58/449
f 70/60/450 56/38/450 55/36/450
f 57/50/451 56/38/451 70/60/451
f 58/51/452 57/50/452 71/60/452
f 59/51/453 58/51/453 72/61/453
f 62/52/454 59/51/454 73/51/454
f 65/55/455 62/52/455 74/62/455
f 76/63/456 74/62/456 75/62/456
f 78/65/457 66/56/457 15/20/457
f 79/67/458 67/57/458 66/56/458
f 68/58/459 67/57/459 79/67/459
f 81/68/460 69/59/460 68/58/460
f 70/60/461 69/59/461 81/68/461
f 84/69/462 71/60/74 70/60/73
f 84/69/463 82/69/463 83/70/463
f 72/61/464 71/60/464 84/69/464
f 73/51/465 72/61/465 85/71/465
f 88/72/466 74/62/466 73/51/466
f 88/72/467 86/72/467 87/73/467
f 75/62/468 74/62/468 88/72/468
f 90/74/469 77/64/469 75/62/469
f 91/75/470 95/82/470 9/13/470
f 96/76/471 95/82/471 91/75/471
f 93/78/472 97/80/472 96/76/472
f 94/79/473 98/84/473 97/80/473
f 99/81/474 14/12/474 9/13/474
f 96/76/475 100/86/475 99/81/476
f 101/83/477 100/86/475 96/76/475
f 98/84/478 102/88/107 101/83/109
f 104/85/101 19/18/479 14/12/102
f 100/86/104 105/87/106 104/85/101
f 101/83/105 106/89/480 105/87/106
f 102/88/481 107/91/481 106/89/481
f 103/90/482 108/96/482 107/91/482
f 109/92/22 24/23/22 19/18/23
f 105/87/111 110/93/113 109/92/22
f 106/89/112 111/94/293 110/93/113
f 107/91/483 112/228/483 111/94/483
f 113/95/484 112/228/484 107/91/484
f 114/97/485 91/75/485 4/6/485
f 115/98/486 114/97/486 32/29/486
f 116/99/487 92/77/487 91/75/487
f 117/100/488 93/78/488 92/77/488
f 118/84/489 94/79/489 93/78/489
f 115/98/490 120/102/490 119/101/490
f 115/98/491 33/30/491 48/44/491
f 121/103/492 120/102/492 48/44/492
f 121/103/493 49/45/493 50/46/493
f 116/99/494 114/97/494 119/101/494
f 124/106/495 123/105/495 119/101/495
f 124/106/496 120/102/496 121/103/496
f 126/108/128 125/107/497 121/103/129
f 127/109/498 117/100/498 116/99/498
f 127/109/499 123/105/499 124/106/499
f 129/111/500 128/110/500 124/106/500
f 118/84/501 130/112/501 98/84/501
f 130/112/502 118/84/502 117/100/502
f 131/113/503 130/112/503 127/109/503
f 122/104/504 50/46/504 63/53/504
f 132/114/505 63/53/505 64/54/505
f 133/115/506 64/54/506 65/55/506
f 126/108/507 136/117/507 135/116/507
f 126/108/508 122/104/508 132/114/508
f 137/118/509 136/117/509 132/114/509
f 138/119/510 137/118/510 133/115/510
f 129/111/511 140/121/511 139/120/511
f 129/111/512 125/107/512 135/116/512
f 141/122/513 140/121/513 135/116/513
f 142/123/514 141/122/514 136/117/514
f 130/112/515 143/124/515 102/88/515
f 131/113/516 144/125/516 143/124/516
f 131/113/152 128/110/517 139/120/153
f 145/126/518 144/125/518 139/120/518
f 146/127/519 145/126/519 140/121/519
f 103/90/520 102/88/520 143/124/520
f 148/128/521 147/90/521 143/124/521
f 134/115/522 65/55/522 76/63/522
f 150/130/523 149/129/523 76/63/523
f 138/119/524 152/132/524 151/131/524
f 138/119/143 134/115/145 149/129/525
f 142/123/526 154/134/526 153/133/526
f 142/123/527 137/118/527 151/131/527
f 155/135/528 154/134/528 151/131/528
f 145/126/529 157/136/529 156/120/529
f 146/127/530 158/137/530 157/136/530
f 146/127/531 141/122/531 153/133/531
f 159/96/532 108/96/532 103/90/532
f 148/128/533 160/138/533 159/96/533
f 160/138/534 148/128/534 144/125/534
f 150/130/535 162/139/535 161/129/535
f 150/130/536 77/64/536 90/74/536
f 163/132/537 152/132/537 149/129/537
f 165/134/538 164/141/538 153/133/538
f 155/135/539 166/135/539 165/134/539
f 155/135/540 152/132/540 163/132/540
f 157/136/179 168/144/541 167/140/180
f 169/137/542 168/144/542 157/136/542
f 158/137/543 153/133/543 164/141/543
f 170/95/544 113/95/544 108/96/544
f 160/138/545 171/142/545 170/95/545
f 160/138/546 156/120/546 167/140/546
f 172/143/547 171/142/547 167/140/547
f 21/19/548 174/150/193 173/145/193
f 175/146/194 174/150/194 21/19/549
f 176/147/190 175/146/197 22/21/191
f 177/148/22 176/147/190 23/22/20
f 179/149/550 178/154/550 173/145/550
f 175/146/551 180/151/551 179/149/551
f 176/147/190 181/152/198 180/151/196
f 177/148/22 182/157/202 181/152/198
f 179/149/552 184/155/552 183/153/552
f 180/151/553 185/156/553 184/155/553
f 181/152/198 186/158/203 185/156/201
f 182/157/202 187/162/554 186/158/203
f 184/155/555 189/160/555 188/159/555
f 185/156/556 190/161/556 189/160/556
f 186/158/557 191/163/557 190/161/557
f 187/162/207 192/165/558 191/163/207
f 190/161/559 194/164/559 193/164/559
f 191/163/560 195/166/560 194/164/560
f 192/165/561 196/223/561 195/166/561
f 78/65/562 20/66/562 173/145/562
f 79/67/563 78/65/563 197/167/563
f 199/169/564 80/67/564 79/67/564
f 81/68/565 80/67/565 199/169/565
f 82/69/566 81/68/566 200/170/566
f 83/70/567 82/69/567 201/171/567
f 203/172/568 85/71/568 83/70/568
f 86/72/569 85/71/569 203/172/569
f 205/73/570 87/73/570 86/72/570
f 206/174/571 207/175/571 205/73/571
f 207/175/572 89/73/572 87/73/572
f 208/176/573 90/74/573 89/73/573
f 197/167/574 173/145/574 178/154/574
f 198/168/575 197/167/575 209/177/575
f 213/178/576 199/169/576 198/168/576
f 213/178/577 210/178/577 211/179/577
f 200/170/578 199/169/578 213/178/578
f 214/180/579 211/179/579 212/181/579
f 215/182/580 201/171/580 200/170/580
f 216/183/581 202/70/581 201/171/581
f 217/182/582 218/184/582 216/183/582
f 203/172/583 202/70/583 216/183/583
f 219/185/584 204/173/584 203/172/584
f 220/186/235 221/187/239 219/185/236
f 206/174/585 204/173/585 219/185/585
f 222/188/586 207/175/586 206/174/586
f 224/189/241 221/187/241 220/186/241
f 224/189/587 225/191/588 222/188/589
f 208/176/590 207/175/590 222/188/590
f 209/177/591 178/154/591 183/153/591
f 210/178/592 209/177/592 226/192/592
f 228/194/593 211/179/593 210/178/593
f 229/195/594 212/181/594 211/179/594
f 230/196/595 231/198/595 228/194/595
f 232/197/596 229/195/596 228/194/596
f 232/197/597 215/182/597 212/181/597
f 233/199/598 234/200/599 232/197/600
f 234/200/601 217/182/601 215/182/601
f 235/201/602 218/184/602 217/182/602
f 237/202/603 238/203/603 235/201/603
f 220/186/256 218/184/604 235/201/257
f 239/204/605 240/205/605 237/202/605
f 240/205/606 241/206/606 238/203/606
f 241/206/607 223/190/607 220/186/607
f 242/207/608 226/192/608 183/153/608
f 243/196/609 227/193/609 226/192/609
f 244/208/610 242/207/610 188/159/610
f 244/208/611 245/209/611 243/196/611
f 230/196/612 227/193/612 243/196/612
f 246/210/613 231/198/613 230/196/613
f 247/211/614 248/212/614 246/210/614
f 233/199/615 231/198/615 246/210/615
f 249/213/616 234/200/599 233/199/598
f 252/214/617 248/212/617 247/211/617
f 253/213/618 249/213/618 248/212/618
f 253/213/619 252/214/619 236/204/619
f 253/213/620 237/202/620 234/200/620
f 255/216/621 251/215/621 250/215/621
f 256/217/622 252/214/622 251/215/622
f 239/204/623 236/204/623 252/214/623
f 257/204/624 240/205/624 239/204/624
f 244/208/625 189/160/625 193/164/625
f 259/219/626 245/209/626 244/208/626
f 260/220/627 258/218/627 193/164/627
f 260/220/628 261/221/628 259/219/628
f 247/211/283 245/209/629 259/219/284
f 195/166/630 262/222/630 260/220/630
f 263/215/631 261/221/631 260/220/631
f 263/215/632 262/222/632 250/215/632
f 263/215/633 251/215/633 247/211/633
f 196/223/634 264/224/634 262/222/634
f 264/224/635 254/215/635 250/215/635
f 265/216/636 255/216/636 254/215/636
f 109/92/22 266/225/22 177/148/22
f 110/93/113 267/226/294 266/225/22
f 111/94/293 268/233/637 267/226/294
f 269/227/638 268/233/638 111/94/638
f 270/229/639 269/227/639 112/228/639
f 271/230/297 182/157/202 177/148/22
f 272/231/22 271/230/297 266/225/22
f 273/232/640 272/231/640 267/226/640
f 274/234/641 273/232/641 268/233/641
f 275/235/300 187/162/554 182/157/202
f 276/236/301 275/235/300 271/230/297
f 277/237/642 276/236/642 272/231/642
f 278/238/643 277/237/643 273/232/643
f 279/239/644 192/165/644 187/162/644
f 280/240/645 279/239/304 275/235/306
f 281/241/646 280/240/646 276/236/646
f 282/238/647 281/241/647 277/237/647
f 279/239/648 283/283/648 196/223/648
f 284/242/649 283/283/649 279/239/649
f 285/243/650 284/242/650 280/240/650
f 162/139/651 287/244/651 286/129/651
f 287/244/652 162/139/652 90/74/652
f 163/132/174 161/129/174 286/129/653
f 290/246/654 289/245/654 286/129/654
f 293/247/343 292/141/342 164/141/655
f 294/248/656 289/245/656 288/249/656
f 294/248/657 293/247/657 165/134/657
f 294/248/658 166/135/658 163/132/658
f 298/250/659 292/141/659 291/250/659
f 298/250/660 297/251/660 168/144/660
f 298/250/661 169/137/661 164/141/661
f 299/229/662 295/253/662 269/227/662
f 170/95/663 299/229/663 270/229/663
f 300/252/664 296/255/664 295/253/664
f 171/142/665 300/252/665 299/229/665
f 301/254/666 297/251/666 296/255/666
f 172/143/667 301/254/667 300/252/667
f 301/254/668 172/143/668 168/144/668
f 302/256/669 303/258/669 224/189/669
f 304/257/670 225/191/588 224/189/587
f 287/244/671 208/176/671 225/191/671
f 307/259/672 303/258/672 302/256/672
f 307/259/673 306/249/673 288/249/673
f 308/246/674 304/257/674 303/258/674
f 290/246/675 308/246/675 307/259/675
f 290/246/676 287/244/676 304/257/676
f 311/260/677 310/263/677 291/250/677
f 312/260/678 306/249/678 305/261/678
f 312/260/679 311/260/679 292/141/679
f 312/260/680 293/247/680 288/249/680
f 313/262/345 274/234/681 269/227/346
f 296/255/682 314/264/682 313/262/682
f 315/250/683 310/263/683 309/263/683
f 315/250/684 314/264/684 296/255/684
f 315/250/685 297/251/685 291/250/685
f 316/205/686 317/265/686 241/206/686
f 317/265/687 302/256/687 223/190/687
f 320/266/688 317/265/688 316/205/688
f 320/266/689 319/267/689 305/261/689
f 320/266/690 306/249/690 302/256/690
f 323/268/691 322/263/691 309/263/691
f 324/261/692 319/267/692 318/269/692
f 324/261/693 323/268/693 310/263/693
f 324/261/694 311/260/694 305/261/694
f 325/255/695 278/238/695 274/234/695
f 326/270/696 322/263/696 321/271/696
f 326/270/697 325/255/697 313/262/697
f 326/270/698 314/264/698 309/263/698
f 327/272/699 328/273/699 256/217/699
f 328/273/368 329/274/372 257/204/369
f 316/205/352 240/205/354 257/204/700
f 333/275/701 329/274/701 328/273/701
f 333/275/702 332/276/702 318/269/702
f 333/275/703 319/267/703 316/205/703
f 335/277/704 331/281/704 330/278/704
f 335/277/705 334/279/705 321/271/705
f 336/280/706 332/276/706 331/281/706
f 336/280/707 335/277/707 322/263/707
f 336/280/708 323/268/708 318/269/708
f 282/238/709 337/237/709 334/279/709
f 325/255/710 337/237/710 282/238/710
f 337/237/711 325/255/711 321/271/711
f 338/282/712 264/224/712 196/223/712
f 338/282/713 339/272/713 265/216/713
f 327/272/386 255/216/387 265/216/387
f 340/284/714 328/273/714 327/272/714
f 341/285/715 338/282/715 283/283/715
f 342/286/716 339/272/716 338/282/716
f 342/286/391 341/285/717 330/278/392
f 342/286/718 343/284/718 340/284/718
f 343/284/719 342/286/719 331/281/719
f 343/284/720 332/276/720 328/273/720
f 285/243/721 344/243/721 341/285/721
f 334/279/722 344/243/722 285/243/722
f 344/243/723 334/279/723 330/278/723
