# Blender 3.3.1
# www.blender.org
mtllib basis.mtl
o スクラップ(基盤)
v -1.000000 0.000000 1.000000
v 1.000000 0.000000 1.000000
v -1.000000 0.000000 -1.000000
v 1.000000 0.000000 -1.000000
v -0.100000 -0.000000 0.200000
v -0.100000 0.020000 0.200000
v -0.100000 -0.000000 -0.200000
v -0.100000 0.020000 -0.200000
v 0.100000 -0.000000 0.200000
v 0.100000 0.020000 0.200000
v 0.100000 -0.000000 -0.200000
v 0.100000 0.020000 -0.200000
v 0.466902 -0.000000 0.679460
v 0.466902 0.020000 0.679460
v 0.466902 -0.000000 0.479460
v 0.466902 0.020000 0.479460
v 0.666902 -0.000000 0.679460
v 0.666902 0.020000 0.679460
v 0.666902 -0.000000 0.479460
v 0.666902 0.020000 0.479460
v -0.562424 -0.000000 0.679460
v -0.562424 0.020000 0.679460
v -0.562424 -0.000000 0.479460
v -0.562424 0.020000 0.479460
v -0.362424 -0.000000 0.679460
v -0.362424 0.020000 0.679460
v -0.362424 -0.000000 0.479460
v -0.362424 0.020000 0.479460
v -0.562424 -0.000000 0.089066
v -0.562424 0.020000 0.089066
v -0.562424 -0.000000 -0.110934
v -0.562424 0.020000 -0.110934
v -0.362424 -0.000000 0.089066
v -0.362424 0.020000 0.089066
v -0.362424 -0.000000 -0.110934
v -0.362424 0.020000 -0.110934
vn -0.0000 1.0000 -0.0000
vn -1.0000 -0.0000 -0.0000
vn -0.0000 -0.0000 -1.0000
vn 1.0000 -0.0000 -0.0000
vn -0.0000 -0.0000 1.0000
vt 0.888355 0.888356
vt 0.000137 0.888356
vt 0.888356 0.000137
vt 0.000137 0.000137
vt 0.981469 0.221121
vt 0.975336 0.212041
vt 0.981469 0.097705
vt 0.974057 0.103921
vt 0.907024 0.213699
vt 0.914436 0.207484
vt 0.907024 0.090284
vt 0.913157 0.099364
vt 0.907024 0.299119
vt 0.914998 0.291839
vt 0.977045 0.291956
vt 0.970369 0.284791
vt 0.907024 0.228466
vt 0.913700 0.235631
vt 0.977045 0.221304
vt 0.969071 0.228584
vt 0.977045 0.377300
vt 0.969071 0.384580
vt 0.907024 0.384462
vt 0.913700 0.391627
vt 0.977045 0.447952
vt 0.970369 0.440787
vt 0.907024 0.455115
vt 0.914998 0.447835
vt 0.907024 0.377117
vt 0.914998 0.369837
vt 0.977045 0.369954
vt 0.970369 0.362789
vt 0.907024 0.306464
vt 0.913700 0.313629
vt 0.977045 0.299302
vt 0.969071 0.306582
s 0
usemtl マテリアル
f 2/2/1 3/3/1 1/1/1
f 6/6/2 7/7/2 5/5/2
f 8/8/3 11/11/3 7/7/3
f 12/12/4 9/9/4 11/11/4
f 10/10/5 5/5/5 9/9/5
f 14/14/2 15/15/2 13/13/2
f 8/8/1 10/10/1 12/12/1
f 16/16/3 19/19/3 15/15/3
f 20/20/4 17/17/4 19/19/4
f 18/18/5 13/13/5 17/17/5
f 16/16/1 18/18/1 20/20/1
f 22/22/2 23/23/2 21/21/2
f 24/24/3 27/27/3 23/23/3
f 28/28/4 25/25/4 27/27/4
f 26/26/5 21/21/5 25/25/5
f 24/24/1 26/26/1 28/28/1
f 30/30/2 31/31/2 29/29/2
f 32/32/3 35/35/3 31/31/3
f 36/36/4 33/33/4 35/35/4
f 34/34/5 29/29/5 33/33/5
f 32/32/1 34/34/1 36/36/1
f 2/2/1 4/4/1 3/3/1
f 6/6/2 8/8/2 7/7/2
f 8/8/3 12/12/3 11/11/3
f 12/12/4 10/10/4 9/9/4
f 10/10/5 6/6/5 5/5/5
f 14/14/2 16/16/2 15/15/2
f 8/8/1 6/6/1 10/10/1
f 16/16/3 20/20/3 19/19/3
f 20/20/4 18/18/4 17/17/4
f 18/18/5 14/14/5 13/13/5
f 16/16/1 14/14/1 18/18/1
f 22/22/2 24/24/2 23/23/2
f 24/24/3 28/28/3 27/27/3
f 28/28/4 26/26/4 25/25/4
f 26/26/5 22/22/5 21/21/5
f 24/24/1 22/22/1 26/26/1
f 30/30/2 32/32/2 31/31/2
f 32/32/3 36/36/3 35/35/3
f 36/36/4 34/34/4 33/33/4
f 34/34/5 30/30/5 29/29/5
f 32/32/1 30/30/1 34/34/1
