# Blender 3.6.0
# www.blender.org
mtllib bulletWeapon.mtl
o 立方体
v -0.100000 -0.200000 2.000000
v -0.100000 0.200000 2.000000
v -0.100000 -0.200000 -2.000000
v -0.100000 0.200000 -2.000000
v 0.100000 -0.200000 2.000000
v 0.100000 0.200000 2.000000
v 0.100000 -0.200000 -2.000000
v 0.100000 0.200000 -2.000000
v -0.100000 -0.414244 2.772073
v -0.100000 -0.088905 2.772073
v 0.100000 -0.088905 2.772073
v 0.100000 -0.414244 2.772073
v -0.100000 -0.829377 3.664177
v -0.100000 -0.248883 3.786373
v 0.100000 -0.248883 3.786373
v 0.100000 -0.829377 3.664177
v -0.100000 0.000000 -2.000000
v 0.100000 0.000000 -2.000000
v -0.100000 0.200000 -3.578411
v 0.100000 0.200000 -3.578411
v -0.100000 0.000000 -3.578411
v 0.100000 0.000000 -3.578411
v -0.100000 0.200000 0.000000
v 0.100000 0.200000 0.000000
v -0.100000 -0.200000 0.000000
v 0.100000 -0.200000 0.000000
v -0.100000 -0.200000 1.500000
v 0.100000 0.200000 1.500000
v -0.100000 0.200000 1.500000
v 0.100000 -0.200000 1.500000
v -0.100000 -0.200000 1.500000
v -0.100000 -0.200000 2.000000
v 0.100000 -0.200000 2.000000
v 0.100000 -0.200000 1.500000
v -0.100000 -0.200000 1.750000
v 0.100000 0.200000 1.750000
v -0.100000 0.200000 1.750000
v 0.100000 -0.200000 1.750000
v -0.100000 -0.200000 1.750000
v 0.100000 -0.200000 1.750000
v 0.050000 -0.200000 1.750000
v 0.050000 -0.200000 1.500000
v -0.050000 -0.200000 1.500000
v -0.050000 -0.200000 1.750000
v 0.050000 -0.430051 1.722575
v 0.050000 -0.430051 1.527425
v -0.050000 -0.430051 1.527425
v -0.050000 -0.430051 1.722575
v 0.050000 -0.220000 1.525000
v 0.050000 -0.220000 1.725000
v 0.050000 -0.410051 1.701963
v 0.050000 -0.410051 1.548037
v -0.050000 -0.220000 1.725000
v -0.050000 -0.220000 1.525000
v -0.050000 -0.410051 1.548037
v -0.050000 -0.410051 1.701963
v -0.100000 0.000000 0.000000
v 0.100000 0.000000 0.000000
v 0.034510 -0.220000 1.661523
v -0.034510 -0.220000 1.661523
v -0.034510 -0.220000 1.639516
v 0.034510 -0.220000 1.639516
v -0.034510 -0.314939 1.661523
v 0.034510 -0.314939 1.661523
v 0.034510 -0.314939 1.639516
v -0.034510 -0.314939 1.639516
v -0.034510 -0.384445 1.603292
v 0.034510 -0.384445 1.603292
v 0.034510 -0.384445 1.581285
v -0.034510 -0.384445 1.581285
v -0.071882 0.200000 1.750000
v -0.071882 0.200000 1.971882
v 0.071882 0.200000 1.971882
v 0.071882 0.200000 1.750000
v 0.071882 0.200000 1.528118
v -0.071882 0.200000 1.528118
v -0.071882 0.240000 1.971882
v 0.071882 0.240000 1.971882
v 0.071882 0.240000 1.528118
v -0.071882 0.240000 1.528118
v 0.023961 0.240000 1.971882
v -0.023961 0.240000 1.971882
v -0.023961 0.240000 1.528118
v 0.023961 0.240000 1.528118
v -0.023961 0.255000 1.971882
v -0.071882 0.255000 1.971882
v 0.023961 0.255000 1.528118
v 0.071882 0.255000 1.528118
v -0.071882 0.255000 1.528118
v 0.071882 0.255000 1.971882
v 0.023961 0.255000 1.971882
v -0.023961 0.255000 1.528118
v 0.100000 0.000000 -3.430115
v 0.100000 0.200000 -3.430115
v -0.100000 0.200000 -3.430115
v -0.100000 0.000000 -3.430115
v 0.100000 0.200000 -3.217776
v -0.100000 0.200000 -3.217776
v 0.100000 0.000000 -3.217776
v -0.100000 0.000000 -3.217776
v 0.016667 0.200000 -3.430115
v -0.016667 0.200000 -3.430115
v 0.016667 0.200000 -3.217776
v -0.016667 0.200000 -3.217776
v 0.016667 0.240000 -3.430115
v -0.016667 0.240000 -3.430115
v 0.016667 0.240000 -3.217776
v -0.016667 0.240000 -3.217776
vn 1.0000 -0.0000 -0.0000
vn -0.0000 0.9366 0.3505
vn -0.0000 1.0000 -0.0000
vn -0.0000 -0.9636 -0.2674
vn -0.0000 -0.2060 0.9786
vn -0.0000 -0.9066 -0.4219
vn -0.0000 0.9878 0.1558
vn -0.0000 -0.0000 -1.0000
vn -0.0000 -1.0000 -0.0000
vn -1.0000 -0.0000 -0.0000
vn -0.0000 0.1203 0.9927
vn -0.0000 -0.1184 0.9930
vn -0.0000 -0.1184 -0.9930
vn -0.0000 0.1203 -0.9927
vn -0.0000 0.6422 -0.7665
vn -0.0000 -0.0000 1.0000
vn -0.0000 -0.6422 0.7665
vt 0.476803 0.741181
vt 0.452338 0.756326
vt 0.437292 0.738791
vt 0.139551 0.702749
vt 0.141670 0.720016
vt 0.141522 0.702707
vt 0.141822 0.698501
vt 0.140384 0.693503
vt 0.140055 0.698479
vt 0.139640 0.704217
vt 0.141346 0.722597
vt 0.141518 0.704192
vt 0.143309 0.739560
vt 0.143423 0.737929
vt 0.141263 0.737455
vt 0.140595 0.722503
vt 0.140039 0.720174
vt 0.117811 0.202171
vt 0.148940 0.215295
vt 0.131515 0.210323
vt 0.452016 0.764392
vt 0.460410 0.758529
vt 0.459277 0.766214
vt 0.433423 0.761426
vt 0.478338 0.782381
vt 0.435881 0.782381
vt 0.117811 0.632421
vt 0.141648 0.692616
vt 0.132165 0.628981
vt 0.478246 0.534755
vt 0.477396 0.542849
vt 0.433423 0.534314
vt 0.131929 0.638340
vt 0.142388 0.694489
vt 0.146618 0.638419
vt 0.146411 0.629080
vt 0.140414 0.693519
vt 0.140376 0.703397
vt 0.140754 0.703389
vt 0.139135 0.698549
vt 0.140900 0.698470
vt 0.139120 0.692681
vt 0.160702 0.632669
vt 0.808200 0.189333
vt 0.785905 0.191970
vt 0.812752 0.196190
vt 0.764655 0.194937
vt 0.764954 0.192458
vt 0.738042 0.186496
vt 0.764404 0.196703
vt 0.728355 0.197521
vt 0.785885 0.196962
vt 0.811585 0.186519
vt 0.822777 0.197521
vt 0.765268 0.190602
vt 0.738523 0.195536
vt 0.785245 0.190866
vt 0.785272 0.194489
vt 0.741059 0.188783
vt 0.767153 0.326231
vt 0.750736 0.332651
vt 0.764080 0.332324
vt 0.752447 0.332975
vt 0.732832 0.328462
vt 0.749876 0.329291
vt 0.752991 0.330234
vt 0.769834 0.332599
vt 0.780431 0.332975
vt 0.728355 0.329859
vt 0.737848 0.331038
vt 0.738417 0.328822
vt 0.784341 0.274292
vt 0.807573 0.279647
vt 0.755698 0.274292
vt 0.139483 0.698715
vt 0.140360 0.701901
vt 0.140456 0.698626
vt 0.141436 0.698684
vt 0.140698 0.701910
vt 0.141001 0.695409
vt 0.140461 0.698635
vt 0.138353 0.694544
vt 0.139752 0.695399
vt 0.818780 0.510721
vt 0.775813 0.510965
vt 0.773544 0.509364
vt 0.766906 0.505365
vt 0.772975 0.517822
vt 0.772583 0.522827
vt 0.825839 0.536862
vt 0.819769 0.524405
vt 0.820162 0.519400
vt 0.775584 0.529715
vt 0.773964 0.531506
vt 0.797196 0.536862
vt 0.819200 0.532862
vt 0.775153 0.515999
vt 0.817160 0.512512
vt 0.817322 0.517930
vt 0.817592 0.526228
vt 0.816932 0.531262
vt 0.775423 0.524297
vt 0.441744 0.711344
vt 0.464583 0.683202
vt 0.487680 0.707005
vt 0.467336 0.673466
vt 0.487680 0.653961
vt 0.454368 0.674604
vt 0.440366 0.660399
vt 0.475901 0.526691
vt 0.440188 0.533742
vt 0.473152 0.550171
vt 0.450848 0.680446
vt 0.435928 0.679459
vt 0.441647 0.675099
vt 0.455854 0.686348
vt 0.433423 0.688373
vt 0.453162 0.688464
vt 0.444346 0.687055
vt 0.442173 0.685979
vt 0.445049 0.687439
vt 0.439518 0.535159
vt 0.438512 0.531790
vt 0.141288 0.743142
vt 0.165159 0.205716
vt 0.436281 0.768399
vt 0.862651 0.565355
vt 0.862545 0.604631
vt 0.436158 0.532733
vt 0.436664 0.535883
vt 0.814513 0.275314
vt 0.762337 0.278291
vt 0.767025 0.535839
vt 0.825720 0.506387
vt 0.862650 0.526680
vt 0.853298 0.642646
s 0
usemtl マテリアル
f 93/1/1 20/2/1 94/3/1
f 2/4/2 11/5/2 6/6/2
f 35/7/3 31/8/3 39/9/3
f 5/10/4 9/11/4 1/12/4
f 15/13/5 13/14/5 16/15/5
f 12/16/6 13/14/6 9/11/6
f 10/17/7 15/13/7 11/5/7
f 17/18/8 7/19/8 3/20/8
f 19/21/8 22/22/8 21/23/8
f 101/24/3 20/2/3 19/21/3
f 96/25/9 22/22/9 93/1/9
f 95/26/10 21/23/10 96/25/10
f 10/17/10 57/27/10 27/28/10
f 7/19/9 25/29/9 3/20/9
f 4/30/3 8/31/3 104/32/3
f 23/33/3 28/34/3 24/35/3
f 26/36/9 27/28/9 25/29/9
f 27/28/3 34/37/3 31/8/3
f 5/10/3 32/38/3 33/39/3
f 38/40/3 33/39/3 40/41/3
f 30/42/3 40/41/3 34/37/3
f 38/40/1 30/42/1 58/43/1
f 1/12/3 39/9/3 32/38/3
f 54/44/11 52/45/11 49/46/11
f 52/45/3 56/47/3 51/48/3
f 44/49/12 45/50/12 41/51/12
f 46/52/13 43/53/13 42/54/13
f 48/55/9 46/52/9 45/50/9
f 45/50/1 50/56/1 41/51/1
f 46/52/1 51/48/1 45/50/1
f 46/52/1 49/46/1 52/45/1
f 47/57/10 54/44/10 43/53/10
f 48/55/10 55/58/10 47/57/10
f 48/55/10 53/59/10 56/47/10
f 51/48/14 53/59/14 50/56/14
f 61/60/10 63/61/10 60/62/10
f 40/41/9 39/9/9 34/37/9
f 50/56/1 42/54/1 41/51/1
f 54/44/10 44/49/10 43/53/10
f 49/46/9 53/59/9 54/44/9
f 65/63/15 70/64/15 66/65/15
f 60/62/16 64/66/16 59/67/16
f 62/68/8 66/65/8 61/60/8
f 59/67/1 65/63/1 62/68/1
f 67/69/9 69/70/9 68/71/9
f 65/63/1 68/71/1 69/70/1
f 66/65/10 67/69/10 63/61/10
f 63/61/17 68/71/17 64/66/17
f 74/72/1 79/73/1 73/74/1
f 37/75/3 72/76/3 71/77/3
f 6/6/3 72/76/3 2/4/3
f 36/78/3 73/79/3 6/6/3
f 36/78/3 75/80/3 74/81/3
f 29/82/3 75/80/3 28/34/3
f 37/75/3 76/83/3 29/82/3
f 79/84/1 90/85/1 78/86/1
f 73/87/16 81/88/16 82/89/16
f 76/90/8 83/91/8 84/92/8
f 82/89/16 86/93/16 77/94/16
f 82/89/3 84/92/3 83/91/3
f 71/95/10 77/94/10 80/96/10
f 91/97/3 88/98/3 87/99/3
f 86/93/3 92/100/3 89/101/3
f 78/86/16 91/97/16 81/88/16
f 83/91/1 85/102/1 82/89/1
f 84/92/8 88/98/8 79/84/8
f 80/96/8 92/100/8 83/91/8
f 77/94/10 89/101/10 80/96/10
f 81/88/10 87/99/10 84/92/10
f 98/103/10 96/104/10 100/105/10
f 100/105/9 93/106/9 99/107/9
f 99/107/1 94/108/1 97/109/1
f 17/110/9 99/111/9 18/112/9
f 101/113/1 107/114/1 103/115/1
f 95/116/3 104/117/3 102/118/3
f 101/113/3 97/109/3 94/108/3
f 106/119/3 107/114/3 105/120/3
f 103/115/16 108/121/16 104/117/16
f 102/118/8 105/120/8 101/113/8
f 104/117/10 106/119/10 102/118/10
f 4/30/10 100/122/10 17/110/10
f 8/31/1 18/112/1 97/123/1
f 93/1/1 22/22/1 20/2/1
f 2/4/2 10/17/2 11/5/2
f 35/7/3 27/28/3 31/8/3
f 5/10/4 12/16/4 9/11/4
f 15/13/5 14/124/5 13/14/5
f 12/16/6 16/15/6 13/14/6
f 10/17/7 14/124/7 15/13/7
f 17/18/8 18/125/8 7/19/8
f 19/21/8 20/2/8 22/22/8
f 19/21/3 95/26/3 102/126/3
f 101/24/3 94/3/3 20/2/3
f 19/21/3 102/126/3 101/24/3
f 96/25/9 21/23/9 22/22/9
f 95/26/10 19/21/10 21/23/10
f 9/11/10 13/14/10 14/124/10
f 10/17/10 2/4/10 37/75/10
f 9/11/10 14/124/10 10/17/10
f 1/12/10 9/11/10 10/17/10
f 10/17/10 37/75/10 29/82/10
f 29/82/10 23/33/10 57/27/10
f 57/27/10 17/18/10 3/20/10
f 57/27/10 3/20/10 25/29/10
f 10/17/10 29/82/10 57/27/10
f 35/7/10 1/12/10 10/17/10
f 57/27/10 25/29/10 27/28/10
f 27/28/10 35/7/10 10/17/10
f 7/19/9 26/36/9 25/29/9
f 4/30/3 23/127/3 24/128/3
f 8/31/3 97/123/3 103/129/3
f 4/30/3 24/128/3 8/31/3
f 104/32/3 98/130/3 4/30/3
f 8/31/3 103/129/3 104/32/3
f 23/33/3 29/82/3 28/34/3
f 26/36/9 30/42/9 27/28/9
f 27/28/3 30/42/3 34/37/3
f 5/10/3 1/12/3 32/38/3
f 38/40/3 5/10/3 33/39/3
f 30/42/3 38/40/3 40/41/3
f 11/5/1 15/13/1 16/15/1
f 11/5/1 16/15/1 12/16/1
f 36/78/1 6/6/1 11/5/1
f 58/43/1 24/35/1 28/34/1
f 28/34/1 36/78/1 11/5/1
f 11/5/1 12/16/1 5/10/1
f 11/5/1 5/10/1 38/40/1
f 58/43/1 28/34/1 11/5/1
f 7/19/1 18/125/1 58/43/1
f 26/36/1 7/19/1 58/43/1
f 58/43/1 11/5/1 38/40/1
f 30/42/1 26/36/1 58/43/1
f 1/12/3 35/7/3 39/9/3
f 54/44/11 55/58/11 52/45/11
f 52/45/3 55/58/3 56/47/3
f 44/49/12 48/55/12 45/50/12
f 46/52/13 47/57/13 43/53/13
f 48/55/9 47/57/9 46/52/9
f 45/50/1 51/48/1 50/56/1
f 46/52/1 52/45/1 51/48/1
f 46/52/1 42/54/1 49/46/1
f 47/57/10 55/58/10 54/44/10
f 48/55/10 56/47/10 55/58/10
f 48/55/10 44/49/10 53/59/10
f 51/48/14 56/47/14 53/59/14
f 61/60/10 66/65/10 63/61/10
f 40/41/9 33/39/9 32/38/9
f 39/9/9 31/8/9 34/37/9
f 40/41/9 32/38/9 39/9/9
f 50/56/1 49/46/1 42/54/1
f 54/44/10 53/59/10 44/49/10
f 49/46/9 50/56/9 53/59/9
f 65/63/15 69/70/15 70/64/15
f 60/62/16 63/61/16 64/66/16
f 62/68/8 65/63/8 66/65/8
f 59/67/1 64/66/1 65/63/1
f 67/69/9 70/64/9 69/70/9
f 65/63/1 64/66/1 68/71/1
f 66/65/10 70/64/10 67/69/10
f 63/61/17 67/69/17 68/71/17
f 74/72/1 75/131/1 79/73/1
f 79/73/1 78/132/1 73/74/1
f 37/75/3 2/4/3 72/76/3
f 6/6/3 73/79/3 72/76/3
f 36/78/3 74/81/3 73/79/3
f 36/78/3 28/34/3 75/80/3
f 29/82/3 76/83/3 75/80/3
f 37/75/3 71/77/3 76/83/3
f 79/84/1 88/98/1 90/85/1
f 77/94/16 72/133/16 73/87/16
f 73/87/16 78/86/16 81/88/16
f 82/89/16 77/94/16 73/87/16
f 79/84/8 75/134/8 76/90/8
f 76/90/8 80/96/8 83/91/8
f 84/92/8 79/84/8 76/90/8
f 82/89/16 85/102/16 86/93/16
f 82/89/3 81/88/3 84/92/3
f 80/96/10 76/90/10 71/95/10
f 71/95/10 72/133/10 77/94/10
f 91/97/3 90/85/3 88/98/3
f 86/93/3 85/102/3 92/100/3
f 78/86/16 90/85/16 91/97/16
f 83/91/1 92/100/1 85/102/1
f 84/92/8 87/99/8 88/98/8
f 80/96/8 89/101/8 92/100/8
f 77/94/10 86/93/10 89/101/10
f 81/88/10 91/97/10 87/99/10
f 98/103/10 95/116/10 96/104/10
f 100/105/9 96/104/9 93/106/9
f 99/107/1 93/106/1 94/108/1
f 17/110/9 100/122/9 99/111/9
f 101/113/1 105/120/1 107/114/1
f 95/116/3 98/103/3 104/117/3
f 101/113/3 103/115/3 97/109/3
f 106/119/3 108/121/3 107/114/3
f 103/115/16 107/114/16 108/121/16
f 102/118/8 106/119/8 105/120/8
f 104/117/10 108/121/10 106/119/10
f 17/110/10 57/135/10 23/127/10
f 4/30/10 98/130/10 100/122/10
f 17/110/10 23/127/10 4/30/10
f 8/31/1 24/128/1 58/136/1
f 18/112/1 99/111/1 97/123/1
f 8/31/1 58/136/1 18/112/1
