{
	"asset":{
		"generator":"Khronos glTF Blender I/O v3.6.27",
		"version":"2.0"
	},
	"scene":0,
	"scenes":[
		{
			"name":"Scene",
			"nodes":[
				21
			]
		}
	],
	"nodes":[
		{
			"mesh":0,
			"name":"Figure_2_geometry"
		},
		{
			"name":"Node_20",
			"rotation":[
				-1.3364309658925322e-14,
				3.5110803153770576e-15,
				-1.2988403213197441e-17,
				1
			],
			"translation":[
				-2.493287576399439e-09,
				0.5242559909820557,
				-0.01572767086327076
			]
		},
		{
			"name":"Node_19",
			"rotation":[
				0.009348991326987743,
				-2.1344105149978532e-08,
				-0.6824583411216736,
				0.7308647036552429
			],
			"translation":[
				1.076841726899147e-08,
				0.19181983172893524,
				-1.0244548320770264e-08
			]
		},
		{
			"children":[
				2
			],
			"name":"Node_18",
			"rotation":[
				-0.009348995052278042,
				2.452979330769267e-08,
				0.6824584007263184,
				0.7308646440505981
			],
			"translation":[
				-0.4194048047065735,
				0.3407663106918335,
				-0.013106236234307289
			]
		},
		{
			"name":"Node_17",
			"rotation":[
				-2.0081638574254157e-09,
				-9.343587237253814e-09,
				-2.2726258652738807e-09,
				1
			],
			"translation":[
				0.0157276913523674,
				0.40948939323425293,
				0.002707066247239709
			]
		},
		{
			"name":"Node_16",
			"rotation":[
				-2.2992026060819626e-09,
				-9.343590789967493e-09,
				5.551115123125783e-17,
				1
			],
			"translation":[
				0.05764361470937729,
				0.4119342863559723,
				0.02158583700656891
			]
		},
		{
			"name":"Node_15",
			"rotation":[
				-2.299201495858938e-09,
				-9.343581908183296e-09,
				-4.545252174636971e-09,
				1
			],
			"translation":[
				0.055014919489622116,
				0.4125713109970093,
				-0.02167699672281742
			]
		},
		{
			"children":[
				4,
				5,
				6
			],
			"name":"Node_14",
			"rotation":[
				-0.009956054389476776,
				-0.7020279169082642,
				-0.019733572378754616,
				0.7118063569068909
			],
			"scale":[
				1,
				0.9999998211860657,
				0.9999999403953552
			],
			"translation":[
				6.468035280704498e-07,
				0.18572238087654114,
				-6.51925802230835e-08
			]
		},
		{
			"children":[
				7
			],
			"name":"Node_13",
			"rotation":[
				-0.009778028354048729,
				-4.0355570263272966e-07,
				-0.692072331905365,
				0.72176194190979
			],
			"scale":[
				1,
				0.9999999403953552,
				1
			],
			"translation":[
				0.4194047152996063,
				0.3407672643661499,
				-0.01310637779533863
			]
		},
		{
			"children":[
				1,
				3,
				8
			],
			"name":"Node_12",
			"rotation":[
				-1.4915602264409245e-07,
				-1.0408340855860843e-15,
				1.124904138480147e-14,
				1
			],
			"translation":[
				-3.5653411334379825e-09,
				0.10747208446264267,
				-0.023591483011841774
			]
		},
		{
			"name":"Node_11",
			"rotation":[
				-0.9033647775650024,
				1.9486759583742241e-07,
				3.314980858704075e-07,
				0.4288730025291443
			],
			"scale":[
				0.9999999403953552,
				1,
				1
			],
			"translation":[
				2.3834076046114205e-08,
				0.12854699790477753,
				-2.5320332497358322e-08
			]
		},
		{
			"children":[
				10
			],
			"name":"Node_10",
			"rotation":[
				-0.45503804087638855,
				-0.16152405738830566,
				-0.07668486982584,
				0.8723358511924744
			],
			"scale":[
				0.9999999403953552,
				1,
				0.9999999403953552
			],
			"translation":[
				9.42964106798172e-09,
				0.39689695835113525,
				-9.313225746154785e-10
			]
		},
		{
			"children":[
				11
			],
			"name":"Node_9",
			"rotation":[
				-0.0262000635266304,
				-0.5283007621765137,
				0.015087736770510674,
				0.8485188484191895
			],
			"scale":[
				0.9999998807907104,
				1.000000238418579,
				1
			],
			"translation":[
				6.891787052154541e-08,
				0.35861751437187195,
				-1.4901161193847656e-08
			]
		},
		{
			"children":[
				12
			],
			"name":"Node_8",
			"rotation":[
				-0.7388354539871216,
				-6.806849484064514e-08,
				-0.6716856956481934,
				0.05441063269972801
			],
			"scale":[
				1.0000157356262207,
				1,
				1.0000189542770386
			],
			"translation":[
				-0.14154906570911407,
				-0.03931945189833641,
				2.553294464746614e-09
			]
		},
		{
			"name":"Node_7",
			"rotation":[
				-0.9033648371696472,
				-1.9103879367321497e-07,
				-3.580651366519305e-07,
				0.4288729727268219
			],
			"scale":[
				1,
				1,
				0.9999997615814209
			],
			"translation":[
				4.045858759127441e-09,
				0.1285470426082611,
				-1.5628756955266e-08
			]
		},
		{
			"children":[
				14
			],
			"name":"Node_6",
			"rotation":[
				-0.45503801107406616,
				0.16152408719062805,
				0.07668489217758179,
				0.8723358511924744
			],
			"scale":[
				0.9999999403953552,
				1,
				1.0000001192092896
			],
			"translation":[
				-8.731149137020111e-09,
				0.3968968987464905,
				-4.6566128730773926e-09
			]
		},
		{
			"children":[
				15
			],
			"name":"Node_5",
			"rotation":[
				-0.026200074702501297,
				0.5283007621765137,
				-0.015087741427123547,
				0.8485189080238342
			],
			"scale":[
				0.9999999403953552,
				0.9999999403953552,
				0.9999999403953552
			],
			"translation":[
				-6.426125764846802e-08,
				0.3586176037788391,
				-1.1175870895385742e-08
			]
		},
		{
			"children":[
				16
			],
			"name":"Node_4",
			"rotation":[
				-0.738835334777832,
				7.815273050937321e-08,
				0.6716858148574829,
				0.05441063642501831
			],
			"scale":[
				1.0000156164169312,
				1,
				1.0000189542770386
			],
			"translation":[
				0.14154905080795288,
				-0.039319440722465515,
				-4.019335619886988e-08
			]
		},
		{
			"children":[
				9,
				13,
				17
			],
			"name":"Node_3",
			"rotation":[
				0.7071070075035095,
				-5.33850581518891e-08,
				-5.33850581518891e-08,
				0.7071065306663513
			],
			"translation":[
				-1.164152871324653e-10,
				-1.4904452427799697e-07,
				0.9148269295692444
			]
		},
		{
			"children":[
				0,
				18
			],
			"name":"Poser_scene_root",
			"rotation":[
				0.7071067094802856,
				-0.0004805604985449463,
				-0.0004805605858564377,
				0.7071065306663513
			]
		},
		{
			"children":[
				19
			],
			"name":"Node_21"
		},
		{
			"children":[
				20
			],
			"name":"Node_0",
			"rotation":[
				-0.70710688829422,
				0,
				0,
				0.7071066498756409
			]
		}
	],
	"materials":[
		{
			"name":"frameInStem-effect",
			"pbrMetallicRoughness":{
				"baseColorFactor":[
					0.16862699389457703,
					0.1411760002374649,
					0.10980399698019028,
					1
				],
				"metallicFactor":0
			}
		},
		{
			"name":"componentsStem-effect",
			"pbrMetallicRoughness":{
				"baseColorFactor":[
					0.7450979948043823,
					0.45097988843917847,
					0,
					1
				],
				"metallicFactor":0
			}
		},
		{
			"name":"Stem-effect",
			"pbrMetallicRoughness":{
				"baseColorFactor":[
					0.5411760210990906,
					0.5411760210990906,
					0.5411760210990906,
					1
				],
				"metallicFactor":0
			}
		},
		{
			"name":"footStem-effect",
			"pbrMetallicRoughness":{
				"baseColorFactor":[
					0.019607799127697945,
					0.1450980007648468,
					0.17647099494934082,
					1
				],
				"metallicFactor":0
			}
		},
		{
			"name":"footFlangeStem-effect",
			"pbrMetallicRoughness":{
				"baseColorFactor":[
					0.9686279892921448,
					0.9686279892921448,
					0.9686279892921448,
					1
				],
				"metallicFactor":0
			}
		},
		{
			"name":"kneeStem-effect",
			"pbrMetallicRoughness":{
				"baseColorFactor":[
					0.48235300183296204,
					0.4352940022945404,
					0.36078399419784546,
					1
				],
				"metallicFactor":0
			}
		},
		{
			"name":"hipSphereStem-effect",
			"pbrMetallicRoughness":{
				"baseColorFactor":[
					0.2627449929714203,
					0.2627449929714203,
					0.2627449929714203,
					1
				],
				"metallicFactor":0
			}
		},
		{
			"name":"filletStem-effect",
			"pbrMetallicRoughness":{
				"baseColorFactor":[
					0.9882349967956543,
					0.9882349967956543,
					0.9882349967956543,
					1
				],
				"metallicFactor":0
			}
		},
		{
			"name":"thighStem-effect",
			"pbrMetallicRoughness":{
				"baseColorFactor":[
					0.8980389833450317,
					0.8980389833450317,
					0.8980389833450317,
					1
				],
				"metallicFactor":0
			}
		},
		{
			"name":"thighPadStem-effect",
			"pbrMetallicRoughness":{
				"baseColorFactor":[
					0.49803900718688965,
					0.45097988843917847,
					0.3803919851779938,
					1
				],
				"metallicFactor":0
			}
		},
		{
			"name":"plugStem-effect",
			"pbrMetallicRoughness":{
				"baseColorFactor":[
					0.4588240087032318,
					0.4588240087032318,
					0.4588240087032318,
					1
				],
				"metallicFactor":0
			}
		},
		{
			"name":"discInStem-effect",
			"pbrMetallicRoughness":{
				"baseColorFactor":[
					0.4627450108528137,
					0.4078429937362671,
					0.3294120132923126,
					1
				],
				"metallicFactor":0
			}
		},
		{
			"name":"TubeStem-effect",
			"pbrMetallicRoughness":{
				"baseColorFactor":[
					0.0784313976764679,
					0.18431399762630463,
					0.20784300565719604,
					1
				],
				"metallicFactor":0
			}
		},
		{
			"name":"componentStem-effect",
			"pbrMetallicRoughness":{
				"baseColorFactor":[
					0.521569013595581,
					0.4627450108528137,
					0.37647101283073425,
					1
				],
				"metallicFactor":0
			}
		},
		{
			"name":"hexStem-effect",
			"pbrMetallicRoughness":{
				"baseColorFactor":[
					0.24313700199127197,
					0.19607800245285034,
					0.1568630039691925,
					1
				],
				"metallicFactor":0
			}
		},
		{
			"name":"kneeGuardStem-effect",
			"pbrMetallicRoughness":{
				"baseColorFactor":[
					0.49803900718688965,
					0.45097988843917847,
					0.3803919851779938,
					1
				],
				"metallicFactor":0
			}
		},
		{
			"name":"calfStem-effect",
			"pbrMetallicRoughness":{
				"baseColorFactor":[
					0.6823530197143555,
					0.6352940201759338,
					0.5333330035209656,
					1
				],
				"metallicFactor":0
			}
		},
		{
			"name":"ankleBracketStem-effect",
			"pbrMetallicRoughness":{
				"baseColorFactor":[
					0.48235300183296204,
					0.4352940022945404,
					0.36078399419784546,
					1
				],
				"metallicFactor":0
			}
		},
		{
			"name":"ankleStem-effect",
			"pbrMetallicRoughness":{
				"metallicFactor":0
			}
		},
		{
			"name":"calfCoverStem-effect",
			"pbrMetallicRoughness":{
				"baseColorFactor":[
					0.35686299204826355,
					0.32548999786376953,
					0.2784309983253479,
					1
				],
				"metallicFactor":0
			}
		},
		{
			"name":"knee2Stem-effect",
			"pbrMetallicRoughness":{
				"metallicFactor":0
			}
		},
		{
			"name":"skeletonStem-effect",
			"pbrMetallicRoughness":{
				"baseColorFactor":[
					0,
					0.2705880105495453,
					0.24313700199127197,
					1
				],
				"metallicFactor":0
			}
		},
		{
			"name":"bracketStem-effect",
			"pbrMetallicRoughness":{
				"baseColorFactor":[
					0.38431400060653687,
					0.34902000427246094,
					0.282353013753891,
					1
				],
				"metallicFactor":0
			}
		},
		{
			"name":"coverStem-effect",
			"pbrMetallicRoughness":{
				"baseColorFactor":[
					0.48235300183296204,
					0.4352940022945404,
					0.36078399419784546,
					1
				],
				"metallicFactor":0
			}
		},
		{
			"name":"barStem-effect",
			"pbrMetallicRoughness":{
				"baseColorFactor":[
					0,
					0.19215700030326843,
					0.24313700199127197,
					1
				],
				"metallicFactor":0
			}
		},
		{
			"name":"intestineOutStem-effect",
			"pbrMetallicRoughness":{
				"baseColorFactor":[
					0.4313730001449585,
					0.20000000298023224,
					0,
					1
				],
				"metallicFactor":0
			}
		},
		{
			"name":"neckSinkStem-effect",
			"pbrMetallicRoughness":{
				"baseColorFactor":[
					0.9176470041275024,
					0.6862750053405762,
					0.2705880105495453,
					1
				],
				"metallicFactor":0
			}
		},
		{
			"name":"shockOutStem-effect",
			"pbrMetallicRoughness":{
				"baseColorFactor":[
					0,
					0.2666670083999634,
					0.33725500106811523,
					1
				],
				"metallicFactor":0
			}
		},
		{
			"name":"shockInStem-effect",
			"pbrMetallicRoughness":{
				"baseColorFactor":[
					0,
					0.48235300183296204,
					0.8705880045890808,
					1
				],
				"metallicFactor":0
			}
		},
		{
			"name":"discStem-effect",
			"pbrMetallicRoughness":{
				"baseColorFactor":[
					0.18823499977588654,
					0.1568630039691925,
					0.12156900018453598,
					1
				],
				"metallicFactor":0
			}
		},
		{
			"name":"canisterInStem-effect",
			"pbrMetallicRoughness":{
				"baseColorFactor":[
					0.49803900718688965,
					0.49803900718688965,
					0.49803900718688965,
					1
				],
				"metallicFactor":0
			}
		},
		{
			"name":"canisterOutStem-effect",
			"pbrMetallicRoughness":{
				"baseColorFactor":[
					0.5372549891471863,
					0.5372549891471863,
					0.5372549891471863,
					1
				],
				"metallicFactor":0
			}
		},
		{
			"name":"canInnerStem-effect",
			"pbrMetallicRoughness":{
				"baseColorFactor":[
					0.36078399419784546,
					0.36078399419784546,
					0.36078399419784546,
					1
				],
				"metallicFactor":0
			}
		},
		{
			"name":"pipeStem-effect",
			"pbrMetallicRoughness":{
				"baseColorFactor":[
					0.4549019932746887,
					0.21960799396038055,
					0.019607799127697945,
					1
				],
				"metallicFactor":0
			}
		},
		{
			"name":"off-effect",
			"pbrMetallicRoughness":{
				"baseColorFactor":[
					0.6705880165100098,
					0.4078429937362671,
					0.05882349982857704,
					1
				],
				"metallicFactor":0
			}
		},
		{
			"name":"boltStem-effect",
			"pbrMetallicRoughness":{
				"baseColorFactor":[
					0.2901960015296936,
					0.2901960015296936,
					0.2901960015296936,
					1
				],
				"metallicFactor":0
			}
		},
		{
			"name":"intestineInStem-effect",
			"pbrMetallicRoughness":{
				"baseColorFactor":[
					0.20729400217533112,
					0.19880999624729156,
					0.7099869847297668,
					1
				],
				"metallicFactor":0
			}
		},
		{
			"name":"armPlateStem-effect",
			"pbrMetallicRoughness":{
				"baseColorFactor":[
					0.5098040103912354,
					0.4588240087032318,
					0.37647101283073425,
					1
				],
				"metallicFactor":0
			}
		},
		{
			"name":"shoulderPodStem-effect",
			"pbrMetallicRoughness":{
				"metallicFactor":0
			}
		},
		{
			"name":"armFilletStem-effect",
			"pbrMetallicRoughness":{
				"metallicFactor":0
			}
		},
		{
			"name":"bStem-effect",
			"pbrMetallicRoughness":{
				"baseColorFactor":[
					0.019607799127697945,
					0.1647060066461563,
					0.20000000298023224,
					1
				],
				"metallicFactor":0
			}
		},
		{
			"name":"armBoltStem-effect",
			"pbrMetallicRoughness":{
				"baseColorFactor":[
					0.20000000298023224,
					0.20000000298023224,
					0.20000000298023224,
					1
				],
				"metallicFactor":0
			}
		},
		{
			"name":"shoulderBStem-effect",
			"pbrMetallicRoughness":{
				"baseColorFactor":[
					0.023529399186372757,
					0.11764699965715408,
					0.1411760002374649,
					1
				],
				"metallicFactor":0
			}
		},
		{
			"name":"armTrussStem-effect",
			"pbrMetallicRoughness":{
				"baseColorFactor":[
					0.513725996017456,
					0.4549019932746887,
					0.37254899740219116,
					1
				],
				"metallicFactor":0
			}
		},
		{
			"name":"pinStem-effect",
			"pbrMetallicRoughness":{
				"baseColorFactor":[
					0.26819300651550293,
					0.2585029900074005,
					0.549996018409729,
					1
				],
				"metallicFactor":0
			}
		},
		{
			"name":"radiatorStem-effect",
			"pbrMetallicRoughness":{
				"baseColorFactor":[
					0.764706015586853,
					0.48627498745918274,
					0.0784313976764679,
					1
				],
				"metallicFactor":0
			}
		},
		{
			"name":"rpgStem-effect",
			"pbrMetallicRoughness":{
				"metallicFactor":0
			}
		},
		{
			"name":"bayonetStem-effect",
			"pbrMetallicRoughness":{
				"baseColorFactor":[
					0.9882349967956543,
					0.9882349967956543,
					0.9882349967956543,
					1
				],
				"metallicFactor":0
			}
		},
		{
			"name":"barrel2Stem-effect",
			"pbrMetallicRoughness":{
				"baseColorFactor":[
					0.1254899948835373,
					0.1254899948835373,
					0.1254899948835373,
					1
				],
				"metallicFactor":0
			}
		},
		{
			"name":"barrel1Stem-effect",
			"pbrMetallicRoughness":{
				"baseColorFactor":[
					0.35294100642204285,
					0.35294100642204285,
					0.35294100642204285,
					1
				],
				"metallicFactor":0
			}
		},
		{
			"name":"filterOutStem-effect",
			"pbrMetallicRoughness":{
				"baseColorFactor":[
					0.4196079969406128,
					0.4196079969406128,
					0.4117650091648102,
					1
				],
				"metallicFactor":0
			}
		},
		{
			"name":"filterInStem-effect",
			"pbrMetallicRoughness":{
				"baseColorFactor":[
					0.35999101400375366,
					0.35999101400375366,
					0.35999101400375366,
					1
				],
				"metallicFactor":0
			}
		},
		{
			"name":"exhaustGunStem-effect",
			"pbrMetallicRoughness":{
				"baseColorFactor":[
					0.5058820247650146,
					0.5058820247650146,
					0.5058820247650146,
					1
				],
				"metallicFactor":0
			}
		},
		{
			"name":"headFilletStem-effect",
			"pbrMetallicRoughness":{
				"baseColorFactor":[
					0.2549020051956177,
					0.2549020051956177,
					0.2549020051956177,
					1
				],
				"metallicFactor":0
			}
		},
		{
			"name":"headCaseStem-effect",
			"pbrMetallicRoughness":{
				"baseColorFactor":[
					0.8627449870109558,
					0.6509799957275391,
					0.24313700199127197,
					1
				],
				"metallicFactor":0
			}
		},
		{
			"name":"headGrillStem-effect",
			"pbrMetallicRoughness":{
				"baseColorFactor":[
					0.7098039984703064,
					0.5411760210990906,
					0.2549020051956177,
					1
				],
				"metallicFactor":0
			}
		},
		{
			"name":"headHornStem-effect",
			"pbrMetallicRoughness":{
				"baseColorFactor":[
					0.8274509906768799,
					0.5176470279693604,
					0.062745101749897,
					1
				],
				"metallicFactor":0
			}
		},
		{
			"name":"eyeStem-effect",
			"pbrMetallicRoughness":{
				"baseColorFactor":[
					0.9882349967956543,
					0.9882349967956543,
					0.9882349967956543,
					1
				],
				"metallicFactor":0
			}
		},
		{
			"name":"eyeRimStem-effect",
			"pbrMetallicRoughness":{
				"metallicFactor":0
			}
		}
	],
	"meshes":[
		{
			"name":"Figure_2_geometry",
			"primitives":[
				{
					"attributes":{
						"POSITION":0,
						"NORMAL":1
					},
					"indices":2,
					"material":0
				},
				{
					"attributes":{
						"POSITION":3,
						"NORMAL":4
					},
					"indices":5,
					"material":1
				},
				{
					"attributes":{
						"POSITION":6,
						"NORMAL":7
					},
					"indices":8,
					"material":2
				},
				{
					"attributes":{
						"POSITION":9,
						"NORMAL":10
					},
					"indices":11,
					"material":3
				},
				{
					"attributes":{
						"POSITION":12,
						"NORMAL":13
					},
					"indices":14,
					"material":4
				},
				{
					"attributes":{
						"POSITION":15,
						"NORMAL":16
					},
					"indices":17,
					"material":5
				},
				{
					"attributes":{
						"POSITION":18,
						"NORMAL":19
					},
					"indices":20,
					"material":6
				},
				{
					"attributes":{
						"POSITION":21,
						"NORMAL":22
					},
					"indices":23,
					"material":7
				},
				{
					"attributes":{
						"POSITION":24,
						"NORMAL":25
					},
					"indices":26,
					"material":8
				},
				{
					"attributes":{
						"POSITION":27,
						"NORMAL":28
					},
					"indices":29,
					"material":9
				},
				{
					"attributes":{
						"POSITION":30,
						"NORMAL":31
					},
					"indices":32,
					"material":10
				},
				{
					"attributes":{
						"POSITION":33,
						"NORMAL":34
					},
					"indices":35,
					"material":11
				},
				{
					"attributes":{
						"POSITION":36,
						"NORMAL":37
					},
					"indices":38,
					"material":12
				},
				{
					"attributes":{
						"POSITION":39,
						"NORMAL":40
					},
					"indices":41,
					"material":13
				},
				{
					"attributes":{
						"POSITION":42,
						"NORMAL":43
					},
					"indices":44,
					"material":14
				},
				{
					"attributes":{
						"POSITION":45,
						"NORMAL":46
					},
					"indices":47,
					"material":15
				},
				{
					"attributes":{
						"POSITION":48,
						"NORMAL":49
					},
					"indices":50,
					"material":16
				},
				{
					"attributes":{
						"POSITION":51,
						"NORMAL":52
					},
					"indices":53,
					"material":17
				},
				{
					"attributes":{
						"POSITION":54,
						"NORMAL":55
					},
					"indices":56,
					"material":18
				},
				{
					"attributes":{
						"POSITION":57,
						"NORMAL":58
					},
					"indices":59,
					"material":19
				},
				{
					"attributes":{
						"POSITION":60,
						"NORMAL":61
					},
					"indices":62,
					"material":20
				},
				{
					"attributes":{
						"POSITION":63,
						"NORMAL":64
					},
					"indices":65,
					"material":21
				},
				{
					"attributes":{
						"POSITION":66,
						"NORMAL":67
					},
					"indices":68,
					"material":22
				},
				{
					"attributes":{
						"POSITION":69,
						"NORMAL":70
					},
					"indices":71,
					"material":23
				},
				{
					"attributes":{
						"POSITION":72,
						"NORMAL":73
					},
					"indices":74,
					"material":24
				},
				{
					"attributes":{
						"POSITION":75,
						"NORMAL":76
					},
					"indices":77,
					"material":25
				},
				{
					"attributes":{
						"POSITION":78,
						"NORMAL":79
					},
					"indices":80,
					"material":26
				},
				{
					"attributes":{
						"POSITION":81,
						"NORMAL":82
					},
					"indices":83,
					"material":27
				},
				{
					"attributes":{
						"POSITION":84,
						"NORMAL":85
					},
					"indices":86,
					"material":28
				},
				{
					"attributes":{
						"POSITION":87,
						"NORMAL":88
					},
					"indices":89,
					"material":29
				},
				{
					"attributes":{
						"POSITION":90,
						"NORMAL":91
					},
					"indices":92,
					"material":30
				},
				{
					"attributes":{
						"POSITION":93,
						"NORMAL":94
					},
					"indices":95,
					"material":31
				},
				{
					"attributes":{
						"POSITION":96,
						"NORMAL":97
					},
					"indices":98,
					"material":32
				},
				{
					"attributes":{
						"POSITION":99,
						"NORMAL":100
					},
					"indices":101,
					"material":33
				},
				{
					"attributes":{
						"POSITION":102,
						"NORMAL":103
					},
					"indices":104,
					"material":34
				},
				{
					"attributes":{
						"POSITION":105,
						"NORMAL":106
					},
					"indices":107,
					"material":35
				},
				{
					"attributes":{
						"POSITION":108,
						"NORMAL":109
					},
					"indices":110,
					"material":36
				},
				{
					"attributes":{
						"POSITION":111,
						"NORMAL":112
					},
					"indices":113,
					"material":37
				},
				{
					"attributes":{
						"POSITION":114,
						"NORMAL":115
					},
					"indices":116,
					"material":38
				},
				{
					"attributes":{
						"POSITION":117,
						"NORMAL":118
					},
					"indices":119,
					"material":39
				},
				{
					"attributes":{
						"POSITION":120,
						"NORMAL":121
					},
					"indices":122,
					"material":40
				},
				{
					"attributes":{
						"POSITION":123,
						"NORMAL":124
					},
					"indices":125,
					"material":41
				},
				{
					"attributes":{
						"POSITION":126,
						"NORMAL":127
					},
					"indices":128,
					"material":42
				},
				{
					"attributes":{
						"POSITION":129,
						"NORMAL":130
					},
					"indices":131,
					"material":43
				},
				{
					"attributes":{
						"POSITION":132,
						"NORMAL":133
					},
					"indices":134,
					"material":44
				},
				{
					"attributes":{
						"POSITION":135,
						"NORMAL":136
					},
					"indices":137,
					"material":45
				},
				{
					"attributes":{
						"POSITION":138,
						"NORMAL":139
					},
					"indices":140,
					"material":46
				},
				{
					"attributes":{
						"POSITION":141,
						"NORMAL":142
					},
					"indices":143,
					"material":47
				},
				{
					"attributes":{
						"POSITION":144,
						"NORMAL":145
					},
					"indices":146,
					"material":48
				},
				{
					"attributes":{
						"POSITION":147,
						"NORMAL":148
					},
					"indices":149,
					"material":49
				},
				{
					"attributes":{
						"POSITION":150,
						"NORMAL":151
					},
					"indices":152,
					"material":50
				},
				{
					"attributes":{
						"POSITION":153,
						"NORMAL":154
					},
					"indices":155,
					"material":51
				},
				{
					"attributes":{
						"POSITION":156,
						"NORMAL":157
					},
					"indices":158,
					"material":52
				},
				{
					"attributes":{
						"POSITION":159,
						"NORMAL":160
					},
					"indices":161,
					"material":53
				},
				{
					"attributes":{
						"POSITION":162,
						"NORMAL":163
					},
					"indices":164,
					"material":54
				},
				{
					"attributes":{
						"POSITION":165,
						"NORMAL":166
					},
					"indices":167,
					"material":55
				},
				{
					"attributes":{
						"POSITION":168,
						"NORMAL":169
					},
					"indices":170,
					"material":56
				},
				{
					"attributes":{
						"POSITION":171,
						"NORMAL":172
					},
					"indices":173,
					"material":57
				},
				{
					"attributes":{
						"POSITION":174,
						"NORMAL":175
					},
					"indices":176,
					"material":58
				}
			]
		}
	],
	"accessors":[
		{
			"bufferView":0,
			"componentType":5126,
			"count":539,
			"max":[
				0.27433979511260986,
				-0.032747697085142136,
				1.4563469886779785
			],
			"min":[
				-0.27433979511260986,
				-0.15003696084022522,
				1.0480209589004517
			],
			"type":"VEC3"
		},
		{
			"bufferView":1,
			"componentType":5126,
			"count":539,
			"type":"VEC3"
		},
		{
			"bufferView":2,
			"componentType":5123,
			"count":2778,
			"type":"SCALAR"
		},
		{
			"bufferView":3,
			"componentType":5126,
			"count":1019,
			"max":[
				1.0657269954681396,
				0.1831023395061493,
				1.4771188497543335
			],
			"min":[
				-0.6080120205879211,
				-0.060998812317848206,
				1.2819769382476807
			],
			"type":"VEC3"
		},
		{
			"bufferView":4,
			"componentType":5126,
			"count":1019,
			"type":"VEC3"
		},
		{
			"bufferView":5,
			"componentType":5123,
			"count":5928,
			"type":"SCALAR"
		},
		{
			"bufferView":6,
			"componentType":5126,
			"count":195,
			"max":[
				1.1625219583511353,
				0.07000326365232468,
				1.4373669624328613
			],
			"min":[
				1.05805504322052,
				-0.049757786095142365,
				1.3069429397583008
			],
			"type":"VEC3"
		},
		{
			"bufferView":7,
			"componentType":5126,
			"count":195,
			"type":"VEC3"
		},
		{
			"bufferView":8,
			"componentType":5123,
			"count":1134,
			"type":"SCALAR"
		},
		{
			"bufferView":9,
			"componentType":5126,
			"count":1064,
			"max":[
				0.29972395300865173,
				0.1562395840883255,
				1.017617106437683
			],
			"min":[
				-0.29972395300865173,
				-0.18406029045581818,
				-0.0005403580144047737
			],
			"type":"VEC3"
		},
		{
			"bufferView":10,
			"componentType":5126,
			"count":1064,
			"type":"VEC3"
		},
		{
			"bufferView":11,
			"componentType":5123,
			"count":6240,
			"type":"SCALAR"
		},
		{
			"bufferView":12,
			"componentType":5126,
			"count":56,
			"max":[
				0.13851596415042877,
				-0.009334711357951164,
				0.08137951791286469
			],
			"min":[
				-0.13851596415042877,
				-0.14956034719944,
				0.009157252497971058
			],
			"type":"VEC3"
		},
		{
			"bufferView":13,
			"componentType":5126,
			"count":56,
			"type":"VEC3"
		},
		{
			"bufferView":14,
			"componentType":5123,
			"count":312,
			"type":"SCALAR"
		},
		{
			"bufferView":15,
			"componentType":5126,
			"count":256,
			"max":[
				0.19411978125572205,
				0.11213477700948715,
				0.5909187197685242
			],
			"min":[
				-0.19411978125572205,
				-0.044809937477111816,
				0.433971107006073
			],
			"type":"VEC3"
		},
		{
			"bufferView":16,
			"componentType":5126,
			"count":256,
			"type":"VEC3"
		},
		{
			"bufferView":17,
			"componentType":5123,
			"count":1512,
			"type":"SCALAR"
		},
		{
			"bufferView":18,
			"componentType":5126,
			"count":803,
			"max":[
				0.2310226410627365,
				0.08274007588624954,
				0.9715561270713806
			],
			"min":[
				-0.2310226410627365,
				-0.08323059231042862,
				0.7902671098709106
			],
			"type":"VEC3"
		},
		{
			"bufferView":19,
			"componentType":5126,
			"count":803,
			"type":"VEC3"
		},
		{
			"bufferView":20,
			"componentType":5123,
			"count":4740,
			"type":"SCALAR"
		},
		{
			"bufferView":21,
			"componentType":5126,
			"count":256,
			"max":[
				0.21291323006153107,
				0.13474948704242706,
				0.9194201231002808
			],
			"min":[
				-0.21291323006153107,
				-0.07738672941923141,
				0.028027327731251717
			],
			"type":"VEC3"
		},
		{
			"bufferView":22,
			"componentType":5126,
			"count":256,
			"type":"VEC3"
		},
		{
			"bufferView":23,
			"componentType":5123,
			"count":912,
			"type":"SCALAR"
		},
		{
			"bufferView":24,
			"componentType":5126,
			"count":40,
			"max":[
				0.2023567110300064,
				0.0949474647641182,
				0.7937266230583191
			],
			"min":[
				-0.2023567110300064,
				-0.09374909102916718,
				0.5446743965148926
			],
			"type":"VEC3"
		},
		{
			"bufferView":25,
			"componentType":5126,
			"count":40,
			"type":"VEC3"
		},
		{
			"bufferView":26,
			"componentType":5123,
			"count":216,
			"type":"SCALAR"
		},
		{
			"bufferView":27,
			"componentType":5126,
			"count":360,
			"max":[
				0.21106760203838348,
				-0.008979786187410355,
				0.8112161755561829
			],
			"min":[
				-0.21106760203838348,
				-0.13383975625038147,
				0.561014711856842
			],
			"type":"VEC3"
		},
		{
			"bufferView":28,
			"componentType":5126,
			"count":360,
			"type":"VEC3"
		},
		{
			"bufferView":29,
			"componentType":5123,
			"count":2136,
			"type":"SCALAR"
		},
		{
			"bufferView":30,
			"componentType":5126,
			"count":752,
			"max":[
				0.23553603887557983,
				0.11558228731155396,
				0.9121201634407043
			],
			"min":[
				-0.23553603887557983,
				-0.07996921241283417,
				0.7004974484443665
			],
			"type":"VEC3"
		},
		{
			"bufferView":31,
			"componentType":5126,
			"count":752,
			"type":"VEC3"
		},
		{
			"bufferView":32,
			"componentType":5123,
			"count":3696,
			"type":"SCALAR"
		},
		{
			"bufferView":33,
			"componentType":5126,
			"count":845,
			"max":[
				0.9558497667312622,
				0.11391983181238174,
				1.7040820121765137
			],
			"min":[
				-0.48123037815093994,
				-0.1586865782737732,
				0.8420312404632568
			],
			"type":"VEC3"
		},
		{
			"bufferView":34,
			"componentType":5126,
			"count":845,
			"type":"VEC3"
		},
		{
			"bufferView":35,
			"componentType":5123,
			"count":2286,
			"type":"SCALAR"
		},
		{
			"bufferView":36,
			"componentType":5126,
			"count":384,
			"max":[
				0.23765608668327332,
				0.07498467713594437,
				0.6665396690368652
			],
			"min":[
				-0.23765608668327332,
				0.009939956478774548,
				0.49547675251960754
			],
			"type":"VEC3"
		},
		{
			"bufferView":37,
			"componentType":5126,
			"count":384,
			"type":"VEC3"
		},
		{
			"bufferView":38,
			"componentType":5123,
			"count":2160,
			"type":"SCALAR"
		},
		{
			"bufferView":39,
			"componentType":5126,
			"count":416,
			"max":[
				0.22231099009513855,
				0.16382668912410736,
				0.8088476657867432
			],
			"min":[
				-0.22231099009513855,
				-0.02338130958378315,
				0.2613442838191986
			],
			"type":"VEC3"
		},
		{
			"bufferView":40,
			"componentType":5126,
			"count":416,
			"type":"VEC3"
		},
		{
			"bufferView":41,
			"componentType":5123,
			"count":2400,
			"type":"SCALAR"
		},
		{
			"bufferView":42,
			"componentType":5126,
			"count":40,
			"max":[
				0.20008739829063416,
				0.06951904296875,
				0.6722119450569153
			],
			"min":[
				-0.20008739829063416,
				-0.0024558573495596647,
				0.48086461424827576
			],
			"type":"VEC3"
		},
		{
			"bufferView":43,
			"componentType":5126,
			"count":40,
			"type":"VEC3"
		},
		{
			"bufferView":44,
			"componentType":5123,
			"count":192,
			"type":"SCALAR"
		},
		{
			"bufferView":45,
			"componentType":5126,
			"count":452,
			"max":[
				0.21631155908107758,
				-0.055761490017175674,
				0.5708295106887817
			],
			"min":[
				-0.21631155908107758,
				-0.10501042753458023,
				0.387556254863739
			],
			"type":"VEC3"
		},
		{
			"bufferView":46,
			"componentType":5126,
			"count":452,
			"type":"VEC3"
		},
		{
			"bufferView":47,
			"componentType":5123,
			"count":2772,
			"type":"SCALAR"
		},
		{
			"bufferView":48,
			"componentType":5126,
			"count":56,
			"max":[
				0.176181361079216,
				0.15911926329135895,
				0.3996170461177826
			],
			"min":[
				-0.176181361079216,
				0.010912329889833927,
				0.23135526478290558
			],
			"type":"VEC3"
		},
		{
			"bufferView":49,
			"componentType":5126,
			"count":56,
			"type":"VEC3"
		},
		{
			"bufferView":50,
			"componentType":5123,
			"count":312,
			"type":"SCALAR"
		},
		{
			"bufferView":51,
			"componentType":5126,
			"count":384,
			"max":[
				0.1790279746055603,
				0.11717338114976883,
				0.21458613872528076
			],
			"min":[
				-0.1790279746055603,
				0.011002281680703163,
				0.09651272743940353
			],
			"type":"VEC3"
		},
		{
			"bufferView":52,
			"componentType":5126,
			"count":384,
			"type":"VEC3"
		},
		{
			"bufferView":53,
			"componentType":5123,
			"count":2280,
			"type":"SCALAR"
		},
		{
			"bufferView":54,
			"componentType":5126,
			"count":284,
			"max":[
				0.14629924297332764,
				0.11732001602649689,
				0.18243463337421417
			],
			"min":[
				-0.14629924297332764,
				-0.00046424713218584657,
				0.06464891135692596
			],
			"type":"VEC3"
		},
		{
			"bufferView":55,
			"componentType":5126,
			"count":284,
			"type":"VEC3"
		},
		{
			"bufferView":56,
			"componentType":5123,
			"count":1680,
			"type":"SCALAR"
		},
		{
			"bufferView":57,
			"componentType":5126,
			"count":184,
			"max":[
				0.19786643981933594,
				0.08225028216838837,
				0.41010531783103943
			],
			"min":[
				-0.19786643981933594,
				-0.04774051159620285,
				0.2639545202255249
			],
			"type":"VEC3"
		},
		{
			"bufferView":58,
			"componentType":5126,
			"count":184,
			"type":"VEC3"
		},
		{
			"bufferView":59,
			"componentType":5123,
			"count":1080,
			"type":"SCALAR"
		},
		{
			"bufferView":60,
			"componentType":5126,
			"count":224,
			"max":[
				0.19055204093456268,
				0.11099323630332947,
				1.010429859161377
			],
			"min":[
				-0.19055204093456268,
				-0.15254148840904236,
				0.35944440960884094
			],
			"type":"VEC3"
		},
		{
			"bufferView":61,
			"componentType":5126,
			"count":224,
			"type":"VEC3"
		},
		{
			"bufferView":62,
			"componentType":5123,
			"count":1296,
			"type":"SCALAR"
		},
		{
			"bufferView":63,
			"componentType":5126,
			"count":606,
			"max":[
				0.11763300001621246,
				0.1299906224012375,
				1.507748007774353
			],
			"min":[
				-0.11763300001621246,
				-0.15254148840904236,
				0.788148820400238
			],
			"type":"VEC3"
		},
		{
			"bufferView":64,
			"componentType":5126,
			"count":606,
			"type":"VEC3"
		},
		{
			"bufferView":65,
			"componentType":5123,
			"count":3456,
			"type":"SCALAR"
		},
		{
			"bufferView":66,
			"componentType":5126,
			"count":1214,
			"max":[
				0.3850386142730713,
				0.1725611388683319,
				1.5223779678344727
			],
			"min":[
				-0.7090775966644287,
				-0.19458279013633728,
				0.8746052980422974
			],
			"type":"VEC3"
		},
		{
			"bufferView":67,
			"componentType":5126,
			"count":1214,
			"type":"VEC3"
		},
		{
			"bufferView":68,
			"componentType":5123,
			"count":6996,
			"type":"SCALAR"
		},
		{
			"bufferView":69,
			"componentType":5126,
			"count":1705,
			"max":[
				0.39696240425109863,
				0.1524769812822342,
				1.5549310445785522
			],
			"min":[
				-0.3173973858356476,
				-0.25572049617767334,
				0.8218048214912415
			],
			"type":"VEC3"
		},
		{
			"bufferView":70,
			"componentType":5126,
			"count":1705,
			"type":"VEC3"
		},
		{
			"bufferView":71,
			"componentType":5123,
			"count":9453,
			"type":"SCALAR"
		},
		{
			"bufferView":72,
			"componentType":5126,
			"count":1236,
			"max":[
				0.43619009852409363,
				0.18784190714359283,
				1.624858021736145
			],
			"min":[
				-0.43619009852409363,
				-0.09258921444416046,
				1.1335359811782837
			],
			"type":"VEC3"
		},
		{
			"bufferView":73,
			"componentType":5126,
			"count":1236,
			"type":"VEC3"
		},
		{
			"bufferView":74,
			"componentType":5123,
			"count":7077,
			"type":"SCALAR"
		},
		{
			"bufferView":75,
			"componentType":5126,
			"count":3352,
			"max":[
				0.20052820444107056,
				0.13036401569843292,
				1.5314489603042603
			],
			"min":[
				-0.20052820444107056,
				-0.06539401412010193,
				1.017976999282837
			],
			"type":"VEC3"
		},
		{
			"bufferView":76,
			"componentType":5126,
			"count":3352,
			"type":"VEC3"
		},
		{
			"bufferView":77,
			"componentType":5123,
			"count":19842,
			"type":"SCALAR"
		},
		{
			"bufferView":78,
			"componentType":5126,
			"count":1355,
			"max":[
				0.165345698595047,
				0.14568990468978882,
				1.5680040121078491
			],
			"min":[
				-0.07679343223571777,
				-0.06932259351015091,
				1.478713035583496
			],
			"type":"VEC3"
		},
		{
			"bufferView":79,
			"componentType":5126,
			"count":1355,
			"type":"VEC3"
		},
		{
			"bufferView":80,
			"componentType":5123,
			"count":8064,
			"type":"SCALAR"
		},
		{
			"bufferView":81,
			"componentType":5126,
			"count":1083,
			"max":[
				0.45185381174087524,
				0.150926411151886,
				1.5663119554519653
			],
			"min":[
				-0.44873571395874023,
				-0.039553381502628326,
				1.2354400157928467
			],
			"type":"VEC3"
		},
		{
			"bufferView":82,
			"componentType":5126,
			"count":1083,
			"type":"VEC3"
		},
		{
			"bufferView":83,
			"componentType":5123,
			"count":5736,
			"type":"SCALAR"
		},
		{
			"bufferView":84,
			"componentType":5126,
			"count":761,
			"max":[
				0.9396100640296936,
				0.1458786427974701,
				1.5722160339355469
			],
			"min":[
				-0.7408316135406494,
				-0.03310350328683853,
				1.2442729473114014
			],
			"type":"VEC3"
		},
		{
			"bufferView":85,
			"componentType":5126,
			"count":761,
			"type":"VEC3"
		},
		{
			"bufferView":86,
			"componentType":5123,
			"count":3318,
			"type":"SCALAR"
		},
		{
			"bufferView":87,
			"componentType":5126,
			"count":661,
			"max":[
				0.47162920236587524,
				0.20401223003864288,
				1.5722160339355469
			],
			"min":[
				-0.47162920236587524,
				-0.010853253304958344,
				1.3943560123443604
			],
			"type":"VEC3"
		},
		{
			"bufferView":88,
			"componentType":5126,
			"count":661,
			"type":"VEC3"
		},
		{
			"bufferView":89,
			"componentType":5123,
			"count":2928,
			"type":"SCALAR"
		},
		{
			"bufferView":90,
			"componentType":5126,
			"count":440,
			"max":[
				0.05540227144956589,
				0.32849499583244324,
				1.7050449848175049
			],
			"min":[
				-0.05540227144956589,
				-0.06192729249596596,
				1.0184400081634521
			],
			"type":"VEC3"
		},
		{
			"bufferView":91,
			"componentType":5126,
			"count":440,
			"type":"VEC3"
		},
		{
			"bufferView":92,
			"componentType":5123,
			"count":1584,
			"type":"SCALAR"
		},
		{
			"bufferView":93,
			"componentType":5126,
			"count":1263,
			"max":[
				0.15658919513225555,
				0.3413880169391632,
				1.7174659967422485
			],
			"min":[
				-0.08176165074110031,
				-0.07656620442867279,
				1.005632996559143
			],
			"type":"VEC3"
		},
		{
			"bufferView":94,
			"componentType":5126,
			"count":1263,
			"type":"VEC3"
		},
		{
			"bufferView":95,
			"componentType":5123,
			"count":7209,
			"type":"SCALAR"
		},
		{
			"bufferView":96,
			"componentType":5126,
			"count":598,
			"max":[
				0.248561292886734,
				0.12617823481559753,
				1.447119951248169
			],
			"min":[
				-0.248561292886734,
				-0.05304473638534546,
				1.144036054611206
			],
			"type":"VEC3"
		},
		{
			"bufferView":97,
			"componentType":5126,
			"count":598,
			"type":"VEC3"
		},
		{
			"bufferView":98,
			"componentType":5123,
			"count":3531,
			"type":"SCALAR"
		},
		{
			"bufferView":99,
			"componentType":5126,
			"count":247,
			"max":[
				0.1736883968114853,
				0.12939010560512543,
				1.4685169458389282
			],
			"min":[
				-0.1736883968114853,
				0.047556858509778976,
				1.20933997631073
			],
			"type":"VEC3"
		},
		{
			"bufferView":100,
			"componentType":5126,
			"count":247,
			"type":"VEC3"
		},
		{
			"bufferView":101,
			"componentType":5123,
			"count":1344,
			"type":"SCALAR"
		},
		{
			"bufferView":102,
			"componentType":5126,
			"count":1199,
			"max":[
				0.7159691452980042,
				0.20757023990154266,
				1.5593960285186768
			],
			"min":[
				-1.0704269409179688,
				-0.12992411851882935,
				1.0169960260391235
			],
			"type":"VEC3"
		},
		{
			"bufferView":103,
			"componentType":5126,
			"count":1199,
			"type":"VEC3"
		},
		{
			"bufferView":104,
			"componentType":5123,
			"count":5406,
			"type":"SCALAR"
		},
		{
			"bufferView":105,
			"componentType":5126,
			"count":287,
			"max":[
				0.16099749505519867,
				0.12307383865118027,
				1.2675410509109497
			],
			"min":[
				-0.16099749505519867,
				-0.12992411851882935,
				1.010509967803955
			],
			"type":"VEC3"
		},
		{
			"bufferView":106,
			"componentType":5126,
			"count":287,
			"type":"VEC3"
		},
		{
			"bufferView":107,
			"componentType":5123,
			"count":1098,
			"type":"SCALAR"
		},
		{
			"bufferView":108,
			"componentType":5126,
			"count":246,
			"max":[
				0.2753584086894989,
				0.16562482714653015,
				1.391832947731018
			],
			"min":[
				-0.5011064410209656,
				-0.0752701461315155,
				1.0902940034866333
			],
			"type":"VEC3"
		},
		{
			"bufferView":109,
			"componentType":5126,
			"count":246,
			"type":"VEC3"
		},
		{
			"bufferView":110,
			"componentType":5123,
			"count":954,
			"type":"SCALAR"
		},
		{
			"bufferView":111,
			"componentType":5126,
			"count":322,
			"max":[
				0.984382152557373,
				0.12608644366264343,
				1.4702059030532837
			],
			"min":[
				-0.5673546195030212,
				-0.03910196200013161,
				1.2886059284210205
			],
			"type":"VEC3"
		},
		{
			"bufferView":112,
			"componentType":5126,
			"count":322,
			"type":"VEC3"
		},
		{
			"bufferView":113,
			"componentType":5123,
			"count":1842,
			"type":"SCALAR"
		},
		{
			"bufferView":114,
			"componentType":5126,
			"count":242,
			"max":[
				0.48613473773002625,
				0.10015282034873962,
				1.5124479532241821
			],
			"min":[
				-0.5208178162574768,
				-0.023687079548835754,
				1.3411529064178467
			],
			"type":"VEC3"
		},
		{
			"bufferView":115,
			"componentType":5126,
			"count":242,
			"type":"VEC3"
		},
		{
			"bufferView":116,
			"componentType":5123,
			"count":1260,
			"type":"SCALAR"
		},
		{
			"bufferView":117,
			"componentType":5126,
			"count":113,
			"max":[
				0.9788713455200195,
				0.133472740650177,
				1.4705748558044434
			],
			"min":[
				-0.6134709119796753,
				-0.007822457700967789,
				1.3172138929367065
			],
			"type":"VEC3"
		},
		{
			"bufferView":118,
			"componentType":5126,
			"count":113,
			"type":"VEC3"
		},
		{
			"bufferView":119,
			"componentType":5123,
			"count":471,
			"type":"SCALAR"
		},
		{
			"bufferView":120,
			"componentType":5126,
			"count":1041,
			"max":[
				1.0582051277160645,
				0.09346400201320648,
				1.4305419921875
			],
			"min":[
				-0.6562739610671997,
				-0.05892980843782425,
				1.3109228610992432
			],
			"type":"VEC3"
		},
		{
			"bufferView":121,
			"componentType":5126,
			"count":1041,
			"type":"VEC3"
		},
		{
			"bufferView":122,
			"componentType":5123,
			"count":5925,
			"type":"SCALAR"
		},
		{
			"bufferView":123,
			"componentType":5126,
			"count":336,
			"max":[
				0.9615708589553833,
				0.15384894609451294,
				1.492940902709961
			],
			"min":[
				-0.5483198165893555,
				-0.06635350733995438,
				1.3013218641281128
			],
			"type":"VEC3"
		},
		{
			"bufferView":124,
			"componentType":5126,
			"count":336,
			"type":"VEC3"
		},
		{
			"bufferView":125,
			"componentType":5123,
			"count":1482,
			"type":"SCALAR"
		},
		{
			"bufferView":126,
			"componentType":5126,
			"count":1562,
			"max":[
				0.9054450392723083,
				0.11726193130016327,
				1.456291913986206
			],
			"min":[
				-0.5032491683959961,
				-0.040481798350811005,
				1.2914798259735107
			],
			"type":"VEC3"
		},
		{
			"bufferView":127,
			"componentType":5126,
			"count":1562,
			"type":"VEC3"
		},
		{
			"bufferView":128,
			"componentType":5123,
			"count":8688,
			"type":"SCALAR"
		},
		{
			"bufferView":129,
			"componentType":5126,
			"count":126,
			"max":[
				0.917673647403717,
				0.08572150021791458,
				1.4267810583114624
			],
			"min":[
				-0.6102675199508667,
				-0.013260914944112301,
				1.2632529735565186
			],
			"type":"VEC3"
		},
		{
			"bufferView":130,
			"componentType":5126,
			"count":126,
			"type":"VEC3"
		},
		{
			"bufferView":131,
			"componentType":5123,
			"count":768,
			"type":"SCALAR"
		},
		{
			"bufferView":132,
			"componentType":5126,
			"count":77,
			"max":[
				-0.5946403741836548,
				0.15986131131649017,
				1.3914480209350586
			],
			"min":[
				-1.1321640014648438,
				-0.06619656085968018,
				1.2588269710540771
			],
			"type":"VEC3"
		},
		{
			"bufferView":133,
			"componentType":5126,
			"count":77,
			"type":"VEC3"
		},
		{
			"bufferView":134,
			"componentType":5123,
			"count":294,
			"type":"SCALAR"
		},
		{
			"bufferView":135,
			"componentType":5126,
			"count":378,
			"max":[
				-0.7963601350784302,
				0.20998020470142365,
				1.4468669891357422
			],
			"min":[
				-1.1696269512176514,
				-0.049688294529914856,
				1.3078479766845703
			],
			"type":"VEC3"
		},
		{
			"bufferView":136,
			"componentType":5126,
			"count":378,
			"type":"VEC3"
		},
		{
			"bufferView":137,
			"componentType":5123,
			"count":2286,
			"type":"SCALAR"
		},
		{
			"bufferView":138,
			"componentType":5126,
			"count":47,
			"max":[
				-0.7963601350784302,
				0.21611550450325012,
				1.444216012954712
			],
			"min":[
				-1.1216360330581665,
				0.11564761400222778,
				1.3355180025100708
			],
			"type":"VEC3"
		},
		{
			"bufferView":139,
			"componentType":5126,
			"count":47,
			"type":"VEC3"
		},
		{
			"bufferView":140,
			"componentType":5123,
			"count":231,
			"type":"SCALAR"
		},
		{
			"bufferView":141,
			"componentType":5126,
			"count":68,
			"max":[
				-0.6847363114356995,
				0.1307167112827301,
				1.4486229419708252
			],
			"min":[
				-1.2521400451660156,
				0.006106432527303696,
				1.3432320356369019
			],
			"type":"VEC3"
		},
		{
			"bufferView":142,
			"componentType":5126,
			"count":68,
			"type":"VEC3"
		},
		{
			"bufferView":143,
			"componentType":5123,
			"count":249,
			"type":"SCALAR"
		},
		{
			"bufferView":144,
			"componentType":5126,
			"count":46,
			"max":[
				-0.6847363114356995,
				0.07232491672039032,
				1.4092979431152344
			],
			"min":[
				-0.8665342330932617,
				-0.023341652005910873,
				1.3432320356369019
			],
			"type":"VEC3"
		},
		{
			"bufferView":145,
			"componentType":5126,
			"count":46,
			"type":"VEC3"
		},
		{
			"bufferView":146,
			"componentType":5123,
			"count":132,
			"type":"SCALAR"
		},
		{
			"bufferView":147,
			"componentType":5126,
			"count":163,
			"max":[
				-0.7181820273399353,
				0.10177282989025116,
				1.5357651710510254
			],
			"min":[
				-1.1228649616241455,
				-0.02334166318178177,
				1.3136639595031738
			],
			"type":"VEC3"
		},
		{
			"bufferView":148,
			"componentType":5126,
			"count":163,
			"type":"VEC3"
		},
		{
			"bufferView":149,
			"componentType":5123,
			"count":903,
			"type":"SCALAR"
		},
		{
			"bufferView":150,
			"componentType":5126,
			"count":774,
			"max":[
				-0.816912829875946,
				0.07056710124015808,
				1.5472590923309326
			],
			"min":[
				-1.0789309740066528,
				0.005068257916718721,
				1.4588580131530762
			],
			"type":"VEC3"
		},
		{
			"bufferView":151,
			"componentType":5126,
			"count":774,
			"type":"VEC3"
		},
		{
			"bufferView":152,
			"componentType":5123,
			"count":4497,
			"type":"SCALAR"
		},
		{
			"bufferView":153,
			"componentType":5126,
			"count":164,
			"max":[
				-0.8253496885299683,
				0.1354944109916687,
				1.5393891334533691
			],
			"min":[
				-1.0636450052261353,
				0.013495160266757011,
				1.3687069416046143
			],
			"type":"VEC3"
		},
		{
			"bufferView":154,
			"componentType":5126,
			"count":164,
			"type":"VEC3"
		},
		{
			"bufferView":155,
			"componentType":5123,
			"count":480,
			"type":"SCALAR"
		},
		{
			"bufferView":156,
			"componentType":5126,
			"count":99,
			"max":[
				0.06597024202346802,
				0.1354944109916687,
				1.6286100149154663
			],
			"min":[
				-1.0531970262527466,
				-0.03212359547615051,
				1.3687069416046143
			],
			"type":"VEC3"
		},
		{
			"bufferView":157,
			"componentType":5126,
			"count":99,
			"type":"VEC3"
		},
		{
			"bufferView":158,
			"componentType":5123,
			"count":426,
			"type":"SCALAR"
		},
		{
			"bufferView":159,
			"componentType":5126,
			"count":589,
			"max":[
				0.09145306795835495,
				0.08395421504974365,
				1.7335740327835083
			],
			"min":[
				-0.0850815698504448,
				-0.1435941904783249,
				1.5252469778060913
			],
			"type":"VEC3"
		},
		{
			"bufferView":160,
			"componentType":5126,
			"count":589,
			"type":"VEC3"
		},
		{
			"bufferView":161,
			"componentType":5123,
			"count":3156,
			"type":"SCALAR"
		},
		{
			"bufferView":162,
			"componentType":5126,
			"count":816,
			"max":[
				0.09229648113250732,
				0.11866268515586853,
				1.7180629968643188
			],
			"min":[
				-0.09001719206571579,
				-0.16180136799812317,
				1.507802963256836
			],
			"type":"VEC3"
		},
		{
			"bufferView":163,
			"componentType":5126,
			"count":816,
			"type":"VEC3"
		},
		{
			"bufferView":164,
			"componentType":5123,
			"count":4626,
			"type":"SCALAR"
		},
		{
			"bufferView":165,
			"componentType":5126,
			"count":1613,
			"max":[
				0.09438984841108322,
				0.08314897119998932,
				1.7181910276412964
			],
			"min":[
				-0.07793670147657394,
				-0.1483904868364334,
				1.4954860210418701
			],
			"type":"VEC3"
		},
		{
			"bufferView":166,
			"componentType":5126,
			"count":1613,
			"type":"VEC3"
		},
		{
			"bufferView":167,
			"componentType":5123,
			"count":8925,
			"type":"SCALAR"
		},
		{
			"bufferView":168,
			"componentType":5126,
			"count":527,
			"max":[
				0.11259949952363968,
				0.06453780084848404,
				1.8343570232391357
			],
			"min":[
				-0.06100171059370041,
				-0.1474882960319519,
				1.6202499866485596
			],
			"type":"VEC3"
		},
		{
			"bufferView":169,
			"componentType":5126,
			"count":527,
			"type":"VEC3"
		},
		{
			"bufferView":170,
			"componentType":5123,
			"count":3069,
			"type":"SCALAR"
		},
		{
			"bufferView":171,
			"componentType":5126,
			"count":131,
			"max":[
				-0.028977150097489357,
				-0.14092499017715454,
				1.6526590585708618
			],
			"min":[
				-0.09302645176649094,
				-0.1574423760175705,
				1.5877209901809692
			],
			"type":"VEC3"
		},
		{
			"bufferView":172,
			"componentType":5126,
			"count":131,
			"type":"VEC3"
		},
		{
			"bufferView":173,
			"componentType":5123,
			"count":576,
			"type":"SCALAR"
		},
		{
			"bufferView":174,
			"componentType":5126,
			"count":127,
			"max":[
				-0.02808832935988903,
				-0.13877826929092407,
				1.6526590585708618
			],
			"min":[
				-0.09391528367996216,
				-0.14220789074897766,
				1.586830973625183
			],
			"type":"VEC3"
		},
		{
			"bufferView":175,
			"componentType":5126,
			"count":127,
			"type":"VEC3"
		},
		{
			"bufferView":176,
			"componentType":5123,
			"count":654,
			"type":"SCALAR"
		}
	],
	"bufferViews":[
		{
			"buffer":0,
			"byteLength":6468,
			"byteOffset":0,
			"target":34962
		},
		{
			"buffer":0,
			"byteLength":6468,
			"byteOffset":6468,
			"target":34962
		},
		{
			"buffer":0,
			"byteLength":5556,
			"byteOffset":12936,
			"target":34963
		},
		{
			"buffer":0,
			"byteLength":12228,
			"byteOffset":18492,
			"target":34962
		},
		{
			"buffer":0,
			"byteLength":12228,
			"byteOffset":30720,
			"target":34962
		},
		{
			"buffer":0,
			"byteLength":11856,
			"byteOffset":42948,
			"target":34963
		},
		{
			"buffer":0,
			"byteLength":2340,
			"byteOffset":54804,
			"target":34962
		},
		{
			"buffer":0,
			"byteLength":2340,
			"byteOffset":57144,
			"target":34962
		},
		{
			"buffer":0,
			"byteLength":2268,
			"byteOffset":59484,
			"target":34963
		},
		{
			"buffer":0,
			"byteLength":12768,
			"byteOffset":61752,
			"target":34962
		},
		{
			"buffer":0,
			"byteLength":12768,
			"byteOffset":74520,
			"target":34962
		},
		{
			"buffer":0,
			"byteLength":12480,
			"byteOffset":87288,
			"target":34963
		},
		{
			"buffer":0,
			"byteLength":672,
			"byteOffset":99768,
			"target":34962
		},
		{
			"buffer":0,
			"byteLength":672,
			"byteOffset":100440,
			"target":34962
		},
		{
			"buffer":0,
			"byteLength":624,
			"byteOffset":101112,
			"target":34963
		},
		{
			"buffer":0,
			"byteLength":3072,
			"byteOffset":101736,
			"target":34962
		},
		{
			"buffer":0,
			"byteLength":3072,
			"byteOffset":104808,
			"target":34962
		},
		{
			"buffer":0,
			"byteLength":3024,
			"byteOffset":107880,
			"target":34963
		},
		{
			"buffer":0,
			"byteLength":9636,
			"byteOffset":110904,
			"target":34962
		},
		{
			"buffer":0,
			"byteLength":9636,
			"byteOffset":120540,
			"target":34962
		},
		{
			"buffer":0,
			"byteLength":9480,
			"byteOffset":130176,
			"target":34963
		},
		{
			"buffer":0,
			"byteLength":3072,
			"byteOffset":139656,
			"target":34962
		},
		{
			"buffer":0,
			"byteLength":3072,
			"byteOffset":142728,
			"target":34962
		},
		{
			"buffer":0,
			"byteLength":1824,
			"byteOffset":145800,
			"target":34963
		},
		{
			"buffer":0,
			"byteLength":480,
			"byteOffset":147624,
			"target":34962
		},
		{
			"buffer":0,
			"byteLength":480,
			"byteOffset":148104,
			"target":34962
		},
		{
			"buffer":0,
			"byteLength":432,
			"byteOffset":148584,
			"target":34963
		},
		{
			"buffer":0,
			"byteLength":4320,
			"byteOffset":149016,
			"target":34962
		},
		{
			"buffer":0,
			"byteLength":4320,
			"byteOffset":153336,
			"target":34962
		},
		{
			"buffer":0,
			"byteLength":4272,
			"byteOffset":157656,
			"target":34963
		},
		{
			"buffer":0,
			"byteLength":9024,
			"byteOffset":161928,
			"target":34962
		},
		{
			"buffer":0,
			"byteLength":9024,
			"byteOffset":170952,
			"target":34962
		},
		{
			"buffer":0,
			"byteLength":7392,
			"byteOffset":179976,
			"target":34963
		},
		{
			"buffer":0,
			"byteLength":10140,
			"byteOffset":187368,
			"target":34962
		},
		{
			"buffer":0,
			"byteLength":10140,
			"byteOffset":197508,
			"target":34962
		},
		{
			"buffer":0,
			"byteLength":4572,
			"byteOffset":207648,
			"target":34963
		},
		{
			"buffer":0,
			"byteLength":4608,
			"byteOffset":212220,
			"target":34962
		},
		{
			"buffer":0,
			"byteLength":4608,
			"byteOffset":216828,
			"target":34962
		},
		{
			"buffer":0,
			"byteLength":4320,
			"byteOffset":221436,
			"target":34963
		},
		{
			"buffer":0,
			"byteLength":4992,
			"byteOffset":225756,
			"target":34962
		},
		{
			"buffer":0,
			"byteLength":4992,
			"byteOffset":230748,
			"target":34962
		},
		{
			"buffer":0,
			"byteLength":4800,
			"byteOffset":235740,
			"target":34963
		},
		{
			"buffer":0,
			"byteLength":480,
			"byteOffset":240540,
			"target":34962
		},
		{
			"buffer":0,
			"byteLength":480,
			"byteOffset":241020,
			"target":34962
		},
		{
			"buffer":0,
			"byteLength":384,
			"byteOffset":241500,
			"target":34963
		},
		{
			"buffer":0,
			"byteLength":5424,
			"byteOffset":241884,
			"target":34962
		},
		{
			"buffer":0,
			"byteLength":5424,
			"byteOffset":247308,
			"target":34962
		},
		{
			"buffer":0,
			"byteLength":5544,
			"byteOffset":252732,
			"target":34963
		},
		{
			"buffer":0,
			"byteLength":672,
			"byteOffset":258276,
			"target":34962
		},
		{
			"buffer":0,
			"byteLength":672,
			"byteOffset":258948,
			"target":34962
		},
		{
			"buffer":0,
			"byteLength":624,
			"byteOffset":259620,
			"target":34963
		},
		{
			"buffer":0,
			"byteLength":4608,
			"byteOffset":260244,
			"target":34962
		},
		{
			"buffer":0,
			"byteLength":4608,
			"byteOffset":264852,
			"target":34962
		},
		{
			"buffer":0,
			"byteLength":4560,
			"byteOffset":269460,
			"target":34963
		},
		{
			"buffer":0,
			"byteLength":3408,
			"byteOffset":274020,
			"target":34962
		},
		{
			"buffer":0,
			"byteLength":3408,
			"byteOffset":277428,
			"target":34962
		},
		{
			"buffer":0,
			"byteLength":3360,
			"byteOffset":280836,
			"target":34963
		},
		{
			"buffer":0,
			"byteLength":2208,
			"byteOffset":284196,
			"target":34962
		},
		{
			"buffer":0,
			"byteLength":2208,
			"byteOffset":286404,
			"target":34962
		},
		{
			"buffer":0,
			"byteLength":2160,
			"byteOffset":288612,
			"target":34963
		},
		{
			"buffer":0,
			"byteLength":2688,
			"byteOffset":290772,
			"target":34962
		},
		{
			"buffer":0,
			"byteLength":2688,
			"byteOffset":293460,
			"target":34962
		},
		{
			"buffer":0,
			"byteLength":2592,
			"byteOffset":296148,
			"target":34963
		},
		{
			"buffer":0,
			"byteLength":7272,
			"byteOffset":298740,
			"target":34962
		},
		{
			"buffer":0,
			"byteLength":7272,
			"byteOffset":306012,
			"target":34962
		},
		{
			"buffer":0,
			"byteLength":6912,
			"byteOffset":313284,
			"target":34963
		},
		{
			"buffer":0,
			"byteLength":14568,
			"byteOffset":320196,
			"target":34962
		},
		{
			"buffer":0,
			"byteLength":14568,
			"byteOffset":334764,
			"target":34962
		},
		{
			"buffer":0,
			"byteLength":13992,
			"byteOffset":349332,
			"target":34963
		},
		{
			"buffer":0,
			"byteLength":20460,
			"byteOffset":363324,
			"target":34962
		},
		{
			"buffer":0,
			"byteLength":20460,
			"byteOffset":383784,
			"target":34962
		},
		{
			"buffer":0,
			"byteLength":18906,
			"byteOffset":404244,
			"target":34963
		},
		{
			"buffer":0,
			"byteLength":14832,
			"byteOffset":423152,
			"target":34962
		},
		{
			"buffer":0,
			"byteLength":14832,
			"byteOffset":437984,
			"target":34962
		},
		{
			"buffer":0,
			"byteLength":14154,
			"byteOffset":452816,
			"target":34963
		},
		{
			"buffer":0,
			"byteLength":40224,
			"byteOffset":466972,
			"target":34962
		},
		{
			"buffer":0,
			"byteLength":40224,
			"byteOffset":507196,
			"target":34962
		},
		{
			"buffer":0,
			"byteLength":39684,
			"byteOffset":547420,
			"target":34963
		},
		{
			"buffer":0,
			"byteLength":16260,
			"byteOffset":587104,
			"target":34962
		},
		{
			"buffer":0,
			"byteLength":16260,
			"byteOffset":603364,
			"target":34962
		},
		{
			"buffer":0,
			"byteLength":16128,
			"byteOffset":619624,
			"target":34963
		},
		{
			"buffer":0,
			"byteLength":12996,
			"byteOffset":635752,
			"target":34962
		},
		{
			"buffer":0,
			"byteLength":12996,
			"byteOffset":648748,
			"target":34962
		},
		{
			"buffer":0,
			"byteLength":11472,
			"byteOffset":661744,
			"target":34963
		},
		{
			"buffer":0,
			"byteLength":9132,
			"byteOffset":673216,
			"target":34962
		},
		{
			"buffer":0,
			"byteLength":9132,
			"byteOffset":682348,
			"target":34962
		},
		{
			"buffer":0,
			"byteLength":6636,
			"byteOffset":691480,
			"target":34963
		},
		{
			"buffer":0,
			"byteLength":7932,
			"byteOffset":698116,
			"target":34962
		},
		{
			"buffer":0,
			"byteLength":7932,
			"byteOffset":706048,
			"target":34962
		},
		{
			"buffer":0,
			"byteLength":5856,
			"byteOffset":713980,
			"target":34963
		},
		{
			"buffer":0,
			"byteLength":5280,
			"byteOffset":719836,
			"target":34962
		},
		{
			"buffer":0,
			"byteLength":5280,
			"byteOffset":725116,
			"target":34962
		},
		{
			"buffer":0,
			"byteLength":3168,
			"byteOffset":730396,
			"target":34963
		},
		{
			"buffer":0,
			"byteLength":15156,
			"byteOffset":733564,
			"target":34962
		},
		{
			"buffer":0,
			"byteLength":15156,
			"byteOffset":748720,
			"target":34962
		},
		{
			"buffer":0,
			"byteLength":14418,
			"byteOffset":763876,
			"target":34963
		},
		{
			"buffer":0,
			"byteLength":7176,
			"byteOffset":778296,
			"target":34962
		},
		{
			"buffer":0,
			"byteLength":7176,
			"byteOffset":785472,
			"target":34962
		},
		{
			"buffer":0,
			"byteLength":7062,
			"byteOffset":792648,
			"target":34963
		},
		{
			"buffer":0,
			"byteLength":2964,
			"byteOffset":799712,
			"target":34962
		},
		{
			"buffer":0,
			"byteLength":2964,
			"byteOffset":802676,
			"target":34962
		},
		{
			"buffer":0,
			"byteLength":2688,
			"byteOffset":805640,
			"target":34963
		},
		{
			"buffer":0,
			"byteLength":14388,
			"byteOffset":808328,
			"target":34962
		},
		{
			"buffer":0,
			"byteLength":14388,
			"byteOffset":822716,
			"target":34962
		},
		{
			"buffer":0,
			"byteLength":10812,
			"byteOffset":837104,
			"target":34963
		},
		{
			"buffer":0,
			"byteLength":3444,
			"byteOffset":847916,
			"target":34962
		},
		{
			"buffer":0,
			"byteLength":3444,
			"byteOffset":851360,
			"target":34962
		},
		{
			"buffer":0,
			"byteLength":2196,
			"byteOffset":854804,
			"target":34963
		},
		{
			"buffer":0,
			"byteLength":2952,
			"byteOffset":857000,
			"target":34962
		},
		{
			"buffer":0,
			"byteLength":2952,
			"byteOffset":859952,
			"target":34962
		},
		{
			"buffer":0,
			"byteLength":1908,
			"byteOffset":862904,
			"target":34963
		},
		{
			"buffer":0,
			"byteLength":3864,
			"byteOffset":864812,
			"target":34962
		},
		{
			"buffer":0,
			"byteLength":3864,
			"byteOffset":868676,
			"target":34962
		},
		{
			"buffer":0,
			"byteLength":3684,
			"byteOffset":872540,
			"target":34963
		},
		{
			"buffer":0,
			"byteLength":2904,
			"byteOffset":876224,
			"target":34962
		},
		{
			"buffer":0,
			"byteLength":2904,
			"byteOffset":879128,
			"target":34962
		},
		{
			"buffer":0,
			"byteLength":2520,
			"byteOffset":882032,
			"target":34963
		},
		{
			"buffer":0,
			"byteLength":1356,
			"byteOffset":884552,
			"target":34962
		},
		{
			"buffer":0,
			"byteLength":1356,
			"byteOffset":885908,
			"target":34962
		},
		{
			"buffer":0,
			"byteLength":942,
			"byteOffset":887264,
			"target":34963
		},
		{
			"buffer":0,
			"byteLength":12492,
			"byteOffset":888208,
			"target":34962
		},
		{
			"buffer":0,
			"byteLength":12492,
			"byteOffset":900700,
			"target":34962
		},
		{
			"buffer":0,
			"byteLength":11850,
			"byteOffset":913192,
			"target":34963
		},
		{
			"buffer":0,
			"byteLength":4032,
			"byteOffset":925044,
			"target":34962
		},
		{
			"buffer":0,
			"byteLength":4032,
			"byteOffset":929076,
			"target":34962
		},
		{
			"buffer":0,
			"byteLength":2964,
			"byteOffset":933108,
			"target":34963
		},
		{
			"buffer":0,
			"byteLength":18744,
			"byteOffset":936072,
			"target":34962
		},
		{
			"buffer":0,
			"byteLength":18744,
			"byteOffset":954816,
			"target":34962
		},
		{
			"buffer":0,
			"byteLength":17376,
			"byteOffset":973560,
			"target":34963
		},
		{
			"buffer":0,
			"byteLength":1512,
			"byteOffset":990936,
			"target":34962
		},
		{
			"buffer":0,
			"byteLength":1512,
			"byteOffset":992448,
			"target":34962
		},
		{
			"buffer":0,
			"byteLength":1536,
			"byteOffset":993960,
			"target":34963
		},
		{
			"buffer":0,
			"byteLength":924,
			"byteOffset":995496,
			"target":34962
		},
		{
			"buffer":0,
			"byteLength":924,
			"byteOffset":996420,
			"target":34962
		},
		{
			"buffer":0,
			"byteLength":588,
			"byteOffset":997344,
			"target":34963
		},
		{
			"buffer":0,
			"byteLength":4536,
			"byteOffset":997932,
			"target":34962
		},
		{
			"buffer":0,
			"byteLength":4536,
			"byteOffset":1002468,
			"target":34962
		},
		{
			"buffer":0,
			"byteLength":4572,
			"byteOffset":1007004,
			"target":34963
		},
		{
			"buffer":0,
			"byteLength":564,
			"byteOffset":1011576,
			"target":34962
		},
		{
			"buffer":0,
			"byteLength":564,
			"byteOffset":1012140,
			"target":34962
		},
		{
			"buffer":0,
			"byteLength":462,
			"byteOffset":1012704,
			"target":34963
		},
		{
			"buffer":0,
			"byteLength":816,
			"byteOffset":1013168,
			"target":34962
		},
		{
			"buffer":0,
			"byteLength":816,
			"byteOffset":1013984,
			"target":34962
		},
		{
			"buffer":0,
			"byteLength":498,
			"byteOffset":1014800,
			"target":34963
		},
		{
			"buffer":0,
			"byteLength":552,
			"byteOffset":1015300,
			"target":34962
		},
		{
			"buffer":0,
			"byteLength":552,
			"byteOffset":1015852,
			"target":34962
		},
		{
			"buffer":0,
			"byteLength":264,
			"byteOffset":1016404,
			"target":34963
		},
		{
			"buffer":0,
			"byteLength":1956,
			"byteOffset":1016668,
			"target":34962
		},
		{
			"buffer":0,
			"byteLength":1956,
			"byteOffset":1018624,
			"target":34962
		},
		{
			"buffer":0,
			"byteLength":1806,
			"byteOffset":1020580,
			"target":34963
		},
		{
			"buffer":0,
			"byteLength":9288,
			"byteOffset":1022388,
			"target":34962
		},
		{
			"buffer":0,
			"byteLength":9288,
			"byteOffset":1031676,
			"target":34962
		},
		{
			"buffer":0,
			"byteLength":8994,
			"byteOffset":1040964,
			"target":34963
		},
		{
			"buffer":0,
			"byteLength":1968,
			"byteOffset":1049960,
			"target":34962
		},
		{
			"buffer":0,
			"byteLength":1968,
			"byteOffset":1051928,
			"target":34962
		},
		{
			"buffer":0,
			"byteLength":960,
			"byteOffset":1053896,
			"target":34963
		},
		{
			"buffer":0,
			"byteLength":1188,
			"byteOffset":1054856,
			"target":34962
		},
		{
			"buffer":0,
			"byteLength":1188,
			"byteOffset":1056044,
			"target":34962
		},
		{
			"buffer":0,
			"byteLength":852,
			"byteOffset":1057232,
			"target":34963
		},
		{
			"buffer":0,
			"byteLength":7068,
			"byteOffset":1058084,
			"target":34962
		},
		{
			"buffer":0,
			"byteLength":7068,
			"byteOffset":1065152,
			"target":34962
		},
		{
			"buffer":0,
			"byteLength":6312,
			"byteOffset":1072220,
			"target":34963
		},
		{
			"buffer":0,
			"byteLength":9792,
			"byteOffset":1078532,
			"target":34962
		},
		{
			"buffer":0,
			"byteLength":9792,
			"byteOffset":1088324,
			"target":34962
		},
		{
			"buffer":0,
			"byteLength":9252,
			"byteOffset":1098116,
			"target":34963
		},
		{
			"buffer":0,
			"byteLength":19356,
			"byteOffset":1107368,
			"target":34962
		},
		{
			"buffer":0,
			"byteLength":19356,
			"byteOffset":1126724,
			"target":34962
		},
		{
			"buffer":0,
			"byteLength":17850,
			"byteOffset":1146080,
			"target":34963
		},
		{
			"buffer":0,
			"byteLength":6324,
			"byteOffset":1163932,
			"target":34962
		},
		{
			"buffer":0,
			"byteLength":6324,
			"byteOffset":1170256,
			"target":34962
		},
		{
			"buffer":0,
			"byteLength":6138,
			"byteOffset":1176580,
			"target":34963
		},
		{
			"buffer":0,
			"byteLength":1572,
			"byteOffset":1182720,
			"target":34962
		},
		{
			"buffer":0,
			"byteLength":1572,
			"byteOffset":1184292,
			"target":34962
		},
		{
			"buffer":0,
			"byteLength":1152,
			"byteOffset":1185864,
			"target":34963
		},
		{
			"buffer":0,
			"byteLength":1524,
			"byteOffset":1187016,
			"target":34962
		},
		{
			"buffer":0,
			"byteLength":1524,
			"byteOffset":1188540,
			"target":34962
		},
		{
			"buffer":0,
			"byteLength":1308,
			"byteOffset":1190064,
			"target":34963
		}
	],
	"buffers":[
		{
			"byteLength":1191372,
			"uri":"d.bin"
		}
	]
}
