# Blender 3.6.0
# www.blender.org
mtllib enemyFence.mtl
o 柵
v -0.110556 -0.434006 0.938557
v -0.110556 -0.434006 0.753528
v 0.110556 -0.434006 0.938557
v -0.110556 0.434006 0.938557
v -0.110556 0.434006 0.753528
v 0.110556 0.434006 0.753528
v -0.070556 0.394006 0.753528
v 0.070556 0.394006 0.753528
v -0.070556 0.257003 0.753528
v -0.070556 0.394006 -0.753528
v 0.070556 0.394006 -0.753528
v -0.070556 0.257003 -0.753528
v -0.110556 0.434006 -0.753528
v -0.110556 0.434006 -0.938557
v 0.110556 0.434006 -0.753528
v -0.110556 -0.434006 -0.753528
v -0.110556 -0.434006 -0.938557
v 0.110556 -0.434006 -0.938557
v 0.110556 -0.434006 -0.753528
v 0.110556 0.434006 -0.938557
v 0.070556 -0.394006 -0.753528
v -0.070556 -0.394006 -0.753528
v 0.070556 -0.257003 -0.753528
v 0.070556 -0.394006 0.753528
v -0.070556 -0.394006 0.753528
v 0.070556 -0.257003 0.753528
v 0.110556 -0.434006 0.753528
v -0.070556 -0.257003 0.753528
v -0.070556 -0.257003 -0.753528
v 0.070556 0.257003 -0.753528
v 0.070556 0.257003 0.753528
v 0.110556 0.434006 0.938557
vn -0.0000 -0.0000 1.0000
vn -0.0000 1.0000 -0.0000
vn -0.0000 -0.0000 -1.0000
vn -1.0000 -0.0000 -0.0000
vn 1.0000 -0.0000 -0.0000
vn -0.0000 -1.0000 -0.0000
vt 0.920737 0.350725
vt 0.928760 0.273856
vt 0.924165 0.342722
vt 0.925929 0.345003
vt 0.926849 0.341334
vt 0.925253 0.338760
vt 0.930394 0.331149
vt 0.924875 0.289886
vt 0.930024 0.289590
vt 0.857209 0.321912
vt 0.856715 0.291654
vt 0.856897 0.322441
vt 0.856717 0.292660
vt 0.856336 0.292408
vt 0.939136 0.335715
vt 0.938816 0.341945
vt 0.936887 0.337432
vt 0.940514 0.327148
vt 0.932586 0.287610
vt 0.937836 0.285864
vt 0.944055 0.347270
vt 0.937360 0.338321
vt 0.940171 0.339194
vt 0.944055 0.271425
vt 0.935273 0.263136
vt 0.934248 0.280000
vt 0.931080 0.272003
vt 0.934262 0.277182
vt 0.857774 0.291654
vt 0.857280 0.321912
vt 0.857592 0.322441
vt 0.857747 0.292408
vt 0.927518 0.282035
vt 0.924137 0.277009
vt 0.927337 0.281241
vt 0.930790 0.279134
vt 0.857601 0.321725
vt 0.858153 0.321920
vt 0.857772 0.292660
vt 0.856742 0.292408
vt 0.856888 0.321725
vt 0.856336 0.321920
vt 0.920737 0.263136
vt 0.927761 0.340436
vt 0.923949 0.330226
vt 0.934198 0.328379
vt 0.937278 0.278044
vt 0.858153 0.292408
s 0
usemtl マテリアル
f 4/1/1 3/2/1 32/3/1
f 5/4/2 32/3/2 6/5/2
f 8/6/3 5/4/3 6/5/3
f 9/7/3 26/8/3 28/9/3
f 10/10/2 8/11/2 11/12/2
f 10/10/4 9/13/4 7/14/4
f 11/15/1 13/16/1 10/17/1
f 30/18/1 29/19/1 23/20/1
f 14/21/2 15/22/2 20/23/2
f 20/23/3 17/24/3 14/21/3
f 15/22/5 18/25/5 20/23/5
f 22/26/1 19/27/1 21/28/1
f 24/29/6 22/30/6 21/31/6
f 21/31/5 26/32/5 24/29/5
f 24/33/3 2/34/3 25/35/3
f 32/3/5 27/36/5 6/5/5
f 29/37/2 26/32/2 23/38/2
f 22/30/4 28/39/4 29/37/4
f 31/40/6 12/41/6 30/42/6
f 11/12/5 31/40/5 30/42/5
f 5/4/4 1/43/4 4/1/4
f 17/24/4 13/16/4 14/21/4
f 19/27/6 17/24/6 18/25/6
f 1/43/6 27/36/6 3/2/6
f 4/1/1 1/43/1 3/2/1
f 5/4/2 4/1/2 32/3/2
f 8/6/3 7/44/3 5/4/3
f 25/35/3 2/34/3 5/4/3
f 5/4/3 7/44/3 9/7/3
f 31/45/3 8/6/3 6/5/3
f 31/45/3 6/5/3 27/36/3
f 27/36/3 24/33/3 26/8/3
f 28/9/3 25/35/3 5/4/3
f 31/45/3 27/36/3 26/8/3
f 28/9/3 5/4/3 9/7/3
f 9/7/3 31/45/3 26/8/3
f 10/10/2 7/14/2 8/11/2
f 10/10/4 12/41/4 9/13/4
f 11/15/1 15/22/1 13/16/1
f 21/28/1 19/27/1 15/22/1
f 15/22/1 11/15/1 30/18/1
f 12/46/1 10/17/1 13/16/1
f 12/46/1 13/16/1 16/47/1
f 16/47/1 22/26/1 29/19/1
f 23/20/1 21/28/1 15/22/1
f 12/46/1 16/47/1 29/19/1
f 23/20/1 15/22/1 30/18/1
f 30/18/1 12/46/1 29/19/1
f 14/21/2 13/16/2 15/22/2
f 20/23/3 18/25/3 17/24/3
f 15/22/5 19/27/5 18/25/5
f 22/26/1 16/47/1 19/27/1
f 24/29/6 25/48/6 22/30/6
f 21/31/5 23/38/5 26/32/5
f 24/33/3 27/36/3 2/34/3
f 32/3/5 3/2/5 27/36/5
f 29/37/2 28/39/2 26/32/2
f 22/30/4 25/48/4 28/39/4
f 31/40/6 9/13/6 12/41/6
f 11/12/5 8/11/5 31/40/5
f 5/4/4 2/34/4 1/43/4
f 17/24/4 16/47/4 13/16/4
f 19/27/6 16/47/6 17/24/6
f 1/43/6 2/34/6 27/36/6
