{
	"asset":{
		"generator":"Khronos glTF Blender I/O v3.6.27",
		"version":"2.0"
	},
	"scene":0,
	"scenes":[
		{
			"name":"Scene",
			"nodes":[
				0,
				1,
				2,
				3,
				4,
				5
			]
		}
	],
	"nodes":[
		{
			"mesh":0,
			"name":"\u6a4b"
		},
		{
			"mesh":1,
			"name":"\u5730\u76e4"
		},
		{
			"mesh":2,
			"name":"\u753a"
		},
		{
			"mesh":3,
			"name":"\u5854"
		},
		{
			"mesh":4,
			"name":"\u5730\u9762"
		},
		{
			"mesh":5,
			"name":"\u5186\u67f1"
		}
	],
	"materials":[
		{
			"doubleSided":true,
			"name":"\u30de\u30c6\u30ea\u30a2\u30eb",
			"pbrMetallicRoughness":{
				"baseColorTexture":{
					"index":0
				},
				"metallicFactor":0,
				"roughnessFactor":0.5
			}
		},
		{
			"doubleSided":true,
			"name":"\u30de\u30c6\u30ea\u30a2\u30eb.001",
			"pbrMetallicRoughness":{
				"baseColorTexture":{
					"index":1
				},
				"metallicFactor":0,
				"roughnessFactor":0.5
			}
		},
		{
			"doubleSided":true,
			"name":"\u30de\u30c6\u30ea\u30a2\u30eb.004",
			"pbrMetallicRoughness":{
				"baseColorFactor":[
					0.800000011920929,
					0.800000011920929,
					0.800000011920929,
					1
				],
				"metallicFactor":0,
				"roughnessFactor":0.5
			}
		},
		{
			"doubleSided":true,
			"name":"\u30de\u30c6\u30ea\u30a2\u30eb.005",
			"pbrMetallicRoughness":{
				"baseColorFactor":[
					0.7223747968673706,
					0.17600423097610474,
					0,
					1
				],
				"metallicFactor":0,
				"roughnessFactor":0.5
			}
		},
		{
			"doubleSided":true,
			"name":"\u30de\u30c6\u30ea\u30a2\u30eb.006",
			"pbrMetallicRoughness":{
				"baseColorFactor":[
					0.007788792252540588,
					0,
					0.08686001598834991,
					1
				],
				"metallicFactor":0,
				"roughnessFactor":0.5
			}
		},
		{
			"doubleSided":true,
			"name":"\u30de\u30c6\u30ea\u30a2\u30eb.002",
			"pbrMetallicRoughness":{
				"baseColorFactor":[
					0.800000011920929,
					0.800000011920929,
					0.800000011920929,
					1
				],
				"metallicFactor":0,
				"roughnessFactor":0.5
			}
		}
	],
	"meshes":[
		{
			"name":"\u7acb\u65b9\u4f53",
			"primitives":[
				{
					"attributes":{
						"POSITION":0,
						"NORMAL":1,
						"TEXCOORD_0":2
					},
					"indices":3,
					"material":0
				}
			]
		},
		{
			"name":"\u7acb\u65b9\u4f53.001",
			"primitives":[
				{
					"attributes":{
						"POSITION":4,
						"NORMAL":5,
						"TEXCOORD_0":6
					},
					"indices":7,
					"material":1
				}
			]
		},
		{
			"name":"\u5e73\u9762.001",
			"primitives":[
				{
					"attributes":{
						"POSITION":8,
						"NORMAL":9,
						"TEXCOORD_0":10
					},
					"indices":11,
					"material":2
				}
			]
		},
		{
			"name":"\u5186\u67f1.001",
			"primitives":[
				{
					"attributes":{
						"POSITION":12,
						"NORMAL":13,
						"TEXCOORD_0":14
					},
					"indices":15,
					"material":3
				}
			]
		},
		{
			"name":"\u5e73\u9762.002",
			"primitives":[
				{
					"attributes":{
						"POSITION":16,
						"NORMAL":17,
						"TEXCOORD_0":18
					},
					"indices":19,
					"material":4
				}
			]
		},
		{
			"name":"\u5186\u67f1.002",
			"primitives":[
				{
					"attributes":{
						"POSITION":20,
						"NORMAL":21,
						"TEXCOORD_0":22
					},
					"indices":23,
					"material":5
				}
			]
		}
	],
	"textures":[
		{
			"sampler":0,
			"source":0
		},
		{
			"sampler":0,
			"source":1
		}
	],
	"images":[
		{
			"mimeType":"image/png",
			"name":"railColor",
			"uri":"railColor.png"
		},
		{
			"mimeType":"image/png",
			"name":"ground",
			"uri":"ground.png"
		}
	],
	"accessors":[
		{
			"bufferView":0,
			"componentType":5126,
			"count":71570,
			"max":[
				1562.41552734375,
				101.17269134521484,
				291.7931213378906
			],
			"min":[
				-1637.58447265625,
				-100.99869537353516,
				248.18911743164062
			],
			"type":"VEC3"
		},
		{
			"bufferView":1,
			"componentType":5126,
			"count":71570,
			"type":"VEC3"
		},
		{
			"bufferView":2,
			"componentType":5126,
			"count":71570,
			"type":"VEC2"
		},
		{
			"bufferView":3,
			"componentType":5125,
			"count":167040,
			"type":"SCALAR"
		},
		{
			"bufferView":4,
			"componentType":5126,
			"count":593,
			"max":[
				1216.715087890625,
				209.31329345703125,
				2659.50048828125
			],
			"min":[
				-3142.341796875,
				-452.1810302734375,
				-3261.2822265625
			],
			"type":"VEC3"
		},
		{
			"bufferView":5,
			"componentType":5126,
			"count":593,
			"type":"VEC3"
		},
		{
			"bufferView":6,
			"componentType":5126,
			"count":593,
			"type":"VEC2"
		},
		{
			"bufferView":7,
			"componentType":5123,
			"count":2085,
			"type":"SCALAR"
		},
		{
			"bufferView":8,
			"componentType":5126,
			"count":2092,
			"max":[
				1149.902587890625,
				819.3381958007812,
				-1276.69482421875
			],
			"min":[
				-650.097412109375,
				59.42971420288086,
				-3076.69482421875
			],
			"type":"VEC3"
		},
		{
			"bufferView":9,
			"componentType":5126,
			"count":2092,
			"type":"VEC3"
		},
		{
			"bufferView":10,
			"componentType":5126,
			"count":2092,
			"type":"VEC2"
		},
		{
			"bufferView":11,
			"componentType":5123,
			"count":8514,
			"type":"SCALAR"
		},
		{
			"bufferView":12,
			"componentType":5126,
			"count":4148,
			"max":[
				-1384.26708984375,
				2299.87451171875,
				-1464.5859375
			],
			"min":[
				-2877.04443359375,
				179.87452697753906,
				-2957.36328125
			],
			"type":"VEC3"
		},
		{
			"bufferView":13,
			"componentType":5126,
			"count":4148,
			"type":"VEC3"
		},
		{
			"bufferView":14,
			"componentType":5126,
			"count":4148,
			"type":"VEC2"
		},
		{
			"bufferView":15,
			"componentType":5123,
			"count":8154,
			"type":"SCALAR"
		},
		{
			"bufferView":16,
			"componentType":5126,
			"count":4,
			"max":[
				2000,
				-78.92748260498047,
				2000
			],
			"min":[
				-2000,
				-78.92748260498047,
				-2000
			],
			"type":"VEC3"
		},
		{
			"bufferView":17,
			"componentType":5126,
			"count":4,
			"type":"VEC3"
		},
		{
			"bufferView":18,
			"componentType":5126,
			"count":4,
			"type":"VEC2"
		},
		{
			"bufferView":19,
			"componentType":5123,
			"count":6,
			"type":"SCALAR"
		},
		{
			"bufferView":20,
			"componentType":5126,
			"count":6016,
			"max":[
				170,
				104,
				170
			],
			"min":[
				-170,
				-3,
				-170
			],
			"type":"VEC3"
		},
		{
			"bufferView":21,
			"componentType":5126,
			"count":6016,
			"type":"VEC3"
		},
		{
			"bufferView":22,
			"componentType":5126,
			"count":6016,
			"type":"VEC2"
		},
		{
			"bufferView":23,
			"componentType":5123,
			"count":14388,
			"type":"SCALAR"
		}
	],
	"bufferViews":[
		{
			"buffer":0,
			"byteLength":858840,
			"byteOffset":0,
			"target":34962
		},
		{
			"buffer":0,
			"byteLength":858840,
			"byteOffset":858840,
			"target":34962
		},
		{
			"buffer":0,
			"byteLength":572560,
			"byteOffset":1717680,
			"target":34962
		},
		{
			"buffer":0,
			"byteLength":668160,
			"byteOffset":2290240,
			"target":34963
		},
		{
			"buffer":0,
			"byteLength":7116,
			"byteOffset":2958400,
			"target":34962
		},
		{
			"buffer":0,
			"byteLength":7116,
			"byteOffset":2965516,
			"target":34962
		},
		{
			"buffer":0,
			"byteLength":4744,
			"byteOffset":2972632,
			"target":34962
		},
		{
			"buffer":0,
			"byteLength":4170,
			"byteOffset":2977376,
			"target":34963
		},
		{
			"buffer":0,
			"byteLength":25104,
			"byteOffset":2981548,
			"target":34962
		},
		{
			"buffer":0,
			"byteLength":25104,
			"byteOffset":3006652,
			"target":34962
		},
		{
			"buffer":0,
			"byteLength":16736,
			"byteOffset":3031756,
			"target":34962
		},
		{
			"buffer":0,
			"byteLength":17028,
			"byteOffset":3048492,
			"target":34963
		},
		{
			"buffer":0,
			"byteLength":49776,
			"byteOffset":3065520,
			"target":34962
		},
		{
			"buffer":0,
			"byteLength":49776,
			"byteOffset":3115296,
			"target":34962
		},
		{
			"buffer":0,
			"byteLength":33184,
			"byteOffset":3165072,
			"target":34962
		},
		{
			"buffer":0,
			"byteLength":16308,
			"byteOffset":3198256,
			"target":34963
		},
		{
			"buffer":0,
			"byteLength":48,
			"byteOffset":3214564,
			"target":34962
		},
		{
			"buffer":0,
			"byteLength":48,
			"byteOffset":3214612,
			"target":34962
		},
		{
			"buffer":0,
			"byteLength":32,
			"byteOffset":3214660,
			"target":34962
		},
		{
			"buffer":0,
			"byteLength":12,
			"byteOffset":3214692,
			"target":34963
		},
		{
			"buffer":0,
			"byteLength":72192,
			"byteOffset":3214704,
			"target":34962
		},
		{
			"buffer":0,
			"byteLength":72192,
			"byteOffset":3286896,
			"target":34962
		},
		{
			"buffer":0,
			"byteLength":48128,
			"byteOffset":3359088,
			"target":34962
		},
		{
			"buffer":0,
			"byteLength":28776,
			"byteOffset":3407216,
			"target":34963
		}
	],
	"samplers":[
		{
			"magFilter":9729,
			"minFilter":9987
		}
	],
	"buffers":[
		{
			"byteLength":3435992,
			"uri":"stage.bin"
		}
	]
}
