{
	"asset":{
		"generator":"Khronos glTF Blender I/O v3.6.27",
		"version":"2.0"
	},
	"scene":0,
	"scenes":[
		{
			"name":"Scene",
			"nodes":[
				0
			]
		}
	],
	"nodes":[
		{
			"mesh":0,
			"name":"\u98db\u884c\u6a5f"
		}
	],
	"materials":[
		{
			"doubleSided":true,
			"name":"\u30de\u30c6\u30ea\u30a2\u30eb",
			"pbrMetallicRoughness":{
				"baseColorTexture":{
					"index":0
				},
				"metallicFactor":0,
				"roughnessFactor":0.5
			}
		}
	],
	"meshes":[
		{
			"name":"\u5186\u67f1",
			"primitives":[
				{
					"attributes":{
						"POSITION":0,
						"NORMAL":1,
						"TEXCOORD_0":2
					},
					"indices":3,
					"material":0
				}
			]
		}
	],
	"textures":[
		{
			"sampler":0,
			"source":0
		}
	],
	"images":[
		{
			"mimeType":"image/png",
			"name":"airplaneColor",
			"uri":"airplaneColor.png"
		}
	],
	"accessors":[
		{
			"bufferView":0,
			"componentType":5126,
			"count":3548,
			"max":[
				20.382976531982422,
				6.0755414962768555,
				27.465015411376953
			],
			"min":[
				-21.792848587036133,
				-3.6315321922302246,
				-27.465015411376953
			],
			"type":"VEC3"
		},
		{
			"bufferView":1,
			"componentType":5126,
			"count":3548,
			"type":"VEC3"
		},
		{
			"bufferView":2,
			"componentType":5126,
			"count":3548,
			"type":"VEC2"
		},
		{
			"bufferView":3,
			"componentType":5123,
			"count":6660,
			"type":"SCALAR"
		}
	],
	"bufferViews":[
		{
			"buffer":0,
			"byteLength":42576,
			"byteOffset":0,
			"target":34962
		},
		{
			"buffer":0,
			"byteLength":42576,
			"byteOffset":42576,
			"target":34962
		},
		{
			"buffer":0,
			"byteLength":28384,
			"byteOffset":85152,
			"target":34962
		},
		{
			"buffer":0,
			"byteLength":13320,
			"byteOffset":113536,
			"target":34963
		}
	],
	"samplers":[
		{
			"magFilter":9729,
			"minFilter":9987
		}
	],
	"buffers":[
		{
			"byteLength":126856,
			"uri":"airplane.bin"
		}
	]
}
