{
	"asset":{
		"generator":"Khronos glTF Blender I/O v3.6.27",
		"version":"2.0"
	},
	"scene":0,
	"scenes":[
		{
			"name":"Scene",
			"nodes":[
				0
			]
		}
	],
	"nodes":[
		{
			"mesh":0,
			"name":"\u6b6f\u8eca\u5c0f.002",
			"scale":[
				0.3499999940395355,
				0.3499999940395355,
				0.3499999940395355
			],
			"translation":[
				-0.018217677250504494,
				2.9904940128326416,
				0.5354491472244263
			]
		}
	],
	"materials":[
		{
			"doubleSided":true,
			"name":"Material",
			"pbrMetallicRoughness":{
				"baseColorTexture":{
					"index":0
				},
				"metallicFactor":0,
				"roughnessFactor":0.5
			}
		}
	],
	"meshes":[
		{
			"name":"\u5186\u67f1.092",
			"primitives":[
				{
					"attributes":{
						"POSITION":0,
						"NORMAL":1,
						"TEXCOORD_0":2,
						"TEXCOORD_1":3
					},
					"indices":4,
					"material":0
				}
			]
		}
	],
	"textures":[
		{
			"sampler":0,
			"source":0
		}
	],
	"images":[
		{
			"mimeType":"image/png",
			"name":"hammer",
			"uri":"hammer.png"
		}
	],
	"accessors":[
		{
			"bufferView":0,
			"componentType":5126,
			"count":16416,
			"max":[
				0.5236873626708984,
				14.051004409790039,
				1.0672047138214111
			],
			"min":[
				-0.5231080651283264,
				-2.918107509613037,
				-1.8495432138442993
			],
			"type":"VEC3"
		},
		{
			"bufferView":1,
			"componentType":5126,
			"count":16416,
			"type":"VEC3"
		},
		{
			"bufferView":2,
			"componentType":5126,
			"count":16416,
			"type":"VEC2"
		},
		{
			"bufferView":3,
			"componentType":5126,
			"count":16416,
			"type":"VEC2"
		},
		{
			"bufferView":4,
			"componentType":5123,
			"count":29670,
			"type":"SCALAR"
		}
	],
	"bufferViews":[
		{
			"buffer":0,
			"byteLength":196992,
			"byteOffset":0,
			"target":34962
		},
		{
			"buffer":0,
			"byteLength":196992,
			"byteOffset":196992,
			"target":34962
		},
		{
			"buffer":0,
			"byteLength":131328,
			"byteOffset":393984,
			"target":34962
		},
		{
			"buffer":0,
			"byteLength":131328,
			"byteOffset":525312,
			"target":34962
		},
		{
			"buffer":0,
			"byteLength":59340,
			"byteOffset":656640,
			"target":34963
		}
	],
	"samplers":[
		{
			"magFilter":9729,
			"minFilter":9987
		}
	],
	"buffers":[
		{
			"byteLength":715980,
			"uri":"Sword.bin"
		}
	]
}
