# Blender 3.6.0
# www.blender.org
mtllib enemyDuct.mtl
o ダクト
v 0.450000 0.019175 -0.077585
v 0.450000 0.019175 0.172176
v 0.216667 0.019175 -0.077585
v 0.450000 0.251117 -0.077585
v 0.216667 0.251117 -0.077585
v 0.450000 0.401602 -0.145139
v 0.216667 0.401602 -0.145139
v 0.450000 0.403329 -0.293103
v 0.216667 0.403329 -0.293103
v 0.450000 0.659728 -0.288820
v 0.433184 0.420142 -0.292822
v 0.233482 0.420142 -0.292822
v 0.433184 0.642914 -0.289101
v 0.433184 0.419515 -0.255242
v 0.233482 0.419515 -0.255242
v 0.433184 0.642287 -0.251521
v 0.233482 0.642287 -0.251521
v 0.233482 0.642914 -0.289101
v 0.216667 0.659728 -0.288820
v 0.450000 0.658000 -0.140857
v 0.216667 0.658000 -0.140857
v 0.450000 0.513722 0.104621
v 0.216667 0.513722 0.104621
v 0.450000 0.363238 0.172176
v 0.216667 0.363238 0.172176
v 0.216667 0.019175 0.172176
v 0.166667 0.019175 0.249035
v 0.500000 0.019175 0.249035
v -0.166667 0.019175 0.249035
v 0.116667 0.019175 0.172176
v -0.116667 0.019175 0.172176
v 0.116667 0.019175 -0.077585
v 0.116667 0.363238 0.172176
v -0.116667 0.363238 0.172176
v 0.116667 0.513722 0.104621
v -0.116667 0.513722 0.104621
v 0.116667 0.658000 -0.140857
v -0.116667 0.658000 -0.140857
v 0.116667 0.659728 -0.288820
v -0.116667 0.659728 -0.288820
v 0.116667 0.403329 -0.293103
v -0.116667 0.403329 -0.293103
v 0.116667 0.401602 -0.145139
v 0.099851 0.420142 -0.292822
v -0.099851 0.420142 -0.292822
v 0.099851 0.642914 -0.289101
v 0.099851 0.419515 -0.255242
v -0.099851 0.419515 -0.255242
v 0.099851 0.642287 -0.251521
v -0.099851 0.642287 -0.251521
v -0.099851 0.642914 -0.289101
v -0.116667 0.401602 -0.145139
v 0.116667 0.251117 -0.077585
v -0.116667 0.251117 -0.077585
v -0.116667 0.019175 -0.077585
v -0.500000 0.019175 0.249035
v -0.216667 0.019175 0.172176
v -0.450000 0.019175 0.172176
v -0.216667 0.019175 -0.077585
v -0.216667 0.363238 0.172176
v -0.450000 0.363238 0.172176
v -0.216667 0.513722 0.104621
v -0.450000 0.513722 0.104621
v -0.216667 0.658000 -0.140857
v -0.450000 0.658000 -0.140857
v -0.216667 0.659728 -0.288820
v -0.450000 0.659728 -0.288820
v -0.216667 0.403329 -0.293103
v -0.450000 0.403329 -0.293103
v -0.216667 0.401602 -0.145139
v -0.233482 0.420142 -0.292822
v -0.433184 0.420142 -0.292822
v -0.233482 0.642914 -0.289101
v -0.233482 0.419515 -0.255242
v -0.433184 0.419515 -0.255242
v -0.233482 0.642287 -0.251521
v -0.433184 0.642287 -0.251521
v -0.433184 0.642914 -0.289101
v -0.450000 0.401602 -0.145139
v -0.216667 0.251117 -0.077585
v -0.450000 0.251117 -0.077585
v -0.450000 0.019175 -0.077585
v -0.500000 -0.682662 0.249035
v -0.500000 0.019175 -0.154445
v -0.500000 -0.682662 -0.154445
v -0.166667 0.019175 -0.154445
v 0.166667 0.019175 -0.154445
v 0.500000 0.019175 -0.154445
v 0.500000 -0.682662 -0.154445
v 0.500000 -0.682662 0.249035
vn -0.0000 1.0000 -0.0000
vn 1.0000 -0.0000 -0.0000
vn -0.0000 -0.0000 -1.0000
vn -0.0000 -0.4095 -0.9123
vn -0.0000 -0.9999 -0.0117
vn -0.0000 0.0167 -0.9999
vn -0.0000 0.9999 0.0167
vn -1.0000 -0.0000 -0.0000
vn -0.0000 -0.9999 -0.0167
vn -0.0000 0.9999 0.0117
vn -0.0000 0.8621 0.5067
vn -0.0000 0.4095 0.9123
vn -0.0000 -0.0000 1.0000
vn -0.0000 -1.0000 -0.0000
vt 0.573740 0.748456
vt 0.540352 0.769855
vt 0.547650 0.762810
vt 0.410954 0.886982
vt 0.399135 0.922088
vt 0.374709 0.874379
vt 0.375114 0.862611
vt 0.405867 0.862643
vt 0.376672 0.864738
vt 0.367610 0.836539
vt 0.424320 0.835597
vt 0.386063 0.809494
vt 0.440874 0.811336
vt 0.439998 0.806698
vt 0.402617 0.785233
vt 0.407256 0.784357
vt 0.319782 0.925655
vt 0.319061 0.922783
vt 0.343990 0.937706
vt 0.444203 0.800535
vt 0.350111 0.853709
vt 0.359657 0.910298
vt 0.350111 0.910298
vt 0.175805 0.918162
vt 0.226527 0.974751
vt 0.175805 0.974751
vt 0.369582 0.904431
vt 0.360036 0.853709
vt 0.369582 0.853709
vt 0.349733 0.853709
vt 0.340187 0.910298
vt 0.340187 0.853709
vt 0.353453 0.921897
vt 0.328525 0.906974
vt 0.371664 0.891477
vt 0.346735 0.876554
vt 0.365344 0.867653
vt 0.375161 0.867151
vt 0.372969 0.864862
vt 0.372970 0.864856
vt 0.302661 0.836946
vt 0.344362 0.837969
vt 0.685800 0.905896
vt 0.701060 0.880325
vt 0.702827 0.889457
vt 0.676737 0.903810
vt 0.652413 0.927295
vt 0.578642 0.899566
vt 0.661477 0.929380
vt 0.678503 0.912941
vt 0.371099 0.863106
vt 0.359771 0.863684
vt 0.368570 0.860464
vt 0.412401 0.885989
vt 0.398763 0.926498
vt 0.370577 0.871446
vt 0.338299 0.873955
vt 0.367064 0.891175
vt 0.317285 0.909058
vt 0.346050 0.926277
vt 0.306365 0.927300
vt 0.307197 0.930614
vt 0.335130 0.944519
vt 0.445915 0.793348
vt 0.402781 0.768580
vt 0.408133 0.767569
vt 0.383679 0.796575
vt 0.446926 0.798700
vt 0.427824 0.826696
vt 0.450767 0.786237
vt 0.315374 0.972818
vt 0.327183 0.942578
vt 0.331816 0.945351
vt 0.101268 0.922069
vt 0.151990 0.978658
vt 0.101268 0.978658
vt 0.304423 0.935247
vt 0.290754 0.958081
vt 0.311831 0.933387
vt 0.295388 0.960854
vt 0.362386 0.827783
vt 0.406531 0.857903
vt 0.371044 0.857867
vt 0.372843 0.860321
vt 0.335560 0.829432
vt 0.368571 0.860457
vt 0.637153 0.952865
vt 0.654180 0.936426
vt 0.366130 0.857371
vt 0.353223 0.858030
vt 0.363249 0.854361
vt 0.413186 0.883442
vt 0.397648 0.929595
vt 0.365535 0.866873
vt 0.328760 0.869732
vt 0.361532 0.889351
vt 0.304819 0.909725
vt 0.337592 0.929344
vt 0.292377 0.930508
vt 0.293325 0.934284
vt 0.325150 0.950127
vt 0.451369 0.777895
vt 0.402226 0.749676
vt 0.408323 0.748524
vt 0.380463 0.781571
vt 0.452521 0.783993
vt 0.430758 0.815888
vt 0.456897 0.769794
vt 0.302641 0.982369
vt 0.316095 0.947915
vt 0.321374 0.951075
vt 0.020871 0.924022
vt 0.071593 0.980611
vt 0.020871 0.980611
vt 0.290165 0.939563
vt 0.274592 0.965578
vt 0.298604 0.937444
vt 0.279871 0.968738
vt 0.356203 0.817127
vt 0.406498 0.851444
vt 0.366068 0.851403
vt 0.368117 0.854198
vt 0.363250 0.854354
vt 0.270816 0.817661
vt 0.325640 0.819007
vt 0.527429 0.949013
vt 0.550216 0.870124
vt 0.525092 0.795426
vt 0.549416 0.771941
vt 0.623186 0.799670
vt 0.674400 0.750223
vt 0.651613 0.829112
vt 0.564676 0.746371
vt 0.547079 0.728145
vt 0.545313 0.719014
vt 0.500769 0.818910
vt 0.472342 0.789468
vt 0.481406 0.791554
vt 0.499002 0.809779
vt 0.516029 0.793340
vt 0.498432 0.775115
vt 0.496666 0.765983
vt 0.505729 0.768069
vt 0.523326 0.786294
vt 0.520989 0.742499
vt 0.530053 0.744585
vt 0.522756 0.751630
vt 0.375167 0.867149
vt 0.431246 0.893701
vt 0.419427 0.928807
vt 0.327589 0.965103
vt 0.326868 0.962231
vt 0.341118 0.938427
vt 0.305533 0.949459
vt 0.302661 0.950180
vt 0.411460 0.778194
vt 0.359657 0.853709
vt 0.226527 0.918162
vt 0.360036 0.904431
vt 0.349733 0.910298
vt 0.312587 0.855331
vt 0.334436 0.819583
vt 0.628089 0.950779
vt 0.371106 0.863103
vt 0.435816 0.893741
vt 0.422178 0.934250
vt 0.287441 0.958913
vt 0.316206 0.976132
vt 0.412985 0.760458
vt 0.310740 0.970045
vt 0.151990 0.922069
vt 0.329042 0.949985
vt 0.298895 0.849467
vt 0.287441 0.828251
vt 0.324106 0.808217
vt 0.366138 0.857369
vt 0.439863 0.892274
vt 0.424325 0.938427
vt 0.270816 0.966526
vt 0.303589 0.986144
vt 0.413851 0.740423
vt 0.297362 0.979209
vt 0.071593 0.924022
vt 0.318214 0.956354
vt 0.283866 0.841832
vt 0.312590 0.794835
vt 0.499002 0.919571
vt 0.702827 0.779665
s 0
usemtl マテリアル
f 88/1/1 32/2/1 3/3/1
f 6/4/2 20/5/2 24/6/2
f 3/7/3 4/8/3 1/9/3
f 5/10/4 6/11/4 4/8/4
f 7/12/5 8/13/5 6/11/5
f 11/14/6 9/15/6 12/16/6
f 18/17/6 19/18/6 10/19/6
f 12/16/7 14/20/7 11/14/7
f 11/21/8 16/22/8 13/23/8
f 17/24/6 14/25/6 15/26/6
f 13/27/9 17/28/9 18/29/9
f 12/30/2 17/31/2 15/32/2
f 20/33/10 19/18/10 21/34/10
f 22/35/11 21/34/11 23/36/11
f 24/6/12 23/36/12 25/37/12
f 2/38/13 25/37/13 26/39/13
f 26/40/8 19/41/8 7/42/8
f 26/43/1 28/44/1 2/45/1
f 27/46/13 29/47/13 83/48/13
f 31/49/1 27/46/1 30/50/1
f 30/51/13 34/52/13 31/53/13
f 43/54/2 37/55/2 33/56/2
f 33/56/12 36/57/12 34/52/12
f 35/58/11 38/59/11 36/57/11
f 37/60/10 40/61/10 38/59/10
f 51/62/6 40/61/6 39/63/6
f 44/64/6 42/65/6 45/66/6
f 52/67/5 41/68/5 43/69/5
f 45/66/7 47/70/7 44/64/7
f 44/71/8 49/72/8 46/73/8
f 50/74/6 47/75/6 48/76/6
f 46/73/9 50/77/9 51/62/9
f 45/78/2 50/79/2 48/80/2
f 54/81/4 43/69/4 53/82/4
f 55/83/3 53/82/3 32/84/3
f 36/57/8 52/85/8 31/86/8
f 58/87/1 29/47/1 57/88/1
f 57/89/13 61/90/13 58/91/13
f 70/92/2 64/93/2 60/94/2
f 60/94/12 63/95/12 61/90/12
f 62/96/11 65/97/11 63/95/11
f 64/98/10 67/99/10 65/97/10
f 78/100/6 67/99/6 66/101/6
f 71/102/6 69/103/6 72/104/6
f 79/105/5 68/106/5 70/107/5
f 72/104/7 74/108/7 71/102/7
f 71/109/8 76/110/8 73/111/8
f 77/112/6 74/113/6 75/114/6
f 73/111/9 77/115/9 78/100/9
f 72/116/2 77/117/2 75/118/2
f 81/119/4 70/107/4 80/120/4
f 82/121/3 80/120/3 59/122/3
f 58/123/8 67/124/8 79/125/8
f 56/126/8 85/127/8 83/48/8
f 86/128/3 87/129/3 89/130/3
f 88/131/2 90/132/2 89/130/2
f 89/130/14 83/48/14 85/127/14
f 1/133/1 2/134/1 28/135/1
f 84/136/1 56/137/1 58/138/1
f 84/136/1 58/138/1 82/139/1
f 86/128/1 84/136/1 82/139/1
f 59/140/1 57/141/1 29/142/1
f 86/128/1 82/139/1 59/140/1
f 87/129/1 86/128/1 59/140/1
f 59/140/1 29/142/1 31/143/1
f 59/140/1 31/143/1 55/144/1
f 88/1/1 87/129/1 59/140/1
f 1/133/1 28/135/1 88/1/1
f 27/145/1 26/146/1 3/3/1
f 3/3/1 1/133/1 88/1/1
f 88/1/1 59/140/1 55/144/1
f 32/2/1 30/147/1 27/145/1
f 88/1/1 55/144/1 32/2/1
f 32/2/1 27/145/1 3/3/1
f 24/6/2 2/148/2 1/9/2
f 24/6/2 1/9/2 4/8/2
f 20/5/2 22/35/2 24/6/2
f 8/149/2 10/150/2 20/5/2
f 24/6/2 4/8/2 6/4/2
f 6/4/2 8/149/2 20/5/2
f 3/7/3 5/10/3 4/8/3
f 5/10/4 7/12/4 6/11/4
f 7/12/5 9/15/5 8/13/5
f 11/14/6 8/13/6 9/15/6
f 8/151/6 11/152/6 13/153/6
f 18/17/6 12/154/6 9/155/6
f 10/19/6 8/151/6 13/153/6
f 18/17/6 9/155/6 19/18/6
f 10/19/6 13/153/6 18/17/6
f 12/16/7 15/156/7 14/20/7
f 11/21/8 14/157/8 16/22/8
f 17/24/6 16/158/6 14/25/6
f 13/27/9 16/159/9 17/28/9
f 12/30/2 18/160/2 17/31/2
f 20/33/10 10/19/10 19/18/10
f 22/35/11 20/33/11 21/34/11
f 24/6/12 22/35/12 23/36/12
f 2/38/13 24/6/13 25/37/13
f 5/10/8 3/7/8 26/40/8
f 26/40/8 25/37/8 23/36/8
f 23/36/8 21/161/8 19/41/8
f 19/41/8 9/162/8 7/42/8
f 7/42/8 5/10/8 26/40/8
f 26/40/8 23/36/8 19/41/8
f 26/43/1 27/46/1 28/44/1
f 83/48/13 90/132/13 28/44/13
f 83/48/13 28/44/13 27/46/13
f 29/47/13 56/163/13 83/48/13
f 31/49/1 29/47/1 27/46/1
f 30/51/13 33/56/13 34/52/13
f 33/56/2 30/164/2 32/84/2
f 33/56/2 32/84/2 53/82/2
f 37/55/2 35/58/2 33/56/2
f 41/165/2 39/166/2 37/55/2
f 33/56/2 53/82/2 43/54/2
f 43/54/2 41/165/2 37/55/2
f 33/56/12 35/58/12 36/57/12
f 35/58/11 37/60/11 38/59/11
f 37/60/10 39/63/10 40/61/10
f 51/62/6 45/78/6 42/167/6
f 39/63/6 41/168/6 44/71/6
f 39/63/6 44/71/6 46/73/6
f 51/62/6 42/167/6 40/61/6
f 39/63/6 46/73/6 51/62/6
f 44/64/6 41/68/6 42/65/6
f 52/67/5 42/65/5 41/68/5
f 45/66/7 48/169/7 47/70/7
f 44/71/8 47/170/8 49/72/8
f 50/74/6 49/171/6 47/75/6
f 46/73/9 49/172/9 50/77/9
f 45/78/2 51/62/2 50/79/2
f 54/81/4 52/67/4 43/69/4
f 55/83/3 54/81/3 53/82/3
f 31/86/8 34/52/8 36/57/8
f 36/57/8 38/173/8 40/174/8
f 40/174/8 42/175/8 52/85/8
f 54/81/8 55/83/8 31/86/8
f 36/57/8 40/174/8 52/85/8
f 52/85/8 54/81/8 31/86/8
f 58/87/1 56/163/1 29/47/1
f 57/89/13 60/94/13 61/90/13
f 60/94/2 57/176/2 59/122/2
f 60/94/2 59/122/2 80/120/2
f 64/93/2 62/96/2 60/94/2
f 68/177/2 66/178/2 64/93/2
f 60/94/2 80/120/2 70/92/2
f 70/92/2 68/177/2 64/93/2
f 60/94/12 62/96/12 63/95/12
f 62/96/11 64/98/11 65/97/11
f 64/98/10 66/101/10 67/99/10
f 78/100/6 72/116/6 69/179/6
f 66/101/6 68/180/6 71/109/6
f 66/101/6 71/109/6 73/111/6
f 78/100/6 69/179/6 67/99/6
f 66/101/6 73/111/6 78/100/6
f 71/102/6 68/106/6 69/103/6
f 79/105/5 69/103/5 68/106/5
f 72/104/7 75/181/7 74/108/7
f 71/109/8 74/182/8 76/110/8
f 77/112/6 76/183/6 74/113/6
f 73/111/9 76/184/9 77/115/9
f 72/116/2 78/100/2 77/117/2
f 81/119/4 79/105/4 70/107/4
f 82/121/3 81/119/3 80/120/3
f 81/119/8 82/121/8 58/123/8
f 58/123/8 61/90/8 63/95/8
f 63/95/8 65/185/8 67/124/8
f 67/124/8 69/186/8 79/125/8
f 79/125/8 81/119/8 58/123/8
f 58/123/8 63/95/8 67/124/8
f 56/126/8 84/187/8 85/127/8
f 89/130/3 85/127/3 84/136/3
f 89/130/3 84/136/3 86/128/3
f 87/129/3 88/1/3 89/130/3
f 88/131/2 28/188/2 90/132/2
f 89/130/14 90/132/14 83/48/14
